%
M48
M72
T01C0.0118
T02C0.0157
T03C0.0276
T04C0.0354
T05C0.0984
T06C0.1024
%
T01
X1484Y1922
X1484Y2316
X1484Y2710
X1484Y3103
X1484Y3497
X1484Y3891
X1484Y4285
X1484Y4678
X1484Y5072
X1484Y5466
X1484Y5859
X1484Y6253
X2236Y6336
X2232Y5954
X2437Y5521
X3067Y6269
X3343Y6269
X3846Y6450
X4240Y6450
X4732Y6702
X4240Y7080
X3846Y7080
X3539Y7450
X3846Y7828
X4240Y8025
X4083Y8418
X3768Y8418
X3335Y8418
X2980Y8418
X2437Y8355
X2201Y7962
X2595Y7450
X3067Y7096
X1689Y7277
X1484Y7434
X1547Y8359
X2004Y8592
X2240Y9458
X1484Y9796
X1484Y10190
X1484Y10584
X1484Y10977
X1484Y11371
X1484Y11765
X1484Y12159
X1484Y12552
X1484Y12946
X1484Y13340
X1484Y13733
X1484Y14127
X1484Y15308
X1484Y15702
X1484Y16096
X1484Y16489
X1484Y16883
X1484Y17277
X1484Y17670
X3098Y16766
X3421Y17135
X4642Y18474
X5106Y19265
X5224Y19836
X4831Y19836
X4437Y19836
X4043Y19836
X3650Y19836
X3256Y19836
X2862Y19836
X5618Y19836
X6012Y19836
X6406Y20033
X6799Y20033
X7193Y20033
X7587Y20033
X7980Y20033
X8374Y20033
X8768Y20033
X9161Y20033
X9555Y20033
X9949Y20033
X10343Y20033
X10736Y20033
X11130Y20033
X11524Y20033
X11917Y20033
X12311Y20033
X12705Y20033
X13098Y20033
X13492Y20033
X13886Y19836
X14280Y19836
X14673Y19836
X15067Y19836
X15461Y19836
X15854Y19836
X16248Y19836
X16642Y19836
X17035Y19836
X17429Y19836
X17823Y19836
X18217Y19836
X18610Y19836
X19004Y19836
X19398Y19836
X19791Y19836
X21445Y18300
X21445Y17907
X21445Y17513
X21445Y17119
X21445Y16725
X21445Y16332
X21445Y15938
X21445Y15544
X21445Y15151
X21445Y14757
X21445Y14363
X21445Y13970
X21445Y13576
X21445Y13182
X21445Y12788
X21445Y12395
X20705Y10442
X21177Y10285
X21445Y9836
X21445Y9442
X21445Y9009
X21445Y8615
X21445Y8222
X21445Y7828
X21445Y7434
X21445Y7040
X21445Y6647
X21445Y6253
X21445Y5859
X21445Y5466
X21445Y5072
X21445Y4678
X21445Y4285
X21445Y3891
X21445Y3497
X21445Y3103
X21445Y2670
X21445Y2277
X21445Y1922
X19988Y544
X19595Y544
X19193Y517
X19287Y875
X19366Y1387
X19602Y1387
X19445Y1820
X19287Y2056
X19287Y2332
X18933Y2214
X18386Y1599
X17752Y1938
X17398Y1781
X17634Y1426
X17713Y914
X18106Y954
X18020Y505
X18413Y544
X18807Y513
X17626Y505
X17232Y505
X17004Y914
X16602Y781
X16445Y544
X16051Y544
X15658Y544
X15264Y544
X14870Y544
X14476Y544
X14083Y544
X13689Y544
X13295Y544
X12902Y544
X12508Y544
X12114Y544
X11721Y544
X11327Y544
X10933Y544
X10539Y544
X10146Y544
X9752Y544
X9358Y544
X8965Y544
X8571Y544
X8177Y544
X7783Y544
X7390Y544
X7783Y1332
X7783Y1922
X7622Y2332
X8571Y2513
X8571Y1922
X8571Y1332
X9358Y1332
X9358Y1922
X9358Y2513
X9957Y2568
X9358Y3103
X8571Y3103
X8768Y3891
X9358Y3891
X9949Y3891
X9949Y4875
X10272Y5285
X10114Y5718
X9528Y5218
X9209Y5489
X8736Y5914
X9012Y5946
X8421Y5639
X7988Y5639
X7988Y5206
X8382Y5206
X7346Y5340
X6453Y5875
X6098Y5678
X5508Y5875
X5350Y6544
X5823Y6544
X5823Y7017
X6138Y7253
X6571Y7017
X6461Y6682
X7161Y6899
X7980Y7474
X8374Y7474
X8374Y8418
X7980Y8418
X7587Y8418
X7193Y8418
X7398Y9418
X5941Y9812
X5862Y10363
X4839Y10954
X4406Y10245
X4248Y10009
X4760Y9733
X3579Y10324
X3067Y10166
X2595Y10363
X2831Y11584
X4721Y12292
X4721Y12607
X5114Y12568
X5862Y12174
X5980Y13316
X4854Y14300
X5169Y15757
X5665Y16466
X5429Y16741
X5902Y16741
X5661Y17214
X6257Y18174
X5929Y18355
X7870Y16970
X8579Y17056
X8264Y16111
X7949Y16072
X6032Y15757
X7437Y13710
X7909Y13080
X8067Y12686
X8087Y12371
X7752Y12292
X7909Y12056
X7854Y11781
X8091Y11662
X8079Y11210
X7831Y11190
X8106Y10954
X8906Y10966
X9130Y11072
X9484Y11072
X9957Y11111
X9484Y11938
X9209Y11938
X8933Y11938
X9563Y12568
X9524Y12844
X9957Y13670
X9976Y14286
X11091Y12946
X12161Y12450
X12122Y11741
X12634Y11781
X13815Y11977
X14091Y12017
X14091Y11741
X14681Y12411
X14996Y12214
X14961Y11749
X15823Y12292
X16177Y12686
X16768Y12725
X17043Y12765
X17280Y13434
X17201Y13670
X17358Y14477
X17358Y15009
X17555Y15757
X17319Y16269
X17634Y16505
X17201Y16702
X17358Y17883
X19406Y16033
X19406Y15324
X18579Y15324
X18618Y14340
X19406Y14340
X18614Y13123
X18224Y12607
X17870Y12371
X17870Y12056
X17870Y11741
X17870Y11426
X17870Y10954
X16965Y11190
X16138Y10521
X15941Y10363
X15744Y10521
X15547Y10285
X14996Y10403
X14760Y10285
X14091Y10088
X13815Y10009
X14366Y9210
X14595Y9308
X14776Y9103
X14969Y9300
X15547Y9300
X15772Y9182
X15976Y9340
X16150Y9139
X16610Y9497
X17161Y9497
X17713Y9497
X17752Y8828
X18224Y8828
X17280Y8119
X17516Y7411
X18185Y7529
X19406Y8277
X19799Y7962
X19996Y8552
X19783Y8828
X19772Y9418
X19996Y9694
X19559Y10009
X19681Y10245
X19354Y10993
X18264Y10009
X20539Y8233
X20705Y9025
X18461Y5324
X17870Y4891
X17634Y4733
X17373Y4536
X17398Y3867
X17398Y3556
X18106Y3867
X17658Y2623
X16610Y2804
X16610Y2411
X16610Y2096
X16610Y1820
X16602Y1135
X15461Y1135
X15461Y1725
X15862Y2135
X15508Y2607
X15469Y2883
X15469Y3277
X15469Y3670
X15469Y4064
X14957Y3749
X14878Y3513
X14862Y3985
X13894Y3907
X13894Y4300
X13500Y4300
X13500Y3907
X13500Y4694
X13500Y5088
X13894Y5088
X13894Y4694
X13106Y4694
X12713Y4694
X11846Y4733
X11925Y4162
X11886Y3749
X11571Y3946
X11532Y3001
X10933Y2907
X10933Y2513
X10933Y2119
X11532Y2489
X12476Y2174
X12713Y2607
X12476Y3001
X13122Y3001
X14110Y2962
X14528Y2981
X14350Y2399
X14760Y2135
X14870Y1725
X12949Y2017
X12398Y1229
X10146Y1332
X10146Y1922
X8177Y3891
X6453Y2544
X6602Y2119
X5823Y2214
X5823Y2686
X5350Y2686
X5350Y2214
X4760Y2017
X4724Y2348
X4732Y2611
X4280Y1962
X3264Y1938
X2831Y2725
X3138Y2985
X3453Y2985
X2909Y3513
X2673Y3513
X2673Y3749
X2909Y3749
X2437Y2214
X2417Y1899
X3059Y544
X3453Y544
X4240Y544
X4634Y544
X5028Y544
X5421Y544
X5815Y544
X5618Y1332
X5224Y1332
X5882Y3592
X5232Y3828
X5390Y4222
X3421Y5678
X5354Y7025
X5154Y7599
X5815Y7828
X6012Y8418
X5618Y8418
X5224Y8418
X4437Y8418
X8768Y8418
X9161Y8418
X9555Y8418
X9996Y7844
X9996Y7607
X9445Y7529
X10350Y6938
X10902Y6977
X11768Y6426
X12043Y5954
X12516Y5914
X13311Y5914
X14102Y5914
X14445Y6544
X13894Y7194
X13697Y7348
X13500Y7186
X12949Y7686
X13098Y8418
X12705Y8418
X12311Y8418
X11996Y8418
X11728Y8237
X11484Y8418
X11130Y8418
X10736Y8418
X10343Y8418
X10941Y9379
X11217Y9418
X11374Y9222
X11610Y9379
X11807Y9222
X12004Y9418
X12437Y9418
X14201Y8418
X14760Y7883
X14488Y7832
X14248Y7832
X14563Y7292
X14791Y7631
X15146Y7237
X15461Y7237
X15461Y7592
X15776Y7592
X15776Y7237
X15461Y6647
X15461Y6253
X15862Y5403
X15823Y4930
X16374Y5481
X14878Y5127
X12476Y6702
X12043Y7371
X11890Y5348
X9012Y9379
X12437Y13552
X12673Y13749
X12673Y14143
X12516Y14536
X12673Y14733
X12516Y14930
X12673Y15127
X12476Y15324
X12205Y16123
X11843Y16155
X11610Y16060
X12673Y16938
X12791Y16623
X12476Y17568
X12595Y18040
X11610Y18316
X10823Y17450
X10626Y17253
X10429Y17017
X11020Y17096
X11217Y17253
X11413Y17056
X10311Y18946
X13618Y14733
X13854Y14576
X14051Y14143
X14839Y14930
X14839Y15166
X15299Y14328
X16256Y14418
X16256Y14655
X13815Y12568
X20075Y16387
X19169Y5127
X20705Y4694
X20547Y3749
X19681Y3080
X3146Y14603
T02
X3382Y15836
X5087Y13710
X8016Y15403
X8488Y15403
X7189Y16584
X9906Y17096
X10378Y15403
X10378Y14222
X10378Y13828
X10850Y13828
X10850Y14222
X11323Y14222
X12201Y12844
X12595Y12844
X10732Y12450
X10378Y12450
X13134Y16229
X12937Y18237
X15260Y17765
X15850Y17765
X15850Y16977
X15260Y16977
X15260Y16190
X15850Y16190
X15417Y15324
X17622Y16977
X18409Y16977
X19787Y17174
X20969Y17174
X20969Y15796
X20969Y14615
X20969Y13631
X20969Y12844
X19591Y12844
X19591Y13631
X19787Y14615
X19787Y15088
X18409Y18355
X18409Y18946
X19000Y19143
X19787Y19143
X17622Y18946
X17622Y18355
X15850Y18946
X15260Y18946
T03
X8894Y19025
X8303Y19025
X7713Y19025
X7122Y19025
X6532Y19025
X17555Y6466
X18343Y6466
X20469Y5127
X20469Y4340
X20469Y3277
X20469Y2489
T04
X2996Y15666
X2996Y17399
T05
X6571Y1072
T06
X2083Y1072
X20823Y1052
X20823Y19438
X2063Y19418
M30
