G75*
G70*
%OFA0B0*%
%FSLAX24Y24*%
%IPPOS*%
%LPD*%
%AMOC8*
5,1,8,0,0,1.08239X$1,22.5*
%
%ADD10R,0.0354X0.0315*%
%ADD11R,0.0236X0.0236*%
%ADD12R,0.0581X0.0118*%
%ADD13R,0.0118X0.0581*%
%ADD14R,0.0433X0.0236*%
%ADD15R,0.0945X0.0591*%
%ADD16R,0.0315X0.0354*%
%ADD17R,0.0630X0.0551*%
%ADD18C,0.0100*%
%ADD19C,0.0055*%
%ADD20R,0.0327X0.0248*%
%ADD21C,0.0108*%
%ADD22C,0.0098*%
D10*
X001743Y007922D03*
X002343Y007922D03*
X013318Y007686D03*
X013918Y007686D03*
X017452Y005285D03*
X018052Y005285D03*
X018043Y004379D03*
X018643Y004379D03*
X018643Y001938D03*
X018043Y001938D03*
D11*
X002434Y003040D03*
X002834Y003040D03*
X003264Y002729D03*
X003264Y002329D03*
X003812Y002351D03*
X004212Y002351D03*
X005150Y001859D03*
X005550Y001859D03*
X008261Y006348D03*
X008661Y006348D03*
X009284Y006348D03*
X009684Y006348D03*
X011056Y005914D03*
X011456Y005914D03*
X011456Y005324D03*
X011056Y005324D03*
X011056Y004733D03*
X011456Y004733D03*
X011259Y003946D03*
X010859Y003946D03*
X012749Y003749D03*
X013149Y003749D03*
X013149Y004261D03*
X012749Y004261D03*
X012749Y005088D03*
X013149Y005088D03*
X013303Y006266D03*
X013303Y006666D03*
X014721Y006666D03*
X014721Y006266D03*
X015111Y005718D03*
X015511Y005718D03*
X015550Y005127D03*
X015150Y005127D03*
X015111Y004458D03*
X015511Y004458D03*
X017437Y003319D03*
X017437Y002919D03*
X019327Y003083D03*
X019327Y002683D03*
X017834Y005914D03*
X017434Y005914D03*
X019127Y007489D03*
X019527Y007489D03*
X020548Y007489D03*
X020948Y007489D03*
X020669Y008552D03*
X020269Y008552D03*
X018697Y009061D03*
X018697Y009461D03*
X017952Y010009D03*
X017552Y010009D03*
X017828Y014340D03*
X018228Y014340D03*
X018188Y015324D03*
X017788Y015324D03*
X007243Y007253D03*
X006843Y007253D03*
X006928Y007804D03*
X006528Y007804D03*
X005390Y009455D03*
X005390Y009855D03*
X005590Y012017D03*
X005190Y012017D03*
X005190Y013355D03*
X005590Y013355D03*
X005390Y014218D03*
X005390Y014618D03*
X003028Y007965D03*
X003028Y007565D03*
X002358Y007453D03*
X002358Y007053D03*
X001689Y006981D03*
X001689Y006581D03*
X013303Y002611D03*
X013303Y002211D03*
X014091Y002211D03*
X014091Y002611D03*
D12*
X013086Y011186D03*
X013086Y011383D03*
X013086Y011580D03*
X013086Y011777D03*
X013086Y011974D03*
X013086Y012170D03*
X013086Y012367D03*
X013086Y012564D03*
X013086Y012761D03*
X013086Y012958D03*
X013086Y013155D03*
X013086Y013351D03*
X013086Y013548D03*
X013086Y013745D03*
X013086Y013942D03*
X013086Y014139D03*
X013086Y014336D03*
X013086Y014533D03*
X013086Y014729D03*
X013086Y014926D03*
X013086Y015123D03*
X013086Y015320D03*
X013086Y015517D03*
X013086Y015714D03*
X013086Y015911D03*
X006993Y015911D03*
X006993Y015714D03*
X006993Y015517D03*
X006993Y015320D03*
X006993Y015123D03*
X006993Y014926D03*
X006993Y014729D03*
X006993Y014533D03*
X006993Y014336D03*
X006993Y014139D03*
X006993Y013942D03*
X006993Y013745D03*
X006993Y013548D03*
X006993Y013351D03*
X006993Y013155D03*
X006993Y012958D03*
X006993Y012761D03*
X006993Y012564D03*
X006993Y012367D03*
X006993Y012170D03*
X006993Y011974D03*
X006993Y011777D03*
X006993Y011580D03*
X006993Y011383D03*
X006993Y011186D03*
D13*
X007677Y010502D03*
X007874Y010502D03*
X008071Y010502D03*
X008268Y010502D03*
X008465Y010502D03*
X008661Y010502D03*
X008858Y010502D03*
X009055Y010502D03*
X009252Y010502D03*
X009449Y010502D03*
X009646Y010502D03*
X009843Y010502D03*
X010039Y010502D03*
X010236Y010502D03*
X010433Y010502D03*
X010630Y010502D03*
X010827Y010502D03*
X011024Y010502D03*
X011221Y010502D03*
X011417Y010502D03*
X011614Y010502D03*
X011811Y010502D03*
X012008Y010502D03*
X012205Y010502D03*
X012402Y010502D03*
X012402Y016595D03*
X012205Y016595D03*
X012008Y016595D03*
X011811Y016595D03*
X011614Y016595D03*
X011417Y016595D03*
X011221Y016595D03*
X011024Y016595D03*
X010827Y016595D03*
X010630Y016595D03*
X010433Y016595D03*
X010236Y016595D03*
X010039Y016595D03*
X009843Y016595D03*
X009646Y016595D03*
X009449Y016595D03*
X009252Y016595D03*
X009055Y016595D03*
X008858Y016595D03*
X008661Y016595D03*
X008465Y016595D03*
X008268Y016595D03*
X008071Y016595D03*
X007874Y016595D03*
X007677Y016595D03*
D14*
X005587Y012883D03*
X005587Y012489D03*
D15*
X003362Y012686D03*
D16*
X003165Y012017D03*
X002417Y012017D03*
X002791Y011190D03*
X002791Y013355D03*
X002417Y014182D03*
X003165Y014182D03*
X002437Y016166D03*
X002437Y016766D03*
X014130Y006884D03*
X014130Y006284D03*
X018028Y003419D03*
X018028Y002819D03*
X018776Y002662D03*
X018776Y003262D03*
X019406Y003764D03*
X019406Y004364D03*
X020154Y010678D03*
X020528Y011505D03*
X019780Y011505D03*
D17*
X012516Y007686D03*
X011335Y007686D03*
D18*
X019749Y006848D02*
X019749Y006548D01*
X019299Y006548D01*
X019299Y006848D01*
X019749Y006848D01*
X019749Y006647D02*
X019299Y006647D01*
X019299Y006746D02*
X019749Y006746D01*
X019749Y006845D02*
X019299Y006845D01*
X019749Y006148D02*
X019749Y005848D01*
X019299Y005848D01*
X019299Y006148D01*
X019749Y006148D01*
X019749Y005947D02*
X019299Y005947D01*
X019299Y006046D02*
X019749Y006046D01*
X019749Y006145D02*
X019299Y006145D01*
X020772Y006148D02*
X020772Y005848D01*
X020322Y005848D01*
X020322Y006148D01*
X020772Y006148D01*
X020772Y005947D02*
X020322Y005947D01*
X020322Y006046D02*
X020772Y006046D01*
X020772Y006145D02*
X020322Y006145D01*
X020772Y006548D02*
X020772Y006848D01*
X020772Y006548D02*
X020322Y006548D01*
X020322Y006848D01*
X020772Y006848D01*
X020772Y006647D02*
X020322Y006647D01*
X020322Y006746D02*
X020772Y006746D01*
X020772Y006845D02*
X020322Y006845D01*
D19*
X020650Y007838D02*
X020650Y008078D01*
X020650Y007838D02*
X020428Y007838D01*
X020428Y008078D01*
X020650Y008078D01*
X020650Y007892D02*
X020428Y007892D01*
X020428Y007946D02*
X020650Y007946D01*
X020650Y008000D02*
X020428Y008000D01*
X020428Y008054D02*
X020650Y008054D01*
X021044Y008078D02*
X021044Y007838D01*
X020822Y007838D01*
X020822Y008078D01*
X021044Y008078D01*
X021044Y007892D02*
X020822Y007892D01*
X020822Y007946D02*
X021044Y007946D01*
X021044Y008000D02*
X020822Y008000D01*
X020822Y008054D02*
X021044Y008054D01*
X020785Y009411D02*
X020545Y009411D01*
X020785Y009411D02*
X020785Y009189D01*
X020545Y009189D01*
X020545Y009411D01*
X020545Y009243D02*
X020785Y009243D01*
X020785Y009297D02*
X020545Y009297D01*
X020545Y009351D02*
X020785Y009351D01*
X020785Y009405D02*
X020545Y009405D01*
X020392Y009189D02*
X020152Y009189D01*
X020152Y009411D01*
X020392Y009411D01*
X020392Y009189D01*
X020392Y009243D02*
X020152Y009243D01*
X020152Y009297D02*
X020392Y009297D01*
X020392Y009351D02*
X020152Y009351D01*
X020152Y009405D02*
X020392Y009405D01*
X020392Y009583D02*
X020152Y009583D01*
X020152Y009805D01*
X020392Y009805D01*
X020392Y009583D01*
X020392Y009637D02*
X020152Y009637D01*
X020152Y009691D02*
X020392Y009691D01*
X020392Y009745D02*
X020152Y009745D01*
X020152Y009799D02*
X020392Y009799D01*
X020545Y009805D02*
X020785Y009805D01*
X020785Y009583D01*
X020545Y009583D01*
X020545Y009805D01*
X020545Y009637D02*
X020785Y009637D01*
X020785Y009691D02*
X020545Y009691D01*
X020545Y009745D02*
X020785Y009745D01*
X020785Y009799D02*
X020545Y009799D01*
X020554Y009968D02*
X020554Y010208D01*
X020776Y010208D01*
X020776Y009968D01*
X020554Y009968D01*
X020554Y010022D02*
X020776Y010022D01*
X020776Y010076D02*
X020554Y010076D01*
X020554Y010130D02*
X020776Y010130D01*
X020776Y010184D02*
X020554Y010184D01*
X020161Y010208D02*
X020161Y009968D01*
X020161Y010208D02*
X020383Y010208D01*
X020383Y009968D01*
X020161Y009968D01*
X020161Y010022D02*
X020383Y010022D01*
X020383Y010076D02*
X020161Y010076D01*
X020161Y010130D02*
X020383Y010130D01*
X020383Y010184D02*
X020161Y010184D01*
X020304Y011857D02*
X020304Y012097D01*
X020304Y011857D02*
X020082Y011857D01*
X020082Y012097D01*
X020304Y012097D01*
X020304Y011911D02*
X020082Y011911D01*
X020082Y011965D02*
X020304Y011965D01*
X020304Y012019D02*
X020082Y012019D01*
X020082Y012073D02*
X020304Y012073D01*
X020082Y012330D02*
X020082Y012570D01*
X020304Y012570D01*
X020304Y012330D01*
X020082Y012330D01*
X020082Y012384D02*
X020304Y012384D01*
X020304Y012438D02*
X020082Y012438D01*
X020082Y012492D02*
X020304Y012492D01*
X020304Y012546D02*
X020082Y012546D01*
X019688Y012570D02*
X019688Y012330D01*
X019688Y012570D02*
X019910Y012570D01*
X019910Y012330D01*
X019688Y012330D01*
X019688Y012384D02*
X019910Y012384D01*
X019910Y012438D02*
X019688Y012438D01*
X019688Y012492D02*
X019910Y012492D01*
X019910Y012546D02*
X019688Y012546D01*
X019910Y012097D02*
X019910Y011857D01*
X019688Y011857D01*
X019688Y012097D01*
X019910Y012097D01*
X019910Y011911D02*
X019688Y011911D01*
X019688Y011965D02*
X019910Y011965D01*
X019910Y012019D02*
X019688Y012019D01*
X019688Y012073D02*
X019910Y012073D01*
X019955Y015789D02*
X020195Y015789D01*
X020195Y015567D01*
X019955Y015567D01*
X019955Y015789D01*
X019955Y015621D02*
X020195Y015621D01*
X020195Y015675D02*
X019955Y015675D01*
X019955Y015729D02*
X020195Y015729D01*
X020195Y015783D02*
X019955Y015783D01*
X019801Y015789D02*
X019561Y015789D01*
X019801Y015789D02*
X019801Y015567D01*
X019561Y015567D01*
X019561Y015789D01*
X019561Y015621D02*
X019801Y015621D01*
X019801Y015675D02*
X019561Y015675D01*
X019561Y015729D02*
X019801Y015729D01*
X019801Y015783D02*
X019561Y015783D01*
X019561Y016183D02*
X019801Y016183D01*
X019801Y015961D01*
X019561Y015961D01*
X019561Y016183D01*
X019561Y016015D02*
X019801Y016015D01*
X019801Y016069D02*
X019561Y016069D01*
X019561Y016123D02*
X019801Y016123D01*
X019801Y016177D02*
X019561Y016177D01*
X019955Y016183D02*
X020195Y016183D01*
X020195Y015961D01*
X019955Y015961D01*
X019955Y016183D01*
X019955Y016015D02*
X020195Y016015D01*
X020195Y016069D02*
X019955Y016069D01*
X019955Y016123D02*
X020195Y016123D01*
X020195Y016177D02*
X019955Y016177D01*
X019635Y008082D02*
X019635Y007842D01*
X019413Y007842D01*
X019413Y008082D01*
X019635Y008082D01*
X019635Y007896D02*
X019413Y007896D01*
X019413Y007950D02*
X019635Y007950D01*
X019635Y008004D02*
X019413Y008004D01*
X019413Y008058D02*
X019635Y008058D01*
X019241Y008082D02*
X019241Y007842D01*
X019019Y007842D01*
X019019Y008082D01*
X019241Y008082D01*
X019241Y007896D02*
X019019Y007896D01*
X019019Y007950D02*
X019241Y007950D01*
X019241Y008004D02*
X019019Y008004D01*
X019019Y008058D02*
X019241Y008058D01*
X005279Y014968D02*
X005279Y015208D01*
X005501Y015208D01*
X005501Y014968D01*
X005279Y014968D01*
X005279Y015022D02*
X005501Y015022D01*
X005501Y015076D02*
X005279Y015076D01*
X005279Y015130D02*
X005501Y015130D01*
X005501Y015184D02*
X005279Y015184D01*
X005501Y015361D02*
X005501Y015601D01*
X005501Y015361D02*
X005279Y015361D01*
X005279Y015601D01*
X005501Y015601D01*
X005501Y015415D02*
X005279Y015415D01*
X005279Y015469D02*
X005501Y015469D01*
X005501Y015523D02*
X005279Y015523D01*
X005279Y015577D02*
X005501Y015577D01*
X005107Y015601D02*
X005107Y015361D01*
X004885Y015361D01*
X004885Y015601D01*
X005107Y015601D01*
X005107Y015415D02*
X004885Y015415D01*
X004885Y015469D02*
X005107Y015469D01*
X005107Y015523D02*
X004885Y015523D01*
X004885Y015577D02*
X005107Y015577D01*
X004885Y015208D02*
X004885Y014968D01*
X004885Y015208D02*
X005107Y015208D01*
X005107Y014968D01*
X004885Y014968D01*
X004885Y015022D02*
X005107Y015022D01*
X005107Y015076D02*
X004885Y015076D01*
X004885Y015130D02*
X005107Y015130D01*
X005107Y015184D02*
X004885Y015184D01*
X002720Y015208D02*
X002720Y014968D01*
X002720Y015208D02*
X002942Y015208D01*
X002942Y014968D01*
X002720Y014968D01*
X002720Y015022D02*
X002942Y015022D01*
X002942Y015076D02*
X002720Y015076D01*
X002720Y015130D02*
X002942Y015130D01*
X002942Y015184D02*
X002720Y015184D01*
X002326Y015208D02*
X002326Y014968D01*
X002326Y015208D02*
X002548Y015208D01*
X002548Y014968D01*
X002326Y014968D01*
X002326Y015022D02*
X002548Y015022D01*
X002548Y015076D02*
X002326Y015076D01*
X002326Y015130D02*
X002548Y015130D01*
X002548Y015184D02*
X002326Y015184D01*
X002278Y013073D02*
X002518Y013073D01*
X002518Y012851D01*
X002278Y012851D01*
X002278Y013073D01*
X002278Y012905D02*
X002518Y012905D01*
X002518Y012959D02*
X002278Y012959D01*
X002278Y013013D02*
X002518Y013013D01*
X002518Y013067D02*
X002278Y013067D01*
X002278Y012679D02*
X002518Y012679D01*
X002518Y012457D01*
X002278Y012457D01*
X002278Y012679D01*
X002278Y012511D02*
X002518Y012511D01*
X002518Y012565D02*
X002278Y012565D01*
X002278Y012619D02*
X002518Y012619D01*
X002518Y012673D02*
X002278Y012673D01*
X004334Y011507D02*
X004334Y011267D01*
X004334Y011507D02*
X004556Y011507D01*
X004556Y011267D01*
X004334Y011267D01*
X004334Y011321D02*
X004556Y011321D01*
X004556Y011375D02*
X004334Y011375D01*
X004334Y011429D02*
X004556Y011429D01*
X004556Y011483D02*
X004334Y011483D01*
X004728Y011507D02*
X004728Y011267D01*
X004728Y011507D02*
X004950Y011507D01*
X004950Y011267D01*
X004728Y011267D01*
X004728Y011321D02*
X004950Y011321D01*
X004950Y011375D02*
X004728Y011375D01*
X004728Y011429D02*
X004950Y011429D01*
X004950Y011483D02*
X004728Y011483D01*
X003069Y018992D02*
X002829Y018992D01*
X002829Y019214D01*
X003069Y019214D01*
X003069Y018992D01*
X003069Y019046D02*
X002829Y019046D01*
X002829Y019100D02*
X003069Y019100D01*
X003069Y019154D02*
X002829Y019154D01*
X002829Y019208D02*
X003069Y019208D01*
X003069Y019386D02*
X002829Y019386D01*
X002829Y019608D01*
X003069Y019608D01*
X003069Y019386D01*
X003069Y019440D02*
X002829Y019440D01*
X002829Y019494D02*
X003069Y019494D01*
X003069Y019548D02*
X002829Y019548D01*
X002829Y019602D02*
X003069Y019602D01*
D20*
X003776Y015107D03*
X003776Y014202D03*
X005390Y011367D03*
X005390Y010462D03*
D21*
X004078Y017957D02*
X003698Y017957D01*
X004078Y017957D02*
X004078Y017849D01*
X003698Y017849D01*
X003698Y017957D01*
X003698Y017956D02*
X004078Y017956D01*
X004078Y018331D02*
X003698Y018331D01*
X004078Y018331D02*
X004078Y018223D01*
X003698Y018223D01*
X003698Y018331D01*
X003698Y018330D02*
X004078Y018330D01*
X004078Y018705D02*
X003698Y018705D01*
X004078Y018705D02*
X004078Y018597D01*
X003698Y018597D01*
X003698Y018705D01*
X003698Y018704D02*
X004078Y018704D01*
X003145Y018597D02*
X002765Y018597D01*
X002765Y018705D01*
X003145Y018705D01*
X003145Y018597D01*
X003145Y018704D02*
X002765Y018704D01*
X002765Y017849D02*
X003145Y017849D01*
X002765Y017849D02*
X002765Y017957D01*
X003145Y017957D01*
X003145Y017849D01*
X003145Y017956D02*
X002765Y017956D01*
D22*
X019081Y009635D02*
X019573Y009635D01*
X019573Y009241D01*
X019081Y009241D01*
X019081Y009635D01*
X019081Y009338D02*
X019573Y009338D01*
X019573Y009435D02*
X019081Y009435D01*
X019081Y009532D02*
X019573Y009532D01*
X019573Y009629D02*
X019081Y009629D01*
X019081Y008887D02*
X019573Y008887D01*
X019573Y008493D01*
X019081Y008493D01*
X019081Y008887D01*
X019081Y008590D02*
X019573Y008590D01*
X019573Y008687D02*
X019081Y008687D01*
X019081Y008784D02*
X019573Y008784D01*
X019573Y008881D02*
X019081Y008881D01*
M02*
