G75*
G70*
%OFA0B0*%
%FSLAX24Y24*%
%IPPOS*%
%LPD*%
%AMOC8*
5,1,8,0,0,1.08239X$1,22.5*
%
%ADD10C,0.0140*%
%ADD11C,0.0090*%
%ADD12C,0.0110*%
%ADD13C,0.0080*%
%ADD14C,0.0079*%
%ADD15C,0.0098*%
%ADD16C,0.0050*%
D10*
X005686Y017692D02*
X005686Y018066D01*
X005499Y017879D02*
X005873Y017879D01*
X005952Y019021D02*
X005578Y019021D01*
D11*
X020356Y017330D02*
X020356Y017202D01*
X020420Y017139D01*
X020675Y017394D01*
X020420Y017394D01*
X020356Y017330D01*
X020420Y017139D02*
X020675Y017139D01*
X020739Y017202D01*
X020739Y017330D01*
X020675Y017394D01*
X020675Y016959D02*
X020739Y016895D01*
X020739Y016767D01*
X020675Y016704D01*
X020547Y016524D02*
X020547Y016269D01*
X020611Y016089D02*
X020675Y016089D01*
X020739Y016025D01*
X020739Y015897D01*
X020675Y015834D01*
X020611Y016089D02*
X020356Y015834D01*
X020356Y016089D01*
X020356Y015654D02*
X020356Y015399D01*
X020356Y015526D02*
X020739Y015526D01*
X020611Y015399D01*
X020547Y015219D02*
X020547Y014964D01*
X020484Y014784D02*
X020420Y014784D01*
X020356Y014720D01*
X020356Y014592D01*
X020420Y014528D01*
X020547Y014656D02*
X020547Y014720D01*
X020484Y014784D01*
X020547Y014720D02*
X020611Y014784D01*
X020675Y014784D01*
X020739Y014720D01*
X020739Y014592D01*
X020675Y014528D01*
X020675Y014349D02*
X020739Y014285D01*
X020739Y014157D01*
X020675Y014093D01*
X020675Y013914D02*
X020420Y013914D01*
X020356Y013850D01*
X020356Y013722D01*
X020420Y013658D01*
X020675Y013914D01*
X020739Y013850D01*
X020739Y013722D01*
X020675Y013658D01*
X020420Y013658D01*
X020356Y013479D02*
X020356Y013223D01*
X020611Y013479D01*
X020675Y013479D01*
X020739Y013415D01*
X020739Y013287D01*
X020675Y013223D01*
X020356Y014093D02*
X020611Y014349D01*
X020675Y014349D01*
X020356Y014349D02*
X020356Y014093D01*
X020356Y016704D02*
X020611Y016959D01*
X020675Y016959D01*
X020356Y016959D02*
X020356Y016704D01*
D12*
X008248Y017977D02*
X008098Y017977D01*
X008173Y017977D02*
X008173Y018428D01*
X008248Y018428D02*
X008098Y018428D01*
X007904Y018353D02*
X007904Y018278D01*
X007829Y018203D01*
X007679Y018203D01*
X007604Y018127D01*
X007604Y018052D01*
X007679Y017977D01*
X007829Y017977D01*
X007904Y018052D01*
X007904Y018353D02*
X007829Y018428D01*
X007679Y018428D01*
X007604Y018353D01*
X007389Y018428D02*
X007164Y018428D01*
X007089Y018353D01*
X007089Y018203D01*
X007164Y018127D01*
X007389Y018127D01*
X007389Y017977D02*
X007389Y018428D01*
D13*
X003050Y002822D02*
X002218Y002822D01*
X002218Y003259D01*
X003050Y003259D01*
X003050Y002822D01*
X003045Y002945D02*
X003045Y002112D01*
X003483Y002112D01*
X003483Y002945D01*
X003045Y002945D01*
X003596Y002570D02*
X003596Y002133D01*
X004428Y002133D01*
X004428Y002570D01*
X003596Y002570D01*
X004934Y002078D02*
X004934Y001641D01*
X005767Y001641D01*
X005767Y002078D01*
X004934Y002078D01*
X008044Y006129D02*
X008877Y006129D01*
X008877Y006566D01*
X008044Y006566D01*
X008044Y006129D01*
X009068Y006129D02*
X009901Y006129D01*
X009901Y006566D01*
X009068Y006566D01*
X009068Y006129D01*
X007460Y007034D02*
X007460Y007472D01*
X006627Y007472D01*
X006627Y007034D01*
X007460Y007034D01*
X007145Y007585D02*
X007145Y008023D01*
X006312Y008023D01*
X006312Y007585D01*
X007145Y007585D01*
X005609Y009238D02*
X005171Y009238D01*
X005171Y010071D01*
X005609Y010071D01*
X005609Y009238D01*
X005636Y010218D02*
X005144Y010218D01*
X005144Y010560D02*
X005144Y011269D01*
X005636Y011269D02*
X005636Y010560D01*
X005806Y011798D02*
X004974Y011798D01*
X004974Y012236D01*
X005806Y012236D01*
X005806Y011798D01*
X005806Y013137D02*
X004974Y013137D01*
X004974Y013574D01*
X005806Y013574D01*
X005806Y013137D01*
X005609Y014002D02*
X005171Y014002D01*
X005171Y014835D01*
X005609Y014835D01*
X005609Y014002D01*
X004022Y013958D02*
X003530Y013958D01*
X003343Y013828D02*
X003343Y013513D01*
X003106Y013513D01*
X002476Y013513D02*
X002240Y013513D01*
X002240Y013828D01*
X003530Y014300D02*
X003530Y015009D01*
X004022Y015009D02*
X004022Y014300D01*
X002687Y015891D02*
X002687Y017041D01*
X002187Y017041D01*
X002187Y015891D01*
X002687Y015891D01*
X002240Y011662D02*
X002240Y011348D01*
X002476Y011348D01*
X003106Y011348D02*
X003343Y011348D01*
X003343Y011662D01*
X003246Y008181D02*
X002809Y008181D01*
X002809Y007349D01*
X003246Y007349D01*
X003246Y008181D01*
X002618Y008172D02*
X002618Y007672D01*
X001468Y007672D01*
X001468Y008172D01*
X002618Y008172D01*
X002577Y007669D02*
X002140Y007669D01*
X002140Y006837D01*
X002577Y006837D01*
X002577Y007669D01*
X001908Y007197D02*
X001470Y007197D01*
X001470Y006364D01*
X001908Y006364D01*
X001908Y007197D01*
X010643Y004165D02*
X010643Y003727D01*
X011475Y003727D01*
X011475Y004165D01*
X010643Y004165D01*
X010840Y004515D02*
X010840Y004952D01*
X011672Y004952D01*
X011672Y004515D01*
X010840Y004515D01*
X010840Y005105D02*
X010840Y005543D01*
X011672Y005543D01*
X011672Y005105D01*
X010840Y005105D01*
X010840Y005696D02*
X011672Y005696D01*
X011672Y006133D01*
X010840Y006133D01*
X010840Y005696D01*
X012533Y005306D02*
X012533Y004869D01*
X013365Y004869D01*
X013365Y005306D01*
X012533Y005306D01*
X012533Y004480D02*
X012533Y004042D01*
X013365Y004042D01*
X013365Y004480D01*
X012533Y004480D01*
X012533Y003968D02*
X012533Y003530D01*
X013365Y003530D01*
X013365Y003968D01*
X012533Y003968D01*
X013084Y002827D02*
X013522Y002827D01*
X013522Y001994D01*
X013084Y001994D01*
X013084Y002827D01*
X013872Y002827D02*
X013872Y001994D01*
X014309Y001994D01*
X014309Y002827D01*
X013872Y002827D01*
X014895Y004239D02*
X014895Y004677D01*
X015727Y004676D01*
X015727Y004239D01*
X014895Y004239D01*
X014934Y004908D02*
X014934Y005346D01*
X015767Y005346D01*
X015767Y004908D01*
X014934Y004908D01*
X014895Y005499D02*
X014895Y005936D01*
X015727Y005936D01*
X015727Y005499D01*
X014895Y005499D01*
X014939Y006049D02*
X014502Y006049D01*
X014502Y006882D01*
X014939Y006882D01*
X014939Y006049D01*
X014380Y006009D02*
X014380Y007159D01*
X013880Y007159D01*
X013880Y006009D01*
X014380Y006009D01*
X013522Y006049D02*
X013522Y006882D01*
X013084Y006882D01*
X013084Y006049D01*
X013522Y006049D01*
X013043Y007436D02*
X014193Y007436D01*
X014193Y007936D01*
X013043Y007936D01*
X013043Y007436D01*
X017218Y006133D02*
X017218Y005696D01*
X018050Y005696D01*
X018050Y006133D01*
X017218Y006133D01*
X017177Y005535D02*
X017177Y005035D01*
X018327Y005035D01*
X018327Y005535D01*
X017177Y005535D01*
X017768Y004629D02*
X017768Y004129D01*
X018918Y004129D01*
X018918Y004629D01*
X017768Y004629D01*
X017778Y003694D02*
X017778Y002544D01*
X018278Y002544D01*
X018278Y003694D01*
X017778Y003694D01*
X017656Y003535D02*
X017218Y003535D01*
X017218Y002703D01*
X017656Y002703D01*
X017656Y003535D01*
X018526Y003537D02*
X019026Y003537D01*
X019026Y002387D01*
X018526Y002387D01*
X018526Y003537D01*
X019108Y003299D02*
X019546Y003299D01*
X019546Y002467D01*
X019108Y002467D01*
X019108Y003299D01*
X019156Y003489D02*
X019656Y003489D01*
X019656Y004639D01*
X019156Y004639D01*
X019156Y003489D01*
X018918Y002188D02*
X017768Y002188D01*
X017768Y001688D01*
X018918Y001688D01*
X018918Y002188D01*
X018911Y007270D02*
X018911Y007708D01*
X019743Y007708D01*
X019743Y007270D01*
X018911Y007270D01*
X020052Y008334D02*
X020885Y008333D01*
X020885Y008771D01*
X020052Y008771D01*
X020052Y008334D01*
X020332Y007708D02*
X020332Y007270D01*
X021164Y007270D01*
X021164Y007708D01*
X020332Y007708D01*
X018916Y008845D02*
X018478Y008845D01*
X018478Y009677D01*
X018916Y009677D01*
X018916Y008845D01*
X018168Y009790D02*
X018168Y010228D01*
X017336Y010228D01*
X017336Y009790D01*
X018168Y009790D01*
X019602Y010836D02*
X019602Y011151D01*
X019602Y010836D02*
X019839Y010836D01*
X020469Y010836D02*
X020705Y010836D01*
X020705Y011151D01*
X018444Y014121D02*
X017611Y014121D01*
X017611Y014558D01*
X018444Y014558D01*
X018444Y014121D01*
X018404Y015105D02*
X017572Y015105D01*
X017572Y015543D01*
X018404Y015543D01*
X018404Y015105D01*
D14*
X012658Y016166D02*
X012658Y010930D01*
X007421Y010930D01*
X007421Y016166D01*
X012658Y016166D01*
X004367Y018670D02*
X004369Y018682D01*
X004374Y018693D01*
X004383Y018702D01*
X004394Y018707D01*
X004406Y018709D01*
X004418Y018707D01*
X004429Y018702D01*
X004438Y018693D01*
X004443Y018682D01*
X004445Y018670D01*
X004443Y018658D01*
X004438Y018647D01*
X004429Y018638D01*
X004418Y018633D01*
X004406Y018631D01*
X004394Y018633D01*
X004383Y018638D01*
X004374Y018647D01*
X004369Y018658D01*
X004367Y018670D01*
D15*
X006752Y010891D02*
X006754Y010904D01*
X006759Y010916D01*
X006768Y010927D01*
X006778Y010935D01*
X006791Y010939D01*
X006804Y010940D01*
X006817Y010937D01*
X006829Y010931D01*
X006839Y010922D01*
X006846Y010911D01*
X006850Y010898D01*
X006850Y010884D01*
X006846Y010871D01*
X006839Y010860D01*
X006829Y010851D01*
X006817Y010845D01*
X006804Y010842D01*
X006791Y010843D01*
X006778Y010847D01*
X006768Y010855D01*
X006759Y010866D01*
X006754Y010878D01*
X006752Y010891D01*
D16*
X004839Y011279D02*
X004760Y011279D01*
X004760Y011495D01*
X004839Y011495D01*
X004839Y011279D01*
X004760Y011279D02*
X004524Y011279D01*
X004524Y011495D01*
X004760Y011495D01*
X004524Y011495D02*
X004445Y011495D01*
X004445Y011279D01*
X004524Y011279D01*
X002506Y012568D02*
X002506Y012647D01*
X002289Y012647D01*
X002289Y012568D01*
X002506Y012568D01*
X002506Y012647D02*
X002506Y012883D01*
X002289Y012883D01*
X002289Y012647D01*
X002289Y012883D02*
X002289Y012962D01*
X002506Y012962D01*
X002506Y012883D01*
X002516Y014979D02*
X002437Y014979D01*
X002437Y015196D01*
X002516Y015196D01*
X002516Y014979D01*
X002752Y014979D01*
X002752Y015196D01*
X002831Y015196D01*
X002831Y014979D01*
X002752Y014979D01*
X002752Y015196D02*
X002516Y015196D01*
X004996Y015196D02*
X004996Y014979D01*
X005075Y014979D01*
X005075Y015196D01*
X005311Y015196D01*
X005311Y014979D01*
X005390Y014979D01*
X005390Y015196D01*
X005311Y015196D01*
X005311Y015373D02*
X005075Y015373D01*
X005075Y015590D01*
X004996Y015590D01*
X004996Y015373D01*
X005075Y015373D01*
X005075Y015196D02*
X004996Y015196D01*
X005075Y014979D02*
X005311Y014979D01*
X005311Y015373D02*
X005311Y015590D01*
X005075Y015590D01*
X005311Y015590D02*
X005390Y015590D01*
X005390Y015373D01*
X005311Y015373D01*
X003768Y017671D02*
X003075Y017671D01*
X003075Y018883D02*
X003768Y018883D01*
X003057Y019103D02*
X003057Y019182D01*
X002841Y019182D01*
X002841Y019418D01*
X003057Y019418D01*
X003057Y019497D01*
X002841Y019497D01*
X002841Y019418D01*
X003057Y019418D02*
X003057Y019182D01*
X003057Y019103D02*
X002841Y019103D01*
X002841Y019182D01*
X019061Y009458D02*
X019061Y009300D01*
X019593Y009300D01*
X019593Y008828D01*
X019061Y008828D01*
X019061Y008670D01*
X019593Y008670D01*
X019593Y008828D01*
X019593Y009300D02*
X019593Y009458D01*
X019061Y009458D01*
X019061Y009300D02*
X019061Y008828D01*
X019130Y008070D02*
X019209Y008070D01*
X019209Y007853D01*
X019130Y007853D01*
X019130Y008070D01*
X019209Y008070D02*
X019445Y008070D01*
X019445Y007853D01*
X019209Y007853D01*
X019445Y007853D02*
X019524Y007853D01*
X019524Y008070D01*
X019445Y008070D01*
X020539Y008066D02*
X020539Y007849D01*
X020618Y007849D01*
X020618Y008066D01*
X020539Y008066D01*
X020618Y008066D02*
X020854Y008066D01*
X020854Y007849D01*
X020618Y007849D01*
X020854Y007849D02*
X020933Y007849D01*
X020933Y008066D01*
X020854Y008066D01*
X020897Y006998D02*
X020197Y006998D01*
X020197Y005698D01*
X020897Y005698D01*
X020897Y006998D01*
X019874Y006998D02*
X019874Y005698D01*
X019174Y005698D01*
X019174Y006998D01*
X019874Y006998D01*
X020163Y009300D02*
X020163Y009379D01*
X020380Y009379D01*
X020380Y009615D01*
X020163Y009615D01*
X020163Y009694D01*
X020380Y009694D01*
X020380Y009615D01*
X020557Y009615D02*
X020557Y009379D01*
X020774Y009379D01*
X020774Y009300D01*
X020557Y009300D01*
X020557Y009379D01*
X020380Y009379D02*
X020380Y009300D01*
X020163Y009300D01*
X020163Y009379D02*
X020163Y009615D01*
X020272Y009979D02*
X020350Y009979D01*
X020350Y010196D01*
X020587Y010196D01*
X020587Y009979D01*
X020665Y009979D01*
X020665Y010196D01*
X020587Y010196D01*
X020587Y009979D02*
X020350Y009979D01*
X020272Y009979D02*
X020272Y010196D01*
X020350Y010196D01*
X020557Y009694D02*
X020557Y009615D01*
X020774Y009615D01*
X020774Y009379D01*
X020774Y009615D02*
X020774Y009694D01*
X020557Y009694D01*
X020193Y011869D02*
X020114Y011869D01*
X020114Y012086D01*
X019878Y012086D01*
X019878Y011869D01*
X019799Y011869D01*
X019799Y012086D01*
X019878Y012086D01*
X019878Y011869D02*
X020114Y011869D01*
X020193Y011869D02*
X020193Y012086D01*
X020114Y012086D01*
X020114Y012342D02*
X019878Y012342D01*
X019878Y012558D01*
X020114Y012558D01*
X020114Y012342D01*
X020193Y012342D01*
X020193Y012558D01*
X020114Y012558D01*
X019878Y012558D02*
X019799Y012558D01*
X019799Y012342D01*
X019878Y012342D01*
X019967Y015678D02*
X019967Y015757D01*
X020183Y015757D01*
X020183Y015678D01*
X019967Y015678D01*
X019967Y015757D02*
X019967Y015993D01*
X020183Y015993D01*
X020183Y015757D01*
X020183Y015993D02*
X020183Y016072D01*
X019967Y016072D01*
X019967Y015993D01*
X019789Y015993D02*
X019789Y015757D01*
X019573Y015757D01*
X019573Y015678D01*
X019789Y015678D01*
X019789Y015757D01*
X019573Y015757D02*
X019573Y015993D01*
X019789Y015993D01*
X019789Y016072D01*
X019573Y016072D01*
X019573Y015993D01*
M02*
