G75*
G70*
%OFA0B0*%
%FSLAX24Y24*%
%IPPOS*%
%LPD*%
%AMOC8*
5,1,8,0,0,1.08239X$1,22.5*
%
%ADD10C,0.0413*%
%ADD11C,0.0198*%
%ADD12C,0.1424*%
%ADD13C,0.1384*%
%ADD14C,0.0059*%
%ADD15C,0.0237*%
%ADD16C,0.0062*%
%ADD17C,0.0060*%
%ADD18C,0.0061*%
D10*
X017555Y006466D03*
X018343Y006466D03*
X020469Y005127D03*
X020469Y004340D03*
X020469Y003277D03*
X020469Y002489D03*
X008894Y019025D03*
X008303Y019025D03*
X007713Y019025D03*
X007122Y019025D03*
X006532Y019025D03*
D11*
X005929Y018355D03*
X006257Y018174D03*
X005661Y017214D03*
X005429Y016741D03*
X005665Y016466D03*
X005902Y016741D03*
X006032Y015757D03*
X005169Y015757D03*
X004854Y014300D03*
X005980Y013316D03*
X005114Y012568D03*
X004721Y012607D03*
X004721Y012292D03*
X005862Y012174D03*
X004839Y010954D03*
X004406Y010245D03*
X004248Y010009D03*
X004760Y009733D03*
X005862Y010363D03*
X005941Y009812D03*
X007398Y009418D03*
X007587Y008418D03*
X007980Y008418D03*
X008374Y008418D03*
X008768Y008418D03*
X009161Y008418D03*
X009555Y008418D03*
X009996Y007844D03*
X009996Y007607D03*
X009445Y007529D03*
X010350Y006938D03*
X010902Y006977D03*
X011768Y006426D03*
X012043Y005954D03*
X012516Y005914D03*
X013311Y005914D03*
X014102Y005914D03*
X014445Y006544D03*
X013894Y007194D03*
X013697Y007348D03*
X013500Y007186D03*
X012949Y007686D03*
X013098Y008418D03*
X012705Y008418D03*
X012311Y008418D03*
X011996Y008418D03*
X011728Y008237D03*
X011484Y008418D03*
X011130Y008418D03*
X010736Y008418D03*
X010343Y008418D03*
X010941Y009379D03*
X011217Y009418D03*
X011374Y009222D03*
X011610Y009379D03*
X011807Y009222D03*
X012004Y009418D03*
X012437Y009418D03*
X013815Y010009D03*
X014091Y010088D03*
X014760Y010285D03*
X014996Y010403D03*
X015547Y010285D03*
X015744Y010521D03*
X015941Y010363D03*
X016138Y010521D03*
X016965Y011190D03*
X017870Y010954D03*
X017870Y011426D03*
X017870Y011741D03*
X017870Y012056D03*
X017870Y012371D03*
X018224Y012607D03*
X018614Y013123D03*
X018618Y014340D03*
X019406Y014340D03*
X019406Y015324D03*
X019406Y016033D03*
X020075Y016387D03*
X021445Y016332D03*
X021445Y015938D03*
X021445Y015544D03*
X021445Y015151D03*
X021445Y014757D03*
X021445Y014363D03*
X021445Y013970D03*
X021445Y013576D03*
X021445Y013182D03*
X021445Y012788D03*
X021445Y012395D03*
X020705Y010442D03*
X021177Y010285D03*
X021445Y009836D03*
X021445Y009442D03*
X021445Y009009D03*
X021445Y008615D03*
X021445Y008222D03*
X021445Y007828D03*
X021445Y007434D03*
X021445Y007040D03*
X021445Y006647D03*
X021445Y006253D03*
X021445Y005859D03*
X021445Y005466D03*
X021445Y005072D03*
X021445Y004678D03*
X021445Y004285D03*
X021445Y003891D03*
X021445Y003497D03*
X021445Y003103D03*
X021445Y002670D03*
X021445Y002277D03*
X021445Y001922D03*
X019988Y000544D03*
X019595Y000544D03*
X019193Y000517D03*
X019287Y000875D03*
X019366Y001387D03*
X019602Y001387D03*
X019445Y001820D03*
X019287Y002056D03*
X019287Y002332D03*
X018933Y002214D03*
X018386Y001599D03*
X017752Y001938D03*
X017398Y001781D03*
X017634Y001426D03*
X017713Y000914D03*
X018106Y000954D03*
X018020Y000505D03*
X018413Y000544D03*
X018807Y000513D03*
X017626Y000505D03*
X017232Y000505D03*
X017004Y000914D03*
X016602Y000781D03*
X016445Y000544D03*
X016051Y000544D03*
X015658Y000544D03*
X015264Y000544D03*
X014870Y000544D03*
X014476Y000544D03*
X014083Y000544D03*
X013689Y000544D03*
X013295Y000544D03*
X012902Y000544D03*
X012508Y000544D03*
X012114Y000544D03*
X011721Y000544D03*
X011327Y000544D03*
X010933Y000544D03*
X010539Y000544D03*
X010146Y000544D03*
X009752Y000544D03*
X009358Y000544D03*
X008965Y000544D03*
X008571Y000544D03*
X008177Y000544D03*
X007783Y000544D03*
X007390Y000544D03*
X007783Y001332D03*
X007783Y001922D03*
X007622Y002332D03*
X008571Y002513D03*
X008571Y001922D03*
X008571Y001332D03*
X009358Y001332D03*
X009358Y001922D03*
X009358Y002513D03*
X009957Y002568D03*
X009358Y003103D03*
X008571Y003103D03*
X008768Y003891D03*
X009358Y003891D03*
X009949Y003891D03*
X009949Y004875D03*
X010272Y005285D03*
X010114Y005718D03*
X009528Y005218D03*
X009209Y005489D03*
X008736Y005914D03*
X009012Y005946D03*
X008421Y005639D03*
X007988Y005639D03*
X007988Y005206D03*
X008382Y005206D03*
X007346Y005340D03*
X006453Y005875D03*
X006098Y005678D03*
X005508Y005875D03*
X005350Y006544D03*
X005823Y006544D03*
X005823Y007017D03*
X006138Y007253D03*
X006571Y007017D03*
X006461Y006682D03*
X007161Y006899D03*
X007980Y007474D03*
X008374Y007474D03*
X007193Y008418D03*
X006012Y008418D03*
X005618Y008418D03*
X005224Y008418D03*
X004437Y008418D03*
X004083Y008418D03*
X003768Y008418D03*
X003335Y008418D03*
X002980Y008418D03*
X002437Y008355D03*
X002201Y007962D03*
X002595Y007450D03*
X003067Y007096D03*
X003539Y007450D03*
X003846Y007828D03*
X004240Y008025D03*
X004240Y007080D03*
X003846Y007080D03*
X003846Y006450D03*
X004240Y006450D03*
X004732Y006702D03*
X005354Y007025D03*
X005154Y007599D03*
X005815Y007828D03*
X003421Y005678D03*
X003343Y006269D03*
X003067Y006269D03*
X002437Y005521D03*
X002232Y005954D03*
X002236Y006336D03*
X001484Y006253D03*
X001484Y005859D03*
X001484Y005466D03*
X001484Y005072D03*
X001484Y004678D03*
X001484Y004285D03*
X001484Y003891D03*
X001484Y003497D03*
X001484Y003103D03*
X001484Y002710D03*
X001484Y002316D03*
X001484Y001922D03*
X002417Y001899D03*
X002437Y002214D03*
X002831Y002725D03*
X003138Y002985D03*
X003453Y002985D03*
X002909Y003513D03*
X002673Y003513D03*
X002673Y003749D03*
X002909Y003749D03*
X003264Y001938D03*
X004280Y001962D03*
X004760Y002017D03*
X004724Y002348D03*
X004732Y002611D03*
X005350Y002686D03*
X005350Y002214D03*
X005823Y002214D03*
X005823Y002686D03*
X006453Y002544D03*
X006602Y002119D03*
X005618Y001332D03*
X005224Y001332D03*
X005028Y000544D03*
X005421Y000544D03*
X005815Y000544D03*
X004634Y000544D03*
X004240Y000544D03*
X003453Y000544D03*
X003059Y000544D03*
X005882Y003592D03*
X005232Y003828D03*
X005390Y004222D03*
X008177Y003891D03*
X010146Y001922D03*
X010146Y001332D03*
X010933Y002119D03*
X010933Y002513D03*
X010933Y002907D03*
X011532Y003001D03*
X011532Y002489D03*
X012476Y002174D03*
X012713Y002607D03*
X012476Y003001D03*
X013122Y003001D03*
X013500Y003907D03*
X013500Y004300D03*
X013894Y004300D03*
X013894Y003907D03*
X013894Y004694D03*
X013894Y005088D03*
X013500Y005088D03*
X013500Y004694D03*
X013106Y004694D03*
X012713Y004694D03*
X011846Y004733D03*
X011925Y004162D03*
X011886Y003749D03*
X011571Y003946D03*
X011890Y005348D03*
X012476Y006702D03*
X012043Y007371D03*
X014248Y007832D03*
X014488Y007832D03*
X014760Y007883D03*
X014791Y007631D03*
X014563Y007292D03*
X015146Y007237D03*
X015461Y007237D03*
X015461Y007592D03*
X015776Y007592D03*
X015776Y007237D03*
X015461Y006647D03*
X015461Y006253D03*
X015862Y005403D03*
X015823Y004930D03*
X016374Y005481D03*
X017373Y004536D03*
X017634Y004733D03*
X017870Y004891D03*
X018461Y005324D03*
X019169Y005127D03*
X018106Y003867D03*
X017398Y003867D03*
X017398Y003556D03*
X016610Y002804D03*
X016610Y002411D03*
X016610Y002096D03*
X016610Y001820D03*
X016602Y001135D03*
X015461Y001135D03*
X015461Y001725D03*
X015862Y002135D03*
X015508Y002607D03*
X015469Y002883D03*
X015469Y003277D03*
X015469Y003670D03*
X015469Y004064D03*
X014957Y003749D03*
X014878Y003513D03*
X014862Y003985D03*
X014528Y002981D03*
X014110Y002962D03*
X014350Y002399D03*
X014760Y002135D03*
X014870Y001725D03*
X012949Y002017D03*
X012398Y001229D03*
X014878Y005127D03*
X017516Y007411D03*
X018185Y007529D03*
X017280Y008119D03*
X017752Y008828D03*
X018224Y008828D03*
X017713Y009497D03*
X017161Y009497D03*
X016610Y009497D03*
X016150Y009139D03*
X015976Y009340D03*
X015772Y009182D03*
X015547Y009300D03*
X014969Y009300D03*
X014776Y009103D03*
X014595Y009308D03*
X014366Y009210D03*
X014201Y008418D03*
X014091Y011741D03*
X014091Y012017D03*
X013815Y011977D03*
X013815Y012568D03*
X014681Y012411D03*
X014996Y012214D03*
X014961Y011749D03*
X015823Y012292D03*
X016177Y012686D03*
X016768Y012725D03*
X017043Y012765D03*
X017280Y013434D03*
X017201Y013670D03*
X017358Y014477D03*
X017358Y015009D03*
X017555Y015757D03*
X017319Y016269D03*
X017634Y016505D03*
X017201Y016702D03*
X017358Y017883D03*
X017429Y019836D03*
X017035Y019836D03*
X016642Y019836D03*
X016248Y019836D03*
X015854Y019836D03*
X015461Y019836D03*
X015067Y019836D03*
X014673Y019836D03*
X014280Y019836D03*
X013886Y019836D03*
X013492Y020033D03*
X013098Y020033D03*
X012705Y020033D03*
X012311Y020033D03*
X011917Y020033D03*
X011524Y020033D03*
X011130Y020033D03*
X010736Y020033D03*
X010343Y020033D03*
X009949Y020033D03*
X009555Y020033D03*
X009161Y020033D03*
X008768Y020033D03*
X008374Y020033D03*
X007980Y020033D03*
X007587Y020033D03*
X007193Y020033D03*
X006799Y020033D03*
X006406Y020033D03*
X006012Y019836D03*
X005618Y019836D03*
X005224Y019836D03*
X004831Y019836D03*
X004437Y019836D03*
X004043Y019836D03*
X003650Y019836D03*
X003256Y019836D03*
X002862Y019836D03*
X004642Y018474D03*
X005106Y019265D03*
X003421Y017135D03*
X003098Y016766D03*
X001484Y016883D03*
X001484Y017277D03*
X001484Y017670D03*
X001484Y016489D03*
X001484Y016096D03*
X001484Y015702D03*
X001484Y015308D03*
X001484Y014127D03*
X001484Y013733D03*
X001484Y013340D03*
X001484Y012946D03*
X001484Y012552D03*
X001484Y012159D03*
X001484Y011765D03*
X001484Y011371D03*
X001484Y010977D03*
X001484Y010584D03*
X001484Y010190D03*
X001484Y009796D03*
X002240Y009458D03*
X002004Y008592D03*
X001547Y008359D03*
X001484Y007434D03*
X001689Y007277D03*
X003067Y010166D03*
X002595Y010363D03*
X003579Y010324D03*
X002831Y011584D03*
X003146Y014603D03*
X007437Y013710D03*
X007909Y013080D03*
X008067Y012686D03*
X008087Y012371D03*
X007752Y012292D03*
X007909Y012056D03*
X007854Y011781D03*
X008091Y011662D03*
X008079Y011210D03*
X007831Y011190D03*
X008106Y010954D03*
X008906Y010966D03*
X009130Y011072D03*
X009484Y011072D03*
X009957Y011111D03*
X009484Y011938D03*
X009209Y011938D03*
X008933Y011938D03*
X009563Y012568D03*
X009524Y012844D03*
X009957Y013670D03*
X009976Y014286D03*
X011091Y012946D03*
X012161Y012450D03*
X012122Y011741D03*
X012634Y011781D03*
X012437Y013552D03*
X012673Y013749D03*
X012673Y014143D03*
X012516Y014536D03*
X012673Y014733D03*
X012516Y014930D03*
X012673Y015127D03*
X012476Y015324D03*
X012205Y016123D03*
X011843Y016155D03*
X011610Y016060D03*
X012673Y016938D03*
X012791Y016623D03*
X012476Y017568D03*
X012595Y018040D03*
X011610Y018316D03*
X010823Y017450D03*
X010626Y017253D03*
X010429Y017017D03*
X011020Y017096D03*
X011217Y017253D03*
X011413Y017056D03*
X010311Y018946D03*
X008579Y017056D03*
X007870Y016970D03*
X007949Y016072D03*
X008264Y016111D03*
X013618Y014733D03*
X013854Y014576D03*
X014051Y014143D03*
X014839Y014930D03*
X014839Y015166D03*
X015299Y014328D03*
X016256Y014418D03*
X016256Y014655D03*
X018579Y015324D03*
X021445Y016725D03*
X021445Y017119D03*
X021445Y017513D03*
X021445Y017907D03*
X021445Y018300D03*
X019791Y019836D03*
X019398Y019836D03*
X019004Y019836D03*
X018610Y019836D03*
X018217Y019836D03*
X017823Y019836D03*
X019354Y010993D03*
X019681Y010245D03*
X019559Y010009D03*
X019996Y009694D03*
X019772Y009418D03*
X019783Y008828D03*
X019996Y008552D03*
X019406Y008277D03*
X019799Y007962D03*
X020539Y008233D03*
X020705Y009025D03*
X018264Y010009D03*
X020705Y004694D03*
X020547Y003749D03*
X019681Y003080D03*
X017658Y002623D03*
X009012Y009379D03*
D12*
X002083Y001072D03*
X020823Y001052D03*
X020823Y019438D03*
X002063Y019418D03*
D13*
X006571Y001072D03*
D14*
X001418Y000695D02*
X001354Y000890D01*
X001346Y000993D01*
X001346Y008040D01*
X001807Y008040D01*
X001807Y007424D01*
X001767Y007464D01*
X001611Y007464D01*
X001501Y007354D01*
X001501Y007199D01*
X001611Y007089D01*
X001767Y007089D01*
X001807Y007129D01*
X001807Y000993D01*
X016374Y000993D01*
X016374Y008080D01*
X015312Y008080D01*
X015312Y008670D01*
X016768Y008670D01*
X016768Y002912D01*
X016688Y002992D01*
X016533Y002992D01*
X016423Y002882D01*
X016423Y002726D01*
X016533Y002617D01*
X016688Y002617D01*
X016768Y002696D01*
X016768Y002518D01*
X016688Y002598D01*
X016533Y002598D01*
X016423Y002488D01*
X016423Y002333D01*
X016502Y002253D01*
X016423Y002173D01*
X016423Y002018D01*
X016483Y001958D01*
X016423Y001898D01*
X016423Y001742D01*
X016533Y001632D01*
X016688Y001632D01*
X016768Y001712D01*
X016768Y000335D01*
X002004Y000335D01*
X001901Y000343D01*
X001705Y000407D01*
X001539Y000528D01*
X001418Y000695D01*
X001408Y000724D02*
X016768Y000724D01*
X016807Y000724D02*
X021497Y000724D01*
X021488Y000695D02*
X021367Y000528D01*
X021200Y000407D01*
X021005Y000343D01*
X020902Y000335D01*
X016807Y000335D01*
X016807Y000993D01*
X020902Y000993D01*
X020902Y019497D01*
X002004Y019497D01*
X002004Y008779D01*
X001926Y008779D01*
X001816Y008669D01*
X001816Y008514D01*
X001926Y008404D01*
X002082Y008404D01*
X002192Y008514D01*
X002192Y008669D01*
X002191Y008670D01*
X009868Y008670D01*
X009838Y008641D01*
X009838Y008244D01*
X009833Y008202D01*
X009838Y008196D01*
X009838Y008188D01*
X009868Y008158D01*
X009931Y008080D01*
X001346Y008080D01*
X001346Y019497D01*
X001354Y019600D01*
X001418Y019796D01*
X001539Y019962D01*
X001705Y020083D01*
X001901Y020147D01*
X002004Y020155D01*
X020902Y020155D01*
X021005Y020147D01*
X021200Y020083D01*
X021367Y019962D01*
X021488Y019796D01*
X021551Y019600D01*
X021559Y019497D01*
X021559Y000993D01*
X021551Y000890D01*
X021488Y000695D01*
X021467Y000666D02*
X016807Y000666D01*
X016768Y000666D02*
X001438Y000666D01*
X001480Y000609D02*
X016768Y000609D01*
X016807Y000609D02*
X021425Y000609D01*
X021384Y000551D02*
X016807Y000551D01*
X016768Y000551D02*
X001522Y000551D01*
X001586Y000494D02*
X016768Y000494D01*
X016807Y000494D02*
X021319Y000494D01*
X021240Y000436D02*
X016807Y000436D01*
X016768Y000436D02*
X001665Y000436D01*
X001793Y000378D02*
X016768Y000378D01*
X016807Y000378D02*
X021112Y000378D01*
X021516Y000781D02*
X016807Y000781D01*
X016768Y000781D02*
X001390Y000781D01*
X001371Y000839D02*
X016768Y000839D01*
X016807Y000839D02*
X021535Y000839D01*
X021552Y000896D02*
X016807Y000896D01*
X016768Y000896D02*
X001354Y000896D01*
X001349Y000954D02*
X016768Y000954D01*
X016807Y000954D02*
X021556Y000954D01*
X021559Y001012D02*
X020902Y001012D01*
X020902Y001069D02*
X021559Y001069D01*
X021559Y001127D02*
X020902Y001127D01*
X020902Y001184D02*
X021559Y001184D01*
X021559Y001242D02*
X020902Y001242D01*
X020902Y001299D02*
X021559Y001299D01*
X021559Y001357D02*
X020902Y001357D01*
X020902Y001414D02*
X021559Y001414D01*
X021559Y001472D02*
X020902Y001472D01*
X020902Y001530D02*
X021559Y001530D01*
X021559Y001587D02*
X020902Y001587D01*
X020902Y001645D02*
X021559Y001645D01*
X021559Y001702D02*
X020902Y001702D01*
X020902Y001760D02*
X021559Y001760D01*
X021559Y001817D02*
X020902Y001817D01*
X020902Y001875D02*
X021559Y001875D01*
X021559Y001932D02*
X020902Y001932D01*
X020902Y001990D02*
X021559Y001990D01*
X021559Y002048D02*
X020902Y002048D01*
X020902Y002105D02*
X021559Y002105D01*
X021559Y002163D02*
X020902Y002163D01*
X020902Y002220D02*
X021559Y002220D01*
X021559Y002278D02*
X020902Y002278D01*
X020902Y002335D02*
X021559Y002335D01*
X021559Y002393D02*
X020902Y002393D01*
X020902Y002450D02*
X021559Y002450D01*
X021559Y002508D02*
X020902Y002508D01*
X020902Y002566D02*
X021559Y002566D01*
X021559Y002623D02*
X020902Y002623D01*
X020902Y002681D02*
X021559Y002681D01*
X021559Y002738D02*
X020902Y002738D01*
X020902Y002796D02*
X021559Y002796D01*
X021559Y002853D02*
X020902Y002853D01*
X020902Y002911D02*
X021559Y002911D01*
X021559Y002968D02*
X020902Y002968D01*
X020902Y003026D02*
X021559Y003026D01*
X021559Y003084D02*
X020902Y003084D01*
X020902Y003141D02*
X021559Y003141D01*
X021559Y003199D02*
X020902Y003199D01*
X020902Y003256D02*
X021559Y003256D01*
X021559Y003314D02*
X020902Y003314D01*
X020902Y003371D02*
X021559Y003371D01*
X021559Y003429D02*
X020902Y003429D01*
X020902Y003486D02*
X021559Y003486D01*
X021559Y003544D02*
X020902Y003544D01*
X020902Y003602D02*
X021559Y003602D01*
X021559Y003659D02*
X020902Y003659D01*
X020902Y003717D02*
X021559Y003717D01*
X021559Y003774D02*
X020902Y003774D01*
X020902Y003832D02*
X021559Y003832D01*
X021559Y003889D02*
X020902Y003889D01*
X020902Y003947D02*
X021559Y003947D01*
X021559Y004004D02*
X020902Y004004D01*
X020902Y004062D02*
X021559Y004062D01*
X021559Y004120D02*
X020902Y004120D01*
X020902Y004177D02*
X021559Y004177D01*
X021559Y004235D02*
X020902Y004235D01*
X020902Y004292D02*
X021559Y004292D01*
X021559Y004350D02*
X020902Y004350D01*
X020902Y004407D02*
X021559Y004407D01*
X021559Y004465D02*
X020902Y004465D01*
X020902Y004522D02*
X021559Y004522D01*
X021559Y004580D02*
X020902Y004580D01*
X020902Y004638D02*
X021559Y004638D01*
X021559Y004695D02*
X020902Y004695D01*
X020902Y004753D02*
X021559Y004753D01*
X021559Y004810D02*
X020902Y004810D01*
X020902Y004868D02*
X021559Y004868D01*
X021559Y004925D02*
X020902Y004925D01*
X020902Y004983D02*
X021559Y004983D01*
X021559Y005040D02*
X020902Y005040D01*
X020902Y005098D02*
X021559Y005098D01*
X021559Y005156D02*
X020902Y005156D01*
X020902Y005213D02*
X021559Y005213D01*
X021559Y005271D02*
X020902Y005271D01*
X020902Y005328D02*
X021559Y005328D01*
X021559Y005386D02*
X020902Y005386D01*
X020902Y005443D02*
X021559Y005443D01*
X021559Y005501D02*
X020902Y005501D01*
X020902Y005558D02*
X021559Y005558D01*
X021559Y005616D02*
X020902Y005616D01*
X020902Y005674D02*
X021559Y005674D01*
X021559Y005731D02*
X020902Y005731D01*
X020902Y005789D02*
X021559Y005789D01*
X021559Y005846D02*
X020902Y005846D01*
X020902Y005904D02*
X021559Y005904D01*
X021559Y005961D02*
X020902Y005961D01*
X020902Y006019D02*
X021559Y006019D01*
X021559Y006076D02*
X020902Y006076D01*
X020902Y006134D02*
X021559Y006134D01*
X021559Y006192D02*
X020902Y006192D01*
X020902Y006249D02*
X021559Y006249D01*
X021559Y006307D02*
X020902Y006307D01*
X020902Y006364D02*
X021559Y006364D01*
X021559Y006422D02*
X020902Y006422D01*
X020902Y006479D02*
X021559Y006479D01*
X021559Y006537D02*
X020902Y006537D01*
X020902Y006594D02*
X021559Y006594D01*
X021559Y006652D02*
X020902Y006652D01*
X020902Y006710D02*
X021559Y006710D01*
X021559Y006767D02*
X020902Y006767D01*
X020902Y006825D02*
X021559Y006825D01*
X021559Y006882D02*
X020902Y006882D01*
X020902Y006940D02*
X021559Y006940D01*
X021559Y006997D02*
X020902Y006997D01*
X020902Y007055D02*
X021559Y007055D01*
X021559Y007112D02*
X020902Y007112D01*
X020902Y007170D02*
X021559Y007170D01*
X021559Y007228D02*
X020902Y007228D01*
X020902Y007285D02*
X021559Y007285D01*
X021559Y007343D02*
X020902Y007343D01*
X020902Y007400D02*
X021559Y007400D01*
X021559Y007458D02*
X020902Y007458D01*
X020902Y007515D02*
X021559Y007515D01*
X021559Y007573D02*
X020902Y007573D01*
X020902Y007630D02*
X021559Y007630D01*
X021559Y007688D02*
X020902Y007688D01*
X020902Y007746D02*
X021559Y007746D01*
X021559Y007803D02*
X020902Y007803D01*
X020902Y007861D02*
X021559Y007861D01*
X021559Y007918D02*
X020902Y007918D01*
X020902Y007976D02*
X021559Y007976D01*
X021559Y008033D02*
X020902Y008033D01*
X020902Y008091D02*
X021559Y008091D01*
X021559Y008148D02*
X020902Y008148D01*
X020902Y008206D02*
X021559Y008206D01*
X021559Y008264D02*
X020902Y008264D01*
X020902Y008321D02*
X021559Y008321D01*
X021559Y008379D02*
X020902Y008379D01*
X020902Y008436D02*
X021559Y008436D01*
X021559Y008494D02*
X020902Y008494D01*
X020902Y008551D02*
X021559Y008551D01*
X021559Y008609D02*
X020902Y008609D01*
X020902Y008666D02*
X021559Y008666D01*
X021559Y008724D02*
X020902Y008724D01*
X020902Y008782D02*
X021559Y008782D01*
X021559Y008839D02*
X020902Y008839D01*
X020902Y008897D02*
X021559Y008897D01*
X021559Y008954D02*
X020902Y008954D01*
X020902Y009012D02*
X021559Y009012D01*
X021559Y009069D02*
X020902Y009069D01*
X020902Y009127D02*
X021559Y009127D01*
X021559Y009184D02*
X020902Y009184D01*
X020902Y009242D02*
X021559Y009242D01*
X021559Y009300D02*
X020902Y009300D01*
X020902Y009357D02*
X021559Y009357D01*
X021559Y009415D02*
X020902Y009415D01*
X020902Y009472D02*
X021559Y009472D01*
X021559Y009530D02*
X020902Y009530D01*
X020902Y009587D02*
X021559Y009587D01*
X021559Y009645D02*
X020902Y009645D01*
X020902Y009702D02*
X021559Y009702D01*
X021559Y009760D02*
X020902Y009760D01*
X020902Y009818D02*
X021559Y009818D01*
X021559Y009875D02*
X020902Y009875D01*
X020902Y009933D02*
X021559Y009933D01*
X021559Y009990D02*
X020902Y009990D01*
X020902Y010048D02*
X021559Y010048D01*
X021559Y010105D02*
X021263Y010105D01*
X021255Y010097D02*
X021365Y010207D01*
X021365Y010362D01*
X021255Y010472D01*
X021099Y010472D01*
X020990Y010362D01*
X020990Y010207D01*
X021099Y010097D01*
X021255Y010097D01*
X021321Y010163D02*
X021559Y010163D01*
X021559Y010220D02*
X021365Y010220D01*
X021365Y010278D02*
X021559Y010278D01*
X021559Y010336D02*
X021365Y010336D01*
X021334Y010393D02*
X021559Y010393D01*
X021559Y010451D02*
X021276Y010451D01*
X021078Y010451D02*
X020902Y010451D01*
X020902Y010508D02*
X021559Y010508D01*
X021559Y010566D02*
X020902Y010566D01*
X020902Y010623D02*
X021559Y010623D01*
X021559Y010681D02*
X020902Y010681D01*
X020902Y010738D02*
X021559Y010738D01*
X021559Y010796D02*
X020902Y010796D01*
X020902Y010854D02*
X021559Y010854D01*
X021559Y010911D02*
X020902Y010911D01*
X020902Y010969D02*
X021559Y010969D01*
X021559Y011026D02*
X020902Y011026D01*
X020902Y011084D02*
X021559Y011084D01*
X021559Y011141D02*
X020902Y011141D01*
X020902Y011199D02*
X021559Y011199D01*
X021559Y011256D02*
X020902Y011256D01*
X020902Y011314D02*
X021559Y011314D01*
X021559Y011372D02*
X020902Y011372D01*
X020902Y011429D02*
X021559Y011429D01*
X021559Y011487D02*
X020902Y011487D01*
X020902Y011544D02*
X021559Y011544D01*
X021559Y011602D02*
X020902Y011602D01*
X020902Y011659D02*
X021559Y011659D01*
X021559Y011717D02*
X020902Y011717D01*
X020902Y011774D02*
X021559Y011774D01*
X021559Y011832D02*
X020902Y011832D01*
X020902Y011890D02*
X021559Y011890D01*
X021559Y011947D02*
X020902Y011947D01*
X020902Y012005D02*
X021559Y012005D01*
X021559Y012062D02*
X020902Y012062D01*
X020902Y012120D02*
X021559Y012120D01*
X021559Y012177D02*
X020902Y012177D01*
X020902Y012235D02*
X021559Y012235D01*
X021559Y012292D02*
X020902Y012292D01*
X020902Y012350D02*
X021559Y012350D01*
X021559Y012408D02*
X020902Y012408D01*
X020902Y012465D02*
X021559Y012465D01*
X021559Y012523D02*
X020902Y012523D01*
X020902Y012580D02*
X021559Y012580D01*
X021559Y012638D02*
X020902Y012638D01*
X020902Y012695D02*
X021559Y012695D01*
X021559Y012753D02*
X020902Y012753D01*
X020902Y012810D02*
X021559Y012810D01*
X021559Y012868D02*
X020902Y012868D01*
X020902Y012926D02*
X021559Y012926D01*
X021559Y012983D02*
X020902Y012983D01*
X020902Y013041D02*
X021559Y013041D01*
X021559Y013098D02*
X020902Y013098D01*
X020902Y013156D02*
X021559Y013156D01*
X021559Y013213D02*
X020902Y013213D01*
X020902Y013271D02*
X021559Y013271D01*
X021559Y013328D02*
X020902Y013328D01*
X020902Y013386D02*
X021559Y013386D01*
X021559Y013444D02*
X020902Y013444D01*
X020902Y013501D02*
X021559Y013501D01*
X021559Y013559D02*
X020902Y013559D01*
X020902Y013616D02*
X021559Y013616D01*
X021559Y013674D02*
X020902Y013674D01*
X020902Y013731D02*
X021559Y013731D01*
X021559Y013789D02*
X020902Y013789D01*
X020902Y013846D02*
X021559Y013846D01*
X021559Y013904D02*
X020902Y013904D01*
X020902Y013962D02*
X021559Y013962D01*
X021559Y014019D02*
X020902Y014019D01*
X020902Y014077D02*
X021559Y014077D01*
X021559Y014134D02*
X020902Y014134D01*
X020902Y014192D02*
X021559Y014192D01*
X021559Y014249D02*
X020902Y014249D01*
X020902Y014307D02*
X021559Y014307D01*
X021559Y014364D02*
X020902Y014364D01*
X020902Y014422D02*
X021559Y014422D01*
X021559Y014480D02*
X020902Y014480D01*
X020902Y014537D02*
X021559Y014537D01*
X021559Y014595D02*
X020902Y014595D01*
X020902Y014652D02*
X021559Y014652D01*
X021559Y014710D02*
X020902Y014710D01*
X020902Y014767D02*
X021559Y014767D01*
X021559Y014825D02*
X020902Y014825D01*
X020902Y014882D02*
X021559Y014882D01*
X021559Y014940D02*
X020902Y014940D01*
X020902Y014998D02*
X021559Y014998D01*
X021559Y015055D02*
X020902Y015055D01*
X020902Y015113D02*
X021559Y015113D01*
X021559Y015170D02*
X020902Y015170D01*
X020902Y015228D02*
X021559Y015228D01*
X021559Y015285D02*
X020902Y015285D01*
X020902Y015343D02*
X021559Y015343D01*
X021559Y015400D02*
X020902Y015400D01*
X020902Y015458D02*
X021559Y015458D01*
X021559Y015516D02*
X020902Y015516D01*
X020902Y015573D02*
X021559Y015573D01*
X021559Y015631D02*
X020902Y015631D01*
X020902Y015688D02*
X021559Y015688D01*
X021559Y015746D02*
X020902Y015746D01*
X020902Y015803D02*
X021559Y015803D01*
X021559Y015861D02*
X020902Y015861D01*
X020902Y015918D02*
X021559Y015918D01*
X021559Y015976D02*
X020902Y015976D01*
X020902Y016034D02*
X021559Y016034D01*
X021559Y016091D02*
X020902Y016091D01*
X020902Y016149D02*
X021559Y016149D01*
X021559Y016206D02*
X020902Y016206D01*
X020902Y016264D02*
X021559Y016264D01*
X021559Y016321D02*
X020902Y016321D01*
X020902Y016379D02*
X021559Y016379D01*
X021559Y016436D02*
X020902Y016436D01*
X020902Y016494D02*
X021559Y016494D01*
X021559Y016552D02*
X020902Y016552D01*
X020902Y016609D02*
X021559Y016609D01*
X021559Y016667D02*
X020902Y016667D01*
X020902Y016724D02*
X021559Y016724D01*
X021559Y016782D02*
X020902Y016782D01*
X020902Y016839D02*
X021559Y016839D01*
X021559Y016897D02*
X020902Y016897D01*
X020902Y016954D02*
X021559Y016954D01*
X021559Y017012D02*
X020902Y017012D01*
X020902Y017070D02*
X021559Y017070D01*
X021559Y017127D02*
X020902Y017127D01*
X020902Y017185D02*
X021559Y017185D01*
X021559Y017242D02*
X020902Y017242D01*
X020902Y017300D02*
X021559Y017300D01*
X021559Y017357D02*
X020902Y017357D01*
X020902Y017415D02*
X021559Y017415D01*
X021559Y017472D02*
X020902Y017472D01*
X020902Y017530D02*
X021559Y017530D01*
X021559Y017588D02*
X020902Y017588D01*
X020902Y017645D02*
X021559Y017645D01*
X021559Y017703D02*
X020902Y017703D01*
X020902Y017760D02*
X021559Y017760D01*
X021559Y017818D02*
X020902Y017818D01*
X020902Y017875D02*
X021559Y017875D01*
X021559Y017933D02*
X020902Y017933D01*
X020902Y017990D02*
X021559Y017990D01*
X021559Y018048D02*
X020902Y018048D01*
X020902Y018106D02*
X021559Y018106D01*
X021559Y018163D02*
X020902Y018163D01*
X020902Y018221D02*
X021559Y018221D01*
X021559Y018278D02*
X020902Y018278D01*
X020902Y018336D02*
X021559Y018336D01*
X021559Y018393D02*
X020902Y018393D01*
X020902Y018451D02*
X021559Y018451D01*
X021559Y018508D02*
X020902Y018508D01*
X020902Y018566D02*
X021559Y018566D01*
X021559Y018624D02*
X020902Y018624D01*
X020902Y018681D02*
X021559Y018681D01*
X021559Y018739D02*
X020902Y018739D01*
X020902Y018796D02*
X021559Y018796D01*
X021559Y018854D02*
X020902Y018854D01*
X020902Y018911D02*
X021559Y018911D01*
X021559Y018969D02*
X020902Y018969D01*
X020902Y019026D02*
X021559Y019026D01*
X021559Y019084D02*
X020902Y019084D01*
X020902Y019142D02*
X021559Y019142D01*
X021559Y019199D02*
X020902Y019199D01*
X020902Y019257D02*
X021559Y019257D01*
X021559Y019314D02*
X020902Y019314D01*
X020902Y019372D02*
X021559Y019372D01*
X021559Y019429D02*
X020902Y019429D01*
X020902Y019487D02*
X021559Y019487D01*
X021556Y019544D02*
X001350Y019544D01*
X001346Y019487D02*
X002004Y019487D01*
X002004Y019429D02*
X001346Y019429D01*
X001346Y019372D02*
X002004Y019372D01*
X002004Y019314D02*
X001346Y019314D01*
X001346Y019257D02*
X002004Y019257D01*
X002004Y019199D02*
X001346Y019199D01*
X001346Y019142D02*
X002004Y019142D01*
X002004Y019084D02*
X001346Y019084D01*
X001346Y019026D02*
X002004Y019026D01*
X002004Y018969D02*
X001346Y018969D01*
X001346Y018911D02*
X002004Y018911D01*
X002004Y018854D02*
X001346Y018854D01*
X001346Y018796D02*
X002004Y018796D01*
X002004Y018739D02*
X001346Y018739D01*
X001346Y018681D02*
X002004Y018681D01*
X002004Y018624D02*
X001346Y018624D01*
X001346Y018566D02*
X002004Y018566D01*
X002004Y018508D02*
X001346Y018508D01*
X001346Y018451D02*
X002004Y018451D01*
X002004Y018393D02*
X001346Y018393D01*
X001346Y018336D02*
X002004Y018336D01*
X002004Y018278D02*
X001346Y018278D01*
X001346Y018221D02*
X002004Y018221D01*
X002004Y018163D02*
X001346Y018163D01*
X001346Y018106D02*
X002004Y018106D01*
X002004Y018048D02*
X001346Y018048D01*
X001346Y017990D02*
X002004Y017990D01*
X002004Y017933D02*
X001346Y017933D01*
X001346Y017875D02*
X002004Y017875D01*
X002004Y017818D02*
X001346Y017818D01*
X001346Y017760D02*
X002004Y017760D01*
X002004Y017703D02*
X001346Y017703D01*
X001346Y017645D02*
X002004Y017645D01*
X002004Y017588D02*
X001346Y017588D01*
X001346Y017530D02*
X002004Y017530D01*
X002004Y017472D02*
X001346Y017472D01*
X001346Y017415D02*
X002004Y017415D01*
X002004Y017357D02*
X001346Y017357D01*
X001346Y017300D02*
X002004Y017300D01*
X002004Y017242D02*
X001346Y017242D01*
X001346Y017185D02*
X002004Y017185D01*
X002004Y017127D02*
X001346Y017127D01*
X001346Y017070D02*
X002004Y017070D01*
X002004Y017012D02*
X001346Y017012D01*
X001346Y016954D02*
X002004Y016954D01*
X002004Y016897D02*
X001346Y016897D01*
X001346Y016839D02*
X002004Y016839D01*
X002004Y016782D02*
X001346Y016782D01*
X001346Y016724D02*
X002004Y016724D01*
X002004Y016667D02*
X001346Y016667D01*
X001346Y016609D02*
X002004Y016609D01*
X002004Y016552D02*
X001346Y016552D01*
X001346Y016494D02*
X002004Y016494D01*
X002004Y016436D02*
X001346Y016436D01*
X001346Y016379D02*
X002004Y016379D01*
X002004Y016321D02*
X001346Y016321D01*
X001346Y016264D02*
X002004Y016264D01*
X002004Y016206D02*
X001346Y016206D01*
X001346Y016149D02*
X002004Y016149D01*
X002004Y016091D02*
X001346Y016091D01*
X001346Y016034D02*
X002004Y016034D01*
X002004Y015976D02*
X001346Y015976D01*
X001346Y015918D02*
X002004Y015918D01*
X002004Y015861D02*
X001346Y015861D01*
X001346Y015803D02*
X002004Y015803D01*
X002004Y015746D02*
X001346Y015746D01*
X001346Y015688D02*
X002004Y015688D01*
X002004Y015631D02*
X001346Y015631D01*
X001346Y015573D02*
X002004Y015573D01*
X002004Y015516D02*
X001346Y015516D01*
X001346Y015458D02*
X002004Y015458D01*
X002004Y015400D02*
X001346Y015400D01*
X001346Y015343D02*
X002004Y015343D01*
X002004Y015285D02*
X001346Y015285D01*
X001346Y015228D02*
X002004Y015228D01*
X002004Y015170D02*
X001346Y015170D01*
X001346Y015113D02*
X002004Y015113D01*
X002004Y015055D02*
X001346Y015055D01*
X001346Y014998D02*
X002004Y014998D01*
X002004Y014940D02*
X001346Y014940D01*
X001346Y014882D02*
X002004Y014882D01*
X002004Y014825D02*
X001346Y014825D01*
X001346Y014767D02*
X002004Y014767D01*
X002004Y014710D02*
X001346Y014710D01*
X001346Y014652D02*
X002004Y014652D01*
X002004Y014595D02*
X001346Y014595D01*
X001346Y014537D02*
X002004Y014537D01*
X002004Y014480D02*
X001346Y014480D01*
X001346Y014422D02*
X002004Y014422D01*
X002004Y014364D02*
X001346Y014364D01*
X001346Y014307D02*
X002004Y014307D01*
X002004Y014249D02*
X001346Y014249D01*
X001346Y014192D02*
X002004Y014192D01*
X002004Y014134D02*
X001346Y014134D01*
X001346Y014077D02*
X002004Y014077D01*
X002004Y014019D02*
X001346Y014019D01*
X001346Y013962D02*
X002004Y013962D01*
X002004Y013904D02*
X001346Y013904D01*
X001346Y013846D02*
X002004Y013846D01*
X002004Y013789D02*
X001346Y013789D01*
X001346Y013731D02*
X002004Y013731D01*
X002004Y013674D02*
X001346Y013674D01*
X001346Y013616D02*
X002004Y013616D01*
X002004Y013559D02*
X001346Y013559D01*
X001346Y013501D02*
X002004Y013501D01*
X002004Y013444D02*
X001346Y013444D01*
X001346Y013386D02*
X002004Y013386D01*
X002004Y013328D02*
X001346Y013328D01*
X001346Y013271D02*
X002004Y013271D01*
X002004Y013213D02*
X001346Y013213D01*
X001346Y013156D02*
X002004Y013156D01*
X002004Y013098D02*
X001346Y013098D01*
X001346Y013041D02*
X002004Y013041D01*
X002004Y012983D02*
X001346Y012983D01*
X001346Y012926D02*
X002004Y012926D01*
X002004Y012868D02*
X001346Y012868D01*
X001346Y012810D02*
X002004Y012810D01*
X002004Y012753D02*
X001346Y012753D01*
X001346Y012695D02*
X002004Y012695D01*
X002004Y012638D02*
X001346Y012638D01*
X001346Y012580D02*
X002004Y012580D01*
X002004Y012523D02*
X001346Y012523D01*
X001346Y012465D02*
X002004Y012465D01*
X002004Y012408D02*
X001346Y012408D01*
X001346Y012350D02*
X002004Y012350D01*
X002004Y012292D02*
X001346Y012292D01*
X001346Y012235D02*
X002004Y012235D01*
X002004Y012177D02*
X001346Y012177D01*
X001346Y012120D02*
X002004Y012120D01*
X002004Y012062D02*
X001346Y012062D01*
X001346Y012005D02*
X002004Y012005D01*
X002004Y011947D02*
X001346Y011947D01*
X001346Y011890D02*
X002004Y011890D01*
X002004Y011832D02*
X001346Y011832D01*
X001346Y011774D02*
X002004Y011774D01*
X002004Y011717D02*
X001346Y011717D01*
X001346Y011659D02*
X002004Y011659D01*
X002004Y011602D02*
X001346Y011602D01*
X001346Y011544D02*
X002004Y011544D01*
X002004Y011487D02*
X001346Y011487D01*
X001346Y011429D02*
X002004Y011429D01*
X002004Y011372D02*
X001346Y011372D01*
X001346Y011314D02*
X002004Y011314D01*
X002004Y011256D02*
X001346Y011256D01*
X001346Y011199D02*
X002004Y011199D01*
X002004Y011141D02*
X001346Y011141D01*
X001346Y011084D02*
X002004Y011084D01*
X002004Y011026D02*
X001346Y011026D01*
X001346Y010969D02*
X002004Y010969D01*
X002004Y010911D02*
X001346Y010911D01*
X001346Y010854D02*
X002004Y010854D01*
X002004Y010796D02*
X001346Y010796D01*
X001346Y010738D02*
X002004Y010738D01*
X002004Y010681D02*
X001346Y010681D01*
X001346Y010623D02*
X002004Y010623D01*
X002004Y010566D02*
X001346Y010566D01*
X001346Y010508D02*
X002004Y010508D01*
X002004Y010451D02*
X001346Y010451D01*
X001346Y010393D02*
X002004Y010393D01*
X002004Y010336D02*
X001346Y010336D01*
X001346Y010278D02*
X002004Y010278D01*
X002004Y010220D02*
X001346Y010220D01*
X001346Y010163D02*
X002004Y010163D01*
X002004Y010105D02*
X001346Y010105D01*
X001346Y010048D02*
X002004Y010048D01*
X002004Y009990D02*
X001346Y009990D01*
X001346Y009933D02*
X002004Y009933D01*
X002004Y009875D02*
X001346Y009875D01*
X001346Y009818D02*
X002004Y009818D01*
X002004Y009760D02*
X001346Y009760D01*
X001346Y009702D02*
X002004Y009702D01*
X002004Y009645D02*
X001346Y009645D01*
X001346Y009587D02*
X002004Y009587D01*
X002004Y009530D02*
X001346Y009530D01*
X001346Y009472D02*
X002004Y009472D01*
X002004Y009415D02*
X001346Y009415D01*
X001346Y009357D02*
X002004Y009357D01*
X002004Y009300D02*
X001346Y009300D01*
X001346Y009242D02*
X002004Y009242D01*
X002004Y009184D02*
X001346Y009184D01*
X001346Y009127D02*
X002004Y009127D01*
X002004Y009069D02*
X001346Y009069D01*
X001346Y009012D02*
X002004Y009012D01*
X002004Y008954D02*
X001346Y008954D01*
X001346Y008897D02*
X002004Y008897D01*
X002004Y008839D02*
X001346Y008839D01*
X001346Y008782D02*
X002004Y008782D01*
X001871Y008724D02*
X001346Y008724D01*
X001346Y008666D02*
X001816Y008666D01*
X001816Y008609D02*
X001346Y008609D01*
X001346Y008551D02*
X001816Y008551D01*
X001836Y008494D02*
X001678Y008494D01*
X001625Y008547D02*
X001470Y008547D01*
X001360Y008437D01*
X001360Y008282D01*
X001470Y008172D01*
X001625Y008172D01*
X001735Y008282D01*
X001735Y008437D01*
X001625Y008547D01*
X001735Y008436D02*
X001894Y008436D01*
X001735Y008379D02*
X009838Y008379D01*
X009838Y008436D02*
X002114Y008436D01*
X002171Y008494D02*
X009838Y008494D01*
X009838Y008551D02*
X002192Y008551D01*
X002192Y008609D02*
X009838Y008609D01*
X009864Y008666D02*
X002192Y008666D01*
X001735Y008321D02*
X009838Y008321D01*
X009838Y008264D02*
X001717Y008264D01*
X001659Y008206D02*
X009834Y008206D01*
X009876Y008148D02*
X001346Y008148D01*
X001346Y008091D02*
X009922Y008091D01*
X010088Y008264D02*
X011351Y008264D01*
X011374Y008286D02*
X011246Y008159D01*
X010171Y008159D01*
X010075Y008279D01*
X010075Y008542D01*
X010085Y008552D01*
X010518Y008552D01*
X010587Y008621D01*
X010636Y008670D01*
X011413Y008670D01*
X011492Y008585D01*
X011492Y008582D01*
X011525Y008549D01*
X011556Y008515D01*
X011559Y008515D01*
X011561Y008512D01*
X011608Y008512D01*
X011654Y008510D01*
X011656Y008512D01*
X013195Y008512D01*
X013353Y008670D01*
X015074Y008670D01*
X015074Y008080D01*
X014754Y008080D01*
X014721Y008121D01*
X014721Y008129D01*
X014691Y008159D01*
X014664Y008192D01*
X014657Y008193D01*
X014652Y008198D01*
X014609Y008198D01*
X014567Y008203D01*
X014561Y008198D01*
X011916Y008198D01*
X011916Y008315D01*
X011806Y008425D01*
X011651Y008425D01*
X011582Y008356D01*
X011443Y008356D01*
X011374Y008286D01*
X011374Y008286D01*
X011408Y008321D02*
X010075Y008321D01*
X010075Y008379D02*
X011604Y008379D01*
X011522Y008551D02*
X010084Y008551D01*
X010075Y008494D02*
X015074Y008494D01*
X015074Y008551D02*
X013234Y008551D01*
X013291Y008609D02*
X015074Y008609D01*
X015074Y008666D02*
X013349Y008666D01*
X014701Y008148D02*
X015074Y008148D01*
X015074Y008091D02*
X014745Y008091D01*
X015074Y008206D02*
X011916Y008206D01*
X011916Y008264D02*
X015074Y008264D01*
X015074Y008321D02*
X011910Y008321D01*
X011852Y008379D02*
X015074Y008379D01*
X015074Y008436D02*
X010075Y008436D01*
X010134Y008206D02*
X011293Y008206D01*
X011470Y008609D02*
X010575Y008609D01*
X010632Y008666D02*
X011417Y008666D01*
X015312Y008666D02*
X016768Y008666D01*
X016768Y008609D02*
X015312Y008609D01*
X015312Y008551D02*
X016768Y008551D01*
X016768Y008494D02*
X015312Y008494D01*
X015312Y008436D02*
X016768Y008436D01*
X016768Y008379D02*
X015312Y008379D01*
X015312Y008321D02*
X016768Y008321D01*
X016768Y008264D02*
X015312Y008264D01*
X015312Y008206D02*
X016768Y008206D01*
X016768Y008148D02*
X015312Y008148D01*
X015312Y008091D02*
X016768Y008091D01*
X016768Y008033D02*
X016374Y008033D01*
X016374Y007976D02*
X016768Y007976D01*
X016768Y007918D02*
X016374Y007918D01*
X016374Y007861D02*
X016768Y007861D01*
X016768Y007803D02*
X016374Y007803D01*
X016374Y007746D02*
X016768Y007746D01*
X016768Y007688D02*
X016374Y007688D01*
X016374Y007630D02*
X016768Y007630D01*
X016768Y007573D02*
X016374Y007573D01*
X016374Y007515D02*
X016768Y007515D01*
X016768Y007458D02*
X016374Y007458D01*
X016374Y007400D02*
X016768Y007400D01*
X016768Y007343D02*
X016374Y007343D01*
X016374Y007285D02*
X016768Y007285D01*
X016768Y007228D02*
X016374Y007228D01*
X016374Y007170D02*
X016768Y007170D01*
X016768Y007112D02*
X016374Y007112D01*
X016374Y007055D02*
X016768Y007055D01*
X016768Y006997D02*
X016374Y006997D01*
X016374Y006940D02*
X016768Y006940D01*
X016768Y006882D02*
X016374Y006882D01*
X016374Y006825D02*
X016768Y006825D01*
X016768Y006767D02*
X016374Y006767D01*
X016374Y006710D02*
X016768Y006710D01*
X016768Y006652D02*
X016374Y006652D01*
X016374Y006594D02*
X016768Y006594D01*
X016768Y006537D02*
X016374Y006537D01*
X016374Y006479D02*
X016768Y006479D01*
X016768Y006422D02*
X016374Y006422D01*
X016374Y006364D02*
X016768Y006364D01*
X016768Y006307D02*
X016374Y006307D01*
X016374Y006249D02*
X016768Y006249D01*
X016768Y006192D02*
X016374Y006192D01*
X016374Y006134D02*
X016768Y006134D01*
X016768Y006076D02*
X016374Y006076D01*
X016374Y006019D02*
X016768Y006019D01*
X016768Y005961D02*
X016374Y005961D01*
X016374Y005904D02*
X016768Y005904D01*
X016768Y005846D02*
X016374Y005846D01*
X016374Y005789D02*
X016768Y005789D01*
X016768Y005731D02*
X016374Y005731D01*
X016374Y005674D02*
X016768Y005674D01*
X016768Y005616D02*
X016374Y005616D01*
X016374Y005558D02*
X016768Y005558D01*
X016768Y005501D02*
X016374Y005501D01*
X016374Y005443D02*
X016768Y005443D01*
X016768Y005386D02*
X016374Y005386D01*
X016374Y005328D02*
X016768Y005328D01*
X016768Y005271D02*
X016374Y005271D01*
X016374Y005213D02*
X016768Y005213D01*
X016768Y005156D02*
X016374Y005156D01*
X016374Y005098D02*
X016768Y005098D01*
X016768Y005040D02*
X016374Y005040D01*
X016374Y004983D02*
X016768Y004983D01*
X016768Y004925D02*
X016374Y004925D01*
X016374Y004868D02*
X016768Y004868D01*
X016768Y004810D02*
X016374Y004810D01*
X016374Y004753D02*
X016768Y004753D01*
X016768Y004695D02*
X016374Y004695D01*
X016374Y004638D02*
X016768Y004638D01*
X016768Y004580D02*
X016374Y004580D01*
X016374Y004522D02*
X016768Y004522D01*
X016768Y004465D02*
X016374Y004465D01*
X016374Y004407D02*
X016768Y004407D01*
X016768Y004350D02*
X016374Y004350D01*
X016374Y004292D02*
X016768Y004292D01*
X016768Y004235D02*
X016374Y004235D01*
X016374Y004177D02*
X016768Y004177D01*
X016768Y004120D02*
X016374Y004120D01*
X016374Y004062D02*
X016768Y004062D01*
X016768Y004004D02*
X016374Y004004D01*
X016374Y003947D02*
X016768Y003947D01*
X016768Y003889D02*
X016374Y003889D01*
X016374Y003832D02*
X016768Y003832D01*
X016768Y003774D02*
X016374Y003774D01*
X016374Y003717D02*
X016768Y003717D01*
X016768Y003659D02*
X016374Y003659D01*
X016374Y003602D02*
X016768Y003602D01*
X016768Y003544D02*
X016374Y003544D01*
X016374Y003486D02*
X016768Y003486D01*
X016768Y003429D02*
X016374Y003429D01*
X016374Y003371D02*
X016768Y003371D01*
X016768Y003314D02*
X016374Y003314D01*
X016374Y003256D02*
X016768Y003256D01*
X016768Y003199D02*
X016374Y003199D01*
X016374Y003141D02*
X016768Y003141D01*
X016768Y003084D02*
X016374Y003084D01*
X016374Y003026D02*
X016768Y003026D01*
X016768Y002968D02*
X016711Y002968D01*
X016509Y002968D02*
X016374Y002968D01*
X016374Y002911D02*
X016452Y002911D01*
X016423Y002853D02*
X016374Y002853D01*
X016374Y002796D02*
X016423Y002796D01*
X016423Y002738D02*
X016374Y002738D01*
X016374Y002681D02*
X016468Y002681D01*
X016526Y002623D02*
X016374Y002623D01*
X016374Y002566D02*
X016500Y002566D01*
X016442Y002508D02*
X016374Y002508D01*
X016374Y002450D02*
X016423Y002450D01*
X016423Y002393D02*
X016374Y002393D01*
X016374Y002335D02*
X016423Y002335D01*
X016374Y002278D02*
X016478Y002278D01*
X016470Y002220D02*
X016374Y002220D01*
X016374Y002163D02*
X016423Y002163D01*
X016423Y002105D02*
X016374Y002105D01*
X016374Y002048D02*
X016423Y002048D01*
X016450Y001990D02*
X016374Y001990D01*
X016374Y001932D02*
X016457Y001932D01*
X016423Y001875D02*
X016374Y001875D01*
X016374Y001817D02*
X016423Y001817D01*
X016423Y001760D02*
X016374Y001760D01*
X016374Y001702D02*
X016463Y001702D01*
X016520Y001645D02*
X016374Y001645D01*
X016374Y001587D02*
X016768Y001587D01*
X016768Y001530D02*
X016374Y001530D01*
X016374Y001472D02*
X016768Y001472D01*
X016768Y001414D02*
X016374Y001414D01*
X016374Y001357D02*
X016768Y001357D01*
X016768Y001299D02*
X016374Y001299D01*
X016374Y001242D02*
X016768Y001242D01*
X016768Y001184D02*
X016374Y001184D01*
X016374Y001127D02*
X016768Y001127D01*
X016768Y001069D02*
X016374Y001069D01*
X016374Y001012D02*
X016768Y001012D01*
X016768Y001645D02*
X016700Y001645D01*
X016758Y001702D02*
X016768Y001702D01*
X016768Y002566D02*
X016721Y002566D01*
X016695Y002623D02*
X016768Y002623D01*
X016768Y002681D02*
X016752Y002681D01*
X020902Y010105D02*
X021091Y010105D01*
X021033Y010163D02*
X020902Y010163D01*
X020902Y010220D02*
X020990Y010220D01*
X020990Y010278D02*
X020902Y010278D01*
X020902Y010336D02*
X020990Y010336D01*
X021020Y010393D02*
X020902Y010393D01*
X021551Y019602D02*
X001355Y019602D01*
X001374Y019660D02*
X021532Y019660D01*
X021513Y019717D02*
X001392Y019717D01*
X001411Y019775D02*
X021495Y019775D01*
X021461Y019832D02*
X001444Y019832D01*
X001486Y019890D02*
X021420Y019890D01*
X021378Y019947D02*
X001528Y019947D01*
X001597Y020005D02*
X021308Y020005D01*
X021229Y020062D02*
X001677Y020062D01*
X001818Y020120D02*
X021087Y020120D01*
X001807Y008033D02*
X001346Y008033D01*
X001346Y007976D02*
X001807Y007976D01*
X001807Y007918D02*
X001346Y007918D01*
X001346Y007861D02*
X001807Y007861D01*
X001807Y007803D02*
X001346Y007803D01*
X001346Y007746D02*
X001807Y007746D01*
X001807Y007688D02*
X001346Y007688D01*
X001346Y007630D02*
X001807Y007630D01*
X001807Y007573D02*
X001346Y007573D01*
X001346Y007515D02*
X001807Y007515D01*
X001807Y007458D02*
X001773Y007458D01*
X001605Y007458D02*
X001346Y007458D01*
X001346Y007400D02*
X001547Y007400D01*
X001501Y007343D02*
X001346Y007343D01*
X001346Y007285D02*
X001501Y007285D01*
X001501Y007228D02*
X001346Y007228D01*
X001346Y007170D02*
X001530Y007170D01*
X001588Y007112D02*
X001346Y007112D01*
X001346Y007055D02*
X001807Y007055D01*
X001807Y007112D02*
X001790Y007112D01*
X001807Y006997D02*
X001346Y006997D01*
X001346Y006940D02*
X001807Y006940D01*
X001807Y006882D02*
X001346Y006882D01*
X001346Y006825D02*
X001807Y006825D01*
X001807Y006767D02*
X001346Y006767D01*
X001346Y006710D02*
X001807Y006710D01*
X001807Y006652D02*
X001346Y006652D01*
X001346Y006594D02*
X001807Y006594D01*
X001807Y006537D02*
X001346Y006537D01*
X001346Y006479D02*
X001807Y006479D01*
X001807Y006422D02*
X001346Y006422D01*
X001346Y006364D02*
X001807Y006364D01*
X001807Y006307D02*
X001346Y006307D01*
X001346Y006249D02*
X001807Y006249D01*
X001807Y006192D02*
X001346Y006192D01*
X001346Y006134D02*
X001807Y006134D01*
X001807Y006076D02*
X001346Y006076D01*
X001346Y006019D02*
X001807Y006019D01*
X001807Y005961D02*
X001346Y005961D01*
X001346Y005904D02*
X001807Y005904D01*
X001807Y005846D02*
X001346Y005846D01*
X001346Y005789D02*
X001807Y005789D01*
X001807Y005731D02*
X001346Y005731D01*
X001346Y005674D02*
X001807Y005674D01*
X001807Y005616D02*
X001346Y005616D01*
X001346Y005558D02*
X001807Y005558D01*
X001807Y005501D02*
X001346Y005501D01*
X001346Y005443D02*
X001807Y005443D01*
X001807Y005386D02*
X001346Y005386D01*
X001346Y005328D02*
X001807Y005328D01*
X001807Y005271D02*
X001346Y005271D01*
X001346Y005213D02*
X001807Y005213D01*
X001807Y005156D02*
X001346Y005156D01*
X001346Y005098D02*
X001807Y005098D01*
X001807Y005040D02*
X001346Y005040D01*
X001346Y004983D02*
X001807Y004983D01*
X001807Y004925D02*
X001346Y004925D01*
X001346Y004868D02*
X001807Y004868D01*
X001807Y004810D02*
X001346Y004810D01*
X001346Y004753D02*
X001807Y004753D01*
X001807Y004695D02*
X001346Y004695D01*
X001346Y004638D02*
X001807Y004638D01*
X001807Y004580D02*
X001346Y004580D01*
X001346Y004522D02*
X001807Y004522D01*
X001807Y004465D02*
X001346Y004465D01*
X001346Y004407D02*
X001807Y004407D01*
X001807Y004350D02*
X001346Y004350D01*
X001346Y004292D02*
X001807Y004292D01*
X001807Y004235D02*
X001346Y004235D01*
X001346Y004177D02*
X001807Y004177D01*
X001807Y004120D02*
X001346Y004120D01*
X001346Y004062D02*
X001807Y004062D01*
X001807Y004004D02*
X001346Y004004D01*
X001346Y003947D02*
X001807Y003947D01*
X001807Y003889D02*
X001346Y003889D01*
X001346Y003832D02*
X001807Y003832D01*
X001807Y003774D02*
X001346Y003774D01*
X001346Y003717D02*
X001807Y003717D01*
X001807Y003659D02*
X001346Y003659D01*
X001346Y003602D02*
X001807Y003602D01*
X001807Y003544D02*
X001346Y003544D01*
X001346Y003486D02*
X001807Y003486D01*
X001807Y003429D02*
X001346Y003429D01*
X001346Y003371D02*
X001807Y003371D01*
X001807Y003314D02*
X001346Y003314D01*
X001346Y003256D02*
X001807Y003256D01*
X001807Y003199D02*
X001346Y003199D01*
X001346Y003141D02*
X001807Y003141D01*
X001807Y003084D02*
X001346Y003084D01*
X001346Y003026D02*
X001807Y003026D01*
X001807Y002968D02*
X001346Y002968D01*
X001346Y002911D02*
X001807Y002911D01*
X001807Y002853D02*
X001346Y002853D01*
X001346Y002796D02*
X001807Y002796D01*
X001807Y002738D02*
X001346Y002738D01*
X001346Y002681D02*
X001807Y002681D01*
X001807Y002623D02*
X001346Y002623D01*
X001346Y002566D02*
X001807Y002566D01*
X001807Y002508D02*
X001346Y002508D01*
X001346Y002450D02*
X001807Y002450D01*
X001807Y002393D02*
X001346Y002393D01*
X001346Y002335D02*
X001807Y002335D01*
X001807Y002278D02*
X001346Y002278D01*
X001346Y002220D02*
X001807Y002220D01*
X001807Y002163D02*
X001346Y002163D01*
X001346Y002105D02*
X001807Y002105D01*
X001807Y002048D02*
X001346Y002048D01*
X001346Y001990D02*
X001807Y001990D01*
X001807Y001932D02*
X001346Y001932D01*
X001346Y001875D02*
X001807Y001875D01*
X001807Y001817D02*
X001346Y001817D01*
X001346Y001760D02*
X001807Y001760D01*
X001807Y001702D02*
X001346Y001702D01*
X001346Y001645D02*
X001807Y001645D01*
X001807Y001587D02*
X001346Y001587D01*
X001346Y001530D02*
X001807Y001530D01*
X001807Y001472D02*
X001346Y001472D01*
X001346Y001414D02*
X001807Y001414D01*
X001807Y001357D02*
X001346Y001357D01*
X001346Y001299D02*
X001807Y001299D01*
X001807Y001242D02*
X001346Y001242D01*
X001346Y001184D02*
X001807Y001184D01*
X001807Y001127D02*
X001346Y001127D01*
X001346Y001069D02*
X001807Y001069D01*
X001807Y001012D02*
X001346Y001012D01*
X001346Y008206D02*
X001435Y008206D01*
X001378Y008264D02*
X001346Y008264D01*
X001346Y008321D02*
X001360Y008321D01*
X001360Y008379D02*
X001346Y008379D01*
X001346Y008436D02*
X001360Y008436D01*
X001346Y008494D02*
X001416Y008494D01*
D15*
X005087Y013710D03*
X003382Y015836D03*
X007189Y016584D03*
X008016Y015403D03*
X008488Y015403D03*
X010378Y015403D03*
X010378Y014222D03*
X010378Y013828D03*
X010850Y013828D03*
X010850Y014222D03*
X011323Y014222D03*
X012201Y012844D03*
X012595Y012844D03*
X010732Y012450D03*
X010378Y012450D03*
X013134Y016229D03*
X012937Y018237D03*
X015260Y017765D03*
X015850Y017765D03*
X015850Y016977D03*
X015260Y016977D03*
X015260Y016190D03*
X015850Y016190D03*
X015417Y015324D03*
X017622Y016977D03*
X018409Y016977D03*
X019787Y017174D03*
X020969Y017174D03*
X020969Y015796D03*
X020969Y014615D03*
X020969Y013631D03*
X020969Y012844D03*
X019591Y012844D03*
X019591Y013631D03*
X019787Y014615D03*
X019787Y015088D03*
X018409Y018355D03*
X018409Y018946D03*
X019000Y019143D03*
X019787Y019143D03*
X017622Y018946D03*
X017622Y018355D03*
X015850Y018946D03*
X015260Y018946D03*
X009906Y017096D03*
D16*
X005154Y007599D02*
X005087Y007525D01*
X005091Y005509D01*
X005096Y005484D01*
X005104Y005459D01*
X005116Y005436D01*
X005130Y005415D01*
X005148Y005396D01*
X005168Y005379D01*
X005191Y005366D01*
X005215Y005356D01*
X005240Y005350D01*
X005266Y005347D01*
X005292Y005348D01*
X005291Y005348D02*
X007343Y005348D01*
X007345Y005346D01*
X007347Y005343D01*
X007347Y005340D01*
X007555Y005914D02*
X007563Y002662D01*
X007558Y002641D01*
X007550Y002621D01*
X007539Y002602D01*
X007525Y002585D01*
X007508Y002571D01*
X007490Y002559D01*
X007470Y002550D01*
X007449Y002545D01*
X007427Y002543D01*
X007405Y002544D01*
X007406Y002544D02*
X006453Y002544D01*
X003658Y001938D02*
X003658Y005993D01*
X003657Y005994D02*
X003653Y006027D01*
X003646Y006059D01*
X003634Y006090D01*
X003620Y006120D01*
X003602Y006148D01*
X003581Y006174D01*
X003557Y006197D01*
X003531Y006217D01*
X003502Y006235D01*
X003472Y006249D01*
X003441Y006259D01*
X003409Y006266D01*
X003376Y006270D01*
X003342Y006269D01*
X003461Y006702D02*
X004732Y006702D01*
X005508Y005875D02*
X006453Y005875D01*
X007713Y006151D02*
X012201Y006151D01*
X012201Y006150D02*
X012208Y006145D01*
X012217Y006142D01*
X012225Y006142D01*
X012234Y006145D01*
X012241Y006150D01*
X012240Y006151D02*
X012260Y006153D01*
X012280Y006158D01*
X012299Y006167D01*
X012316Y006179D01*
X012330Y006193D01*
X012342Y006210D01*
X012351Y006229D01*
X012356Y006249D01*
X012358Y006269D01*
X012358Y006584D01*
X012359Y006583D02*
X012357Y006601D01*
X012358Y006618D01*
X012362Y006635D01*
X012369Y006651D01*
X012379Y006666D01*
X012391Y006678D01*
X012405Y006688D01*
X012421Y006696D01*
X012437Y006701D01*
X012437Y006702D02*
X012476Y006702D01*
X014957Y003749D02*
X015272Y003749D01*
X015469Y003985D01*
X015469Y004064D01*
X015744Y004064D01*
X015783Y004025D01*
X015783Y002922D01*
X015508Y002607D01*
X015469Y002883D02*
X015429Y002883D01*
X015193Y002607D01*
X012713Y002607D01*
X012909Y002725D02*
X012791Y002883D01*
X012634Y002883D01*
X012476Y003001D01*
X012909Y002725D02*
X015114Y002725D01*
X015272Y002922D01*
X015272Y003080D01*
X015469Y003277D01*
X015350Y003513D02*
X014878Y003513D01*
X015350Y003513D02*
X015469Y003670D01*
X015547Y003670D01*
X007713Y006151D02*
X007687Y006144D01*
X007663Y006134D01*
X007640Y006121D01*
X007619Y006105D01*
X007601Y006086D01*
X007585Y006065D01*
X007572Y006043D01*
X007562Y006018D01*
X007555Y005993D01*
X007551Y005967D01*
X007551Y005941D01*
X007555Y005915D01*
X003461Y006702D02*
X003422Y006704D01*
X003384Y006710D01*
X003347Y006719D01*
X003310Y006732D01*
X003275Y006749D01*
X003242Y006768D01*
X003211Y006791D01*
X003182Y006817D01*
X003156Y006846D01*
X003133Y006877D01*
X003114Y006910D01*
X003097Y006945D01*
X003084Y006982D01*
X003075Y007019D01*
X003069Y007057D01*
X003067Y007096D01*
X002417Y001899D02*
X002426Y001870D01*
X002439Y001841D01*
X002455Y001815D01*
X002473Y001790D01*
X002494Y001768D01*
X002518Y001748D01*
X002544Y001731D01*
X002571Y001717D01*
X002600Y001706D01*
X002630Y001698D01*
X002660Y001694D01*
X002691Y001693D01*
X002722Y001696D01*
X002752Y001702D01*
X002831Y001702D01*
X003461Y001702D01*
X003489Y001706D01*
X003516Y001714D01*
X003542Y001726D01*
X003566Y001741D01*
X003588Y001759D01*
X003608Y001779D01*
X003624Y001802D01*
X003638Y001827D01*
X003648Y001853D01*
X003655Y001881D01*
X003658Y001909D01*
X003657Y001938D01*
X002417Y001899D02*
X002417Y001859D01*
X002418Y001859D02*
X002423Y001866D01*
X002426Y001875D01*
X002426Y001883D01*
X002423Y001892D01*
X002418Y001899D01*
D17*
X010114Y008040D02*
X009957Y008237D01*
X009957Y008592D01*
X010035Y008670D01*
X010469Y008670D01*
X010665Y008867D01*
X010665Y009458D01*
X010862Y009615D01*
X012791Y009615D01*
X012909Y009733D01*
X012909Y013434D01*
X012791Y013552D01*
X012437Y013552D01*
X012673Y013749D02*
X012476Y013907D01*
X012476Y014143D01*
X012043Y014536D01*
X004445Y014536D01*
X004169Y014261D01*
X004169Y010127D01*
X004248Y010009D01*
X004051Y009891D02*
X004130Y009733D01*
X004760Y009733D01*
X004957Y009615D02*
X004799Y009497D01*
X003972Y009497D01*
X003933Y009536D01*
X003933Y014340D01*
X004366Y014773D01*
X012201Y014773D01*
X012437Y014536D01*
X012516Y014536D01*
X012398Y014733D02*
X012240Y014891D01*
X004248Y014891D01*
X003815Y014458D01*
X003815Y010481D01*
X003579Y010324D01*
X003539Y010757D02*
X002713Y010757D01*
X002595Y010639D01*
X002595Y010363D01*
X002476Y010166D02*
X003067Y010166D01*
X002476Y010166D02*
X002358Y010285D01*
X002358Y010757D01*
X002555Y010914D01*
X003500Y010914D01*
X003579Y010993D01*
X003579Y014733D01*
X003972Y015127D01*
X012673Y015127D01*
X012516Y014930D02*
X012398Y014930D01*
X012319Y015009D01*
X004012Y015009D01*
X003697Y014694D01*
X003697Y010914D01*
X003539Y010757D01*
X004051Y009891D02*
X004051Y014300D01*
X004406Y014655D01*
X012122Y014655D01*
X012673Y014143D01*
X012673Y014733D02*
X012398Y014733D01*
X013618Y014733D02*
X013658Y014773D01*
X013972Y014773D01*
X014051Y014694D01*
X014051Y014615D01*
X014524Y014143D01*
X016689Y014143D01*
X016807Y014261D01*
X016807Y016426D01*
X017083Y016702D01*
X017201Y016702D01*
X017122Y016033D02*
X017043Y015954D01*
X017043Y014103D01*
X016807Y013907D01*
X014287Y013907D01*
X014051Y014143D01*
X013736Y013788D02*
X014760Y013788D01*
X016886Y013788D01*
X017161Y014025D01*
X017161Y014851D01*
X017280Y014970D01*
X017358Y015009D01*
X017358Y014477D02*
X017280Y014379D01*
X017280Y013985D01*
X017201Y013907D01*
X016925Y013670D01*
X013815Y013670D01*
X013146Y013001D01*
X013146Y009458D01*
X012909Y009222D01*
X012161Y009222D01*
X012004Y009418D01*
X011807Y009222D02*
X011965Y009064D01*
X012909Y009064D01*
X013264Y009418D01*
X013264Y012922D01*
X013894Y013552D01*
X017043Y013552D01*
X017161Y013670D01*
X017201Y013670D01*
X017280Y013434D02*
X017280Y012411D01*
X017201Y012292D01*
X016728Y012292D01*
X016532Y012489D01*
X016532Y013119D01*
X016453Y013198D01*
X014091Y013198D01*
X013618Y012725D01*
X013618Y009103D01*
X013146Y008631D01*
X011610Y008631D01*
X011177Y009103D01*
X011177Y009418D01*
X011217Y009418D01*
X011374Y009222D02*
X011374Y009103D01*
X011728Y008749D01*
X013106Y008749D01*
X013500Y009143D01*
X013500Y012765D01*
X014051Y013316D01*
X016650Y013316D01*
X016768Y013198D01*
X016768Y012725D01*
X016925Y012883D02*
X017043Y012765D01*
X016925Y012883D02*
X016925Y012962D01*
X016925Y013395D01*
X016886Y013434D01*
X016689Y013434D01*
X013972Y013434D01*
X013382Y012844D01*
X013382Y012765D01*
X013382Y010403D01*
X013382Y009261D01*
X013028Y008907D01*
X012949Y008907D01*
X011807Y008907D01*
X011610Y009143D01*
X011610Y009379D01*
X012437Y009418D02*
X012870Y009418D01*
X013028Y009576D01*
X013028Y012765D01*
X013028Y013080D01*
X013736Y013788D01*
X015193Y012056D02*
X015193Y007883D01*
X014760Y007883D02*
X014602Y008080D01*
X011807Y008080D01*
X011728Y008159D01*
X011728Y008237D01*
X011492Y008237D01*
X011295Y008040D01*
X010114Y008040D01*
X014563Y007292D02*
X014611Y007293D01*
X014659Y007297D01*
X014706Y007305D01*
X014753Y007316D01*
X014798Y007331D01*
X014843Y007350D01*
X014885Y007372D01*
X014926Y007397D01*
X014965Y007426D01*
X015001Y007457D01*
X015035Y007491D01*
X015065Y007528D01*
X015093Y007567D01*
X015118Y007608D01*
X015140Y007651D01*
X015158Y007696D01*
X015172Y007741D01*
X015183Y007788D01*
X015190Y007835D01*
X015194Y007883D01*
X008067Y012686D02*
X007949Y012804D01*
X004917Y012804D01*
X004721Y012607D01*
X004484Y012686D02*
X004484Y012411D01*
X004602Y012292D01*
X004721Y012292D01*
X004484Y012686D02*
X004760Y012962D01*
X007673Y012962D01*
X007791Y013080D01*
X007909Y013080D01*
X004957Y010127D02*
X004839Y010245D01*
X004406Y010245D01*
X004957Y010127D02*
X004957Y009615D01*
X017122Y016033D02*
X017437Y016033D01*
X017555Y015914D01*
X017555Y015757D01*
D18*
X016177Y012686D02*
X015390Y012686D01*
X015193Y012489D01*
X015193Y012214D01*
X015193Y012056D01*
X015193Y012214D02*
X014996Y012214D01*
M02*
