G75*
G70*
%OFA0B0*%
%FSLAX24Y24*%
%IPPOS*%
%LPD*%
%AMOC8*
5,1,8,0,0,1.08239X$1,22.5*
%
%ADD10C,0.0059*%
%ADD11R,0.0178X0.0276*%
%ADD12R,0.0709X0.0473*%
%ADD13R,0.0276X0.0276*%
%ADD14C,0.0063*%
%ADD15R,0.0355X0.0394*%
%ADD16R,0.0138X0.0316*%
%ADD17R,0.0375X0.0158*%
%ADD18R,0.0158X0.0375*%
%ADD19R,0.1457X0.1457*%
%ADD20R,0.1713X0.1713*%
%ADD21R,0.0611X0.0276*%
%ADD22R,0.0512X0.0158*%
%ADD23R,0.0985X0.0985*%
%ADD24R,0.1024X0.0512*%
%ADD25R,0.1024X0.0827*%
%ADD26R,0.0946X0.0237*%
%ADD27C,0.0394*%
%ADD28R,0.0631X0.0670*%
%ADD29R,0.0670X0.0591*%
%ADD30C,0.0145*%
%ADD31C,0.0098*%
%ADD32R,0.0355X0.0138*%
%ADD33R,0.0138X0.0355*%
%ADD34R,0.0729X0.0729*%
%ADD35R,0.0453X0.0197*%
%ADD36R,0.0197X0.0453*%
%ADD37C,0.0110*%
%ADD38C,0.0004*%
%ADD39R,0.0245X0.0245*%
%ADD40R,0.0394X0.0355*%
%ADD41R,0.0375X0.0906*%
%ADD42R,0.0434X0.0453*%
%ADD43C,0.0473*%
%ADD44R,0.0512X0.0276*%
%ADD45R,0.0355X0.0355*%
%ADD46R,0.0453X0.0473*%
%ADD47R,0.0276X0.0473*%
%ADD48R,0.0316X0.0138*%
%ADD49R,0.0552X0.0631*%
%ADD50R,0.0631X0.0552*%
%ADD51R,0.0453X0.0453*%
%ADD52C,0.0453*%
%ADD53R,0.0296X0.1131*%
%ADD54R,0.0290X0.0540*%
%ADD55R,0.0552X0.0276*%
%ADD56R,0.0749X0.0827*%
%ADD57C,0.0552*%
%ADD58C,0.1464*%
%ADD59C,0.1424*%
D10*
X001217Y000206D02*
X021689Y000206D01*
X001217Y000206D01*
X001217Y020285D01*
X003500Y020285D01*
X003500Y019497D01*
X002004Y019497D01*
X002004Y008670D01*
X016768Y008670D01*
X016768Y004103D01*
X016374Y004103D01*
X016374Y008080D01*
X011886Y008080D01*
X011886Y008395D01*
X011571Y008395D01*
X011571Y008080D01*
X001374Y008080D01*
X001374Y008749D01*
X002476Y008749D01*
X002476Y008040D01*
X001571Y008040D01*
X001571Y006348D01*
X001728Y006348D01*
X001728Y000993D01*
X001453Y000993D01*
X003067Y000993D01*
X003067Y000599D01*
X004721Y000599D01*
X004721Y000993D01*
X011335Y000993D01*
X011335Y000678D01*
X014287Y000678D01*
X014287Y000993D01*
X016374Y000993D01*
X016374Y001662D01*
X016768Y001662D01*
X016768Y000993D01*
X017122Y000993D01*
X017122Y000521D01*
X019130Y000521D01*
X019130Y000993D01*
X020902Y000993D01*
X020902Y019497D01*
X003579Y019497D01*
X003579Y020285D01*
X021689Y020285D01*
X021689Y000206D01*
X021689Y000263D02*
X001217Y000263D01*
X001217Y000321D02*
X021689Y000321D01*
X021689Y000378D02*
X001217Y000378D01*
X001217Y000436D02*
X021689Y000436D01*
X021689Y000494D02*
X001217Y000494D01*
X001217Y000551D02*
X017122Y000551D01*
X017122Y000609D02*
X004721Y000609D01*
X004721Y000666D02*
X017122Y000666D01*
X017122Y000724D02*
X014287Y000724D01*
X014287Y000781D02*
X017122Y000781D01*
X017122Y000839D02*
X014287Y000839D01*
X014287Y000896D02*
X017122Y000896D01*
X017122Y000954D02*
X014287Y000954D01*
X016374Y001012D02*
X016768Y001012D01*
X016768Y001069D02*
X016374Y001069D01*
X016374Y001127D02*
X016768Y001127D01*
X016768Y001184D02*
X016374Y001184D01*
X016374Y001242D02*
X016768Y001242D01*
X016768Y001299D02*
X016374Y001299D01*
X016374Y001357D02*
X016768Y001357D01*
X016768Y001414D02*
X016374Y001414D01*
X016374Y001472D02*
X016768Y001472D01*
X016768Y001530D02*
X016374Y001530D01*
X016374Y001587D02*
X016768Y001587D01*
X016768Y001645D02*
X016374Y001645D01*
X016374Y004120D02*
X016768Y004120D01*
X016768Y004177D02*
X016374Y004177D01*
X016374Y004235D02*
X016768Y004235D01*
X016768Y004292D02*
X016374Y004292D01*
X016374Y004350D02*
X016768Y004350D01*
X016768Y004407D02*
X016374Y004407D01*
X016374Y004465D02*
X016768Y004465D01*
X016768Y004522D02*
X016374Y004522D01*
X016374Y004580D02*
X016768Y004580D01*
X016768Y004638D02*
X016374Y004638D01*
X016374Y004695D02*
X016768Y004695D01*
X016768Y004753D02*
X016374Y004753D01*
X016374Y004810D02*
X016768Y004810D01*
X016768Y004868D02*
X016374Y004868D01*
X016374Y004925D02*
X016768Y004925D01*
X016768Y004983D02*
X016374Y004983D01*
X016374Y005040D02*
X016768Y005040D01*
X016768Y005098D02*
X016374Y005098D01*
X016374Y005156D02*
X016768Y005156D01*
X016768Y005213D02*
X016374Y005213D01*
X016374Y005271D02*
X016768Y005271D01*
X016768Y005328D02*
X016374Y005328D01*
X016374Y005386D02*
X016768Y005386D01*
X016768Y005443D02*
X016374Y005443D01*
X016374Y005501D02*
X016768Y005501D01*
X016768Y005558D02*
X016374Y005558D01*
X016374Y005616D02*
X016768Y005616D01*
X016768Y005674D02*
X016374Y005674D01*
X016374Y005731D02*
X016768Y005731D01*
X016768Y005789D02*
X016374Y005789D01*
X016374Y005846D02*
X016768Y005846D01*
X016768Y005904D02*
X016374Y005904D01*
X016374Y005961D02*
X016768Y005961D01*
X016768Y006019D02*
X016374Y006019D01*
X016374Y006076D02*
X016768Y006076D01*
X016768Y006134D02*
X016374Y006134D01*
X016374Y006192D02*
X016768Y006192D01*
X016768Y006249D02*
X016374Y006249D01*
X016374Y006307D02*
X016768Y006307D01*
X016768Y006364D02*
X016374Y006364D01*
X016374Y006422D02*
X016768Y006422D01*
X016768Y006479D02*
X016374Y006479D01*
X016374Y006537D02*
X016768Y006537D01*
X016768Y006594D02*
X016374Y006594D01*
X016374Y006652D02*
X016768Y006652D01*
X016768Y006710D02*
X016374Y006710D01*
X016374Y006767D02*
X016768Y006767D01*
X016768Y006825D02*
X016374Y006825D01*
X016374Y006882D02*
X016768Y006882D01*
X016768Y006940D02*
X016374Y006940D01*
X016374Y006997D02*
X016768Y006997D01*
X016768Y007055D02*
X016374Y007055D01*
X016374Y007112D02*
X016768Y007112D01*
X016768Y007170D02*
X016374Y007170D01*
X016374Y007228D02*
X016768Y007228D01*
X016768Y007285D02*
X016374Y007285D01*
X016374Y007343D02*
X016768Y007343D01*
X016768Y007400D02*
X016374Y007400D01*
X016374Y007458D02*
X016768Y007458D01*
X016768Y007515D02*
X016374Y007515D01*
X016374Y007573D02*
X016768Y007573D01*
X016768Y007630D02*
X016374Y007630D01*
X016374Y007688D02*
X016768Y007688D01*
X016768Y007746D02*
X016374Y007746D01*
X016374Y007803D02*
X016768Y007803D01*
X016768Y007861D02*
X016374Y007861D01*
X016374Y007918D02*
X016768Y007918D01*
X016768Y007976D02*
X016374Y007976D01*
X016374Y008033D02*
X016768Y008033D01*
X016768Y008091D02*
X011886Y008091D01*
X011886Y008148D02*
X016768Y008148D01*
X016768Y008206D02*
X011886Y008206D01*
X011886Y008264D02*
X016768Y008264D01*
X016768Y008321D02*
X011886Y008321D01*
X011886Y008379D02*
X016768Y008379D01*
X016768Y008436D02*
X002476Y008436D01*
X002476Y008379D02*
X011571Y008379D01*
X011571Y008321D02*
X002476Y008321D01*
X002476Y008264D02*
X011571Y008264D01*
X011571Y008206D02*
X002476Y008206D01*
X002476Y008148D02*
X011571Y008148D01*
X011571Y008091D02*
X002476Y008091D01*
X002476Y008494D02*
X016768Y008494D01*
X016768Y008551D02*
X002476Y008551D01*
X002476Y008609D02*
X016768Y008609D01*
X016768Y008666D02*
X002476Y008666D01*
X002476Y008724D02*
X002004Y008724D01*
X002004Y008782D02*
X001217Y008782D01*
X001217Y008839D02*
X002004Y008839D01*
X002004Y008897D02*
X001217Y008897D01*
X001217Y008954D02*
X002004Y008954D01*
X002004Y009012D02*
X001217Y009012D01*
X001217Y009069D02*
X002004Y009069D01*
X002004Y009127D02*
X001217Y009127D01*
X001217Y009184D02*
X002004Y009184D01*
X002004Y009242D02*
X001217Y009242D01*
X001217Y009300D02*
X002004Y009300D01*
X002004Y009357D02*
X001217Y009357D01*
X001217Y009415D02*
X002004Y009415D01*
X002004Y009472D02*
X001217Y009472D01*
X001217Y009530D02*
X002004Y009530D01*
X002004Y009587D02*
X001217Y009587D01*
X001217Y009645D02*
X002004Y009645D01*
X002004Y009702D02*
X001217Y009702D01*
X001217Y009760D02*
X002004Y009760D01*
X002004Y009818D02*
X001217Y009818D01*
X001217Y009875D02*
X002004Y009875D01*
X002004Y009933D02*
X001217Y009933D01*
X001217Y009990D02*
X002004Y009990D01*
X002004Y010048D02*
X001217Y010048D01*
X001217Y010105D02*
X002004Y010105D01*
X002004Y010163D02*
X001217Y010163D01*
X001217Y010220D02*
X002004Y010220D01*
X002004Y010278D02*
X001217Y010278D01*
X001217Y010336D02*
X002004Y010336D01*
X002004Y010393D02*
X001217Y010393D01*
X001217Y010451D02*
X002004Y010451D01*
X002004Y010508D02*
X001217Y010508D01*
X001217Y010566D02*
X002004Y010566D01*
X002004Y010623D02*
X001217Y010623D01*
X001217Y010681D02*
X002004Y010681D01*
X002004Y010738D02*
X001217Y010738D01*
X001217Y010796D02*
X002004Y010796D01*
X002004Y010854D02*
X001217Y010854D01*
X001217Y010911D02*
X002004Y010911D01*
X002004Y010969D02*
X001217Y010969D01*
X001217Y011026D02*
X002004Y011026D01*
X002004Y011084D02*
X001217Y011084D01*
X001217Y011141D02*
X002004Y011141D01*
X002004Y011199D02*
X001217Y011199D01*
X001217Y011256D02*
X002004Y011256D01*
X002004Y011314D02*
X001217Y011314D01*
X001217Y011372D02*
X002004Y011372D01*
X002004Y011429D02*
X001217Y011429D01*
X001217Y011487D02*
X002004Y011487D01*
X002004Y011544D02*
X001217Y011544D01*
X001217Y011602D02*
X002004Y011602D01*
X002004Y011659D02*
X001217Y011659D01*
X001217Y011717D02*
X002004Y011717D01*
X002004Y011774D02*
X001217Y011774D01*
X001217Y011832D02*
X002004Y011832D01*
X002004Y011890D02*
X001217Y011890D01*
X001217Y011947D02*
X002004Y011947D01*
X002004Y012005D02*
X001217Y012005D01*
X001217Y012062D02*
X002004Y012062D01*
X002004Y012120D02*
X001217Y012120D01*
X001217Y012177D02*
X002004Y012177D01*
X002004Y012235D02*
X001217Y012235D01*
X001217Y012292D02*
X002004Y012292D01*
X002004Y012350D02*
X001217Y012350D01*
X001217Y012408D02*
X002004Y012408D01*
X002004Y012465D02*
X001217Y012465D01*
X001217Y012523D02*
X002004Y012523D01*
X002004Y012580D02*
X001217Y012580D01*
X001217Y012638D02*
X002004Y012638D01*
X002004Y012695D02*
X001217Y012695D01*
X001217Y012753D02*
X002004Y012753D01*
X002004Y012810D02*
X001217Y012810D01*
X001217Y012868D02*
X002004Y012868D01*
X002004Y012926D02*
X001217Y012926D01*
X001217Y012983D02*
X002004Y012983D01*
X002004Y013041D02*
X001217Y013041D01*
X001217Y013098D02*
X002004Y013098D01*
X002004Y013156D02*
X001217Y013156D01*
X001217Y013213D02*
X002004Y013213D01*
X002004Y013271D02*
X001217Y013271D01*
X001217Y013328D02*
X002004Y013328D01*
X002004Y013386D02*
X001217Y013386D01*
X001217Y013444D02*
X002004Y013444D01*
X002004Y013501D02*
X001217Y013501D01*
X001217Y013559D02*
X002004Y013559D01*
X002004Y013616D02*
X001217Y013616D01*
X001217Y013674D02*
X002004Y013674D01*
X002004Y013731D02*
X001217Y013731D01*
X001217Y013789D02*
X002004Y013789D01*
X002004Y013846D02*
X001217Y013846D01*
X001217Y013904D02*
X002004Y013904D01*
X002004Y013962D02*
X001217Y013962D01*
X001217Y014019D02*
X002004Y014019D01*
X002004Y014077D02*
X001217Y014077D01*
X001217Y014134D02*
X002004Y014134D01*
X002004Y014192D02*
X001217Y014192D01*
X001217Y014249D02*
X002004Y014249D01*
X002004Y014307D02*
X001217Y014307D01*
X001217Y014364D02*
X002004Y014364D01*
X002004Y014422D02*
X001217Y014422D01*
X001217Y014480D02*
X002004Y014480D01*
X002004Y014537D02*
X001217Y014537D01*
X001217Y014595D02*
X002004Y014595D01*
X002004Y014652D02*
X001217Y014652D01*
X001217Y014710D02*
X002004Y014710D01*
X002004Y014767D02*
X001217Y014767D01*
X001217Y014825D02*
X002004Y014825D01*
X002004Y014882D02*
X001217Y014882D01*
X001217Y014940D02*
X002004Y014940D01*
X002004Y014998D02*
X001217Y014998D01*
X001217Y015055D02*
X002004Y015055D01*
X002004Y015113D02*
X001217Y015113D01*
X001217Y015170D02*
X002004Y015170D01*
X002004Y015228D02*
X001217Y015228D01*
X001217Y015285D02*
X002004Y015285D01*
X002004Y015343D02*
X001217Y015343D01*
X001217Y015400D02*
X002004Y015400D01*
X002004Y015458D02*
X001217Y015458D01*
X001217Y015516D02*
X002004Y015516D01*
X002004Y015573D02*
X001217Y015573D01*
X001217Y015631D02*
X002004Y015631D01*
X002004Y015688D02*
X001217Y015688D01*
X001217Y015746D02*
X002004Y015746D01*
X002004Y015803D02*
X001217Y015803D01*
X001217Y015861D02*
X002004Y015861D01*
X002004Y015918D02*
X001217Y015918D01*
X001217Y015976D02*
X002004Y015976D01*
X002004Y016034D02*
X001217Y016034D01*
X001217Y016091D02*
X002004Y016091D01*
X002004Y016149D02*
X001217Y016149D01*
X001217Y016206D02*
X002004Y016206D01*
X002004Y016264D02*
X001217Y016264D01*
X001217Y016321D02*
X002004Y016321D01*
X002004Y016379D02*
X001217Y016379D01*
X001217Y016436D02*
X002004Y016436D01*
X002004Y016494D02*
X001217Y016494D01*
X001217Y016552D02*
X002004Y016552D01*
X002004Y016609D02*
X001217Y016609D01*
X001217Y016667D02*
X002004Y016667D01*
X002004Y016724D02*
X001217Y016724D01*
X001217Y016782D02*
X002004Y016782D01*
X002004Y016839D02*
X001217Y016839D01*
X001217Y016897D02*
X002004Y016897D01*
X002004Y016954D02*
X001217Y016954D01*
X001217Y017012D02*
X002004Y017012D01*
X002004Y017070D02*
X001217Y017070D01*
X001217Y017127D02*
X002004Y017127D01*
X002004Y017185D02*
X001217Y017185D01*
X001217Y017242D02*
X002004Y017242D01*
X002004Y017300D02*
X001217Y017300D01*
X001217Y017357D02*
X002004Y017357D01*
X002004Y017415D02*
X001217Y017415D01*
X001217Y017472D02*
X002004Y017472D01*
X002004Y017530D02*
X001217Y017530D01*
X001217Y017588D02*
X002004Y017588D01*
X002004Y017645D02*
X001217Y017645D01*
X001217Y017703D02*
X002004Y017703D01*
X002004Y017760D02*
X001217Y017760D01*
X001217Y017818D02*
X002004Y017818D01*
X002004Y017875D02*
X001217Y017875D01*
X001217Y017933D02*
X002004Y017933D01*
X002004Y017990D02*
X001217Y017990D01*
X001217Y018048D02*
X002004Y018048D01*
X002004Y018106D02*
X001217Y018106D01*
X001217Y018163D02*
X002004Y018163D01*
X002004Y018221D02*
X001217Y018221D01*
X001217Y018278D02*
X002004Y018278D01*
X002004Y018336D02*
X001217Y018336D01*
X001217Y018393D02*
X002004Y018393D01*
X002004Y018451D02*
X001217Y018451D01*
X001217Y018508D02*
X002004Y018508D01*
X002004Y018566D02*
X001217Y018566D01*
X001217Y018624D02*
X002004Y018624D01*
X002004Y018681D02*
X001217Y018681D01*
X001217Y018739D02*
X002004Y018739D01*
X002004Y018796D02*
X001217Y018796D01*
X001217Y018854D02*
X002004Y018854D01*
X002004Y018911D02*
X001217Y018911D01*
X001217Y018969D02*
X002004Y018969D01*
X002004Y019026D02*
X001217Y019026D01*
X001217Y019084D02*
X002004Y019084D01*
X002004Y019142D02*
X001217Y019142D01*
X001217Y019199D02*
X002004Y019199D01*
X002004Y019257D02*
X001217Y019257D01*
X001217Y019314D02*
X002004Y019314D01*
X002004Y019372D02*
X001217Y019372D01*
X001217Y019429D02*
X002004Y019429D01*
X002004Y019487D02*
X001217Y019487D01*
X001217Y019544D02*
X003500Y019544D01*
X003500Y019602D02*
X001217Y019602D01*
X001217Y019660D02*
X003500Y019660D01*
X003500Y019717D02*
X001217Y019717D01*
X001217Y019775D02*
X003500Y019775D01*
X003500Y019832D02*
X001217Y019832D01*
X001217Y019890D02*
X003500Y019890D01*
X003500Y019947D02*
X001217Y019947D01*
X001217Y020005D02*
X003500Y020005D01*
X003500Y020062D02*
X001217Y020062D01*
X001217Y020120D02*
X003500Y020120D01*
X003500Y020177D02*
X001217Y020177D01*
X001217Y020235D02*
X003500Y020235D01*
X003579Y020235D02*
X021689Y020235D01*
X021689Y020177D02*
X003579Y020177D01*
X003579Y020120D02*
X021689Y020120D01*
X021689Y020062D02*
X003579Y020062D01*
X003579Y020005D02*
X021689Y020005D01*
X021689Y019947D02*
X003579Y019947D01*
X003579Y019890D02*
X021689Y019890D01*
X021689Y019832D02*
X003579Y019832D01*
X003579Y019775D02*
X021689Y019775D01*
X021689Y019717D02*
X003579Y019717D01*
X003579Y019660D02*
X021689Y019660D01*
X021689Y019602D02*
X003579Y019602D01*
X003579Y019544D02*
X021689Y019544D01*
X021689Y019487D02*
X020902Y019487D01*
X020902Y019429D02*
X021689Y019429D01*
X021689Y019372D02*
X020902Y019372D01*
X020902Y019314D02*
X021689Y019314D01*
X021689Y019257D02*
X020902Y019257D01*
X020902Y019199D02*
X021689Y019199D01*
X021689Y019142D02*
X020902Y019142D01*
X020902Y019084D02*
X021689Y019084D01*
X021689Y019026D02*
X020902Y019026D01*
X020902Y018969D02*
X021689Y018969D01*
X021689Y018911D02*
X020902Y018911D01*
X020902Y018854D02*
X021689Y018854D01*
X021689Y018796D02*
X020902Y018796D01*
X020902Y018739D02*
X021689Y018739D01*
X021689Y018681D02*
X020902Y018681D01*
X020902Y018624D02*
X021689Y018624D01*
X021689Y018566D02*
X020902Y018566D01*
X020902Y018508D02*
X021689Y018508D01*
X021689Y018451D02*
X020902Y018451D01*
X020902Y018393D02*
X021689Y018393D01*
X021689Y018336D02*
X020902Y018336D01*
X020902Y018278D02*
X021689Y018278D01*
X021689Y018221D02*
X020902Y018221D01*
X020902Y018163D02*
X021689Y018163D01*
X021689Y018106D02*
X020902Y018106D01*
X020902Y018048D02*
X021689Y018048D01*
X021689Y017990D02*
X020902Y017990D01*
X020902Y017933D02*
X021689Y017933D01*
X021689Y017875D02*
X020902Y017875D01*
X020902Y017818D02*
X021689Y017818D01*
X021689Y017760D02*
X020902Y017760D01*
X020902Y017703D02*
X021689Y017703D01*
X021689Y017645D02*
X020902Y017645D01*
X020902Y017588D02*
X021689Y017588D01*
X021689Y017530D02*
X020902Y017530D01*
X020902Y017472D02*
X021689Y017472D01*
X021689Y017415D02*
X020902Y017415D01*
X020902Y017357D02*
X021689Y017357D01*
X021689Y017300D02*
X020902Y017300D01*
X020902Y017242D02*
X021689Y017242D01*
X021689Y017185D02*
X020902Y017185D01*
X020902Y017127D02*
X021689Y017127D01*
X021689Y017070D02*
X020902Y017070D01*
X020902Y017012D02*
X021689Y017012D01*
X021689Y016954D02*
X020902Y016954D01*
X020902Y016897D02*
X021689Y016897D01*
X021689Y016839D02*
X020902Y016839D01*
X020902Y016782D02*
X021689Y016782D01*
X021689Y016724D02*
X020902Y016724D01*
X020902Y016667D02*
X021689Y016667D01*
X021689Y016609D02*
X020902Y016609D01*
X020902Y016552D02*
X021689Y016552D01*
X021689Y016494D02*
X020902Y016494D01*
X020902Y016436D02*
X021689Y016436D01*
X021689Y016379D02*
X020902Y016379D01*
X020902Y016321D02*
X021689Y016321D01*
X021689Y016264D02*
X020902Y016264D01*
X020902Y016206D02*
X021689Y016206D01*
X021689Y016149D02*
X020902Y016149D01*
X020902Y016091D02*
X021689Y016091D01*
X021689Y016034D02*
X020902Y016034D01*
X020902Y015976D02*
X021689Y015976D01*
X021689Y015918D02*
X020902Y015918D01*
X020902Y015861D02*
X021689Y015861D01*
X021689Y015803D02*
X020902Y015803D01*
X020902Y015746D02*
X021689Y015746D01*
X021689Y015688D02*
X020902Y015688D01*
X020902Y015631D02*
X021689Y015631D01*
X021689Y015573D02*
X020902Y015573D01*
X020902Y015516D02*
X021689Y015516D01*
X021689Y015458D02*
X020902Y015458D01*
X020902Y015400D02*
X021689Y015400D01*
X021689Y015343D02*
X020902Y015343D01*
X020902Y015285D02*
X021689Y015285D01*
X021689Y015228D02*
X020902Y015228D01*
X020902Y015170D02*
X021689Y015170D01*
X021689Y015113D02*
X020902Y015113D01*
X020902Y015055D02*
X021689Y015055D01*
X021689Y014998D02*
X020902Y014998D01*
X020902Y014940D02*
X021689Y014940D01*
X021689Y014882D02*
X020902Y014882D01*
X020902Y014825D02*
X021689Y014825D01*
X021689Y014767D02*
X020902Y014767D01*
X020902Y014710D02*
X021689Y014710D01*
X021689Y014652D02*
X020902Y014652D01*
X020902Y014595D02*
X021689Y014595D01*
X021689Y014537D02*
X020902Y014537D01*
X020902Y014480D02*
X021689Y014480D01*
X021689Y014422D02*
X020902Y014422D01*
X020902Y014364D02*
X021689Y014364D01*
X021689Y014307D02*
X020902Y014307D01*
X020902Y014249D02*
X021689Y014249D01*
X021689Y014192D02*
X020902Y014192D01*
X020902Y014134D02*
X021689Y014134D01*
X021689Y014077D02*
X020902Y014077D01*
X020902Y014019D02*
X021689Y014019D01*
X021689Y013962D02*
X020902Y013962D01*
X020902Y013904D02*
X021689Y013904D01*
X021689Y013846D02*
X020902Y013846D01*
X020902Y013789D02*
X021689Y013789D01*
X021689Y013731D02*
X020902Y013731D01*
X020902Y013674D02*
X021689Y013674D01*
X021689Y013616D02*
X020902Y013616D01*
X020902Y013559D02*
X021689Y013559D01*
X021689Y013501D02*
X020902Y013501D01*
X020902Y013444D02*
X021689Y013444D01*
X021689Y013386D02*
X020902Y013386D01*
X020902Y013328D02*
X021689Y013328D01*
X021689Y013271D02*
X020902Y013271D01*
X020902Y013213D02*
X021689Y013213D01*
X021689Y013156D02*
X020902Y013156D01*
X020902Y013098D02*
X021689Y013098D01*
X021689Y013041D02*
X020902Y013041D01*
X020902Y012983D02*
X021689Y012983D01*
X021689Y012926D02*
X020902Y012926D01*
X020902Y012868D02*
X021689Y012868D01*
X021689Y012810D02*
X020902Y012810D01*
X020902Y012753D02*
X021689Y012753D01*
X021689Y012695D02*
X020902Y012695D01*
X020902Y012638D02*
X021689Y012638D01*
X021689Y012580D02*
X020902Y012580D01*
X020902Y012523D02*
X021689Y012523D01*
X021689Y012465D02*
X020902Y012465D01*
X020902Y012408D02*
X021689Y012408D01*
X021689Y012350D02*
X020902Y012350D01*
X020902Y012292D02*
X021689Y012292D01*
X021689Y012235D02*
X020902Y012235D01*
X020902Y012177D02*
X021689Y012177D01*
X021689Y012120D02*
X020902Y012120D01*
X020902Y012062D02*
X021689Y012062D01*
X021689Y012005D02*
X020902Y012005D01*
X020902Y011947D02*
X021689Y011947D01*
X021689Y011890D02*
X020902Y011890D01*
X020902Y011832D02*
X021689Y011832D01*
X021689Y011774D02*
X020902Y011774D01*
X020902Y011717D02*
X021689Y011717D01*
X021689Y011659D02*
X020902Y011659D01*
X020902Y011602D02*
X021689Y011602D01*
X021689Y011544D02*
X020902Y011544D01*
X020902Y011487D02*
X021689Y011487D01*
X021689Y011429D02*
X020902Y011429D01*
X020902Y011372D02*
X021689Y011372D01*
X021689Y011314D02*
X020902Y011314D01*
X020902Y011256D02*
X021689Y011256D01*
X021689Y011199D02*
X020902Y011199D01*
X020902Y011141D02*
X021689Y011141D01*
X021689Y011084D02*
X020902Y011084D01*
X020902Y011026D02*
X021689Y011026D01*
X021689Y010969D02*
X020902Y010969D01*
X020902Y010911D02*
X021689Y010911D01*
X021689Y010854D02*
X020902Y010854D01*
X020902Y010796D02*
X021689Y010796D01*
X021689Y010738D02*
X020902Y010738D01*
X020902Y010681D02*
X021689Y010681D01*
X021689Y010623D02*
X020902Y010623D01*
X020902Y010566D02*
X021689Y010566D01*
X021689Y010508D02*
X020902Y010508D01*
X020902Y010451D02*
X021689Y010451D01*
X021689Y010393D02*
X020902Y010393D01*
X020902Y010336D02*
X021689Y010336D01*
X021689Y010278D02*
X020902Y010278D01*
X020902Y010220D02*
X021689Y010220D01*
X021689Y010163D02*
X020902Y010163D01*
X020902Y010105D02*
X021689Y010105D01*
X021689Y010048D02*
X020902Y010048D01*
X020902Y009990D02*
X021689Y009990D01*
X021689Y009933D02*
X020902Y009933D01*
X020902Y009875D02*
X021689Y009875D01*
X021689Y009818D02*
X020902Y009818D01*
X020902Y009760D02*
X021689Y009760D01*
X021689Y009702D02*
X020902Y009702D01*
X020902Y009645D02*
X021689Y009645D01*
X021689Y009587D02*
X020902Y009587D01*
X020902Y009530D02*
X021689Y009530D01*
X021689Y009472D02*
X020902Y009472D01*
X020902Y009415D02*
X021689Y009415D01*
X021689Y009357D02*
X020902Y009357D01*
X020902Y009300D02*
X021689Y009300D01*
X021689Y009242D02*
X020902Y009242D01*
X020902Y009184D02*
X021689Y009184D01*
X021689Y009127D02*
X020902Y009127D01*
X020902Y009069D02*
X021689Y009069D01*
X021689Y009012D02*
X020902Y009012D01*
X020902Y008954D02*
X021689Y008954D01*
X021689Y008897D02*
X020902Y008897D01*
X020902Y008839D02*
X021689Y008839D01*
X021689Y008782D02*
X020902Y008782D01*
X020902Y008724D02*
X021689Y008724D01*
X021689Y008666D02*
X020902Y008666D01*
X020902Y008609D02*
X021689Y008609D01*
X021689Y008551D02*
X020902Y008551D01*
X020902Y008494D02*
X021689Y008494D01*
X021689Y008436D02*
X020902Y008436D01*
X020902Y008379D02*
X021689Y008379D01*
X021689Y008321D02*
X020902Y008321D01*
X020902Y008264D02*
X021689Y008264D01*
X021689Y008206D02*
X020902Y008206D01*
X020902Y008148D02*
X021689Y008148D01*
X021689Y008091D02*
X020902Y008091D01*
X020902Y008033D02*
X021689Y008033D01*
X021689Y007976D02*
X020902Y007976D01*
X020902Y007918D02*
X021689Y007918D01*
X021689Y007861D02*
X020902Y007861D01*
X020902Y007803D02*
X021689Y007803D01*
X021689Y007746D02*
X020902Y007746D01*
X020902Y007688D02*
X021689Y007688D01*
X021689Y007630D02*
X020902Y007630D01*
X020902Y007573D02*
X021689Y007573D01*
X021689Y007515D02*
X020902Y007515D01*
X020902Y007458D02*
X021689Y007458D01*
X021689Y007400D02*
X020902Y007400D01*
X020902Y007343D02*
X021689Y007343D01*
X021689Y007285D02*
X020902Y007285D01*
X020902Y007228D02*
X021689Y007228D01*
X021689Y007170D02*
X020902Y007170D01*
X020902Y007112D02*
X021689Y007112D01*
X021689Y007055D02*
X020902Y007055D01*
X020902Y006997D02*
X021689Y006997D01*
X021689Y006940D02*
X020902Y006940D01*
X020902Y006882D02*
X021689Y006882D01*
X021689Y006825D02*
X020902Y006825D01*
X020902Y006767D02*
X021689Y006767D01*
X021689Y006710D02*
X020902Y006710D01*
X020902Y006652D02*
X021689Y006652D01*
X021689Y006594D02*
X020902Y006594D01*
X020902Y006537D02*
X021689Y006537D01*
X021689Y006479D02*
X020902Y006479D01*
X020902Y006422D02*
X021689Y006422D01*
X021689Y006364D02*
X020902Y006364D01*
X020902Y006307D02*
X021689Y006307D01*
X021689Y006249D02*
X020902Y006249D01*
X020902Y006192D02*
X021689Y006192D01*
X021689Y006134D02*
X020902Y006134D01*
X020902Y006076D02*
X021689Y006076D01*
X021689Y006019D02*
X020902Y006019D01*
X020902Y005961D02*
X021689Y005961D01*
X021689Y005904D02*
X020902Y005904D01*
X020902Y005846D02*
X021689Y005846D01*
X021689Y005789D02*
X020902Y005789D01*
X020902Y005731D02*
X021689Y005731D01*
X021689Y005674D02*
X020902Y005674D01*
X020902Y005616D02*
X021689Y005616D01*
X021689Y005558D02*
X020902Y005558D01*
X020902Y005501D02*
X021689Y005501D01*
X021689Y005443D02*
X020902Y005443D01*
X020902Y005386D02*
X021689Y005386D01*
X021689Y005328D02*
X020902Y005328D01*
X020902Y005271D02*
X021689Y005271D01*
X021689Y005213D02*
X020902Y005213D01*
X020902Y005156D02*
X021689Y005156D01*
X021689Y005098D02*
X020902Y005098D01*
X020902Y005040D02*
X021689Y005040D01*
X021689Y004983D02*
X020902Y004983D01*
X020902Y004925D02*
X021689Y004925D01*
X021689Y004868D02*
X020902Y004868D01*
X020902Y004810D02*
X021689Y004810D01*
X021689Y004753D02*
X020902Y004753D01*
X020902Y004695D02*
X021689Y004695D01*
X021689Y004638D02*
X020902Y004638D01*
X020902Y004580D02*
X021689Y004580D01*
X021689Y004522D02*
X020902Y004522D01*
X020902Y004465D02*
X021689Y004465D01*
X021689Y004407D02*
X020902Y004407D01*
X020902Y004350D02*
X021689Y004350D01*
X021689Y004292D02*
X020902Y004292D01*
X020902Y004235D02*
X021689Y004235D01*
X021689Y004177D02*
X020902Y004177D01*
X020902Y004120D02*
X021689Y004120D01*
X021689Y004062D02*
X020902Y004062D01*
X020902Y004004D02*
X021689Y004004D01*
X021689Y003947D02*
X020902Y003947D01*
X020902Y003889D02*
X021689Y003889D01*
X021689Y003832D02*
X020902Y003832D01*
X020902Y003774D02*
X021689Y003774D01*
X021689Y003717D02*
X020902Y003717D01*
X020902Y003659D02*
X021689Y003659D01*
X021689Y003602D02*
X020902Y003602D01*
X020902Y003544D02*
X021689Y003544D01*
X021689Y003486D02*
X020902Y003486D01*
X020902Y003429D02*
X021689Y003429D01*
X021689Y003371D02*
X020902Y003371D01*
X020902Y003314D02*
X021689Y003314D01*
X021689Y003256D02*
X020902Y003256D01*
X020902Y003199D02*
X021689Y003199D01*
X021689Y003141D02*
X020902Y003141D01*
X020902Y003084D02*
X021689Y003084D01*
X021689Y003026D02*
X020902Y003026D01*
X020902Y002968D02*
X021689Y002968D01*
X021689Y002911D02*
X020902Y002911D01*
X020902Y002853D02*
X021689Y002853D01*
X021689Y002796D02*
X020902Y002796D01*
X020902Y002738D02*
X021689Y002738D01*
X021689Y002681D02*
X020902Y002681D01*
X020902Y002623D02*
X021689Y002623D01*
X021689Y002566D02*
X020902Y002566D01*
X020902Y002508D02*
X021689Y002508D01*
X021689Y002450D02*
X020902Y002450D01*
X020902Y002393D02*
X021689Y002393D01*
X021689Y002335D02*
X020902Y002335D01*
X020902Y002278D02*
X021689Y002278D01*
X021689Y002220D02*
X020902Y002220D01*
X020902Y002163D02*
X021689Y002163D01*
X021689Y002105D02*
X020902Y002105D01*
X020902Y002048D02*
X021689Y002048D01*
X021689Y001990D02*
X020902Y001990D01*
X020902Y001932D02*
X021689Y001932D01*
X021689Y001875D02*
X020902Y001875D01*
X020902Y001817D02*
X021689Y001817D01*
X021689Y001760D02*
X020902Y001760D01*
X020902Y001702D02*
X021689Y001702D01*
X021689Y001645D02*
X020902Y001645D01*
X020902Y001587D02*
X021689Y001587D01*
X021689Y001530D02*
X020902Y001530D01*
X020902Y001472D02*
X021689Y001472D01*
X021689Y001414D02*
X020902Y001414D01*
X020902Y001357D02*
X021689Y001357D01*
X021689Y001299D02*
X020902Y001299D01*
X020902Y001242D02*
X021689Y001242D01*
X021689Y001184D02*
X020902Y001184D01*
X020902Y001127D02*
X021689Y001127D01*
X021689Y001069D02*
X020902Y001069D01*
X020902Y001012D02*
X021689Y001012D01*
X021689Y000954D02*
X019130Y000954D01*
X019130Y000896D02*
X021689Y000896D01*
X021689Y000839D02*
X019130Y000839D01*
X019130Y000781D02*
X021689Y000781D01*
X021689Y000724D02*
X019130Y000724D01*
X019130Y000666D02*
X021689Y000666D01*
X021689Y000609D02*
X019130Y000609D01*
X019130Y000551D02*
X021689Y000551D01*
X011335Y000724D02*
X004721Y000724D01*
X004721Y000781D02*
X011335Y000781D01*
X011335Y000839D02*
X004721Y000839D01*
X004721Y000896D02*
X011335Y000896D01*
X011335Y000954D02*
X004721Y000954D01*
X003067Y000954D02*
X001217Y000954D01*
X001217Y000896D02*
X003067Y000896D01*
X003067Y000839D02*
X001217Y000839D01*
X001217Y000781D02*
X003067Y000781D01*
X003067Y000724D02*
X001217Y000724D01*
X001217Y000666D02*
X003067Y000666D01*
X003067Y000609D02*
X001217Y000609D01*
X001217Y001012D02*
X001728Y001012D01*
X001728Y001069D02*
X001217Y001069D01*
X001217Y001127D02*
X001728Y001127D01*
X001728Y001184D02*
X001217Y001184D01*
X001217Y001242D02*
X001728Y001242D01*
X001728Y001299D02*
X001217Y001299D01*
X001217Y001357D02*
X001728Y001357D01*
X001728Y001414D02*
X001217Y001414D01*
X001217Y001472D02*
X001728Y001472D01*
X001728Y001530D02*
X001217Y001530D01*
X001217Y001587D02*
X001728Y001587D01*
X001728Y001645D02*
X001217Y001645D01*
X001217Y001702D02*
X001728Y001702D01*
X001728Y001760D02*
X001217Y001760D01*
X001217Y001817D02*
X001728Y001817D01*
X001728Y001875D02*
X001217Y001875D01*
X001217Y001932D02*
X001728Y001932D01*
X001728Y001990D02*
X001217Y001990D01*
X001217Y002048D02*
X001728Y002048D01*
X001728Y002105D02*
X001217Y002105D01*
X001217Y002163D02*
X001728Y002163D01*
X001728Y002220D02*
X001217Y002220D01*
X001217Y002278D02*
X001728Y002278D01*
X001728Y002335D02*
X001217Y002335D01*
X001217Y002393D02*
X001728Y002393D01*
X001728Y002450D02*
X001217Y002450D01*
X001217Y002508D02*
X001728Y002508D01*
X001728Y002566D02*
X001217Y002566D01*
X001217Y002623D02*
X001728Y002623D01*
X001728Y002681D02*
X001217Y002681D01*
X001217Y002738D02*
X001728Y002738D01*
X001728Y002796D02*
X001217Y002796D01*
X001217Y002853D02*
X001728Y002853D01*
X001728Y002911D02*
X001217Y002911D01*
X001217Y002968D02*
X001728Y002968D01*
X001728Y003026D02*
X001217Y003026D01*
X001217Y003084D02*
X001728Y003084D01*
X001728Y003141D02*
X001217Y003141D01*
X001217Y003199D02*
X001728Y003199D01*
X001728Y003256D02*
X001217Y003256D01*
X001217Y003314D02*
X001728Y003314D01*
X001728Y003371D02*
X001217Y003371D01*
X001217Y003429D02*
X001728Y003429D01*
X001728Y003486D02*
X001217Y003486D01*
X001217Y003544D02*
X001728Y003544D01*
X001728Y003602D02*
X001217Y003602D01*
X001217Y003659D02*
X001728Y003659D01*
X001728Y003717D02*
X001217Y003717D01*
X001217Y003774D02*
X001728Y003774D01*
X001728Y003832D02*
X001217Y003832D01*
X001217Y003889D02*
X001728Y003889D01*
X001728Y003947D02*
X001217Y003947D01*
X001217Y004004D02*
X001728Y004004D01*
X001728Y004062D02*
X001217Y004062D01*
X001217Y004120D02*
X001728Y004120D01*
X001728Y004177D02*
X001217Y004177D01*
X001217Y004235D02*
X001728Y004235D01*
X001728Y004292D02*
X001217Y004292D01*
X001217Y004350D02*
X001728Y004350D01*
X001728Y004407D02*
X001217Y004407D01*
X001217Y004465D02*
X001728Y004465D01*
X001728Y004522D02*
X001217Y004522D01*
X001217Y004580D02*
X001728Y004580D01*
X001728Y004638D02*
X001217Y004638D01*
X001217Y004695D02*
X001728Y004695D01*
X001728Y004753D02*
X001217Y004753D01*
X001217Y004810D02*
X001728Y004810D01*
X001728Y004868D02*
X001217Y004868D01*
X001217Y004925D02*
X001728Y004925D01*
X001728Y004983D02*
X001217Y004983D01*
X001217Y005040D02*
X001728Y005040D01*
X001728Y005098D02*
X001217Y005098D01*
X001217Y005156D02*
X001728Y005156D01*
X001728Y005213D02*
X001217Y005213D01*
X001217Y005271D02*
X001728Y005271D01*
X001728Y005328D02*
X001217Y005328D01*
X001217Y005386D02*
X001728Y005386D01*
X001728Y005443D02*
X001217Y005443D01*
X001217Y005501D02*
X001728Y005501D01*
X001728Y005558D02*
X001217Y005558D01*
X001217Y005616D02*
X001728Y005616D01*
X001728Y005674D02*
X001217Y005674D01*
X001217Y005731D02*
X001728Y005731D01*
X001728Y005789D02*
X001217Y005789D01*
X001217Y005846D02*
X001728Y005846D01*
X001728Y005904D02*
X001217Y005904D01*
X001217Y005961D02*
X001728Y005961D01*
X001728Y006019D02*
X001217Y006019D01*
X001217Y006076D02*
X001728Y006076D01*
X001728Y006134D02*
X001217Y006134D01*
X001217Y006192D02*
X001728Y006192D01*
X001728Y006249D02*
X001217Y006249D01*
X001217Y006307D02*
X001728Y006307D01*
X001571Y006364D02*
X001217Y006364D01*
X001217Y006422D02*
X001571Y006422D01*
X001571Y006479D02*
X001217Y006479D01*
X001217Y006537D02*
X001571Y006537D01*
X001571Y006594D02*
X001217Y006594D01*
X001217Y006652D02*
X001571Y006652D01*
X001571Y006710D02*
X001217Y006710D01*
X001217Y006767D02*
X001571Y006767D01*
X001571Y006825D02*
X001217Y006825D01*
X001217Y006882D02*
X001571Y006882D01*
X001571Y006940D02*
X001217Y006940D01*
X001217Y006997D02*
X001571Y006997D01*
X001571Y007055D02*
X001217Y007055D01*
X001217Y007112D02*
X001571Y007112D01*
X001571Y007170D02*
X001217Y007170D01*
X001217Y007228D02*
X001571Y007228D01*
X001571Y007285D02*
X001217Y007285D01*
X001217Y007343D02*
X001571Y007343D01*
X001571Y007400D02*
X001217Y007400D01*
X001217Y007458D02*
X001571Y007458D01*
X001571Y007515D02*
X001217Y007515D01*
X001217Y007573D02*
X001571Y007573D01*
X001571Y007630D02*
X001217Y007630D01*
X001217Y007688D02*
X001571Y007688D01*
X001571Y007746D02*
X001217Y007746D01*
X001217Y007803D02*
X001571Y007803D01*
X001571Y007861D02*
X001217Y007861D01*
X001217Y007918D02*
X001571Y007918D01*
X001571Y007976D02*
X001217Y007976D01*
X001217Y008033D02*
X001571Y008033D01*
X001374Y008091D02*
X001217Y008091D01*
X001217Y008148D02*
X001374Y008148D01*
X001374Y008206D02*
X001217Y008206D01*
X001217Y008264D02*
X001374Y008264D01*
X001374Y008321D02*
X001217Y008321D01*
X001217Y008379D02*
X001374Y008379D01*
X001374Y008436D02*
X001217Y008436D01*
X001217Y008494D02*
X001374Y008494D01*
X001374Y008551D02*
X001217Y008551D01*
X001217Y008609D02*
X001374Y008609D01*
X001374Y008666D02*
X001217Y008666D01*
X001217Y008724D02*
X001374Y008724D01*
D11*
X001740Y008359D03*
X001996Y008359D03*
X002252Y008359D03*
X002252Y007533D03*
X001996Y007533D03*
X001740Y007533D03*
X017260Y007714D03*
X017516Y007714D03*
X017772Y007714D03*
X017772Y008540D03*
X017516Y008540D03*
X017260Y008540D03*
D12*
X017516Y008127D03*
X001996Y007946D03*
D13*
X002244Y006969D03*
X002244Y006569D03*
X002004Y005957D03*
X002004Y005557D03*
X002791Y005557D03*
X002791Y005957D03*
X003421Y005445D03*
X003421Y005045D03*
X003421Y004303D03*
X003421Y003903D03*
X004051Y003201D03*
X004051Y002801D03*
X004721Y003234D03*
X004721Y003634D03*
X004717Y004222D03*
X005117Y004222D03*
X005245Y003576D03*
X005645Y003576D03*
X006098Y003903D03*
X006098Y004303D03*
X006098Y005045D03*
X006098Y005445D03*
X005508Y005445D03*
X005508Y005045D03*
X006769Y006670D03*
X007169Y006670D03*
X008300Y006623D03*
X008700Y006623D03*
X009209Y007132D03*
X009209Y007532D03*
X010626Y006981D03*
X010626Y006581D03*
X011256Y006587D03*
X011256Y006187D03*
X010508Y005288D03*
X010508Y004888D03*
X009881Y005718D03*
X009481Y005718D03*
X009284Y004379D03*
X009684Y004379D03*
X008661Y004379D03*
X008261Y004379D03*
X008536Y003552D03*
X008936Y003552D03*
X007913Y003552D03*
X007513Y003552D03*
X006728Y003201D03*
X006728Y002801D03*
X010193Y002965D03*
X010193Y002565D03*
X010741Y001623D03*
X011141Y001623D03*
X011607Y000875D03*
X012007Y000875D03*
X012080Y001938D03*
X012480Y001938D03*
X012165Y002489D03*
X011765Y002489D03*
X011765Y003001D03*
X012165Y003001D03*
X013185Y002020D03*
X013185Y001620D03*
X013221Y000875D03*
X013621Y000875D03*
X014091Y002014D03*
X014091Y002414D03*
X014760Y002368D03*
X014760Y002768D03*
X015544Y002371D03*
X015944Y002371D03*
X015587Y004533D03*
X015587Y004933D03*
X015587Y005478D03*
X015587Y005878D03*
X016138Y005878D03*
X016138Y005478D03*
X018224Y005327D03*
X018224Y004927D03*
X018772Y004891D03*
X019172Y004891D03*
X017949Y009100D03*
X017949Y009500D03*
X016886Y009500D03*
X016886Y009100D03*
X015232Y011423D03*
X015232Y011823D03*
X014724Y011741D03*
X014324Y011741D03*
X013424Y016623D03*
X013024Y016623D03*
X012949Y018549D03*
X012949Y018949D03*
X008343Y018162D03*
X008343Y017762D03*
X005802Y015757D03*
X005402Y015757D03*
X005503Y014300D03*
X005103Y014300D03*
X005862Y011075D03*
X005862Y010675D03*
X007709Y009418D03*
X008109Y009418D03*
X012724Y006705D03*
X012724Y006305D03*
X002083Y003477D03*
X002083Y003077D03*
D14*
X001919Y006457D02*
X001647Y006457D01*
X001647Y006711D01*
X001919Y006711D01*
X001919Y006457D01*
X001919Y006519D02*
X001647Y006519D01*
X001647Y006581D02*
X001919Y006581D01*
X001919Y006643D02*
X001647Y006643D01*
X001647Y006705D02*
X001919Y006705D01*
X001919Y006850D02*
X001647Y006850D01*
X001647Y007104D01*
X001919Y007104D01*
X001919Y006850D01*
X001919Y006912D02*
X001647Y006912D01*
X001647Y006974D02*
X001919Y006974D01*
X001919Y007036D02*
X001647Y007036D01*
X001647Y007098D02*
X001919Y007098D01*
X005342Y011408D02*
X005342Y011680D01*
X005596Y011680D01*
X005596Y011408D01*
X005342Y011408D01*
X005342Y011470D02*
X005596Y011470D01*
X005596Y011532D02*
X005342Y011532D01*
X005342Y011594D02*
X005596Y011594D01*
X005596Y011656D02*
X005342Y011656D01*
X005596Y011763D02*
X005596Y012035D01*
X005596Y011763D02*
X005342Y011763D01*
X005342Y012035D01*
X005596Y012035D01*
X005596Y011825D02*
X005342Y011825D01*
X005342Y011887D02*
X005596Y011887D01*
X005596Y011949D02*
X005342Y011949D01*
X005342Y012011D02*
X005596Y012011D01*
X005989Y012035D02*
X005989Y011763D01*
X005735Y011763D01*
X005735Y012035D01*
X005989Y012035D01*
X005989Y011825D02*
X005735Y011825D01*
X005735Y011887D02*
X005989Y011887D01*
X005989Y011949D02*
X005735Y011949D01*
X005735Y012011D02*
X005989Y012011D01*
X005735Y011680D02*
X005735Y011408D01*
X005735Y011680D02*
X005989Y011680D01*
X005989Y011408D01*
X005735Y011408D01*
X005735Y011470D02*
X005989Y011470D01*
X005989Y011532D02*
X005735Y011532D01*
X005735Y011594D02*
X005989Y011594D01*
X005989Y011656D02*
X005735Y011656D01*
X005250Y012026D02*
X004978Y012026D01*
X005250Y012026D02*
X005250Y011772D01*
X004978Y011772D01*
X004978Y012026D01*
X004978Y011834D02*
X005250Y011834D01*
X005250Y011896D02*
X004978Y011896D01*
X004978Y011958D02*
X005250Y011958D01*
X005250Y012020D02*
X004978Y012020D01*
X004978Y012419D02*
X005250Y012419D01*
X005250Y012165D01*
X004978Y012165D01*
X004978Y012419D01*
X004978Y012227D02*
X005250Y012227D01*
X005250Y012289D02*
X004978Y012289D01*
X004978Y012351D02*
X005250Y012351D01*
X005250Y012413D02*
X004978Y012413D01*
X002901Y012471D02*
X002901Y012743D01*
X003155Y012743D01*
X003155Y012471D01*
X002901Y012471D01*
X002901Y012533D02*
X003155Y012533D01*
X003155Y012595D02*
X002901Y012595D01*
X002901Y012657D02*
X003155Y012657D01*
X003155Y012719D02*
X002901Y012719D01*
X002507Y012743D02*
X002507Y012471D01*
X002507Y012743D02*
X002761Y012743D01*
X002761Y012471D01*
X002507Y012471D01*
X002507Y012533D02*
X002761Y012533D01*
X002761Y012595D02*
X002507Y012595D01*
X002507Y012657D02*
X002761Y012657D01*
X002761Y012719D02*
X002507Y012719D01*
X002507Y012113D02*
X002507Y011841D01*
X002507Y012113D02*
X002761Y012113D01*
X002761Y011841D01*
X002507Y011841D01*
X002507Y011903D02*
X002761Y011903D01*
X002761Y011965D02*
X002507Y011965D01*
X002507Y012027D02*
X002761Y012027D01*
X002761Y012089D02*
X002507Y012089D01*
X002901Y012113D02*
X002901Y011841D01*
X002901Y012113D02*
X003155Y012113D01*
X003155Y011841D01*
X002901Y011841D01*
X002901Y011903D02*
X003155Y011903D01*
X003155Y011965D02*
X002901Y011965D01*
X002901Y012027D02*
X003155Y012027D01*
X003155Y012089D02*
X002901Y012089D01*
X005241Y017550D02*
X005241Y017822D01*
X005241Y017550D02*
X004987Y017550D01*
X004987Y017822D01*
X005241Y017822D01*
X005241Y017612D02*
X004987Y017612D01*
X004987Y017674D02*
X005241Y017674D01*
X005241Y017736D02*
X004987Y017736D01*
X004987Y017798D02*
X005241Y017798D01*
X005635Y017822D02*
X005635Y017550D01*
X005381Y017550D01*
X005381Y017822D01*
X005635Y017822D01*
X005635Y017612D02*
X005381Y017612D01*
X005381Y017674D02*
X005635Y017674D01*
X005635Y017736D02*
X005381Y017736D01*
X005381Y017798D02*
X005635Y017798D01*
X005805Y017813D02*
X006077Y017813D01*
X006077Y017559D01*
X005805Y017559D01*
X005805Y017813D01*
X005805Y017621D02*
X006077Y017621D01*
X006077Y017683D02*
X005805Y017683D01*
X005805Y017745D02*
X006077Y017745D01*
X006077Y017807D02*
X005805Y017807D01*
X005805Y018207D02*
X006077Y018207D01*
X006077Y017953D01*
X005805Y017953D01*
X005805Y018207D01*
X005805Y018015D02*
X006077Y018015D01*
X006077Y018077D02*
X005805Y018077D01*
X005805Y018139D02*
X006077Y018139D01*
X006077Y018201D02*
X005805Y018201D01*
X006986Y018325D02*
X007258Y018325D01*
X007258Y018071D01*
X006986Y018071D01*
X006986Y018325D01*
X006986Y018133D02*
X007258Y018133D01*
X007258Y018195D02*
X006986Y018195D01*
X006986Y018257D02*
X007258Y018257D01*
X007258Y018319D02*
X006986Y018319D01*
X006986Y017931D02*
X007258Y017931D01*
X007258Y017677D01*
X006986Y017677D01*
X006986Y017931D01*
X006986Y017739D02*
X007258Y017739D01*
X007258Y017801D02*
X006986Y017801D01*
X006986Y017863D02*
X007258Y017863D01*
X007258Y017925D02*
X006986Y017925D01*
X007577Y017677D02*
X007849Y017677D01*
X007577Y017677D02*
X007577Y017931D01*
X007849Y017931D01*
X007849Y017677D01*
X007849Y017739D02*
X007577Y017739D01*
X007577Y017801D02*
X007849Y017801D01*
X007849Y017863D02*
X007577Y017863D01*
X007577Y017925D02*
X007849Y017925D01*
X007849Y018071D02*
X007577Y018071D01*
X007577Y018325D01*
X007849Y018325D01*
X007849Y018071D01*
X007849Y018133D02*
X007577Y018133D01*
X007577Y018195D02*
X007849Y018195D01*
X007849Y018257D02*
X007577Y018257D01*
X007577Y018319D02*
X007849Y018319D01*
X008758Y018032D02*
X009030Y018032D01*
X008758Y018032D02*
X008758Y018286D01*
X009030Y018286D01*
X009030Y018032D01*
X009030Y018094D02*
X008758Y018094D01*
X008758Y018156D02*
X009030Y018156D01*
X009030Y018218D02*
X008758Y018218D01*
X008758Y018280D02*
X009030Y018280D01*
X009030Y017638D02*
X008758Y017638D01*
X008758Y017892D01*
X009030Y017892D01*
X009030Y017638D01*
X009030Y017700D02*
X008758Y017700D01*
X008758Y017762D02*
X009030Y017762D01*
X009030Y017824D02*
X008758Y017824D01*
X008758Y017886D02*
X009030Y017886D01*
X012892Y017402D02*
X013164Y017402D01*
X012892Y017402D02*
X012892Y017656D01*
X013164Y017656D01*
X013164Y017402D01*
X013164Y017464D02*
X012892Y017464D01*
X012892Y017526D02*
X013164Y017526D01*
X013164Y017588D02*
X012892Y017588D01*
X012892Y017650D02*
X013164Y017650D01*
X013164Y017008D02*
X012892Y017008D01*
X012892Y017262D01*
X013164Y017262D01*
X013164Y017008D01*
X013164Y017070D02*
X012892Y017070D01*
X012892Y017132D02*
X013164Y017132D01*
X013164Y017194D02*
X012892Y017194D01*
X012892Y017256D02*
X013164Y017256D01*
X012249Y013688D02*
X012249Y013416D01*
X011995Y013416D01*
X011995Y013688D01*
X012249Y013688D01*
X012249Y013478D02*
X011995Y013478D01*
X011995Y013540D02*
X012249Y013540D01*
X012249Y013602D02*
X011995Y013602D01*
X011995Y013664D02*
X012249Y013664D01*
X011855Y013688D02*
X011855Y013416D01*
X011601Y013416D01*
X011601Y013688D01*
X011855Y013688D01*
X011855Y013478D02*
X011601Y013478D01*
X011601Y013540D02*
X011855Y013540D01*
X011855Y013602D02*
X011601Y013602D01*
X011601Y013664D02*
X011855Y013664D01*
X010635Y009515D02*
X010635Y009243D01*
X010381Y009243D01*
X010381Y009515D01*
X010635Y009515D01*
X010635Y009305D02*
X010381Y009305D01*
X010381Y009367D02*
X010635Y009367D01*
X010635Y009429D02*
X010381Y009429D01*
X010381Y009491D02*
X010635Y009491D01*
X010241Y009515D02*
X010241Y009243D01*
X009987Y009243D01*
X009987Y009515D01*
X010241Y009515D01*
X010241Y009305D02*
X009987Y009305D01*
X009987Y009367D02*
X010241Y009367D01*
X010241Y009429D02*
X009987Y009429D01*
X009987Y009491D02*
X010241Y009491D01*
X009808Y009515D02*
X009808Y009243D01*
X009554Y009243D01*
X009554Y009515D01*
X009808Y009515D01*
X009808Y009305D02*
X009554Y009305D01*
X009554Y009367D02*
X009808Y009367D01*
X009808Y009429D02*
X009554Y009429D01*
X009554Y009491D02*
X009808Y009491D01*
X009414Y009515D02*
X009414Y009243D01*
X009160Y009243D01*
X009160Y009515D01*
X009414Y009515D01*
X009414Y009305D02*
X009160Y009305D01*
X009160Y009367D02*
X009414Y009367D01*
X009414Y009429D02*
X009160Y009429D01*
X009160Y009491D02*
X009414Y009491D01*
X015871Y004200D02*
X015871Y003928D01*
X015617Y003928D01*
X015617Y004200D01*
X015871Y004200D01*
X015871Y003990D02*
X015617Y003990D01*
X015617Y004052D02*
X015871Y004052D01*
X015871Y004114D02*
X015617Y004114D01*
X015617Y004176D02*
X015871Y004176D01*
X016265Y004200D02*
X016265Y003928D01*
X016011Y003928D01*
X016011Y004200D01*
X016265Y004200D01*
X016265Y003990D02*
X016011Y003990D01*
X016011Y004052D02*
X016265Y004052D01*
X016265Y004114D02*
X016011Y004114D01*
X016011Y004176D02*
X016265Y004176D01*
X016274Y004409D02*
X016002Y004409D01*
X016002Y004663D01*
X016274Y004663D01*
X016274Y004409D01*
X016274Y004471D02*
X016002Y004471D01*
X016002Y004533D02*
X016274Y004533D01*
X016274Y004595D02*
X016002Y004595D01*
X016002Y004657D02*
X016274Y004657D01*
X016274Y004803D02*
X016002Y004803D01*
X016002Y005057D01*
X016274Y005057D01*
X016274Y004803D01*
X016274Y004865D02*
X016002Y004865D01*
X016002Y004927D02*
X016274Y004927D01*
X016274Y004989D02*
X016002Y004989D01*
X016002Y005051D02*
X016274Y005051D01*
X016265Y003806D02*
X016265Y003534D01*
X016011Y003534D01*
X016011Y003806D01*
X016265Y003806D01*
X016265Y003596D02*
X016011Y003596D01*
X016011Y003658D02*
X016265Y003658D01*
X016265Y003720D02*
X016011Y003720D01*
X016011Y003782D02*
X016265Y003782D01*
X016265Y003413D02*
X016265Y003141D01*
X016011Y003141D01*
X016011Y003413D01*
X016265Y003413D01*
X016265Y003203D02*
X016011Y003203D01*
X016011Y003265D02*
X016265Y003265D01*
X016265Y003327D02*
X016011Y003327D01*
X016011Y003389D02*
X016265Y003389D01*
X016265Y003019D02*
X016265Y002747D01*
X016011Y002747D01*
X016011Y003019D01*
X016265Y003019D01*
X016265Y002809D02*
X016011Y002809D01*
X016011Y002871D02*
X016265Y002871D01*
X016265Y002933D02*
X016011Y002933D01*
X016011Y002995D02*
X016265Y002995D01*
X015871Y003019D02*
X015871Y002747D01*
X015617Y002747D01*
X015617Y003019D01*
X015871Y003019D01*
X015871Y002809D02*
X015617Y002809D01*
X015617Y002871D02*
X015871Y002871D01*
X015871Y002933D02*
X015617Y002933D01*
X015617Y002995D02*
X015871Y002995D01*
X015871Y003141D02*
X015871Y003413D01*
X015871Y003141D02*
X015617Y003141D01*
X015617Y003413D01*
X015871Y003413D01*
X015871Y003203D02*
X015617Y003203D01*
X015617Y003265D02*
X015871Y003265D01*
X015871Y003327D02*
X015617Y003327D01*
X015617Y003389D02*
X015871Y003389D01*
X015871Y003534D02*
X015871Y003806D01*
X015871Y003534D02*
X015617Y003534D01*
X015617Y003806D01*
X015871Y003806D01*
X015871Y003596D02*
X015617Y003596D01*
X015617Y003658D02*
X015871Y003658D01*
X015871Y003720D02*
X015617Y003720D01*
X015617Y003782D02*
X015871Y003782D01*
X019270Y003032D02*
X019542Y003032D01*
X019270Y003032D02*
X019270Y003286D01*
X019542Y003286D01*
X019542Y003032D01*
X019542Y003094D02*
X019270Y003094D01*
X019270Y003156D02*
X019542Y003156D01*
X019542Y003218D02*
X019270Y003218D01*
X019270Y003280D02*
X019542Y003280D01*
X019542Y002638D02*
X019270Y002638D01*
X019270Y002892D01*
X019542Y002892D01*
X019542Y002638D01*
X019542Y002700D02*
X019270Y002700D01*
X019270Y002762D02*
X019542Y002762D01*
X019542Y002824D02*
X019270Y002824D01*
X019270Y002886D02*
X019542Y002886D01*
X017565Y009230D02*
X017293Y009230D01*
X017565Y009230D02*
X017565Y008976D01*
X017293Y008976D01*
X017293Y009230D01*
X017293Y009038D02*
X017565Y009038D01*
X017565Y009100D02*
X017293Y009100D01*
X017293Y009162D02*
X017565Y009162D01*
X017565Y009224D02*
X017293Y009224D01*
X017293Y009624D02*
X017565Y009624D01*
X017565Y009370D01*
X017293Y009370D01*
X017293Y009624D01*
X017293Y009432D02*
X017565Y009432D01*
X017565Y009494D02*
X017293Y009494D01*
X017293Y009556D02*
X017565Y009556D01*
X017565Y009618D02*
X017293Y009618D01*
D15*
X018221Y008478D03*
X018221Y007878D03*
X015823Y011402D03*
X015823Y012002D03*
X014799Y013961D03*
X014799Y014561D03*
X012043Y007041D03*
X012043Y006441D03*
X017358Y001411D03*
X017358Y000811D03*
X018972Y000811D03*
X018972Y001411D03*
X005114Y018252D03*
X005114Y018852D03*
D16*
X014386Y010029D03*
X014583Y010029D03*
X014780Y010029D03*
X014976Y010029D03*
X014976Y009596D03*
X014780Y009596D03*
X014583Y009596D03*
X014386Y009596D03*
X015567Y009596D03*
X015764Y009596D03*
X015961Y009596D03*
X016158Y009596D03*
X016158Y010029D03*
X015961Y010029D03*
X015764Y010029D03*
X015567Y010029D03*
X014095Y006934D03*
X013898Y006934D03*
X013701Y006934D03*
X013504Y006934D03*
X013504Y006501D03*
X013701Y006501D03*
X013898Y006501D03*
X014095Y006501D03*
D17*
X014579Y005340D03*
X014579Y005143D03*
X014579Y004946D03*
X014579Y004749D03*
X014579Y004552D03*
X014579Y004355D03*
X014579Y004159D03*
X014579Y003962D03*
X014579Y003765D03*
X014579Y003568D03*
X016965Y003564D03*
X016965Y003367D03*
X016965Y003170D03*
X016965Y002974D03*
X016965Y002777D03*
X016965Y002580D03*
X016965Y003761D03*
X016965Y003958D03*
X018894Y003958D03*
X018894Y003761D03*
X018894Y003564D03*
X018894Y003367D03*
X018894Y003170D03*
X018894Y002974D03*
X018894Y002777D03*
X018894Y002580D03*
X012256Y003568D03*
X012256Y003765D03*
X012256Y003962D03*
X012256Y004159D03*
X012256Y004355D03*
X012256Y004552D03*
X012256Y004749D03*
X012256Y004946D03*
X012256Y005143D03*
X012256Y005340D03*
D18*
X012532Y005615D03*
X012728Y005615D03*
X012925Y005615D03*
X013122Y005615D03*
X013319Y005615D03*
X013516Y005615D03*
X013713Y005615D03*
X013909Y005615D03*
X014106Y005615D03*
X014303Y005615D03*
X014303Y003292D03*
X014106Y003292D03*
X013909Y003292D03*
X013713Y003292D03*
X013516Y003292D03*
X013319Y003292D03*
X013122Y003292D03*
X012925Y003292D03*
X012728Y003292D03*
X012532Y003292D03*
X017240Y004233D03*
X017437Y004233D03*
X017634Y004233D03*
X017831Y004233D03*
X018028Y004233D03*
X018224Y004233D03*
X018421Y004233D03*
X018618Y004233D03*
X018618Y002304D03*
X018421Y002304D03*
X018224Y002304D03*
X018028Y002304D03*
X017831Y002304D03*
X017634Y002304D03*
X017437Y002304D03*
X017240Y002304D03*
D19*
X017929Y003269D03*
D20*
X013417Y004454D03*
D21*
X012055Y017440D03*
X012055Y017940D03*
X012055Y018440D03*
X012055Y018940D03*
X009890Y018940D03*
X009890Y018440D03*
X009890Y017940D03*
X009890Y017440D03*
D22*
X019002Y017292D03*
X019002Y017096D03*
X019002Y016899D03*
X019002Y016702D03*
X019002Y016505D03*
X019002Y016308D03*
X019002Y016111D03*
X019002Y015914D03*
X019002Y015718D03*
X019002Y015521D03*
X019002Y015324D03*
X019002Y015127D03*
X019002Y014930D03*
X019002Y014733D03*
X019002Y014536D03*
X019002Y014340D03*
X019002Y014143D03*
X019002Y013946D03*
X019002Y013749D03*
X019002Y013552D03*
X019002Y013355D03*
X019002Y013159D03*
X019002Y012962D03*
X019002Y012765D03*
X019002Y012568D03*
X019002Y012371D03*
X019002Y012174D03*
X019002Y011977D03*
X019002Y011781D03*
X019002Y011584D03*
X019002Y011387D03*
X019002Y011190D03*
X019002Y010993D03*
X019002Y010796D03*
X019002Y010599D03*
X019002Y010403D03*
X019002Y010206D03*
X019002Y010009D03*
X019002Y009812D03*
X019002Y009615D03*
X019002Y009418D03*
X019002Y009222D03*
X019002Y009025D03*
X019002Y008828D03*
X019002Y008631D03*
X019002Y008434D03*
X019002Y008237D03*
X019002Y008040D03*
X019002Y007844D03*
X019002Y007647D03*
D23*
X020065Y006820D03*
X020065Y018119D03*
D24*
X016669Y017863D03*
X016669Y019044D03*
X016669Y016288D03*
X014110Y015855D03*
D25*
X003980Y014781D03*
X001815Y014781D03*
X001815Y018285D03*
X003980Y018285D03*
D26*
X004020Y017162D03*
X004020Y016848D03*
X004020Y016533D03*
X004020Y016218D03*
X004020Y015903D03*
D27*
X002996Y015666D03*
X002996Y017399D03*
D28*
X016512Y012076D03*
X017417Y012076D03*
X017417Y011092D03*
X016512Y011092D03*
D29*
X005823Y013710D03*
X004642Y013710D03*
D30*
X010002Y007029D02*
X010002Y006883D01*
X010002Y007029D02*
X010148Y007029D01*
X010148Y006883D01*
X010002Y006883D01*
X010002Y007027D02*
X010148Y007027D01*
X010002Y006679D02*
X010002Y006533D01*
X010002Y006679D02*
X010148Y006679D01*
X010148Y006533D01*
X010002Y006533D01*
X010002Y006677D02*
X010148Y006677D01*
X009654Y006550D02*
X009508Y006550D01*
X009508Y006696D01*
X009654Y006696D01*
X009654Y006550D01*
X009654Y006694D02*
X009508Y006694D01*
X009304Y006550D02*
X009158Y006550D01*
X009158Y006696D01*
X009304Y006696D01*
X009304Y006550D01*
X009304Y006694D02*
X009158Y006694D01*
X009214Y005288D02*
X009214Y005142D01*
X009214Y005288D02*
X009360Y005288D01*
X009360Y005142D01*
X009214Y005142D01*
X009214Y005286D02*
X009360Y005286D01*
X009214Y004938D02*
X009214Y004792D01*
X009214Y004938D02*
X009360Y004938D01*
X009360Y004792D01*
X009214Y004792D01*
X009214Y004936D02*
X009360Y004936D01*
X010102Y004452D02*
X010248Y004452D01*
X010248Y004306D01*
X010102Y004306D01*
X010102Y004452D01*
X010102Y004450D02*
X010248Y004450D01*
X010452Y004452D02*
X010598Y004452D01*
X010598Y004306D01*
X010452Y004306D01*
X010452Y004452D01*
X010452Y004450D02*
X010598Y004450D01*
X010969Y004452D02*
X011115Y004452D01*
X011115Y004306D01*
X010969Y004306D01*
X010969Y004452D01*
X010969Y004450D02*
X011115Y004450D01*
X011319Y004452D02*
X011465Y004452D01*
X011465Y004306D01*
X011319Y004306D01*
X011319Y004452D01*
X011319Y004450D02*
X011465Y004450D01*
X011683Y002029D02*
X011683Y001883D01*
X011537Y001883D01*
X011537Y002029D01*
X011683Y002029D01*
X011683Y002027D02*
X011537Y002027D01*
X011683Y001679D02*
X011683Y001533D01*
X011537Y001533D01*
X011537Y001679D01*
X011683Y001679D01*
X011683Y001677D02*
X011537Y001677D01*
X012707Y001281D02*
X012707Y001135D01*
X012561Y001135D01*
X012561Y001281D01*
X012707Y001281D01*
X012707Y001279D02*
X012561Y001279D01*
X012707Y000931D02*
X012707Y000785D01*
X012561Y000785D01*
X012561Y000931D01*
X012707Y000931D01*
X012707Y000929D02*
X012561Y000929D01*
X013646Y001550D02*
X013792Y001550D01*
X013646Y001550D02*
X013646Y001696D01*
X013792Y001696D01*
X013792Y001550D01*
X013792Y001694D02*
X013646Y001694D01*
X013996Y001550D02*
X014142Y001550D01*
X013996Y001550D02*
X013996Y001696D01*
X014142Y001696D01*
X014142Y001550D01*
X014142Y001694D02*
X013996Y001694D01*
X014164Y001281D02*
X014164Y001135D01*
X014018Y001135D01*
X014018Y001281D01*
X014164Y001281D01*
X014164Y001279D02*
X014018Y001279D01*
X014164Y000931D02*
X014164Y000785D01*
X014018Y000785D01*
X014018Y000931D01*
X014164Y000931D01*
X014164Y000929D02*
X014018Y000929D01*
D31*
X011584Y003698D02*
X011292Y003698D01*
X011584Y003698D02*
X011584Y003406D01*
X011292Y003406D01*
X011292Y003698D01*
X011292Y003503D02*
X011584Y003503D01*
X011584Y003600D02*
X011292Y003600D01*
X011292Y003697D02*
X011584Y003697D01*
X010984Y003698D02*
X010692Y003698D01*
X010984Y003698D02*
X010984Y003406D01*
X010692Y003406D01*
X010692Y003698D01*
X010692Y003503D02*
X010984Y003503D01*
X010984Y003600D02*
X010692Y003600D01*
X010692Y003697D02*
X010984Y003697D01*
X010324Y003698D02*
X010032Y003698D01*
X010324Y003698D02*
X010324Y003406D01*
X010032Y003406D01*
X010032Y003698D01*
X010032Y003503D02*
X010324Y003503D01*
X010324Y003600D02*
X010032Y003600D01*
X010032Y003697D02*
X010324Y003697D01*
X009724Y003698D02*
X009432Y003698D01*
X009724Y003698D02*
X009724Y003406D01*
X009432Y003406D01*
X009432Y003698D01*
X009432Y003503D02*
X009724Y003503D01*
X009724Y003600D02*
X009432Y003600D01*
X009432Y003697D02*
X009724Y003697D01*
X011402Y004799D02*
X011402Y005091D01*
X011402Y004799D02*
X011110Y004799D01*
X011110Y005091D01*
X011402Y005091D01*
X011402Y004896D02*
X011110Y004896D01*
X011110Y004993D02*
X011402Y004993D01*
X011402Y005090D02*
X011110Y005090D01*
X011402Y005399D02*
X011402Y005691D01*
X011402Y005399D02*
X011110Y005399D01*
X011110Y005691D01*
X011402Y005691D01*
X011402Y005496D02*
X011110Y005496D01*
X011110Y005593D02*
X011402Y005593D01*
X011402Y005690D02*
X011110Y005690D01*
X008055Y003093D02*
X008055Y002801D01*
X007763Y002801D01*
X007763Y003093D01*
X008055Y003093D01*
X008055Y002898D02*
X007763Y002898D01*
X007763Y002995D02*
X008055Y002995D01*
X008055Y003092D02*
X007763Y003092D01*
X008055Y002493D02*
X008055Y002201D01*
X007763Y002201D01*
X007763Y002493D01*
X008055Y002493D01*
X008055Y002298D02*
X007763Y002298D01*
X007763Y002395D02*
X008055Y002395D01*
X008055Y002492D02*
X007763Y002492D01*
X006874Y003657D02*
X006874Y003949D01*
X006874Y003657D02*
X006582Y003657D01*
X006582Y003949D01*
X006874Y003949D01*
X006874Y003754D02*
X006582Y003754D01*
X006582Y003851D02*
X006874Y003851D01*
X006874Y003948D02*
X006582Y003948D01*
X006874Y004257D02*
X006874Y004549D01*
X006874Y004257D02*
X006582Y004257D01*
X006582Y004549D01*
X006874Y004549D01*
X006874Y004354D02*
X006582Y004354D01*
X006582Y004451D02*
X006874Y004451D01*
X006874Y004548D02*
X006582Y004548D01*
X006874Y004878D02*
X006874Y005170D01*
X006874Y004878D02*
X006582Y004878D01*
X006582Y005170D01*
X006874Y005170D01*
X006874Y004975D02*
X006582Y004975D01*
X006582Y005072D02*
X006874Y005072D01*
X006874Y005169D02*
X006582Y005169D01*
X006874Y005478D02*
X006874Y005770D01*
X006874Y005478D02*
X006582Y005478D01*
X006582Y005770D01*
X006874Y005770D01*
X006874Y005575D02*
X006582Y005575D01*
X006582Y005672D02*
X006874Y005672D01*
X006874Y005769D02*
X006582Y005769D01*
X004197Y005770D02*
X004197Y005478D01*
X003905Y005478D01*
X003905Y005770D01*
X004197Y005770D01*
X004197Y005575D02*
X003905Y005575D01*
X003905Y005672D02*
X004197Y005672D01*
X004197Y005769D02*
X003905Y005769D01*
X004197Y005170D02*
X004197Y004878D01*
X003905Y004878D01*
X003905Y005170D01*
X004197Y005170D01*
X004197Y004975D02*
X003905Y004975D01*
X003905Y005072D02*
X004197Y005072D01*
X004197Y005169D02*
X003905Y005169D01*
X004197Y004549D02*
X004197Y004257D01*
X003905Y004257D01*
X003905Y004549D01*
X004197Y004549D01*
X004197Y004354D02*
X003905Y004354D01*
X003905Y004451D02*
X004197Y004451D01*
X004197Y004548D02*
X003905Y004548D01*
X004197Y003949D02*
X004197Y003657D01*
X003905Y003657D01*
X003905Y003949D01*
X004197Y003949D01*
X004197Y003754D02*
X003905Y003754D01*
X003905Y003851D02*
X004197Y003851D01*
X004197Y003948D02*
X003905Y003948D01*
D32*
X005016Y002745D03*
X005016Y002548D03*
X005016Y002351D03*
X005016Y002155D03*
X006158Y002155D03*
X006158Y002351D03*
X006158Y002548D03*
X006158Y002745D03*
X007614Y005147D03*
X007614Y005344D03*
X007614Y005540D03*
X007614Y005737D03*
X008756Y005737D03*
X008756Y005540D03*
X008756Y005344D03*
X008756Y005147D03*
X006158Y006485D03*
X006158Y006682D03*
X006158Y006879D03*
X006158Y007076D03*
X005016Y007076D03*
X005016Y006879D03*
X005016Y006682D03*
X005016Y006485D03*
D33*
X005291Y006210D03*
X005488Y006210D03*
X005685Y006210D03*
X005882Y006210D03*
X005882Y007351D03*
X005685Y007351D03*
X005488Y007351D03*
X005291Y007351D03*
X007890Y006013D03*
X008087Y006013D03*
X008283Y006013D03*
X008480Y006013D03*
X008480Y004871D03*
X008283Y004871D03*
X008087Y004871D03*
X007890Y004871D03*
X005882Y003021D03*
X005685Y003021D03*
X005488Y003021D03*
X005291Y003021D03*
X005291Y001879D03*
X005488Y001879D03*
X005685Y001879D03*
X005882Y001879D03*
D34*
X005587Y002450D03*
X008185Y005442D03*
X005587Y006781D03*
D35*
X002898Y002470D03*
X002898Y002214D03*
X002898Y001958D03*
X002071Y001958D03*
X002071Y002214D03*
X002071Y002470D03*
D36*
X002811Y006603D03*
X003067Y006603D03*
X003323Y006603D03*
X003323Y007430D03*
X003067Y007430D03*
X002811Y007430D03*
D37*
X005039Y005800D02*
X005039Y005470D01*
X004559Y005470D01*
X004559Y005800D01*
X005039Y005800D01*
X005039Y005579D02*
X004559Y005579D01*
X004559Y005688D02*
X005039Y005688D01*
X005039Y005797D02*
X004559Y005797D01*
X005039Y005100D02*
X005039Y004770D01*
X004559Y004770D01*
X004559Y005100D01*
X005039Y005100D01*
X005039Y004879D02*
X004559Y004879D01*
X004559Y004988D02*
X005039Y004988D01*
X005039Y005097D02*
X004559Y005097D01*
D38*
X011630Y007527D02*
X011630Y007668D01*
X011754Y007668D01*
X011823Y007599D01*
X011823Y007527D01*
X011630Y007527D01*
X011823Y007527D01*
X011823Y007530D02*
X011630Y007530D01*
X011630Y007532D02*
X011823Y007532D01*
X011823Y007535D02*
X011630Y007535D01*
X011630Y007537D02*
X011823Y007537D01*
X011823Y007539D02*
X011630Y007539D01*
X011630Y007542D02*
X011823Y007542D01*
X011823Y007544D02*
X011630Y007544D01*
X011630Y007547D02*
X011823Y007547D01*
X011823Y007549D02*
X011630Y007549D01*
X011630Y007552D02*
X011823Y007552D01*
X011823Y007554D02*
X011630Y007554D01*
X011630Y007557D02*
X011823Y007557D01*
X011823Y007559D02*
X011630Y007559D01*
X011630Y007561D02*
X011823Y007561D01*
X011823Y007564D02*
X011630Y007564D01*
X011630Y007566D02*
X011823Y007566D01*
X011823Y007569D02*
X011630Y007569D01*
X011630Y007571D02*
X011823Y007571D01*
X011823Y007574D02*
X011630Y007574D01*
X011630Y007576D02*
X011823Y007576D01*
X011823Y007578D02*
X011630Y007578D01*
X011630Y007581D02*
X011823Y007581D01*
X011823Y007583D02*
X011630Y007583D01*
X011630Y007586D02*
X011823Y007586D01*
X011823Y007588D02*
X011630Y007588D01*
X011630Y007591D02*
X011823Y007591D01*
X011823Y007593D02*
X011630Y007593D01*
X011630Y007596D02*
X011823Y007596D01*
X011823Y007598D02*
X011630Y007598D01*
X011630Y007600D02*
X011822Y007600D01*
X011819Y007603D02*
X011630Y007603D01*
X011630Y007605D02*
X011817Y007605D01*
X011815Y007608D02*
X011630Y007608D01*
X011630Y007610D02*
X011812Y007610D01*
X011810Y007613D02*
X011630Y007613D01*
X011630Y007615D02*
X011807Y007615D01*
X011805Y007617D02*
X011630Y007617D01*
X011630Y007620D02*
X011802Y007620D01*
X011800Y007622D02*
X011630Y007622D01*
X011630Y007625D02*
X011798Y007625D01*
X011795Y007627D02*
X011630Y007627D01*
X011630Y007630D02*
X011793Y007630D01*
X011790Y007632D02*
X011630Y007632D01*
X011630Y007635D02*
X011788Y007635D01*
X011785Y007637D02*
X011630Y007637D01*
X011630Y007639D02*
X011783Y007639D01*
X011781Y007642D02*
X011630Y007642D01*
X011630Y007644D02*
X011778Y007644D01*
X011776Y007647D02*
X011630Y007647D01*
X011630Y007649D02*
X011773Y007649D01*
X011771Y007652D02*
X011630Y007652D01*
X011630Y007654D02*
X011768Y007654D01*
X011766Y007656D02*
X011630Y007656D01*
X011630Y007659D02*
X011763Y007659D01*
X011761Y007661D02*
X011630Y007661D01*
X011630Y007664D02*
X011759Y007664D01*
X011756Y007666D02*
X011630Y007666D01*
X011630Y007783D02*
X011630Y007924D01*
X011823Y007924D01*
X011823Y007851D01*
X011630Y007851D01*
X011630Y007849D02*
X011820Y007849D01*
X011818Y007847D02*
X011630Y007847D01*
X011630Y007844D02*
X011816Y007844D01*
X011813Y007842D02*
X011630Y007842D01*
X011630Y007839D02*
X011811Y007839D01*
X011808Y007837D02*
X011630Y007837D01*
X011630Y007834D02*
X011806Y007834D01*
X011803Y007832D02*
X011630Y007832D01*
X011630Y007830D02*
X011801Y007830D01*
X011798Y007827D02*
X011630Y007827D01*
X011630Y007825D02*
X011796Y007825D01*
X011794Y007822D02*
X011630Y007822D01*
X011630Y007820D02*
X011791Y007820D01*
X011789Y007817D02*
X011630Y007817D01*
X011630Y007815D02*
X011786Y007815D01*
X011784Y007812D02*
X011630Y007812D01*
X011630Y007810D02*
X011781Y007810D01*
X011779Y007808D02*
X011630Y007808D01*
X011630Y007805D02*
X011777Y007805D01*
X011774Y007803D02*
X011630Y007803D01*
X011630Y007800D02*
X011772Y007800D01*
X011769Y007798D02*
X011630Y007798D01*
X011630Y007795D02*
X011767Y007795D01*
X011764Y007793D02*
X011630Y007793D01*
X011630Y007791D02*
X011762Y007791D01*
X011759Y007788D02*
X011630Y007788D01*
X011630Y007786D02*
X011757Y007786D01*
X011755Y007783D02*
X011630Y007783D01*
X011754Y007783D01*
X011823Y007851D01*
X011823Y007854D02*
X011630Y007854D01*
X011630Y007856D02*
X011823Y007856D01*
X011823Y007859D02*
X011630Y007859D01*
X011630Y007861D02*
X011823Y007861D01*
X011823Y007864D02*
X011630Y007864D01*
X011630Y007866D02*
X011823Y007866D01*
X011823Y007869D02*
X011630Y007869D01*
X011630Y007871D02*
X011823Y007871D01*
X011823Y007873D02*
X011630Y007873D01*
X011630Y007876D02*
X011823Y007876D01*
X011823Y007878D02*
X011630Y007878D01*
X011630Y007881D02*
X011823Y007881D01*
X011823Y007883D02*
X011630Y007883D01*
X011630Y007886D02*
X011823Y007886D01*
X011823Y007888D02*
X011630Y007888D01*
X011630Y007890D02*
X011823Y007890D01*
X011823Y007893D02*
X011630Y007893D01*
X011630Y007895D02*
X011823Y007895D01*
X011823Y007898D02*
X011630Y007898D01*
X011630Y007900D02*
X011823Y007900D01*
X011823Y007903D02*
X011630Y007903D01*
X011630Y007905D02*
X011823Y007905D01*
X011823Y007908D02*
X011630Y007908D01*
X011630Y007910D02*
X011823Y007910D01*
X011823Y007912D02*
X011630Y007912D01*
X011630Y007915D02*
X011823Y007915D01*
X011823Y007917D02*
X011630Y007917D01*
X011630Y007920D02*
X011823Y007920D01*
X011823Y007922D02*
X011630Y007922D01*
X011949Y007922D02*
X012142Y007922D01*
X012142Y007924D02*
X012142Y007783D01*
X012017Y007783D01*
X012018Y007783D02*
X012142Y007783D01*
X012142Y007786D02*
X012015Y007786D01*
X012012Y007788D02*
X012142Y007788D01*
X012142Y007791D02*
X012010Y007791D01*
X012007Y007793D02*
X012142Y007793D01*
X012142Y007795D02*
X012005Y007795D01*
X012002Y007798D02*
X012142Y007798D01*
X012142Y007800D02*
X012000Y007800D01*
X011998Y007803D02*
X012142Y007803D01*
X012142Y007805D02*
X011995Y007805D01*
X011993Y007808D02*
X012142Y007808D01*
X012142Y007810D02*
X011990Y007810D01*
X011988Y007812D02*
X012142Y007812D01*
X012142Y007815D02*
X011985Y007815D01*
X011983Y007817D02*
X012142Y007817D01*
X012142Y007820D02*
X011981Y007820D01*
X011978Y007822D02*
X012142Y007822D01*
X012142Y007825D02*
X011976Y007825D01*
X011973Y007827D02*
X012142Y007827D01*
X012142Y007830D02*
X011971Y007830D01*
X011968Y007832D02*
X012142Y007832D01*
X012142Y007834D02*
X011966Y007834D01*
X011963Y007837D02*
X012142Y007837D01*
X012142Y007839D02*
X011961Y007839D01*
X011959Y007842D02*
X012142Y007842D01*
X012142Y007844D02*
X011956Y007844D01*
X011954Y007847D02*
X012142Y007847D01*
X012142Y007849D02*
X011951Y007849D01*
X011949Y007851D02*
X012142Y007851D01*
X012142Y007854D02*
X011949Y007854D01*
X011949Y007856D02*
X012142Y007856D01*
X012142Y007859D02*
X011949Y007859D01*
X011949Y007861D02*
X012142Y007861D01*
X012142Y007864D02*
X011949Y007864D01*
X011949Y007866D02*
X012142Y007866D01*
X012142Y007869D02*
X011949Y007869D01*
X011949Y007871D02*
X012142Y007871D01*
X012142Y007873D02*
X011949Y007873D01*
X011949Y007876D02*
X012142Y007876D01*
X012142Y007878D02*
X011949Y007878D01*
X011949Y007881D02*
X012142Y007881D01*
X012142Y007883D02*
X011949Y007883D01*
X011949Y007886D02*
X012142Y007886D01*
X012142Y007888D02*
X011949Y007888D01*
X011949Y007890D02*
X012142Y007890D01*
X012142Y007893D02*
X011949Y007893D01*
X011949Y007895D02*
X012142Y007895D01*
X012142Y007898D02*
X011949Y007898D01*
X011949Y007900D02*
X012142Y007900D01*
X012142Y007903D02*
X011949Y007903D01*
X011949Y007905D02*
X012142Y007905D01*
X012142Y007908D02*
X011949Y007908D01*
X011949Y007910D02*
X012142Y007910D01*
X012142Y007912D02*
X011949Y007912D01*
X011949Y007915D02*
X012142Y007915D01*
X012142Y007917D02*
X011949Y007917D01*
X011949Y007920D02*
X012142Y007920D01*
X012142Y007924D02*
X011949Y007924D01*
X011949Y007851D01*
X012018Y007783D01*
X012018Y007668D02*
X012142Y007668D01*
X012142Y007527D01*
X011949Y007527D01*
X011949Y007599D01*
X012018Y007668D01*
X012016Y007666D02*
X012142Y007666D01*
X012142Y007664D02*
X012013Y007664D01*
X012011Y007661D02*
X012142Y007661D01*
X012142Y007659D02*
X012008Y007659D01*
X012006Y007656D02*
X012142Y007656D01*
X012142Y007654D02*
X012003Y007654D01*
X012001Y007652D02*
X012142Y007652D01*
X012142Y007649D02*
X011999Y007649D01*
X011996Y007647D02*
X012142Y007647D01*
X012142Y007644D02*
X011994Y007644D01*
X011991Y007642D02*
X012142Y007642D01*
X012142Y007639D02*
X011989Y007639D01*
X011986Y007637D02*
X012142Y007637D01*
X012142Y007635D02*
X011984Y007635D01*
X011981Y007632D02*
X012142Y007632D01*
X012142Y007630D02*
X011979Y007630D01*
X011977Y007627D02*
X012142Y007627D01*
X012142Y007625D02*
X011974Y007625D01*
X011972Y007622D02*
X012142Y007622D01*
X012142Y007620D02*
X011969Y007620D01*
X011967Y007617D02*
X012142Y007617D01*
X012142Y007615D02*
X011964Y007615D01*
X011962Y007613D02*
X012142Y007613D01*
X012142Y007610D02*
X011960Y007610D01*
X011957Y007608D02*
X012142Y007608D01*
X012142Y007605D02*
X011955Y007605D01*
X011952Y007603D02*
X012142Y007603D01*
X012142Y007600D02*
X011950Y007600D01*
X011949Y007598D02*
X012142Y007598D01*
X012142Y007596D02*
X011949Y007596D01*
X011949Y007593D02*
X012142Y007593D01*
X012142Y007591D02*
X011949Y007591D01*
X011949Y007588D02*
X012142Y007588D01*
X012142Y007586D02*
X011949Y007586D01*
X011949Y007583D02*
X012142Y007583D01*
X012142Y007581D02*
X011949Y007581D01*
X011949Y007578D02*
X012142Y007578D01*
X012142Y007576D02*
X011949Y007576D01*
X011949Y007574D02*
X012142Y007574D01*
X012142Y007571D02*
X011949Y007571D01*
X011949Y007569D02*
X012142Y007569D01*
X012142Y007566D02*
X011949Y007566D01*
X011949Y007564D02*
X012142Y007564D01*
X012142Y007561D02*
X011949Y007561D01*
X011949Y007559D02*
X012142Y007559D01*
X012142Y007557D02*
X011949Y007557D01*
X011949Y007554D02*
X012142Y007554D01*
X012142Y007552D02*
X011949Y007552D01*
X011949Y007549D02*
X012142Y007549D01*
X012142Y007547D02*
X011949Y007547D01*
X011949Y007544D02*
X012142Y007544D01*
X012142Y007542D02*
X011949Y007542D01*
X011949Y007539D02*
X012142Y007539D01*
X012142Y007537D02*
X011949Y007537D01*
X011949Y007535D02*
X012142Y007535D01*
X012142Y007532D02*
X011949Y007532D01*
X011949Y007530D02*
X012142Y007530D01*
X012142Y007527D02*
X011949Y007527D01*
X018008Y001507D02*
X018008Y001365D01*
X018132Y001365D01*
X018201Y001434D01*
X018201Y001507D01*
X018008Y001507D01*
X018008Y001505D02*
X018201Y001505D01*
X018201Y001502D02*
X018008Y001502D01*
X018008Y001500D02*
X018201Y001500D01*
X018201Y001498D02*
X018008Y001498D01*
X018008Y001495D02*
X018201Y001495D01*
X018201Y001493D02*
X018008Y001493D01*
X018008Y001490D02*
X018201Y001490D01*
X018201Y001488D02*
X018008Y001488D01*
X018008Y001485D02*
X018201Y001485D01*
X018201Y001483D02*
X018008Y001483D01*
X018008Y001480D02*
X018201Y001480D01*
X018201Y001478D02*
X018008Y001478D01*
X018008Y001476D02*
X018201Y001476D01*
X018201Y001473D02*
X018008Y001473D01*
X018008Y001471D02*
X018201Y001471D01*
X018201Y001468D02*
X018008Y001468D01*
X018008Y001466D02*
X018201Y001466D01*
X018201Y001463D02*
X018008Y001463D01*
X018008Y001461D02*
X018201Y001461D01*
X018201Y001459D02*
X018008Y001459D01*
X018008Y001456D02*
X018201Y001456D01*
X018201Y001454D02*
X018008Y001454D01*
X018008Y001451D02*
X018201Y001451D01*
X018201Y001449D02*
X018008Y001449D01*
X018008Y001446D02*
X018201Y001446D01*
X018201Y001444D02*
X018008Y001444D01*
X018008Y001441D02*
X018201Y001441D01*
X018201Y001439D02*
X018008Y001439D01*
X018008Y001437D02*
X018201Y001437D01*
X018201Y001434D02*
X018008Y001434D01*
X018008Y001432D02*
X018198Y001432D01*
X018196Y001429D02*
X018008Y001429D01*
X018008Y001427D02*
X018194Y001427D01*
X018191Y001424D02*
X018008Y001424D01*
X018008Y001422D02*
X018189Y001422D01*
X018186Y001420D02*
X018008Y001420D01*
X018008Y001417D02*
X018184Y001417D01*
X018181Y001415D02*
X018008Y001415D01*
X018008Y001412D02*
X018179Y001412D01*
X018176Y001410D02*
X018008Y001410D01*
X018008Y001407D02*
X018174Y001407D01*
X018172Y001405D02*
X018008Y001405D01*
X018008Y001402D02*
X018169Y001402D01*
X018167Y001400D02*
X018008Y001400D01*
X018008Y001398D02*
X018164Y001398D01*
X018162Y001395D02*
X018008Y001395D01*
X018008Y001393D02*
X018159Y001393D01*
X018157Y001390D02*
X018008Y001390D01*
X018008Y001388D02*
X018155Y001388D01*
X018152Y001385D02*
X018008Y001385D01*
X018008Y001383D02*
X018150Y001383D01*
X018147Y001381D02*
X018008Y001381D01*
X018008Y001378D02*
X018145Y001378D01*
X018142Y001376D02*
X018008Y001376D01*
X018008Y001373D02*
X018140Y001373D01*
X018137Y001371D02*
X018008Y001371D01*
X018008Y001368D02*
X018135Y001368D01*
X018133Y001366D02*
X018008Y001366D01*
X018008Y001251D02*
X018008Y001109D01*
X018201Y001109D01*
X018201Y001182D01*
X018132Y001251D01*
X018008Y001251D01*
X018008Y001249D02*
X018134Y001249D01*
X018136Y001246D02*
X018008Y001246D01*
X018008Y001244D02*
X018139Y001244D01*
X018141Y001242D02*
X018008Y001242D01*
X018008Y001239D02*
X018144Y001239D01*
X018146Y001237D02*
X018008Y001237D01*
X018008Y001234D02*
X018149Y001234D01*
X018151Y001232D02*
X018008Y001232D01*
X018008Y001229D02*
X018154Y001229D01*
X018156Y001227D02*
X018008Y001227D01*
X018008Y001225D02*
X018158Y001225D01*
X018161Y001222D02*
X018008Y001222D01*
X018008Y001220D02*
X018163Y001220D01*
X018166Y001217D02*
X018008Y001217D01*
X018008Y001215D02*
X018168Y001215D01*
X018171Y001212D02*
X018008Y001212D01*
X018008Y001210D02*
X018173Y001210D01*
X018175Y001207D02*
X018008Y001207D01*
X018008Y001205D02*
X018178Y001205D01*
X018180Y001203D02*
X018008Y001203D01*
X018008Y001200D02*
X018183Y001200D01*
X018185Y001198D02*
X018008Y001198D01*
X018008Y001195D02*
X018188Y001195D01*
X018190Y001193D02*
X018008Y001193D01*
X018008Y001190D02*
X018193Y001190D01*
X018195Y001188D02*
X018008Y001188D01*
X018008Y001186D02*
X018197Y001186D01*
X018200Y001183D02*
X018008Y001183D01*
X018008Y001181D02*
X018201Y001181D01*
X018201Y001178D02*
X018008Y001178D01*
X018008Y001176D02*
X018201Y001176D01*
X018201Y001173D02*
X018008Y001173D01*
X018008Y001171D02*
X018201Y001171D01*
X018201Y001169D02*
X018008Y001169D01*
X018008Y001166D02*
X018201Y001166D01*
X018201Y001164D02*
X018008Y001164D01*
X018008Y001161D02*
X018201Y001161D01*
X018201Y001159D02*
X018008Y001159D01*
X018008Y001156D02*
X018201Y001156D01*
X018201Y001154D02*
X018008Y001154D01*
X018008Y001151D02*
X018201Y001151D01*
X018201Y001149D02*
X018008Y001149D01*
X018008Y001147D02*
X018201Y001147D01*
X018201Y001144D02*
X018008Y001144D01*
X018008Y001142D02*
X018201Y001142D01*
X018201Y001139D02*
X018008Y001139D01*
X018008Y001137D02*
X018201Y001137D01*
X018201Y001134D02*
X018008Y001134D01*
X018008Y001132D02*
X018201Y001132D01*
X018201Y001130D02*
X018008Y001130D01*
X018008Y001127D02*
X018201Y001127D01*
X018201Y001125D02*
X018008Y001125D01*
X018008Y001122D02*
X018201Y001122D01*
X018201Y001120D02*
X018008Y001120D01*
X018008Y001117D02*
X018201Y001117D01*
X018201Y001115D02*
X018008Y001115D01*
X018008Y001112D02*
X018201Y001112D01*
X018201Y001110D02*
X018008Y001110D01*
X018327Y001110D02*
X018520Y001110D01*
X018520Y001109D02*
X018520Y001251D01*
X018396Y001251D01*
X018327Y001182D01*
X018327Y001109D01*
X018520Y001109D01*
X018520Y001112D02*
X018327Y001112D01*
X018327Y001115D02*
X018520Y001115D01*
X018520Y001117D02*
X018327Y001117D01*
X018327Y001120D02*
X018520Y001120D01*
X018520Y001122D02*
X018327Y001122D01*
X018327Y001125D02*
X018520Y001125D01*
X018520Y001127D02*
X018327Y001127D01*
X018327Y001130D02*
X018520Y001130D01*
X018520Y001132D02*
X018327Y001132D01*
X018327Y001134D02*
X018520Y001134D01*
X018520Y001137D02*
X018327Y001137D01*
X018327Y001139D02*
X018520Y001139D01*
X018520Y001142D02*
X018327Y001142D01*
X018327Y001144D02*
X018520Y001144D01*
X018520Y001147D02*
X018327Y001147D01*
X018327Y001149D02*
X018520Y001149D01*
X018520Y001151D02*
X018327Y001151D01*
X018327Y001154D02*
X018520Y001154D01*
X018520Y001156D02*
X018327Y001156D01*
X018327Y001159D02*
X018520Y001159D01*
X018520Y001161D02*
X018327Y001161D01*
X018327Y001164D02*
X018520Y001164D01*
X018520Y001166D02*
X018327Y001166D01*
X018327Y001169D02*
X018520Y001169D01*
X018520Y001171D02*
X018327Y001171D01*
X018327Y001173D02*
X018520Y001173D01*
X018520Y001176D02*
X018327Y001176D01*
X018327Y001178D02*
X018520Y001178D01*
X018520Y001181D02*
X018327Y001181D01*
X018328Y001183D02*
X018520Y001183D01*
X018520Y001186D02*
X018330Y001186D01*
X018333Y001188D02*
X018520Y001188D01*
X018520Y001190D02*
X018335Y001190D01*
X018338Y001193D02*
X018520Y001193D01*
X018520Y001195D02*
X018340Y001195D01*
X018342Y001198D02*
X018520Y001198D01*
X018520Y001200D02*
X018345Y001200D01*
X018347Y001203D02*
X018520Y001203D01*
X018520Y001205D02*
X018350Y001205D01*
X018352Y001207D02*
X018520Y001207D01*
X018520Y001210D02*
X018355Y001210D01*
X018357Y001212D02*
X018520Y001212D01*
X018520Y001215D02*
X018359Y001215D01*
X018362Y001217D02*
X018520Y001217D01*
X018520Y001220D02*
X018364Y001220D01*
X018367Y001222D02*
X018520Y001222D01*
X018520Y001225D02*
X018369Y001225D01*
X018372Y001227D02*
X018520Y001227D01*
X018520Y001229D02*
X018374Y001229D01*
X018377Y001232D02*
X018520Y001232D01*
X018520Y001234D02*
X018379Y001234D01*
X018381Y001237D02*
X018520Y001237D01*
X018520Y001239D02*
X018384Y001239D01*
X018386Y001242D02*
X018520Y001242D01*
X018520Y001244D02*
X018389Y001244D01*
X018391Y001246D02*
X018520Y001246D01*
X018520Y001249D02*
X018394Y001249D01*
X018396Y001365D02*
X018520Y001365D01*
X018520Y001507D01*
X018327Y001507D01*
X018327Y001434D01*
X018396Y001365D01*
X018395Y001366D02*
X018520Y001366D01*
X018520Y001368D02*
X018393Y001368D01*
X018390Y001371D02*
X018520Y001371D01*
X018520Y001373D02*
X018388Y001373D01*
X018385Y001376D02*
X018520Y001376D01*
X018520Y001378D02*
X018383Y001378D01*
X018380Y001381D02*
X018520Y001381D01*
X018520Y001383D02*
X018378Y001383D01*
X018376Y001385D02*
X018520Y001385D01*
X018520Y001388D02*
X018373Y001388D01*
X018371Y001390D02*
X018520Y001390D01*
X018520Y001393D02*
X018368Y001393D01*
X018366Y001395D02*
X018520Y001395D01*
X018520Y001398D02*
X018363Y001398D01*
X018361Y001400D02*
X018520Y001400D01*
X018520Y001402D02*
X018358Y001402D01*
X018356Y001405D02*
X018520Y001405D01*
X018520Y001407D02*
X018354Y001407D01*
X018351Y001410D02*
X018520Y001410D01*
X018520Y001412D02*
X018349Y001412D01*
X018346Y001415D02*
X018520Y001415D01*
X018520Y001417D02*
X018344Y001417D01*
X018341Y001420D02*
X018520Y001420D01*
X018520Y001422D02*
X018339Y001422D01*
X018337Y001424D02*
X018520Y001424D01*
X018520Y001427D02*
X018334Y001427D01*
X018332Y001429D02*
X018520Y001429D01*
X018520Y001432D02*
X018329Y001432D01*
X018327Y001434D02*
X018520Y001434D01*
X018520Y001437D02*
X018327Y001437D01*
X018327Y001439D02*
X018520Y001439D01*
X018520Y001441D02*
X018327Y001441D01*
X018327Y001444D02*
X018520Y001444D01*
X018520Y001446D02*
X018327Y001446D01*
X018327Y001449D02*
X018520Y001449D01*
X018520Y001451D02*
X018327Y001451D01*
X018327Y001454D02*
X018520Y001454D01*
X018520Y001456D02*
X018327Y001456D01*
X018327Y001459D02*
X018520Y001459D01*
X018520Y001461D02*
X018327Y001461D01*
X018327Y001463D02*
X018520Y001463D01*
X018520Y001466D02*
X018327Y001466D01*
X018327Y001468D02*
X018520Y001468D01*
X018520Y001471D02*
X018327Y001471D01*
X018327Y001473D02*
X018520Y001473D01*
X018520Y001476D02*
X018327Y001476D01*
X018327Y001478D02*
X018520Y001478D01*
X018520Y001480D02*
X018327Y001480D01*
X018327Y001483D02*
X018520Y001483D01*
X018520Y001485D02*
X018327Y001485D01*
X018327Y001488D02*
X018520Y001488D01*
X018520Y001490D02*
X018327Y001490D01*
X018327Y001493D02*
X018520Y001493D01*
X018520Y001495D02*
X018327Y001495D01*
X018327Y001498D02*
X018520Y001498D01*
X018520Y001500D02*
X018327Y001500D01*
X018327Y001502D02*
X018520Y001502D01*
X018520Y001505D02*
X018327Y001505D01*
X015921Y014220D02*
X015921Y014361D01*
X015797Y014361D01*
X015728Y014292D01*
X015728Y014220D01*
X015921Y014220D01*
X015728Y014220D01*
X015728Y014222D02*
X015921Y014222D01*
X015921Y014225D02*
X015728Y014225D01*
X015728Y014227D02*
X015921Y014227D01*
X015921Y014230D02*
X015728Y014230D01*
X015728Y014232D02*
X015921Y014232D01*
X015921Y014235D02*
X015728Y014235D01*
X015728Y014237D02*
X015921Y014237D01*
X015921Y014239D02*
X015728Y014239D01*
X015728Y014242D02*
X015921Y014242D01*
X015921Y014244D02*
X015728Y014244D01*
X015728Y014247D02*
X015921Y014247D01*
X015921Y014249D02*
X015728Y014249D01*
X015728Y014252D02*
X015921Y014252D01*
X015921Y014254D02*
X015728Y014254D01*
X015728Y014257D02*
X015921Y014257D01*
X015921Y014259D02*
X015728Y014259D01*
X015728Y014261D02*
X015921Y014261D01*
X015921Y014264D02*
X015728Y014264D01*
X015728Y014266D02*
X015921Y014266D01*
X015921Y014269D02*
X015728Y014269D01*
X015728Y014271D02*
X015921Y014271D01*
X015921Y014274D02*
X015728Y014274D01*
X015728Y014276D02*
X015921Y014276D01*
X015921Y014278D02*
X015728Y014278D01*
X015728Y014281D02*
X015921Y014281D01*
X015921Y014283D02*
X015728Y014283D01*
X015728Y014286D02*
X015921Y014286D01*
X015921Y014288D02*
X015728Y014288D01*
X015728Y014291D02*
X015921Y014291D01*
X015921Y014293D02*
X015729Y014293D01*
X015732Y014296D02*
X015921Y014296D01*
X015921Y014298D02*
X015734Y014298D01*
X015736Y014300D02*
X015921Y014300D01*
X015921Y014303D02*
X015739Y014303D01*
X015741Y014305D02*
X015921Y014305D01*
X015921Y014308D02*
X015744Y014308D01*
X015746Y014310D02*
X015921Y014310D01*
X015921Y014313D02*
X015749Y014313D01*
X015751Y014315D02*
X015921Y014315D01*
X015921Y014317D02*
X015753Y014317D01*
X015756Y014320D02*
X015921Y014320D01*
X015921Y014322D02*
X015758Y014322D01*
X015761Y014325D02*
X015921Y014325D01*
X015921Y014327D02*
X015763Y014327D01*
X015766Y014330D02*
X015921Y014330D01*
X015921Y014332D02*
X015768Y014332D01*
X015771Y014335D02*
X015921Y014335D01*
X015921Y014337D02*
X015773Y014337D01*
X015775Y014339D02*
X015921Y014339D01*
X015921Y014342D02*
X015778Y014342D01*
X015780Y014344D02*
X015921Y014344D01*
X015921Y014347D02*
X015783Y014347D01*
X015785Y014349D02*
X015921Y014349D01*
X015921Y014352D02*
X015788Y014352D01*
X015790Y014354D02*
X015921Y014354D01*
X015921Y014356D02*
X015792Y014356D01*
X015795Y014359D02*
X015921Y014359D01*
X015921Y014475D02*
X015921Y014617D01*
X015728Y014617D01*
X015728Y014544D01*
X015797Y014475D01*
X015921Y014475D01*
X015921Y014476D02*
X015797Y014476D01*
X015794Y014478D02*
X015921Y014478D01*
X015921Y014481D02*
X015792Y014481D01*
X015790Y014483D02*
X015921Y014483D01*
X015921Y014486D02*
X015787Y014486D01*
X015785Y014488D02*
X015921Y014488D01*
X015921Y014491D02*
X015782Y014491D01*
X015780Y014493D02*
X015921Y014493D01*
X015921Y014495D02*
X015777Y014495D01*
X015775Y014498D02*
X015921Y014498D01*
X015921Y014500D02*
X015772Y014500D01*
X015770Y014503D02*
X015921Y014503D01*
X015921Y014505D02*
X015768Y014505D01*
X015765Y014508D02*
X015921Y014508D01*
X015921Y014510D02*
X015763Y014510D01*
X015760Y014512D02*
X015921Y014512D01*
X015921Y014515D02*
X015758Y014515D01*
X015755Y014517D02*
X015921Y014517D01*
X015921Y014520D02*
X015753Y014520D01*
X015751Y014522D02*
X015921Y014522D01*
X015921Y014525D02*
X015748Y014525D01*
X015746Y014527D02*
X015921Y014527D01*
X015921Y014530D02*
X015743Y014530D01*
X015741Y014532D02*
X015921Y014532D01*
X015921Y014534D02*
X015738Y014534D01*
X015736Y014537D02*
X015921Y014537D01*
X015921Y014539D02*
X015733Y014539D01*
X015731Y014542D02*
X015921Y014542D01*
X015921Y014544D02*
X015729Y014544D01*
X015728Y014547D02*
X015921Y014547D01*
X015921Y014549D02*
X015728Y014549D01*
X015728Y014551D02*
X015921Y014551D01*
X015921Y014554D02*
X015728Y014554D01*
X015728Y014556D02*
X015921Y014556D01*
X015921Y014559D02*
X015728Y014559D01*
X015728Y014561D02*
X015921Y014561D01*
X015921Y014564D02*
X015728Y014564D01*
X015728Y014566D02*
X015921Y014566D01*
X015921Y014569D02*
X015728Y014569D01*
X015728Y014571D02*
X015921Y014571D01*
X015921Y014573D02*
X015728Y014573D01*
X015728Y014576D02*
X015921Y014576D01*
X015921Y014578D02*
X015728Y014578D01*
X015728Y014581D02*
X015921Y014581D01*
X015921Y014583D02*
X015728Y014583D01*
X015728Y014586D02*
X015921Y014586D01*
X015921Y014588D02*
X015728Y014588D01*
X015728Y014590D02*
X015921Y014590D01*
X015921Y014593D02*
X015728Y014593D01*
X015728Y014595D02*
X015921Y014595D01*
X015921Y014598D02*
X015728Y014598D01*
X015728Y014600D02*
X015921Y014600D01*
X015921Y014603D02*
X015728Y014603D01*
X015728Y014605D02*
X015921Y014605D01*
X015921Y014608D02*
X015728Y014608D01*
X015728Y014610D02*
X015921Y014610D01*
X015921Y014612D02*
X015728Y014612D01*
X015728Y014615D02*
X015921Y014615D01*
X015602Y014615D02*
X015409Y014615D01*
X015409Y014617D02*
X015409Y014475D01*
X015533Y014475D01*
X015602Y014544D01*
X015409Y014544D01*
X015409Y014542D02*
X015600Y014542D01*
X015602Y014544D02*
X015602Y014617D01*
X015409Y014617D01*
X015409Y014612D02*
X015602Y014612D01*
X015602Y014610D02*
X015409Y014610D01*
X015409Y014608D02*
X015602Y014608D01*
X015602Y014605D02*
X015409Y014605D01*
X015409Y014603D02*
X015602Y014603D01*
X015602Y014600D02*
X015409Y014600D01*
X015409Y014598D02*
X015602Y014598D01*
X015602Y014595D02*
X015409Y014595D01*
X015409Y014593D02*
X015602Y014593D01*
X015602Y014590D02*
X015409Y014590D01*
X015409Y014588D02*
X015602Y014588D01*
X015602Y014586D02*
X015409Y014586D01*
X015409Y014583D02*
X015602Y014583D01*
X015602Y014581D02*
X015409Y014581D01*
X015409Y014578D02*
X015602Y014578D01*
X015602Y014576D02*
X015409Y014576D01*
X015409Y014573D02*
X015602Y014573D01*
X015602Y014571D02*
X015409Y014571D01*
X015409Y014569D02*
X015602Y014569D01*
X015602Y014566D02*
X015409Y014566D01*
X015409Y014564D02*
X015602Y014564D01*
X015602Y014561D02*
X015409Y014561D01*
X015409Y014559D02*
X015602Y014559D01*
X015602Y014556D02*
X015409Y014556D01*
X015409Y014554D02*
X015602Y014554D01*
X015602Y014551D02*
X015409Y014551D01*
X015409Y014549D02*
X015602Y014549D01*
X015602Y014547D02*
X015409Y014547D01*
X015409Y014539D02*
X015597Y014539D01*
X015595Y014537D02*
X015409Y014537D01*
X015409Y014534D02*
X015592Y014534D01*
X015590Y014532D02*
X015409Y014532D01*
X015409Y014530D02*
X015588Y014530D01*
X015585Y014527D02*
X015409Y014527D01*
X015409Y014525D02*
X015583Y014525D01*
X015580Y014522D02*
X015409Y014522D01*
X015409Y014520D02*
X015578Y014520D01*
X015575Y014517D02*
X015409Y014517D01*
X015409Y014515D02*
X015573Y014515D01*
X015570Y014512D02*
X015409Y014512D01*
X015409Y014510D02*
X015568Y014510D01*
X015566Y014508D02*
X015409Y014508D01*
X015409Y014505D02*
X015563Y014505D01*
X015561Y014503D02*
X015409Y014503D01*
X015409Y014500D02*
X015558Y014500D01*
X015556Y014498D02*
X015409Y014498D01*
X015409Y014495D02*
X015553Y014495D01*
X015551Y014493D02*
X015409Y014493D01*
X015409Y014491D02*
X015549Y014491D01*
X015546Y014488D02*
X015409Y014488D01*
X015409Y014486D02*
X015544Y014486D01*
X015541Y014483D02*
X015409Y014483D01*
X015409Y014481D02*
X015539Y014481D01*
X015536Y014478D02*
X015409Y014478D01*
X015409Y014476D02*
X015534Y014476D01*
X015533Y014361D02*
X015409Y014361D01*
X015409Y014220D01*
X015602Y014220D01*
X015602Y014292D01*
X015533Y014361D01*
X015536Y014359D02*
X015409Y014359D01*
X015409Y014356D02*
X015538Y014356D01*
X015541Y014354D02*
X015409Y014354D01*
X015409Y014352D02*
X015543Y014352D01*
X015546Y014349D02*
X015409Y014349D01*
X015409Y014347D02*
X015548Y014347D01*
X015550Y014344D02*
X015409Y014344D01*
X015409Y014342D02*
X015553Y014342D01*
X015555Y014339D02*
X015409Y014339D01*
X015409Y014337D02*
X015558Y014337D01*
X015560Y014335D02*
X015409Y014335D01*
X015409Y014332D02*
X015563Y014332D01*
X015565Y014330D02*
X015409Y014330D01*
X015409Y014327D02*
X015568Y014327D01*
X015570Y014325D02*
X015409Y014325D01*
X015409Y014322D02*
X015572Y014322D01*
X015575Y014320D02*
X015409Y014320D01*
X015409Y014317D02*
X015577Y014317D01*
X015580Y014315D02*
X015409Y014315D01*
X015409Y014313D02*
X015582Y014313D01*
X015585Y014310D02*
X015409Y014310D01*
X015409Y014308D02*
X015587Y014308D01*
X015589Y014305D02*
X015409Y014305D01*
X015409Y014303D02*
X015592Y014303D01*
X015594Y014300D02*
X015409Y014300D01*
X015409Y014298D02*
X015597Y014298D01*
X015599Y014296D02*
X015409Y014296D01*
X015409Y014293D02*
X015602Y014293D01*
X015602Y014291D02*
X015409Y014291D01*
X015409Y014288D02*
X015602Y014288D01*
X015602Y014286D02*
X015409Y014286D01*
X015409Y014283D02*
X015602Y014283D01*
X015602Y014281D02*
X015409Y014281D01*
X015409Y014278D02*
X015602Y014278D01*
X015602Y014276D02*
X015409Y014276D01*
X015409Y014274D02*
X015602Y014274D01*
X015602Y014271D02*
X015409Y014271D01*
X015409Y014269D02*
X015602Y014269D01*
X015602Y014266D02*
X015409Y014266D01*
X015409Y014264D02*
X015602Y014264D01*
X015602Y014261D02*
X015409Y014261D01*
X015409Y014259D02*
X015602Y014259D01*
X015602Y014257D02*
X015409Y014257D01*
X015409Y014254D02*
X015602Y014254D01*
X015602Y014252D02*
X015409Y014252D01*
X015409Y014249D02*
X015602Y014249D01*
X015602Y014247D02*
X015409Y014247D01*
X015409Y014244D02*
X015602Y014244D01*
X015602Y014242D02*
X015409Y014242D01*
X015409Y014239D02*
X015602Y014239D01*
X015602Y014237D02*
X015409Y014237D01*
X015409Y014235D02*
X015602Y014235D01*
X015602Y014232D02*
X015409Y014232D01*
X015409Y014230D02*
X015602Y014230D01*
X015602Y014227D02*
X015409Y014227D01*
X015409Y014225D02*
X015602Y014225D01*
X015602Y014222D02*
X015409Y014222D01*
X015409Y014220D02*
X015602Y014220D01*
D39*
G36*
X015837Y014418D02*
X015665Y014246D01*
X015493Y014418D01*
X015665Y014590D01*
X015837Y014418D01*
G37*
G36*
X011714Y007725D02*
X011886Y007897D01*
X012058Y007725D01*
X011886Y007553D01*
X011714Y007725D01*
G37*
G36*
X018436Y001308D02*
X018264Y001136D01*
X018092Y001308D01*
X018264Y001480D01*
X018436Y001308D01*
G37*
D40*
X011162Y007804D03*
X010562Y007804D03*
X015405Y015009D03*
X016005Y015009D03*
D41*
X004427Y001143D03*
X003345Y001143D03*
D42*
X003886Y001743D03*
X003886Y000542D03*
D43*
X017555Y006466D03*
X018343Y006466D03*
X020469Y005127D03*
X020469Y004340D03*
X020469Y003277D03*
X020469Y002489D03*
D44*
X006079Y016367D03*
X006079Y016741D03*
X006079Y017115D03*
X005095Y017115D03*
X005095Y016741D03*
X005095Y016367D03*
D45*
X004307Y012607D03*
X003717Y012607D03*
X003717Y012017D03*
X004307Y012017D03*
D46*
X002098Y004084D03*
D47*
X002776Y004084D03*
X002776Y004989D03*
X002020Y004989D03*
D48*
X017614Y013099D03*
X017614Y013296D03*
X017614Y013493D03*
X017614Y013690D03*
X018047Y013690D03*
X018047Y013493D03*
X018047Y013296D03*
X018047Y013099D03*
X018047Y014281D03*
X018047Y014477D03*
X018047Y014674D03*
X018047Y014871D03*
X017614Y014871D03*
X017614Y014674D03*
X017614Y014477D03*
X017614Y014281D03*
X017929Y016111D03*
X017929Y016308D03*
X017929Y016505D03*
X017929Y016702D03*
X018362Y016702D03*
X018362Y016505D03*
X018362Y016308D03*
X018362Y016111D03*
D49*
X012024Y015245D03*
X011276Y015245D03*
D50*
X011610Y012942D03*
X011610Y012194D03*
D51*
X008894Y019025D03*
D52*
X008303Y019025D03*
X007713Y019025D03*
X007122Y019025D03*
X006532Y019025D03*
D53*
X004579Y010940D03*
X004079Y010940D03*
X003579Y010940D03*
X003079Y010940D03*
X002579Y010940D03*
X002579Y009550D03*
X003079Y009550D03*
X003579Y009550D03*
X004079Y009550D03*
X004579Y009550D03*
D54*
X010291Y010166D03*
X010646Y010166D03*
D55*
X008500Y011151D03*
X008500Y011544D03*
X008500Y011938D03*
X008500Y012332D03*
X008500Y012725D03*
X008500Y013119D03*
X008500Y013513D03*
X008500Y013907D03*
X008500Y014300D03*
X008500Y014694D03*
D56*
X009583Y015536D03*
X009583Y010245D03*
D57*
X015665Y012765D03*
D58*
X020823Y019438D03*
X002063Y019418D03*
X002083Y001072D03*
X020823Y001052D03*
D59*
X006571Y001072D03*
M02*
