G75*
G70*
%OFA0B0*%
%FSLAX24Y24*%
%IPPOS*%
%LPD*%
%AMOC8*
5,1,8,0,0,1.08239X$1,22.5*
%
%ADD10R,0.1330X0.0005*%
%ADD11R,0.0855X0.0005*%
%ADD12R,0.0160X0.0005*%
%ADD13R,0.0265X0.0005*%
%ADD14R,0.0845X0.0005*%
%ADD15R,0.0145X0.0005*%
%ADD16R,0.0255X0.0005*%
%ADD17R,0.0840X0.0005*%
%ADD18R,0.0130X0.0005*%
%ADD19R,0.0245X0.0005*%
%ADD20R,0.0455X0.0005*%
%ADD21R,0.0185X0.0005*%
%ADD22R,0.0125X0.0005*%
%ADD23R,0.0235X0.0005*%
%ADD24R,0.0435X0.0005*%
%ADD25R,0.0150X0.0005*%
%ADD26R,0.0120X0.0005*%
%ADD27R,0.0230X0.0005*%
%ADD28R,0.0425X0.0005*%
%ADD29R,0.0135X0.0005*%
%ADD30R,0.0115X0.0005*%
%ADD31R,0.0225X0.0005*%
%ADD32R,0.0415X0.0005*%
%ADD33R,0.0140X0.0005*%
%ADD34R,0.0270X0.0005*%
%ADD35R,0.0110X0.0005*%
%ADD36R,0.0220X0.0005*%
%ADD37R,0.0250X0.0005*%
%ADD38R,0.0105X0.0005*%
%ADD39R,0.0215X0.0005*%
%ADD40R,0.0240X0.0005*%
%ADD41R,0.0095X0.0005*%
%ADD42R,0.0100X0.0005*%
%ADD43R,0.0085X0.0005*%
%ADD44R,0.0210X0.0005*%
%ADD45R,0.0080X0.0005*%
%ADD46R,0.0090X0.0005*%
%ADD47R,0.0205X0.0005*%
%ADD48R,0.0070X0.0005*%
%ADD49R,0.0200X0.0005*%
%ADD50R,0.0075X0.0005*%
%ADD51R,0.0065X0.0005*%
%ADD52R,0.0195X0.0005*%
%ADD53R,0.0060X0.0005*%
%ADD54R,0.0190X0.0005*%
%ADD55R,0.0055X0.0005*%
%ADD56R,0.0050X0.0005*%
%ADD57R,0.0045X0.0005*%
%ADD58R,0.0040X0.0005*%
%ADD59R,0.0035X0.0005*%
%ADD60R,0.0030X0.0005*%
%ADD61R,0.0025X0.0005*%
%ADD62R,0.0015X0.0005*%
%ADD63R,0.0010X0.0005*%
%ADD64R,0.0005X0.0005*%
%ADD65R,0.0175X0.0005*%
%ADD66R,0.0350X0.0005*%
%ADD67R,0.0495X0.0005*%
%ADD68R,0.0525X0.0005*%
%ADD69R,0.0535X0.0005*%
%ADD70R,0.0545X0.0005*%
%ADD71R,0.0550X0.0005*%
%ADD72R,0.0540X0.0005*%
%ADD73R,0.0530X0.0005*%
%ADD74R,0.0520X0.0005*%
%ADD75R,0.0260X0.0005*%
%ADD76R,0.0515X0.0005*%
%ADD77R,0.0510X0.0005*%
%ADD78R,0.0505X0.0005*%
%ADD79R,0.0500X0.0005*%
%ADD80R,0.0275X0.0005*%
%ADD81R,0.0490X0.0005*%
%ADD82R,0.0280X0.0005*%
%ADD83R,0.0475X0.0005*%
%ADD84R,0.0285X0.0005*%
%ADD85R,0.0470X0.0005*%
%ADD86R,0.0290X0.0005*%
%ADD87R,0.0460X0.0005*%
%ADD88R,0.0450X0.0005*%
%ADD89R,0.0295X0.0005*%
%ADD90R,0.0445X0.0005*%
%ADD91R,0.0300X0.0005*%
%ADD92R,0.0420X0.0005*%
%ADD93R,0.0305X0.0005*%
%ADD94R,0.0310X0.0005*%
%ADD95R,0.0405X0.0005*%
%ADD96R,0.0390X0.0005*%
%ADD97R,0.0315X0.0005*%
%ADD98R,0.0385X0.0005*%
%ADD99R,0.0320X0.0005*%
%ADD100R,0.0375X0.0005*%
%ADD101R,0.0365X0.0005*%
%ADD102R,0.0325X0.0005*%
%ADD103R,0.0360X0.0005*%
%ADD104R,0.0330X0.0005*%
%ADD105R,0.0345X0.0005*%
%ADD106R,0.0335X0.0005*%
%ADD107R,0.0340X0.0005*%
%ADD108R,0.0355X0.0005*%
%ADD109R,0.0370X0.0005*%
%ADD110R,0.0380X0.0005*%
%ADD111R,0.0395X0.0005*%
%ADD112R,0.0410X0.0005*%
%ADD113R,0.0430X0.0005*%
%ADD114R,0.0440X0.0005*%
%ADD115R,0.0465X0.0005*%
%ADD116R,0.0480X0.0005*%
%ADD117R,0.0555X0.0005*%
%ADD118R,0.0565X0.0005*%
%ADD119R,0.0575X0.0005*%
%ADD120R,0.0605X0.0005*%
%ADD121R,0.0560X0.0005*%
%ADD122R,0.0655X0.0005*%
%ADD123R,0.0595X0.0005*%
%ADD124C,0.0098*%
%ADD125C,0.0080*%
%ADD126C,0.0050*%
%ADD127C,0.0079*%
%ADD128C,0.0039*%
%ADD129C,0.0030*%
%ADD130C,0.0060*%
D10*
X009070Y001205D03*
X009070Y001210D03*
X009070Y001215D03*
X009070Y001220D03*
X009070Y001225D03*
X009070Y001230D03*
X009070Y001235D03*
X009070Y001240D03*
X009070Y001245D03*
X009070Y001250D03*
X009070Y001255D03*
X009070Y001260D03*
X009070Y001265D03*
X009070Y001270D03*
X009070Y001970D03*
X009070Y001975D03*
X009070Y001980D03*
X009070Y001985D03*
X009070Y001990D03*
X009070Y001995D03*
X009070Y002000D03*
X009070Y002005D03*
X009070Y002010D03*
X009070Y002015D03*
X009070Y002020D03*
D11*
X008832Y001275D03*
D12*
X009155Y001295D03*
X009365Y001275D03*
D13*
X009602Y001275D03*
X009602Y001710D03*
X008537Y001720D03*
X008537Y001725D03*
D14*
X008827Y001280D03*
D15*
X009362Y001280D03*
D16*
X009607Y001280D03*
X009607Y001700D03*
X008532Y001700D03*
X008532Y001705D03*
X008532Y001695D03*
D17*
X008825Y001285D03*
D18*
X009165Y001310D03*
X009365Y001285D03*
D19*
X009612Y001285D03*
X009612Y001685D03*
X008527Y001680D03*
X008527Y001675D03*
X008527Y001670D03*
D20*
X008632Y001290D03*
X009507Y001900D03*
D21*
X009642Y001465D03*
X009642Y001460D03*
X009642Y001455D03*
X009642Y001450D03*
X009642Y001445D03*
X009642Y001440D03*
X009642Y001435D03*
X009642Y001430D03*
X009642Y001425D03*
X009642Y001420D03*
X009642Y001415D03*
X009642Y001410D03*
X009642Y001405D03*
X009642Y001400D03*
X009642Y001395D03*
X009642Y001390D03*
X009642Y001385D03*
X009147Y001290D03*
X008957Y001290D03*
D22*
X008962Y001305D03*
X009167Y001315D03*
X009367Y001290D03*
X008752Y001310D03*
D23*
X008522Y001325D03*
X008522Y001645D03*
X008522Y001650D03*
X008522Y001655D03*
X009617Y001675D03*
X009617Y001290D03*
D24*
X009067Y001760D03*
X008622Y001295D03*
D25*
X008960Y001295D03*
X009160Y001300D03*
D26*
X009365Y001295D03*
X009235Y001630D03*
D27*
X009620Y001665D03*
X009620Y001670D03*
X009620Y001295D03*
X008520Y001330D03*
X008520Y001630D03*
X008520Y001635D03*
X008520Y001640D03*
D28*
X008617Y001300D03*
D29*
X008962Y001300D03*
D30*
X009167Y001320D03*
X009367Y001300D03*
X009372Y001305D03*
D31*
X009622Y001305D03*
X009622Y001300D03*
X009622Y001660D03*
X008517Y001625D03*
X008517Y001620D03*
X008517Y001615D03*
X008517Y001610D03*
X008517Y001340D03*
X008517Y001335D03*
D32*
X008612Y001305D03*
X009062Y001770D03*
X009527Y001890D03*
D33*
X009160Y001305D03*
D34*
X009600Y001715D03*
X009600Y001720D03*
X008540Y001730D03*
X008540Y001735D03*
X008540Y001310D03*
D35*
X008760Y001315D03*
X008965Y001310D03*
X009170Y001325D03*
X009375Y001315D03*
X009375Y001310D03*
D36*
X009625Y001310D03*
X009625Y001650D03*
X009625Y001655D03*
X009220Y001640D03*
X008515Y001605D03*
X008515Y001600D03*
X008515Y001595D03*
X008515Y001590D03*
X008515Y001350D03*
X008515Y001345D03*
D37*
X008530Y001315D03*
X008530Y001685D03*
X008530Y001690D03*
X009610Y001690D03*
X009610Y001695D03*
D38*
X009172Y001330D03*
X008962Y001315D03*
D39*
X008512Y001355D03*
X008512Y001360D03*
X008512Y001365D03*
X008512Y001370D03*
X008512Y001570D03*
X008512Y001575D03*
X008512Y001580D03*
X008512Y001585D03*
X009627Y001645D03*
X009627Y001320D03*
X009627Y001315D03*
D40*
X009615Y001680D03*
X008525Y001665D03*
X008525Y001660D03*
X008525Y001320D03*
D41*
X008762Y001320D03*
X008962Y001320D03*
X009177Y001340D03*
X009377Y001330D03*
X009377Y001325D03*
X009077Y001835D03*
D42*
X009175Y001335D03*
X009375Y001320D03*
D43*
X009382Y001340D03*
X008962Y001330D03*
X008962Y001325D03*
X008762Y001325D03*
X008952Y001835D03*
D44*
X008510Y001565D03*
X008510Y001560D03*
X008510Y001555D03*
X008510Y001550D03*
X008510Y001545D03*
X008510Y001540D03*
X008510Y001400D03*
X008510Y001395D03*
X008510Y001390D03*
X008510Y001385D03*
X008510Y001380D03*
X008510Y001375D03*
X009630Y001330D03*
X009630Y001325D03*
X009630Y001580D03*
X009630Y001585D03*
X009630Y001590D03*
X009630Y001595D03*
X009630Y001600D03*
X009630Y001605D03*
X009630Y001610D03*
X009630Y001615D03*
X009630Y001620D03*
X009630Y001625D03*
X009630Y001630D03*
X009630Y001635D03*
X009630Y001640D03*
D45*
X009380Y001350D03*
X009380Y001345D03*
X009180Y001350D03*
X009180Y001355D03*
X008965Y001340D03*
X008965Y001335D03*
X008765Y001335D03*
X008765Y001330D03*
D46*
X009180Y001345D03*
X009380Y001335D03*
D47*
X009632Y001335D03*
X009632Y001550D03*
X009632Y001555D03*
X009632Y001560D03*
X009632Y001565D03*
X009632Y001570D03*
X009632Y001575D03*
X008507Y001535D03*
X008507Y001530D03*
X008507Y001525D03*
X008507Y001520D03*
X008507Y001515D03*
X008507Y001510D03*
X008507Y001445D03*
X008507Y001440D03*
X008507Y001435D03*
X008507Y001430D03*
X008507Y001425D03*
X008507Y001420D03*
X008507Y001415D03*
X008507Y001410D03*
X008507Y001405D03*
D48*
X008765Y001350D03*
X008765Y001345D03*
X008765Y001340D03*
X008970Y001355D03*
X008970Y001360D03*
X008970Y001365D03*
X008970Y001370D03*
X008975Y001385D03*
X008975Y001390D03*
X008980Y001415D03*
X009185Y001405D03*
X009380Y001360D03*
D49*
X009635Y001350D03*
X009635Y001345D03*
X009635Y001340D03*
X009635Y001525D03*
X009635Y001530D03*
X009635Y001535D03*
X009635Y001540D03*
X009635Y001545D03*
X008505Y001505D03*
X008505Y001500D03*
X008505Y001495D03*
X008505Y001490D03*
X008505Y001485D03*
X008505Y001480D03*
X008505Y001475D03*
X008505Y001470D03*
X008505Y001465D03*
X008505Y001460D03*
X008505Y001455D03*
X008505Y001450D03*
D50*
X008967Y001350D03*
X008967Y001345D03*
X009182Y001360D03*
X009182Y001365D03*
X009182Y001370D03*
X009182Y001375D03*
X009182Y001380D03*
X009182Y001385D03*
X009182Y001390D03*
X009182Y001395D03*
X009182Y001400D03*
X009377Y001355D03*
X009062Y001640D03*
D51*
X008982Y001435D03*
X008982Y001430D03*
X008982Y001425D03*
X008982Y001420D03*
X008977Y001410D03*
X008977Y001405D03*
X008977Y001400D03*
X008977Y001395D03*
X008972Y001380D03*
X008972Y001375D03*
X008767Y001360D03*
X008767Y001355D03*
X009182Y001410D03*
X009182Y001415D03*
X009182Y001420D03*
X009182Y001425D03*
X009182Y001430D03*
X009377Y001370D03*
X009377Y001365D03*
D52*
X009637Y001360D03*
X009637Y001355D03*
X009637Y001500D03*
X009637Y001505D03*
X009637Y001510D03*
X009637Y001515D03*
X009637Y001520D03*
D53*
X009375Y001375D03*
X009180Y001435D03*
X009180Y001440D03*
X009180Y001445D03*
X008980Y001440D03*
X008770Y001440D03*
X008770Y001445D03*
X008770Y001435D03*
X008765Y001385D03*
X008765Y001380D03*
X008765Y001375D03*
X008765Y001370D03*
X008765Y001365D03*
X009070Y001635D03*
X008950Y001840D03*
D54*
X009640Y001495D03*
X009640Y001490D03*
X009640Y001485D03*
X009640Y001480D03*
X009640Y001475D03*
X009640Y001470D03*
X009640Y001380D03*
X009640Y001375D03*
X009640Y001370D03*
X009640Y001365D03*
D55*
X009372Y001380D03*
X009372Y001385D03*
X009367Y001390D03*
X009367Y001395D03*
X009177Y001450D03*
X008982Y001450D03*
X008982Y001445D03*
X008772Y001450D03*
X008772Y001455D03*
X008772Y001460D03*
X008767Y001430D03*
X008767Y001425D03*
X008767Y001420D03*
X008767Y001415D03*
X008767Y001410D03*
X008767Y001405D03*
X008767Y001400D03*
X008767Y001395D03*
X008767Y001390D03*
D56*
X008775Y001465D03*
X009180Y001455D03*
X009365Y001400D03*
D57*
X009362Y001405D03*
X009177Y001460D03*
X008977Y001455D03*
X008777Y001470D03*
D58*
X009075Y001630D03*
X009180Y001465D03*
X009365Y001410D03*
X009070Y001840D03*
X008950Y001845D03*
D59*
X008777Y001475D03*
X009362Y001420D03*
X009362Y001415D03*
D60*
X009360Y001425D03*
X009180Y001470D03*
X009240Y001625D03*
X009075Y001625D03*
X008780Y001480D03*
X008870Y001900D03*
D61*
X009362Y001430D03*
D62*
X009362Y001435D03*
X009182Y001475D03*
X009077Y001620D03*
X008787Y001485D03*
D63*
X009365Y001440D03*
D64*
X009077Y001615D03*
D65*
X009227Y001635D03*
D66*
X009165Y001645D03*
X009055Y001805D03*
X008580Y001840D03*
X009560Y001845D03*
D67*
X009487Y001935D03*
X009102Y001650D03*
X008652Y001905D03*
D68*
X009062Y001700D03*
X009097Y001655D03*
X009472Y001950D03*
D69*
X009092Y001660D03*
X008672Y001930D03*
D70*
X009067Y001685D03*
X009072Y001680D03*
X009082Y001670D03*
X009087Y001665D03*
D71*
X009075Y001675D03*
X008680Y001940D03*
D72*
X008675Y001935D03*
X009065Y001690D03*
X009465Y001955D03*
D73*
X009060Y001695D03*
X008670Y001925D03*
D74*
X008665Y001920D03*
X009060Y001705D03*
D75*
X008535Y001710D03*
X008535Y001715D03*
X009605Y001705D03*
D76*
X009477Y001945D03*
X009057Y001710D03*
X008662Y001915D03*
D77*
X009060Y001715D03*
D78*
X009062Y001720D03*
X008657Y001910D03*
X009482Y001940D03*
D79*
X009065Y001725D03*
D80*
X008542Y001740D03*
X008542Y001745D03*
X009597Y001725D03*
D81*
X009490Y001930D03*
X009065Y001730D03*
D82*
X008545Y001750D03*
X009595Y001730D03*
D83*
X009497Y001920D03*
X009067Y001735D03*
D84*
X009047Y001830D03*
X008547Y001760D03*
X008547Y001755D03*
X009592Y001735D03*
D85*
X009500Y001915D03*
X009070Y001740D03*
D86*
X008550Y001765D03*
X009590Y001745D03*
X009590Y001740D03*
D87*
X009505Y001905D03*
X009070Y001745D03*
D88*
X009070Y001750D03*
X009510Y001895D03*
D89*
X009587Y001750D03*
X008552Y001770D03*
X008552Y001775D03*
D90*
X009067Y001755D03*
D91*
X008555Y001780D03*
X009585Y001760D03*
X009585Y001755D03*
D92*
X009065Y001765D03*
X008615Y001890D03*
D93*
X008557Y001790D03*
X008557Y001785D03*
X009582Y001765D03*
D94*
X009580Y001770D03*
X009580Y001775D03*
X008560Y001795D03*
D95*
X008607Y001880D03*
X009062Y001775D03*
D96*
X009060Y001780D03*
X008600Y001870D03*
D97*
X008562Y001800D03*
X009577Y001780D03*
D98*
X009542Y001880D03*
X009057Y001785D03*
D99*
X009060Y001825D03*
X008565Y001810D03*
X008565Y001805D03*
X009575Y001790D03*
X009575Y001785D03*
D100*
X009547Y001870D03*
X009057Y001790D03*
X008592Y001860D03*
D101*
X009057Y001795D03*
X009552Y001865D03*
D102*
X009572Y001800D03*
X009572Y001795D03*
X008567Y001815D03*
D103*
X008585Y001850D03*
X009055Y001800D03*
X009555Y001855D03*
X009555Y001860D03*
D104*
X009570Y001810D03*
X009570Y001805D03*
X009060Y001820D03*
X008570Y001820D03*
D105*
X008577Y001835D03*
X009057Y001810D03*
X009562Y001835D03*
X009562Y001840D03*
D106*
X009567Y001820D03*
X009567Y001815D03*
X009057Y001815D03*
X008572Y001825D03*
D107*
X008575Y001830D03*
X009565Y001830D03*
X009565Y001825D03*
D108*
X009557Y001850D03*
X008582Y001845D03*
D109*
X008590Y001855D03*
D110*
X008595Y001865D03*
X009545Y001875D03*
D111*
X009537Y001885D03*
X008602Y001875D03*
D112*
X008610Y001885D03*
D113*
X008620Y001895D03*
D114*
X008625Y001900D03*
D115*
X009502Y001910D03*
D116*
X009495Y001925D03*
D117*
X008682Y001945D03*
D118*
X008687Y001950D03*
D119*
X008692Y001955D03*
D120*
X008707Y001960D03*
D121*
X009455Y001960D03*
D122*
X008732Y001965D03*
D123*
X009437Y001965D03*
D124*
X008864Y004851D02*
X008866Y004864D01*
X008871Y004876D01*
X008880Y004887D01*
X008890Y004895D01*
X008903Y004899D01*
X008916Y004900D01*
X008929Y004897D01*
X008941Y004891D01*
X008951Y004882D01*
X008958Y004871D01*
X008962Y004858D01*
X008962Y004844D01*
X008958Y004831D01*
X008951Y004820D01*
X008941Y004811D01*
X008929Y004805D01*
X008916Y004802D01*
X008903Y004803D01*
X008890Y004807D01*
X008880Y004815D01*
X008871Y004826D01*
X008866Y004838D01*
X008864Y004851D01*
X006266Y006190D02*
X006268Y006203D01*
X006273Y006215D01*
X006282Y006226D01*
X006292Y006234D01*
X006305Y006238D01*
X006318Y006239D01*
X006331Y006236D01*
X006343Y006230D01*
X006353Y006221D01*
X006360Y006210D01*
X006364Y006197D01*
X006364Y006183D01*
X006360Y006170D01*
X006353Y006159D01*
X006343Y006150D01*
X006331Y006144D01*
X006318Y006141D01*
X006305Y006142D01*
X006292Y006146D01*
X006282Y006154D01*
X006273Y006165D01*
X006268Y006177D01*
X006266Y006190D01*
X004809Y003040D02*
X004811Y003053D01*
X004816Y003065D01*
X004825Y003076D01*
X004835Y003084D01*
X004848Y003088D01*
X004861Y003089D01*
X004874Y003086D01*
X004886Y003080D01*
X004896Y003071D01*
X004903Y003060D01*
X004907Y003047D01*
X004907Y003033D01*
X004903Y003020D01*
X004896Y003009D01*
X004886Y003000D01*
X004874Y002994D01*
X004861Y002991D01*
X004848Y002992D01*
X004835Y002996D01*
X004825Y003004D01*
X004816Y003015D01*
X004811Y003027D01*
X004809Y003040D01*
X001425Y007414D02*
X001427Y007427D01*
X001432Y007439D01*
X001441Y007450D01*
X001451Y007458D01*
X001464Y007462D01*
X001477Y007463D01*
X001490Y007460D01*
X001502Y007454D01*
X001512Y007445D01*
X001519Y007434D01*
X001523Y007421D01*
X001523Y007407D01*
X001519Y007394D01*
X001512Y007383D01*
X001502Y007374D01*
X001490Y007368D01*
X001477Y007365D01*
X001464Y007366D01*
X001451Y007370D01*
X001441Y007378D01*
X001432Y007389D01*
X001427Y007401D01*
X001425Y007414D01*
X012040Y005635D02*
X012042Y005648D01*
X012047Y005660D01*
X012056Y005671D01*
X012066Y005679D01*
X012079Y005683D01*
X012092Y005684D01*
X012105Y005681D01*
X012117Y005675D01*
X012127Y005666D01*
X012134Y005655D01*
X012138Y005642D01*
X012138Y005628D01*
X012134Y005615D01*
X012127Y005604D01*
X012117Y005595D01*
X012105Y005589D01*
X012092Y005586D01*
X012079Y005587D01*
X012066Y005591D01*
X012056Y005599D01*
X012047Y005610D01*
X012042Y005622D01*
X012040Y005635D01*
X016748Y004253D02*
X016750Y004266D01*
X016755Y004278D01*
X016764Y004289D01*
X016774Y004297D01*
X016787Y004301D01*
X016800Y004302D01*
X016813Y004299D01*
X016825Y004293D01*
X016835Y004284D01*
X016842Y004273D01*
X016846Y004260D01*
X016846Y004246D01*
X016842Y004233D01*
X016835Y004222D01*
X016825Y004213D01*
X016813Y004207D01*
X016800Y004204D01*
X016787Y004205D01*
X016774Y004209D01*
X016764Y004217D01*
X016755Y004228D01*
X016750Y004240D01*
X016748Y004253D01*
X017988Y008659D02*
X017990Y008672D01*
X017995Y008684D01*
X018004Y008695D01*
X018014Y008703D01*
X018027Y008707D01*
X018040Y008708D01*
X018053Y008705D01*
X018065Y008699D01*
X018075Y008690D01*
X018082Y008679D01*
X018086Y008666D01*
X018086Y008652D01*
X018082Y008639D01*
X018075Y008628D01*
X018065Y008619D01*
X018053Y008613D01*
X018040Y008610D01*
X018027Y008611D01*
X018014Y008615D01*
X018004Y008623D01*
X017995Y008634D01*
X017990Y008646D01*
X017988Y008659D01*
D125*
X017971Y008753D02*
X018471Y008753D01*
X018471Y007603D01*
X017971Y007603D01*
X017971Y008753D01*
X018168Y008884D02*
X017730Y008884D01*
X017730Y009717D01*
X018168Y009717D01*
X018168Y008884D01*
X017105Y008884D02*
X017105Y009717D01*
X016667Y009717D01*
X016667Y008884D01*
X017105Y008884D01*
X017476Y010639D02*
X016453Y010639D01*
X016451Y010654D01*
X016447Y010669D01*
X016440Y010683D01*
X016430Y010695D01*
X016418Y010705D01*
X016404Y010712D01*
X016389Y010716D01*
X016374Y010718D01*
X016073Y011127D02*
X015573Y011127D01*
X015573Y012277D01*
X016073Y012277D01*
X016073Y011127D01*
X015451Y011207D02*
X015014Y011207D01*
X015014Y012039D01*
X015451Y012039D01*
X015451Y011207D01*
X014940Y011522D02*
X014940Y011960D01*
X014107Y011960D01*
X014107Y011522D01*
X014940Y011522D01*
X016374Y012450D02*
X016389Y012452D01*
X016404Y012456D01*
X016418Y012463D01*
X016430Y012473D01*
X016440Y012485D01*
X016447Y012499D01*
X016451Y012514D01*
X016453Y012529D01*
X017476Y012529D01*
X017478Y012514D01*
X017482Y012499D01*
X017489Y012485D01*
X017499Y012473D01*
X017511Y012463D01*
X017525Y012456D01*
X017540Y012452D01*
X017555Y012450D01*
X017555Y010718D02*
X017540Y010716D01*
X017525Y010712D01*
X017511Y010705D01*
X017499Y010695D01*
X017489Y010683D01*
X017482Y010669D01*
X017478Y010654D01*
X017476Y010639D01*
X015049Y013686D02*
X014549Y013686D01*
X014549Y014836D01*
X015049Y014836D01*
X015049Y013686D01*
X015130Y014759D02*
X015130Y015259D01*
X016280Y015259D01*
X016280Y014759D01*
X015130Y014759D01*
X013641Y016404D02*
X012808Y016404D01*
X012808Y016842D01*
X013641Y016842D01*
X013641Y016404D01*
X012378Y015639D02*
X012378Y014851D01*
X010921Y014851D01*
X010921Y015639D01*
X012378Y015639D01*
X012004Y013296D02*
X011217Y013296D01*
X011217Y011840D01*
X012004Y011840D01*
X012004Y013296D01*
X010783Y010560D02*
X010154Y010560D01*
X010153Y010560D02*
X010137Y010555D01*
X010121Y010547D01*
X010107Y010537D01*
X010095Y010525D01*
X010085Y010510D01*
X010078Y010494D01*
X010074Y010477D01*
X010073Y010460D01*
X010075Y010442D01*
X010075Y009891D02*
X010073Y009873D01*
X010074Y009856D01*
X010078Y009839D01*
X010085Y009823D01*
X010095Y009808D01*
X010107Y009796D01*
X010121Y009786D01*
X010137Y009778D01*
X010153Y009773D01*
X010154Y009773D02*
X010783Y009773D01*
X010784Y009773D02*
X010800Y009778D01*
X010816Y009786D01*
X010830Y009796D01*
X010842Y009808D01*
X010852Y009823D01*
X010859Y009839D01*
X010863Y009856D01*
X010864Y009873D01*
X010862Y009891D01*
X010862Y010442D02*
X010864Y010460D01*
X010863Y010477D01*
X010859Y010494D01*
X010852Y010510D01*
X010842Y010525D01*
X010830Y010537D01*
X010816Y010547D01*
X010800Y010555D01*
X010784Y010560D01*
X008326Y009637D02*
X008326Y009200D01*
X007493Y009200D01*
X007493Y009637D01*
X008326Y009637D01*
X008990Y007748D02*
X009427Y007748D01*
X009427Y006916D01*
X008990Y006916D01*
X008990Y007748D01*
X008916Y006842D02*
X008084Y006842D01*
X008084Y006404D01*
X008916Y006404D01*
X008916Y006842D01*
X009265Y005936D02*
X009265Y005499D01*
X010097Y005499D01*
X010097Y005936D01*
X009265Y005936D01*
X010289Y005504D02*
X010289Y004671D01*
X010727Y004671D01*
X010727Y005504D01*
X010289Y005504D01*
X011037Y005971D02*
X011475Y005971D01*
X011475Y006803D01*
X011037Y006803D01*
X011037Y005971D01*
X010845Y006364D02*
X010407Y006364D01*
X010407Y007197D01*
X010845Y007197D01*
X010845Y006364D01*
X011793Y006166D02*
X012293Y006166D01*
X012293Y007316D01*
X011793Y007316D01*
X011793Y006166D01*
X012506Y006089D02*
X012506Y006921D01*
X012943Y006921D01*
X012943Y006089D01*
X012506Y006089D01*
X011437Y007554D02*
X011437Y008054D01*
X010287Y008054D01*
X010287Y007554D01*
X011437Y007554D01*
X009901Y004598D02*
X009068Y004598D01*
X009068Y004160D01*
X009901Y004160D01*
X009901Y004598D01*
X008877Y004598D02*
X008877Y004160D01*
X008044Y004160D01*
X008044Y004598D01*
X008877Y004598D01*
X009153Y003771D02*
X008320Y003771D01*
X008320Y003333D01*
X009153Y003333D01*
X009153Y003771D01*
X009974Y003181D02*
X010412Y003181D01*
X010412Y002349D01*
X009974Y002349D01*
X009974Y003181D01*
X010525Y001842D02*
X011357Y001842D01*
X011357Y001404D01*
X010525Y001404D01*
X010525Y001842D01*
X011548Y002270D02*
X011548Y002708D01*
X012381Y002708D01*
X012381Y002270D01*
X011548Y002270D01*
X011863Y002157D02*
X011863Y001719D01*
X012696Y001719D01*
X012696Y002157D01*
X011863Y002157D01*
X011548Y002782D02*
X011548Y003220D01*
X012381Y003220D01*
X012381Y002782D01*
X011548Y002782D01*
X012966Y002236D02*
X012966Y001404D01*
X013404Y001404D01*
X013404Y002236D01*
X012966Y002236D01*
X013872Y002630D02*
X013872Y001797D01*
X014309Y001797D01*
X014309Y002630D01*
X013872Y002630D01*
X014541Y002984D02*
X014541Y002152D01*
X014979Y002152D01*
X014979Y002984D01*
X014541Y002984D01*
X015328Y002590D02*
X015328Y002152D01*
X016160Y002152D01*
X016160Y002590D01*
X015328Y002590D01*
X013838Y001094D02*
X013838Y000656D01*
X013005Y000656D01*
X013005Y001094D01*
X013838Y001094D01*
X012223Y001094D02*
X012223Y000656D01*
X011391Y000656D01*
X011391Y001094D01*
X012223Y001094D01*
X015368Y004317D02*
X015805Y004317D01*
X015805Y005150D01*
X015368Y005150D01*
X015368Y004317D01*
X015368Y005262D02*
X015805Y005262D01*
X015805Y006094D01*
X015368Y006094D01*
X015368Y005262D01*
X015919Y005262D02*
X015919Y006094D01*
X016357Y006094D01*
X016357Y005262D01*
X015919Y005262D01*
X017201Y006466D02*
X017203Y006521D01*
X017209Y006575D01*
X017219Y006629D01*
X017233Y006681D01*
X017250Y006733D01*
X017272Y006783D01*
X017297Y006832D01*
X017325Y006879D01*
X017357Y006923D01*
X017392Y006965D01*
X017430Y007004D01*
X017471Y007041D01*
X017514Y007074D01*
X017559Y007104D01*
X017607Y007131D01*
X017656Y007154D01*
X017707Y007174D01*
X017760Y007190D01*
X017813Y007202D01*
X017867Y007210D01*
X017922Y007214D01*
X017976Y007214D01*
X018031Y007210D01*
X018085Y007202D01*
X018138Y007190D01*
X018191Y007174D01*
X018242Y007154D01*
X018291Y007131D01*
X018339Y007104D01*
X018384Y007074D01*
X018427Y007041D01*
X018468Y007004D01*
X018506Y006965D01*
X018541Y006923D01*
X018573Y006879D01*
X018601Y006832D01*
X018626Y006783D01*
X018648Y006733D01*
X018665Y006681D01*
X018679Y006629D01*
X018689Y006575D01*
X018695Y006521D01*
X018697Y006466D01*
X018695Y006411D01*
X018689Y006357D01*
X018679Y006303D01*
X018665Y006251D01*
X018648Y006199D01*
X018626Y006149D01*
X018601Y006100D01*
X018573Y006053D01*
X018541Y006009D01*
X018506Y005967D01*
X018468Y005928D01*
X018427Y005891D01*
X018384Y005858D01*
X018339Y005828D01*
X018291Y005801D01*
X018242Y005778D01*
X018191Y005758D01*
X018138Y005742D01*
X018085Y005730D01*
X018031Y005722D01*
X017976Y005718D01*
X017922Y005718D01*
X017867Y005722D01*
X017813Y005730D01*
X017760Y005742D01*
X017707Y005758D01*
X017656Y005778D01*
X017607Y005801D01*
X017559Y005828D01*
X017514Y005858D01*
X017471Y005891D01*
X017430Y005928D01*
X017392Y005967D01*
X017357Y006009D01*
X017325Y006053D01*
X017297Y006100D01*
X017272Y006149D01*
X017250Y006199D01*
X017233Y006251D01*
X017219Y006303D01*
X017209Y006357D01*
X017203Y006411D01*
X017201Y006466D01*
X018006Y005543D02*
X018443Y005543D01*
X018443Y004711D01*
X018006Y004711D01*
X018006Y005543D01*
X018556Y005110D02*
X019389Y005110D01*
X019389Y004672D01*
X018556Y004672D01*
X018556Y005110D01*
X019721Y004733D02*
X019723Y004788D01*
X019729Y004842D01*
X019739Y004896D01*
X019753Y004948D01*
X019770Y005000D01*
X019792Y005050D01*
X019817Y005099D01*
X019845Y005146D01*
X019877Y005190D01*
X019912Y005232D01*
X019950Y005271D01*
X019991Y005308D01*
X020034Y005341D01*
X020079Y005371D01*
X020127Y005398D01*
X020176Y005421D01*
X020227Y005441D01*
X020280Y005457D01*
X020333Y005469D01*
X020387Y005477D01*
X020442Y005481D01*
X020496Y005481D01*
X020551Y005477D01*
X020605Y005469D01*
X020658Y005457D01*
X020711Y005441D01*
X020762Y005421D01*
X020811Y005398D01*
X020859Y005371D01*
X020904Y005341D01*
X020947Y005308D01*
X020988Y005271D01*
X021026Y005232D01*
X021061Y005190D01*
X021093Y005146D01*
X021121Y005099D01*
X021146Y005050D01*
X021168Y005000D01*
X021185Y004948D01*
X021199Y004896D01*
X021209Y004842D01*
X021215Y004788D01*
X021217Y004733D01*
X021215Y004678D01*
X021209Y004624D01*
X021199Y004570D01*
X021185Y004518D01*
X021168Y004466D01*
X021146Y004416D01*
X021121Y004367D01*
X021093Y004320D01*
X021061Y004276D01*
X021026Y004234D01*
X020988Y004195D01*
X020947Y004158D01*
X020904Y004125D01*
X020859Y004095D01*
X020811Y004068D01*
X020762Y004045D01*
X020711Y004025D01*
X020658Y004009D01*
X020605Y003997D01*
X020551Y003989D01*
X020496Y003985D01*
X020442Y003985D01*
X020387Y003989D01*
X020333Y003997D01*
X020280Y004009D01*
X020227Y004025D01*
X020176Y004045D01*
X020127Y004068D01*
X020079Y004095D01*
X020034Y004125D01*
X019991Y004158D01*
X019950Y004195D01*
X019912Y004234D01*
X019877Y004276D01*
X019845Y004320D01*
X019817Y004367D01*
X019792Y004416D01*
X019770Y004466D01*
X019753Y004518D01*
X019739Y004570D01*
X019729Y004624D01*
X019723Y004678D01*
X019721Y004733D01*
X019721Y002883D02*
X019723Y002938D01*
X019729Y002992D01*
X019739Y003046D01*
X019753Y003098D01*
X019770Y003150D01*
X019792Y003200D01*
X019817Y003249D01*
X019845Y003296D01*
X019877Y003340D01*
X019912Y003382D01*
X019950Y003421D01*
X019991Y003458D01*
X020034Y003491D01*
X020079Y003521D01*
X020127Y003548D01*
X020176Y003571D01*
X020227Y003591D01*
X020280Y003607D01*
X020333Y003619D01*
X020387Y003627D01*
X020442Y003631D01*
X020496Y003631D01*
X020551Y003627D01*
X020605Y003619D01*
X020658Y003607D01*
X020711Y003591D01*
X020762Y003571D01*
X020811Y003548D01*
X020859Y003521D01*
X020904Y003491D01*
X020947Y003458D01*
X020988Y003421D01*
X021026Y003382D01*
X021061Y003340D01*
X021093Y003296D01*
X021121Y003249D01*
X021146Y003200D01*
X021168Y003150D01*
X021185Y003098D01*
X021199Y003046D01*
X021209Y002992D01*
X021215Y002938D01*
X021217Y002883D01*
X021215Y002828D01*
X021209Y002774D01*
X021199Y002720D01*
X021185Y002668D01*
X021168Y002616D01*
X021146Y002566D01*
X021121Y002517D01*
X021093Y002470D01*
X021061Y002426D01*
X021026Y002384D01*
X020988Y002345D01*
X020947Y002308D01*
X020904Y002275D01*
X020859Y002245D01*
X020811Y002218D01*
X020762Y002195D01*
X020711Y002175D01*
X020658Y002159D01*
X020605Y002147D01*
X020551Y002139D01*
X020496Y002135D01*
X020442Y002135D01*
X020387Y002139D01*
X020333Y002147D01*
X020280Y002159D01*
X020227Y002175D01*
X020176Y002195D01*
X020127Y002218D01*
X020079Y002245D01*
X020034Y002275D01*
X019991Y002308D01*
X019950Y002345D01*
X019912Y002384D01*
X019877Y002426D01*
X019845Y002470D01*
X019817Y002517D01*
X019792Y002566D01*
X019770Y002616D01*
X019753Y002668D01*
X019739Y002720D01*
X019729Y002774D01*
X019723Y002828D01*
X019721Y002883D01*
X019222Y001686D02*
X018722Y001686D01*
X018722Y000536D01*
X019222Y000536D01*
X019222Y001686D01*
X017608Y001686D02*
X017608Y000536D01*
X017108Y000536D01*
X017108Y001686D01*
X017608Y001686D01*
X008129Y003333D02*
X008129Y003771D01*
X007296Y003771D01*
X007296Y003333D01*
X008129Y003333D01*
X006947Y003417D02*
X006947Y002585D01*
X006510Y002585D01*
X006510Y003417D01*
X006947Y003417D01*
X006317Y003687D02*
X005880Y003687D01*
X005880Y004520D01*
X006317Y004520D01*
X006317Y003687D01*
X005861Y003795D02*
X005861Y003357D01*
X005029Y003357D01*
X005029Y003795D01*
X005861Y003795D01*
X005334Y004003D02*
X005334Y004440D01*
X004501Y004440D01*
X004501Y004003D01*
X005334Y004003D01*
X004939Y003850D02*
X004502Y003850D01*
X004502Y003018D01*
X004939Y003018D01*
X004939Y003850D01*
X004270Y003417D02*
X003832Y003417D01*
X003832Y002585D01*
X004270Y002585D01*
X004270Y003417D01*
X003640Y003687D02*
X003203Y003687D01*
X003203Y004520D01*
X003640Y004520D01*
X003640Y003687D01*
X003640Y004829D02*
X003203Y004829D01*
X003203Y005661D01*
X003640Y005661D01*
X003640Y004829D01*
X003010Y005341D02*
X002573Y005341D01*
X002573Y006173D01*
X003010Y006173D01*
X003010Y005341D01*
X002223Y005341D02*
X002223Y006173D01*
X001785Y006173D01*
X001785Y005341D01*
X002223Y005341D01*
X002025Y006353D02*
X002025Y007185D01*
X002463Y007185D01*
X002463Y006353D01*
X002025Y006353D01*
X001864Y003693D02*
X002301Y003693D01*
X002301Y002860D01*
X001864Y002860D01*
X001864Y003693D01*
X005289Y004829D02*
X005289Y005661D01*
X005727Y005661D01*
X005727Y004829D01*
X005289Y004829D01*
X005880Y004829D02*
X005880Y005661D01*
X006317Y005661D01*
X006317Y004829D01*
X005880Y004829D01*
X006552Y006452D02*
X006552Y006889D01*
X007385Y006889D01*
X007385Y006452D01*
X006552Y006452D01*
X006081Y010459D02*
X005643Y010459D01*
X005643Y011291D01*
X006081Y011291D01*
X006081Y010459D01*
X004079Y011836D02*
X004079Y012017D01*
X003957Y011895D01*
X003957Y012143D01*
X004083Y012017D01*
X004079Y012017D02*
X004079Y012198D01*
X004079Y012426D02*
X004079Y012607D01*
X003957Y012485D01*
X003957Y012733D01*
X004083Y012607D01*
X004079Y012607D02*
X004079Y012788D01*
X004887Y014081D02*
X004887Y014519D01*
X005719Y014519D01*
X005719Y014082D01*
X004887Y014081D01*
X005186Y015538D02*
X005186Y015976D01*
X006019Y015976D01*
X006019Y015538D01*
X005186Y015538D01*
X005364Y017977D02*
X004864Y017977D01*
X004864Y019127D01*
X005364Y019127D01*
X005364Y017977D01*
X008124Y018378D02*
X008124Y017545D01*
X008561Y017545D01*
X008561Y018378D01*
X008124Y018378D01*
X008658Y018631D02*
X009130Y018631D01*
X012730Y018333D02*
X013168Y018333D01*
X013168Y019165D01*
X012730Y019165D01*
X012730Y018333D01*
D126*
X012919Y017529D02*
X012919Y017450D01*
X013136Y017450D01*
X013136Y017214D01*
X012919Y017214D01*
X012919Y017135D01*
X013136Y017135D01*
X013136Y017214D01*
X012919Y017214D02*
X012919Y017450D01*
X012919Y017529D02*
X013136Y017529D01*
X013136Y017450D01*
X012122Y013661D02*
X012043Y013661D01*
X012043Y013444D01*
X012122Y013444D01*
X012122Y013661D01*
X012043Y013661D02*
X011807Y013661D01*
X011807Y013444D01*
X012043Y013444D01*
X011807Y013444D02*
X011728Y013444D01*
X011728Y013661D01*
X011807Y013661D01*
X014248Y010009D02*
X014248Y009615D01*
X015114Y009615D02*
X015114Y010009D01*
X015429Y010009D02*
X015429Y009615D01*
X016295Y009615D02*
X016295Y010009D01*
X017321Y009497D02*
X017321Y009418D01*
X017537Y009418D01*
X017537Y009497D01*
X017321Y009497D01*
X017321Y009418D02*
X017321Y009182D01*
X017537Y009182D01*
X017537Y009418D01*
X017537Y009182D02*
X017537Y009103D01*
X017321Y009103D01*
X017321Y009182D01*
X014232Y006914D02*
X014232Y006521D01*
X013366Y006521D02*
X013366Y006914D01*
X011506Y005795D02*
X011506Y004695D01*
X011006Y004695D01*
X011006Y005795D01*
X011506Y005795D01*
X011688Y003802D02*
X010588Y003802D01*
X010588Y003302D01*
X011688Y003302D01*
X011688Y003802D01*
X010428Y003802D02*
X010428Y003302D01*
X009328Y003302D01*
X009328Y003802D01*
X010428Y003802D01*
X008159Y003197D02*
X008159Y002097D01*
X007659Y002097D01*
X007659Y003197D01*
X008159Y003197D01*
X006978Y003553D02*
X006478Y003553D01*
X006478Y004653D01*
X006978Y004653D01*
X006978Y003553D01*
X006978Y004774D02*
X006478Y004774D01*
X006478Y005874D01*
X006978Y005874D01*
X006978Y004774D01*
X005149Y004635D02*
X004449Y004635D01*
X004449Y005935D01*
X005149Y005935D01*
X005149Y004635D01*
X004301Y004653D02*
X004301Y003553D01*
X003801Y003553D01*
X003801Y004653D01*
X004301Y004653D01*
X004301Y004774D02*
X003801Y004774D01*
X003801Y005874D01*
X004301Y005874D01*
X004301Y004774D01*
X001892Y006584D02*
X001892Y006662D01*
X001675Y006662D01*
X001675Y006584D01*
X001892Y006584D01*
X001892Y006662D02*
X001892Y006899D01*
X001675Y006899D01*
X001675Y006662D01*
X001675Y006899D02*
X001675Y006977D01*
X001892Y006977D01*
X001892Y006899D01*
X005469Y011436D02*
X005547Y011436D01*
X005547Y011653D01*
X005469Y011653D01*
X005469Y011436D01*
X005547Y011436D02*
X005783Y011436D01*
X005783Y011653D01*
X005547Y011653D01*
X005547Y011790D02*
X005547Y012007D01*
X005783Y012007D01*
X005783Y011790D01*
X005862Y011790D01*
X005862Y012007D01*
X005783Y012007D01*
X005783Y011790D02*
X005547Y011790D01*
X005469Y011790D01*
X005469Y012007D01*
X005547Y012007D01*
X005222Y011977D02*
X005006Y011977D01*
X005006Y012214D01*
X005222Y012214D01*
X005222Y012292D01*
X005006Y012292D01*
X005006Y012214D01*
X005222Y012214D02*
X005222Y011977D01*
X005222Y011899D01*
X005006Y011899D01*
X005006Y011977D01*
X005783Y011653D02*
X005862Y011653D01*
X005862Y011436D01*
X005783Y011436D01*
X003028Y011869D02*
X002949Y011869D01*
X002949Y012086D01*
X002713Y012086D01*
X002713Y011869D01*
X002634Y011869D01*
X002634Y012086D01*
X002713Y012086D01*
X002713Y011869D02*
X002949Y011869D01*
X003028Y011869D02*
X003028Y012086D01*
X002949Y012086D01*
X002949Y012499D02*
X002713Y012499D01*
X002713Y012716D01*
X002634Y012716D01*
X002634Y012499D01*
X002713Y012499D01*
X002713Y012716D02*
X002949Y012716D01*
X002949Y012499D01*
X003028Y012499D01*
X003028Y012716D01*
X002949Y012716D01*
X003685Y014564D02*
X004276Y014564D01*
X004276Y015017D01*
X004276Y018048D01*
X004276Y018501D01*
X003685Y018501D01*
X003685Y018048D01*
X004276Y018048D01*
X003685Y018048D02*
X002110Y018048D01*
X002110Y018501D01*
X001520Y018501D01*
X001520Y018048D01*
X002110Y018048D01*
X001520Y018048D02*
X000929Y018048D01*
X000929Y015017D01*
X001520Y015017D01*
X001520Y014564D01*
X002110Y014564D01*
X002110Y015017D01*
X003685Y015017D01*
X003685Y014564D01*
X003685Y015017D02*
X004276Y015017D01*
X002110Y015017D02*
X001520Y015017D01*
X000929Y015017D02*
X000654Y015017D01*
X000654Y018048D01*
X000929Y018048D01*
X005114Y017794D02*
X005114Y017578D01*
X005193Y017578D01*
X005193Y017794D01*
X005429Y017794D01*
X005429Y017578D01*
X005508Y017578D01*
X005508Y017794D01*
X005429Y017794D01*
X005429Y017578D02*
X005193Y017578D01*
X005193Y017794D02*
X005114Y017794D01*
X005833Y017765D02*
X006049Y017765D01*
X006049Y018001D01*
X005833Y018001D01*
X005833Y018080D01*
X006049Y018080D01*
X006049Y018001D01*
X005833Y018001D02*
X005833Y017765D01*
X005833Y017686D01*
X006049Y017686D01*
X006049Y017765D01*
X007014Y017804D02*
X007014Y017883D01*
X007230Y017883D01*
X007230Y018119D01*
X007014Y018119D01*
X007014Y018198D01*
X007230Y018198D01*
X007230Y018119D01*
X007014Y018119D02*
X007014Y017883D01*
X007014Y017804D02*
X007230Y017804D01*
X007230Y017883D01*
X007604Y017883D02*
X007604Y017804D01*
X007821Y017804D01*
X007821Y017883D01*
X007604Y017883D01*
X007604Y018119D01*
X007821Y018119D01*
X007821Y017883D01*
X007821Y018119D02*
X007821Y018198D01*
X007604Y018198D01*
X007604Y018119D01*
X008785Y018080D02*
X008785Y017844D01*
X009002Y017844D01*
X009002Y017765D01*
X008785Y017765D01*
X008785Y017844D01*
X009002Y017844D02*
X009002Y018080D01*
X008785Y018080D01*
X008785Y018159D01*
X009002Y018159D01*
X009002Y018080D01*
X017634Y015009D02*
X018028Y015009D01*
X018028Y014143D02*
X017634Y014143D01*
X017634Y013828D02*
X018028Y013828D01*
X018028Y012962D02*
X017634Y012962D01*
X017949Y015974D02*
X018343Y015974D01*
X018343Y016840D02*
X017949Y016840D01*
X010508Y009487D02*
X010429Y009487D01*
X010429Y009271D01*
X010508Y009271D01*
X010508Y009487D01*
X010429Y009487D02*
X010193Y009487D01*
X010193Y009271D01*
X010429Y009271D01*
X010193Y009271D02*
X010114Y009271D01*
X010114Y009487D01*
X010193Y009487D01*
X009681Y009487D02*
X009681Y009271D01*
X009602Y009271D01*
X009602Y009487D01*
X009681Y009487D01*
X009602Y009487D02*
X009366Y009487D01*
X009366Y009271D01*
X009602Y009271D01*
X009366Y009271D02*
X009287Y009271D01*
X009287Y009487D01*
X009366Y009487D01*
X015744Y004172D02*
X015744Y003956D01*
X015823Y003956D01*
X015823Y004172D01*
X016059Y004172D01*
X016059Y003956D01*
X016138Y003956D01*
X016138Y004172D01*
X016059Y004172D01*
X016059Y003956D02*
X015823Y003956D01*
X015823Y003779D02*
X015823Y003562D01*
X016059Y003562D01*
X016059Y003779D01*
X016138Y003779D01*
X016138Y003562D01*
X016059Y003562D01*
X016059Y003385D02*
X015823Y003385D01*
X015823Y003168D01*
X016059Y003168D01*
X016059Y003385D01*
X016138Y003385D01*
X016138Y003168D01*
X016059Y003168D01*
X016059Y002991D02*
X016059Y002775D01*
X016138Y002775D01*
X016138Y002991D01*
X016059Y002991D01*
X015823Y002991D01*
X015823Y002775D01*
X016059Y002775D01*
X015823Y002775D02*
X015744Y002775D01*
X015744Y002991D01*
X015823Y002991D01*
X015823Y003168D02*
X015744Y003168D01*
X015744Y003385D01*
X015823Y003385D01*
X015823Y003562D02*
X015744Y003562D01*
X015744Y003779D01*
X015823Y003779D01*
X016059Y003779D01*
X015823Y004172D02*
X015744Y004172D01*
X016030Y004536D02*
X016030Y004615D01*
X016246Y004615D01*
X016246Y004536D01*
X016030Y004536D01*
X016030Y004615D02*
X016030Y004851D01*
X016246Y004851D01*
X016246Y004615D01*
X016246Y004851D02*
X016246Y004930D01*
X016030Y004930D01*
X016030Y004851D01*
X019297Y003159D02*
X019297Y003080D01*
X019514Y003080D01*
X019514Y002844D01*
X019297Y002844D01*
X019297Y002765D01*
X019514Y002765D01*
X019514Y002844D01*
X019297Y002844D02*
X019297Y003080D01*
X019297Y003159D02*
X019514Y003159D01*
X019514Y003080D01*
X004673Y001733D02*
X004673Y001655D01*
X004161Y001655D01*
X004161Y001733D01*
X004673Y001733D01*
X004673Y001694D02*
X004161Y001694D01*
X004673Y001655D02*
X004673Y000631D01*
X004161Y000631D01*
X003610Y000631D02*
X003098Y000631D01*
X003098Y001655D01*
X003098Y001733D01*
X003610Y001733D01*
X003610Y001655D01*
X003098Y001655D01*
X003098Y001694D02*
X003610Y001694D01*
D127*
X002415Y001820D02*
X002415Y002607D01*
X002553Y002607D01*
X002553Y001820D01*
X002415Y001820D01*
X002278Y002686D02*
X001864Y002686D01*
X001774Y003717D02*
X001776Y003726D01*
X001781Y003733D01*
X001789Y003738D01*
X001798Y003739D01*
X001807Y003736D01*
X001814Y003730D01*
X001818Y003722D01*
X001818Y003712D01*
X001814Y003704D01*
X001807Y003698D01*
X001798Y003695D01*
X001789Y003696D01*
X001781Y003701D01*
X001776Y003708D01*
X001774Y003717D01*
X001823Y004281D02*
X001823Y004792D01*
X002972Y004792D02*
X002972Y004281D01*
X002595Y006397D02*
X002595Y006810D01*
X002673Y006948D02*
X003461Y006948D01*
X003461Y007086D01*
X002673Y007086D01*
X002673Y006948D01*
X002579Y008749D02*
X002571Y008751D01*
X002565Y008755D01*
X002561Y008761D01*
X002559Y008769D01*
X002561Y008777D01*
X002565Y008783D01*
X002571Y008787D01*
X002579Y008789D01*
X002587Y008787D01*
X002593Y008783D01*
X002597Y008777D01*
X002599Y008769D01*
X002597Y008761D01*
X002593Y008755D01*
X002587Y008751D01*
X002579Y008749D01*
X002571Y008751D01*
X002565Y008755D01*
X002561Y008761D01*
X002559Y008769D01*
X002561Y008777D01*
X002565Y008783D01*
X002571Y008787D01*
X002579Y008789D01*
X008441Y010796D02*
X008443Y010807D01*
X008447Y010817D01*
X008454Y010825D01*
X008464Y010831D01*
X008474Y010835D01*
X008486Y010835D01*
X008496Y010831D01*
X008506Y010825D01*
X008513Y010817D01*
X008517Y010807D01*
X008519Y010796D01*
X008517Y010785D01*
X008513Y010775D01*
X008506Y010767D01*
X008496Y010761D01*
X008486Y010757D01*
X008474Y010757D01*
X008464Y010761D01*
X008454Y010767D01*
X008447Y010775D01*
X008443Y010785D01*
X008441Y010796D01*
X012339Y007588D02*
X012341Y007600D01*
X012346Y007611D01*
X012355Y007620D01*
X012366Y007625D01*
X012378Y007627D01*
X012390Y007625D01*
X012401Y007620D01*
X012410Y007611D01*
X012415Y007600D01*
X012417Y007588D01*
X012415Y007576D01*
X012410Y007565D01*
X012401Y007556D01*
X012390Y007551D01*
X012378Y007549D01*
X012366Y007551D01*
X012355Y007556D01*
X012346Y007565D01*
X012341Y007576D01*
X012339Y007588D01*
X017733Y001446D02*
X017735Y001458D01*
X017740Y001469D01*
X017749Y001478D01*
X017760Y001483D01*
X017772Y001485D01*
X017784Y001483D01*
X017795Y001478D01*
X017804Y001469D01*
X017809Y001458D01*
X017811Y001446D01*
X017809Y001434D01*
X017804Y001423D01*
X017795Y001414D01*
X017784Y001409D01*
X017772Y001407D01*
X017760Y001409D01*
X017749Y001414D01*
X017740Y001423D01*
X017735Y001434D01*
X017733Y001446D01*
X015134Y014556D02*
X015136Y014568D01*
X015141Y014579D01*
X015150Y014588D01*
X015161Y014593D01*
X015173Y014595D01*
X015185Y014593D01*
X015196Y014588D01*
X015205Y014579D01*
X015210Y014568D01*
X015212Y014556D01*
X015210Y014544D01*
X015205Y014533D01*
X015196Y014524D01*
X015185Y014519D01*
X015173Y014517D01*
X015161Y014519D01*
X015150Y014524D01*
X015141Y014533D01*
X015136Y014544D01*
X015134Y014556D01*
X014760Y015540D02*
X016591Y015540D01*
X016591Y015875D01*
X014189Y016269D02*
X014189Y020304D01*
X016591Y020304D01*
X016591Y019418D01*
X016492Y020304D02*
X016492Y021092D01*
X014287Y021092D01*
X014287Y020304D01*
X011632Y019152D02*
X011632Y017228D01*
X010313Y017228D01*
X010313Y019152D01*
X011632Y019152D01*
X010175Y019196D02*
X009604Y019196D01*
X006315Y016111D02*
X005843Y016111D01*
X005705Y016170D02*
X005469Y016170D01*
X005469Y017312D01*
X005705Y017312D01*
X005705Y016170D01*
D128*
X005079Y011229D02*
X004957Y011229D01*
X005079Y011229D02*
X005079Y009261D01*
X004957Y009261D01*
X002201Y009261D02*
X002079Y009261D01*
X002079Y011229D01*
X002201Y011229D01*
X013421Y015816D02*
X013429Y015818D01*
X013435Y015822D01*
X013439Y015828D01*
X013441Y015836D01*
X013439Y015844D01*
X013435Y015850D01*
X013429Y015854D01*
X013421Y015856D01*
X013413Y015854D01*
X013407Y015850D01*
X013403Y015844D01*
X013401Y015836D01*
X013403Y015828D01*
X013407Y015822D01*
X013413Y015818D01*
X013421Y015816D01*
X019120Y017489D02*
X019120Y018375D01*
X019396Y018375D01*
X020695Y018375D02*
X021699Y018375D01*
X021699Y006367D01*
X020695Y006367D01*
X019396Y006367D02*
X019120Y006367D01*
X019120Y007450D01*
D129*
X014194Y001798D02*
X013594Y001798D01*
X013581Y001796D01*
X013569Y001791D01*
X013559Y001783D01*
X013551Y001773D01*
X013546Y001761D01*
X013544Y001748D01*
X013544Y001498D01*
X013546Y001485D01*
X013551Y001473D01*
X013559Y001463D01*
X013569Y001455D01*
X013581Y001450D01*
X013594Y001448D01*
X014194Y001448D01*
X014207Y001450D01*
X014219Y001455D01*
X014229Y001463D01*
X014237Y001473D01*
X014242Y001485D01*
X014244Y001498D01*
X014244Y001748D01*
X014242Y001761D01*
X014237Y001773D01*
X014229Y001783D01*
X014219Y001791D01*
X014207Y001796D01*
X014194Y001798D01*
X014216Y001383D02*
X013966Y001383D01*
X013953Y001381D01*
X013941Y001376D01*
X013931Y001368D01*
X013923Y001358D01*
X013918Y001346D01*
X013916Y001333D01*
X013916Y000733D01*
X013918Y000720D01*
X013923Y000708D01*
X013931Y000698D01*
X013941Y000690D01*
X013953Y000685D01*
X013966Y000683D01*
X014216Y000683D01*
X014229Y000685D01*
X014241Y000690D01*
X014251Y000698D01*
X014259Y000708D01*
X014264Y000720D01*
X014266Y000733D01*
X014266Y001333D01*
X014264Y001346D01*
X014259Y001358D01*
X014251Y001368D01*
X014241Y001376D01*
X014229Y001381D01*
X014216Y001383D01*
X012809Y001333D02*
X012809Y000733D01*
X012807Y000720D01*
X012802Y000708D01*
X012794Y000698D01*
X012784Y000690D01*
X012772Y000685D01*
X012759Y000683D01*
X012509Y000683D01*
X012496Y000685D01*
X012484Y000690D01*
X012474Y000698D01*
X012466Y000708D01*
X012461Y000720D01*
X012459Y000733D01*
X012459Y001333D01*
X012461Y001346D01*
X012466Y001358D01*
X012474Y001368D01*
X012484Y001376D01*
X012496Y001381D01*
X012509Y001383D01*
X012759Y001383D01*
X012772Y001381D01*
X012784Y001376D01*
X012794Y001368D01*
X012802Y001358D01*
X012807Y001346D01*
X012809Y001333D01*
X011785Y001481D02*
X011785Y002081D01*
X011783Y002094D01*
X011778Y002106D01*
X011770Y002116D01*
X011760Y002124D01*
X011748Y002129D01*
X011735Y002131D01*
X011485Y002131D01*
X011472Y002129D01*
X011460Y002124D01*
X011450Y002116D01*
X011442Y002106D01*
X011437Y002094D01*
X011435Y002081D01*
X011435Y001481D01*
X011437Y001468D01*
X011442Y001456D01*
X011450Y001446D01*
X011460Y001438D01*
X011472Y001433D01*
X011485Y001431D01*
X011735Y001431D01*
X011748Y001433D01*
X011760Y001438D01*
X011770Y001446D01*
X011778Y001456D01*
X011783Y001468D01*
X011785Y001481D01*
X011517Y004204D02*
X010917Y004204D01*
X010904Y004206D01*
X010892Y004211D01*
X010882Y004219D01*
X010874Y004229D01*
X010869Y004241D01*
X010867Y004254D01*
X010867Y004504D01*
X010869Y004517D01*
X010874Y004529D01*
X010882Y004539D01*
X010892Y004547D01*
X010904Y004552D01*
X010917Y004554D01*
X011517Y004554D01*
X011530Y004552D01*
X011542Y004547D01*
X011552Y004539D01*
X011560Y004529D01*
X011565Y004517D01*
X011567Y004504D01*
X011567Y004254D01*
X011565Y004241D01*
X011560Y004229D01*
X011552Y004219D01*
X011542Y004211D01*
X011530Y004206D01*
X011517Y004204D01*
X010700Y004254D02*
X010700Y004504D01*
X010698Y004517D01*
X010693Y004529D01*
X010685Y004539D01*
X010675Y004547D01*
X010663Y004552D01*
X010650Y004554D01*
X010050Y004554D01*
X010037Y004552D01*
X010025Y004547D01*
X010015Y004539D01*
X010007Y004529D01*
X010002Y004517D01*
X010000Y004504D01*
X010000Y004254D01*
X010002Y004241D01*
X010007Y004229D01*
X010015Y004219D01*
X010025Y004211D01*
X010037Y004206D01*
X010050Y004204D01*
X010650Y004204D01*
X010663Y004206D01*
X010675Y004211D01*
X010685Y004219D01*
X010693Y004229D01*
X010698Y004241D01*
X010700Y004254D01*
X009462Y004740D02*
X009462Y005340D01*
X009460Y005353D01*
X009455Y005365D01*
X009447Y005375D01*
X009437Y005383D01*
X009425Y005388D01*
X009412Y005390D01*
X009162Y005390D01*
X009149Y005388D01*
X009137Y005383D01*
X009127Y005375D01*
X009119Y005365D01*
X009114Y005353D01*
X009112Y005340D01*
X009112Y004740D01*
X009114Y004727D01*
X009119Y004715D01*
X009127Y004705D01*
X009137Y004697D01*
X009149Y004692D01*
X009162Y004690D01*
X009412Y004690D01*
X009425Y004692D01*
X009437Y004697D01*
X009447Y004705D01*
X009455Y004715D01*
X009460Y004727D01*
X009462Y004740D01*
X009706Y006448D02*
X009106Y006448D01*
X009093Y006450D01*
X009081Y006455D01*
X009071Y006463D01*
X009063Y006473D01*
X009058Y006485D01*
X009056Y006498D01*
X009056Y006748D01*
X009058Y006761D01*
X009063Y006773D01*
X009071Y006783D01*
X009081Y006791D01*
X009093Y006796D01*
X009106Y006798D01*
X009706Y006798D01*
X009719Y006796D01*
X009731Y006791D01*
X009741Y006783D01*
X009749Y006773D01*
X009754Y006761D01*
X009756Y006748D01*
X009756Y006498D01*
X009754Y006485D01*
X009749Y006473D01*
X009741Y006463D01*
X009731Y006455D01*
X009719Y006450D01*
X009706Y006448D01*
X009900Y006481D02*
X009900Y007081D01*
X009902Y007094D01*
X009907Y007106D01*
X009915Y007116D01*
X009925Y007124D01*
X009937Y007129D01*
X009950Y007131D01*
X010200Y007131D01*
X010213Y007129D01*
X010225Y007124D01*
X010235Y007116D01*
X010243Y007106D01*
X010248Y007094D01*
X010250Y007081D01*
X010250Y006481D01*
X010248Y006468D01*
X010243Y006456D01*
X010235Y006446D01*
X010225Y006438D01*
X010213Y006433D01*
X010200Y006431D01*
X009950Y006431D01*
X009937Y006433D01*
X009925Y006438D01*
X009915Y006446D01*
X009907Y006456D01*
X009902Y006468D01*
X009900Y006481D01*
D130*
X015522Y013110D02*
X015609Y013110D01*
X015652Y013153D01*
X015773Y013110D02*
X015773Y013370D01*
X015652Y013327D02*
X015609Y013370D01*
X015522Y013370D01*
X015479Y013327D01*
X015479Y013153D01*
X015522Y013110D01*
X015773Y013110D02*
X015947Y013110D01*
X016068Y013110D02*
X016068Y013370D01*
X016111Y013240D02*
X016241Y013110D01*
X016068Y013197D02*
X016241Y013370D01*
M02*
