G75*
G70*
%OFA0B0*%
%FSLAX24Y24*%
%IPPOS*%
%LPD*%
%AMOC8*
5,1,8,0,0,1.08239X$1,22.5*
%
%ADD10C,0.0413*%
%ADD11C,0.0198*%
%ADD12C,0.0320*%
%ADD13C,0.0240*%
%ADD14C,0.0100*%
%ADD15C,0.1424*%
%ADD16C,0.1384*%
%ADD17C,0.0237*%
%ADD18C,0.0160*%
%ADD19C,0.0060*%
%ADD20C,0.0061*%
D10*
X017555Y006466D03*
X018343Y006466D03*
X020469Y005127D03*
X020469Y004340D03*
X020469Y003277D03*
X020469Y002489D03*
X008894Y019025D03*
X008303Y019025D03*
X007713Y019025D03*
X007122Y019025D03*
X006532Y019025D03*
D11*
X005929Y018355D03*
X006257Y018174D03*
X005661Y017214D03*
X005429Y016741D03*
X005665Y016466D03*
X005902Y016741D03*
X006032Y015757D03*
X005169Y015757D03*
X004854Y014300D03*
X005980Y013316D03*
X005114Y012568D03*
X004721Y012607D03*
X004721Y012292D03*
X005862Y012174D03*
X004839Y010954D03*
X004406Y010245D03*
X004248Y010009D03*
X004760Y009733D03*
X005862Y010363D03*
X005941Y009812D03*
X007398Y009418D03*
X007587Y008418D03*
X007980Y008418D03*
X008374Y008418D03*
X008768Y008418D03*
X009161Y008418D03*
X009555Y008418D03*
X009996Y007844D03*
X009996Y007607D03*
X009445Y007529D03*
X010350Y006938D03*
X010902Y006977D03*
X011768Y006426D03*
X012043Y005954D03*
X012516Y005914D03*
X013311Y005914D03*
X014102Y005914D03*
X014445Y006544D03*
X013894Y007194D03*
X013697Y007348D03*
X013500Y007186D03*
X012949Y007686D03*
X013098Y008418D03*
X012705Y008418D03*
X012311Y008418D03*
X011996Y008418D03*
X011728Y008237D03*
X011484Y008418D03*
X011130Y008418D03*
X010736Y008418D03*
X010343Y008418D03*
X010941Y009379D03*
X011217Y009418D03*
X011374Y009222D03*
X011610Y009379D03*
X011807Y009222D03*
X012004Y009418D03*
X012437Y009418D03*
X013815Y010009D03*
X014091Y010088D03*
X014760Y010285D03*
X014996Y010403D03*
X015547Y010285D03*
X015744Y010521D03*
X015941Y010363D03*
X016138Y010521D03*
X016965Y011190D03*
X017870Y010954D03*
X017870Y011426D03*
X017870Y011741D03*
X017870Y012056D03*
X017870Y012371D03*
X018224Y012607D03*
X018614Y013123D03*
X018618Y014340D03*
X019406Y014340D03*
X019406Y015324D03*
X019406Y016033D03*
X020075Y016387D03*
X021445Y016332D03*
X021445Y015938D03*
X021445Y015544D03*
X021445Y015151D03*
X021445Y014757D03*
X021445Y014363D03*
X021445Y013970D03*
X021445Y013576D03*
X021445Y013182D03*
X021445Y012788D03*
X021445Y012395D03*
X020705Y010442D03*
X021177Y010285D03*
X021445Y009836D03*
X021445Y009442D03*
X021445Y009009D03*
X021445Y008615D03*
X021445Y008222D03*
X021445Y007828D03*
X021445Y007434D03*
X021445Y007040D03*
X021445Y006647D03*
X021445Y006253D03*
X021445Y005859D03*
X021445Y005466D03*
X021445Y005072D03*
X021445Y004678D03*
X021445Y004285D03*
X021445Y003891D03*
X021445Y003497D03*
X021445Y003103D03*
X021445Y002670D03*
X021445Y002277D03*
X021445Y001922D03*
X019988Y000544D03*
X019595Y000544D03*
X019193Y000517D03*
X019287Y000875D03*
X019366Y001387D03*
X019602Y001387D03*
X019445Y001820D03*
X019287Y002056D03*
X019287Y002332D03*
X018933Y002214D03*
X018386Y001599D03*
X017752Y001938D03*
X017398Y001781D03*
X017634Y001426D03*
X017713Y000914D03*
X018106Y000954D03*
X018020Y000505D03*
X018413Y000544D03*
X018807Y000513D03*
X017626Y000505D03*
X017232Y000505D03*
X017004Y000914D03*
X016602Y000781D03*
X016445Y000544D03*
X016051Y000544D03*
X015658Y000544D03*
X015264Y000544D03*
X014870Y000544D03*
X014476Y000544D03*
X014083Y000544D03*
X013689Y000544D03*
X013295Y000544D03*
X012902Y000544D03*
X012508Y000544D03*
X012114Y000544D03*
X011721Y000544D03*
X011327Y000544D03*
X010933Y000544D03*
X010539Y000544D03*
X010146Y000544D03*
X009752Y000544D03*
X009358Y000544D03*
X008965Y000544D03*
X008571Y000544D03*
X008177Y000544D03*
X007783Y000544D03*
X007390Y000544D03*
X007783Y001332D03*
X007783Y001922D03*
X007622Y002332D03*
X008571Y002513D03*
X008571Y001922D03*
X008571Y001332D03*
X009358Y001332D03*
X009358Y001922D03*
X009358Y002513D03*
X009957Y002568D03*
X009358Y003103D03*
X008571Y003103D03*
X008768Y003891D03*
X009358Y003891D03*
X009949Y003891D03*
X009949Y004875D03*
X010272Y005285D03*
X010114Y005718D03*
X009528Y005218D03*
X009209Y005489D03*
X008736Y005914D03*
X009012Y005946D03*
X008421Y005639D03*
X007988Y005639D03*
X007988Y005206D03*
X008382Y005206D03*
X007346Y005340D03*
X006453Y005875D03*
X006098Y005678D03*
X005508Y005875D03*
X005350Y006544D03*
X005823Y006544D03*
X005823Y007017D03*
X006138Y007253D03*
X006571Y007017D03*
X006461Y006682D03*
X007161Y006899D03*
X007980Y007474D03*
X008374Y007474D03*
X007193Y008418D03*
X006012Y008418D03*
X005618Y008418D03*
X005224Y008418D03*
X004437Y008418D03*
X004083Y008418D03*
X003768Y008418D03*
X003335Y008418D03*
X002980Y008418D03*
X002437Y008355D03*
X002201Y007962D03*
X002595Y007450D03*
X003067Y007096D03*
X003539Y007450D03*
X003846Y007828D03*
X004240Y008025D03*
X004240Y007080D03*
X003846Y007080D03*
X003846Y006450D03*
X004240Y006450D03*
X004732Y006702D03*
X005354Y007025D03*
X005154Y007599D03*
X005815Y007828D03*
X003421Y005678D03*
X003343Y006269D03*
X003067Y006269D03*
X002437Y005521D03*
X002232Y005954D03*
X002236Y006336D03*
X001484Y006253D03*
X001484Y005859D03*
X001484Y005466D03*
X001484Y005072D03*
X001484Y004678D03*
X001484Y004285D03*
X001484Y003891D03*
X001484Y003497D03*
X001484Y003103D03*
X001484Y002710D03*
X001484Y002316D03*
X001484Y001922D03*
X002417Y001899D03*
X002437Y002214D03*
X002831Y002725D03*
X003138Y002985D03*
X003453Y002985D03*
X002909Y003513D03*
X002673Y003513D03*
X002673Y003749D03*
X002909Y003749D03*
X003264Y001938D03*
X004280Y001962D03*
X004760Y002017D03*
X004724Y002348D03*
X004732Y002611D03*
X005350Y002686D03*
X005350Y002214D03*
X005823Y002214D03*
X005823Y002686D03*
X006453Y002544D03*
X006602Y002119D03*
X005618Y001332D03*
X005224Y001332D03*
X005028Y000544D03*
X005421Y000544D03*
X005815Y000544D03*
X004634Y000544D03*
X004240Y000544D03*
X003453Y000544D03*
X003059Y000544D03*
X005882Y003592D03*
X005232Y003828D03*
X005390Y004222D03*
X008177Y003891D03*
X010146Y001922D03*
X010146Y001332D03*
X010933Y002119D03*
X010933Y002513D03*
X010933Y002907D03*
X011532Y003001D03*
X011532Y002489D03*
X012476Y002174D03*
X012713Y002607D03*
X012476Y003001D03*
X013122Y003001D03*
X013500Y003907D03*
X013500Y004300D03*
X013894Y004300D03*
X013894Y003907D03*
X013894Y004694D03*
X013894Y005088D03*
X013500Y005088D03*
X013500Y004694D03*
X013106Y004694D03*
X012713Y004694D03*
X011846Y004733D03*
X011925Y004162D03*
X011886Y003749D03*
X011571Y003946D03*
X011890Y005348D03*
X012476Y006702D03*
X012043Y007371D03*
X014248Y007832D03*
X014488Y007832D03*
X014760Y007883D03*
X014791Y007631D03*
X014563Y007292D03*
X015146Y007237D03*
X015461Y007237D03*
X015461Y007592D03*
X015776Y007592D03*
X015776Y007237D03*
X015461Y006647D03*
X015461Y006253D03*
X015862Y005403D03*
X015823Y004930D03*
X016374Y005481D03*
X017373Y004536D03*
X017634Y004733D03*
X017870Y004891D03*
X018461Y005324D03*
X019169Y005127D03*
X018106Y003867D03*
X017398Y003867D03*
X017398Y003556D03*
X016610Y002804D03*
X016610Y002411D03*
X016610Y002096D03*
X016610Y001820D03*
X016602Y001135D03*
X015461Y001135D03*
X015461Y001725D03*
X015862Y002135D03*
X015508Y002607D03*
X015469Y002883D03*
X015469Y003277D03*
X015469Y003670D03*
X015469Y004064D03*
X014957Y003749D03*
X014878Y003513D03*
X014862Y003985D03*
X014528Y002981D03*
X014110Y002962D03*
X014350Y002399D03*
X014760Y002135D03*
X014870Y001725D03*
X012949Y002017D03*
X012398Y001229D03*
X014878Y005127D03*
X017516Y007411D03*
X018185Y007529D03*
X017280Y008119D03*
X017752Y008828D03*
X018224Y008828D03*
X017713Y009497D03*
X017161Y009497D03*
X016610Y009497D03*
X016150Y009139D03*
X015976Y009340D03*
X015772Y009182D03*
X015547Y009300D03*
X014969Y009300D03*
X014776Y009103D03*
X014595Y009308D03*
X014366Y009210D03*
X014201Y008418D03*
X014091Y011741D03*
X014091Y012017D03*
X013815Y011977D03*
X013815Y012568D03*
X014681Y012411D03*
X014996Y012214D03*
X014961Y011749D03*
X015823Y012292D03*
X016177Y012686D03*
X016768Y012725D03*
X017043Y012765D03*
X017280Y013434D03*
X017201Y013670D03*
X017358Y014477D03*
X017358Y015009D03*
X017555Y015757D03*
X017319Y016269D03*
X017634Y016505D03*
X017201Y016702D03*
X017358Y017883D03*
X017429Y019836D03*
X017035Y019836D03*
X016642Y019836D03*
X016248Y019836D03*
X015854Y019836D03*
X015461Y019836D03*
X015067Y019836D03*
X014673Y019836D03*
X014280Y019836D03*
X013886Y019836D03*
X013492Y020033D03*
X013098Y020033D03*
X012705Y020033D03*
X012311Y020033D03*
X011917Y020033D03*
X011524Y020033D03*
X011130Y020033D03*
X010736Y020033D03*
X010343Y020033D03*
X009949Y020033D03*
X009555Y020033D03*
X009161Y020033D03*
X008768Y020033D03*
X008374Y020033D03*
X007980Y020033D03*
X007587Y020033D03*
X007193Y020033D03*
X006799Y020033D03*
X006406Y020033D03*
X006012Y019836D03*
X005618Y019836D03*
X005224Y019836D03*
X004831Y019836D03*
X004437Y019836D03*
X004043Y019836D03*
X003650Y019836D03*
X003256Y019836D03*
X002862Y019836D03*
X004642Y018474D03*
X005106Y019265D03*
X003421Y017135D03*
X003098Y016766D03*
X001484Y016883D03*
X001484Y017277D03*
X001484Y017670D03*
X001484Y016489D03*
X001484Y016096D03*
X001484Y015702D03*
X001484Y015308D03*
X001484Y014127D03*
X001484Y013733D03*
X001484Y013340D03*
X001484Y012946D03*
X001484Y012552D03*
X001484Y012159D03*
X001484Y011765D03*
X001484Y011371D03*
X001484Y010977D03*
X001484Y010584D03*
X001484Y010190D03*
X001484Y009796D03*
X002240Y009458D03*
X002004Y008592D03*
X001547Y008359D03*
X001484Y007434D03*
X001689Y007277D03*
X003067Y010166D03*
X002595Y010363D03*
X003579Y010324D03*
X002831Y011584D03*
X003146Y014603D03*
X007437Y013710D03*
X007909Y013080D03*
X008067Y012686D03*
X008087Y012371D03*
X007752Y012292D03*
X007909Y012056D03*
X007854Y011781D03*
X008091Y011662D03*
X008079Y011210D03*
X007831Y011190D03*
X008106Y010954D03*
X008906Y010966D03*
X009130Y011072D03*
X009484Y011072D03*
X009957Y011111D03*
X009484Y011938D03*
X009209Y011938D03*
X008933Y011938D03*
X009563Y012568D03*
X009524Y012844D03*
X009957Y013670D03*
X009976Y014286D03*
X011091Y012946D03*
X012161Y012450D03*
X012122Y011741D03*
X012634Y011781D03*
X012437Y013552D03*
X012673Y013749D03*
X012673Y014143D03*
X012516Y014536D03*
X012673Y014733D03*
X012516Y014930D03*
X012673Y015127D03*
X012476Y015324D03*
X012205Y016123D03*
X011843Y016155D03*
X011610Y016060D03*
X012673Y016938D03*
X012791Y016623D03*
X012476Y017568D03*
X012595Y018040D03*
X011610Y018316D03*
X010823Y017450D03*
X010626Y017253D03*
X010429Y017017D03*
X011020Y017096D03*
X011217Y017253D03*
X011413Y017056D03*
X010311Y018946D03*
X008579Y017056D03*
X007870Y016970D03*
X007949Y016072D03*
X008264Y016111D03*
X013618Y014733D03*
X013854Y014576D03*
X014051Y014143D03*
X014839Y014930D03*
X014839Y015166D03*
X015299Y014328D03*
X016256Y014418D03*
X016256Y014655D03*
X018579Y015324D03*
X021445Y016725D03*
X021445Y017119D03*
X021445Y017513D03*
X021445Y017907D03*
X021445Y018300D03*
X019791Y019836D03*
X019398Y019836D03*
X019004Y019836D03*
X018610Y019836D03*
X018217Y019836D03*
X017823Y019836D03*
X019354Y010993D03*
X019681Y010245D03*
X019559Y010009D03*
X019996Y009694D03*
X019772Y009418D03*
X019783Y008828D03*
X019996Y008552D03*
X019406Y008277D03*
X019799Y007962D03*
X020539Y008233D03*
X020705Y009025D03*
X018264Y010009D03*
X020705Y004694D03*
X020547Y003749D03*
X019681Y003080D03*
X017658Y002623D03*
X009012Y009379D03*
D12*
X016256Y013277D02*
X016256Y014655D01*
X016256Y013277D02*
X016413Y013119D01*
X018614Y013123D01*
D13*
X018264Y010009D02*
X018264Y009851D01*
X018421Y009694D01*
X019996Y009694D01*
X017870Y008710D02*
X017752Y008828D01*
X017870Y008710D02*
X017870Y006938D01*
X018343Y006466D01*
D14*
X021177Y005757D02*
X021177Y005718D01*
X012043Y007371D02*
X011965Y007292D01*
X009012Y007292D01*
X008697Y006938D01*
X008697Y006269D01*
X009091Y006269D01*
X009287Y006072D01*
X009287Y005560D01*
X009209Y005489D01*
X008697Y006269D02*
X006461Y006269D01*
X006461Y006682D01*
X006461Y006269D02*
X005902Y006269D01*
X005744Y006111D01*
X005744Y003828D01*
X005508Y003592D01*
X005232Y003592D01*
X005232Y003828D01*
X005232Y003592D02*
X004839Y003592D01*
X004721Y003474D01*
X004721Y002725D01*
X004732Y002611D01*
X002437Y005521D02*
X002437Y007135D01*
X002240Y007253D01*
X001728Y007253D01*
X001689Y007277D01*
D15*
X002083Y001072D03*
X020823Y001052D03*
X020823Y019438D03*
X002063Y019418D03*
D16*
X006571Y001072D03*
D17*
X010378Y012450D03*
X010732Y012450D03*
X012201Y012844D03*
X012595Y012844D03*
X011323Y014222D03*
X010850Y014222D03*
X010850Y013828D03*
X010378Y013828D03*
X010378Y014222D03*
X010378Y015403D03*
X009906Y017096D03*
X008488Y015403D03*
X008016Y015403D03*
X007189Y016584D03*
X005087Y013710D03*
X003382Y015836D03*
X012937Y018237D03*
X013134Y016229D03*
X015260Y016190D03*
X015850Y016190D03*
X015850Y016977D03*
X015260Y016977D03*
X015260Y017765D03*
X015850Y017765D03*
X015850Y018946D03*
X015260Y018946D03*
X017622Y018946D03*
X017622Y018355D03*
X018409Y018355D03*
X018409Y018946D03*
X019000Y019143D03*
X019787Y019143D03*
X019787Y017174D03*
X020969Y017174D03*
X020969Y015796D03*
X020969Y014615D03*
X020969Y013631D03*
X020969Y012844D03*
X019591Y012844D03*
X019591Y013631D03*
X019787Y014615D03*
X019787Y015088D03*
X018528Y015836D03*
X018409Y016977D03*
X017622Y016977D03*
X015417Y015324D03*
D18*
X020705Y010442D02*
X020941Y010127D01*
X020941Y004930D01*
X020705Y004694D01*
X021177Y004300D02*
X021177Y005718D01*
X021177Y005757D02*
X021177Y010285D01*
X021177Y004300D02*
X020547Y003749D01*
X002831Y002725D02*
X002437Y003119D01*
X002437Y004930D01*
X002673Y005166D01*
X002673Y006111D01*
X002713Y006151D01*
X002713Y007332D01*
X002595Y007450D01*
X002673Y007529D01*
X002673Y008946D01*
X002240Y009379D01*
X002240Y009458D01*
D19*
X008933Y012725D02*
X010035Y011662D01*
X012043Y011662D01*
X012122Y011741D01*
X011965Y011977D02*
X012358Y011977D01*
X012555Y011781D01*
X012634Y011781D01*
X011965Y011977D02*
X011768Y011781D01*
X010114Y011781D01*
X009051Y012804D01*
X009051Y018277D01*
X008854Y018474D01*
X008224Y018474D01*
X007713Y019025D01*
X007634Y018710D02*
X007398Y018710D01*
X007122Y019025D01*
X007634Y018710D02*
X008067Y018277D01*
X008736Y018277D01*
X008933Y018080D01*
X008933Y012725D01*
X009248Y013670D02*
X009957Y013670D01*
X009248Y013670D02*
X009169Y013749D01*
X009169Y018710D01*
X008894Y019025D01*
D20*
X010902Y019379D02*
X013382Y019379D01*
X014130Y018592D01*
X014130Y017962D01*
X014130Y014970D01*
X014130Y014418D01*
X014051Y014340D01*
X013972Y014340D01*
X013854Y014222D01*
X013854Y013985D01*
X014130Y013710D01*
X014130Y013395D01*
X014130Y012765D01*
X013933Y012568D01*
X013815Y012568D01*
X014091Y012332D02*
X014091Y012017D01*
X013815Y011977D02*
X013815Y012253D01*
X014248Y012686D01*
X014248Y013001D01*
X014248Y015954D01*
X014248Y017804D01*
X014248Y018657D01*
X014261Y018671D01*
X013434Y019510D01*
X006362Y019510D01*
X005592Y018740D01*
X005592Y017322D01*
X005661Y017214D01*
X005469Y017138D02*
X005469Y017135D01*
X005469Y018806D01*
X006296Y019621D01*
X013480Y019621D01*
X014392Y018709D01*
X014392Y012638D01*
X014244Y012489D01*
X014091Y012332D01*
X014524Y012529D02*
X014642Y012411D01*
X014681Y012411D01*
X014524Y012529D02*
X014524Y018749D01*
X013539Y019733D01*
X006217Y019733D01*
X005350Y018867D01*
X005350Y016977D01*
X005114Y016741D01*
X003123Y016741D01*
X003098Y016766D01*
X005469Y017138D02*
X005665Y016901D01*
X005665Y016466D01*
X006257Y018174D02*
X006256Y018175D01*
X006256Y018316D01*
X006177Y018395D01*
X006177Y018592D01*
X006177Y019103D01*
X006453Y019379D01*
X006846Y019379D01*
X010902Y019379D01*
M02*
