G75*
G70*
%OFA0B0*%
%FSLAX24Y24*%
%IPPOS*%
%LPD*%
%AMOC8*
5,1,8,0,0,1.08239X$1,22.5*
%
%ADD10C,0.0059*%
%ADD11R,0.0394X0.0355*%
%ADD12R,0.0276X0.0276*%
%ADD13R,0.0621X0.0158*%
%ADD14R,0.0158X0.0621*%
%ADD15R,0.0473X0.0276*%
%ADD16R,0.0985X0.0631*%
%ADD17C,0.0394*%
%ADD18R,0.0355X0.0394*%
%ADD19R,0.0670X0.0591*%
%ADD20C,0.0473*%
%ADD21C,0.0110*%
%ADD22C,0.0063*%
%ADD23R,0.0367X0.0288*%
%ADD24C,0.0128*%
%ADD25C,0.0552*%
%ADD26C,0.0106*%
%ADD27C,0.0631*%
%ADD28R,0.0453X0.0453*%
%ADD29C,0.0453*%
%ADD30C,0.1464*%
%ADD31C,0.1424*%
D10*
X001217Y000206D02*
X021689Y000206D01*
X001217Y000206D01*
X001217Y020285D01*
X003500Y020285D01*
X003500Y019497D01*
X002004Y019497D01*
X002043Y008237D01*
X001374Y008237D01*
X001374Y006111D01*
X002043Y006111D01*
X002043Y000993D01*
X020902Y000993D01*
X020902Y003080D01*
X021217Y003080D01*
X021217Y006269D01*
X020902Y006269D01*
X020902Y010127D01*
X021689Y010127D01*
X021689Y011938D01*
X020902Y011938D01*
X020902Y019497D01*
X003579Y019497D01*
X003579Y020285D01*
X021689Y020285D01*
X021689Y000206D01*
X021689Y000263D02*
X001217Y000263D01*
X001217Y000321D02*
X021689Y000321D01*
X021689Y000378D02*
X001217Y000378D01*
X001217Y000436D02*
X021689Y000436D01*
X021689Y000494D02*
X001217Y000494D01*
X001217Y000551D02*
X021689Y000551D01*
X021689Y000609D02*
X001217Y000609D01*
X001217Y000666D02*
X021689Y000666D01*
X021689Y000724D02*
X001217Y000724D01*
X001217Y000781D02*
X021689Y000781D01*
X021689Y000839D02*
X001217Y000839D01*
X001217Y000896D02*
X021689Y000896D01*
X021689Y000954D02*
X001217Y000954D01*
X001217Y001012D02*
X002043Y001012D01*
X002043Y001069D02*
X001217Y001069D01*
X001217Y001127D02*
X002043Y001127D01*
X002043Y001184D02*
X001217Y001184D01*
X001217Y001242D02*
X002043Y001242D01*
X002043Y001299D02*
X001217Y001299D01*
X001217Y001357D02*
X002043Y001357D01*
X002043Y001414D02*
X001217Y001414D01*
X001217Y001472D02*
X002043Y001472D01*
X002043Y001530D02*
X001217Y001530D01*
X001217Y001587D02*
X002043Y001587D01*
X002043Y001645D02*
X001217Y001645D01*
X001217Y001702D02*
X002043Y001702D01*
X002043Y001760D02*
X001217Y001760D01*
X001217Y001817D02*
X002043Y001817D01*
X002043Y001875D02*
X001217Y001875D01*
X001217Y001932D02*
X002043Y001932D01*
X002043Y001990D02*
X001217Y001990D01*
X001217Y002048D02*
X002043Y002048D01*
X002043Y002105D02*
X001217Y002105D01*
X001217Y002163D02*
X002043Y002163D01*
X002043Y002220D02*
X001217Y002220D01*
X001217Y002278D02*
X002043Y002278D01*
X002043Y002335D02*
X001217Y002335D01*
X001217Y002393D02*
X002043Y002393D01*
X002043Y002450D02*
X001217Y002450D01*
X001217Y002508D02*
X002043Y002508D01*
X002043Y002566D02*
X001217Y002566D01*
X001217Y002623D02*
X002043Y002623D01*
X002043Y002681D02*
X001217Y002681D01*
X001217Y002738D02*
X002043Y002738D01*
X002043Y002796D02*
X001217Y002796D01*
X001217Y002853D02*
X002043Y002853D01*
X002043Y002911D02*
X001217Y002911D01*
X001217Y002968D02*
X002043Y002968D01*
X002043Y003026D02*
X001217Y003026D01*
X001217Y003084D02*
X002043Y003084D01*
X002043Y003141D02*
X001217Y003141D01*
X001217Y003199D02*
X002043Y003199D01*
X002043Y003256D02*
X001217Y003256D01*
X001217Y003314D02*
X002043Y003314D01*
X002043Y003371D02*
X001217Y003371D01*
X001217Y003429D02*
X002043Y003429D01*
X002043Y003486D02*
X001217Y003486D01*
X001217Y003544D02*
X002043Y003544D01*
X002043Y003602D02*
X001217Y003602D01*
X001217Y003659D02*
X002043Y003659D01*
X002043Y003717D02*
X001217Y003717D01*
X001217Y003774D02*
X002043Y003774D01*
X002043Y003832D02*
X001217Y003832D01*
X001217Y003889D02*
X002043Y003889D01*
X002043Y003947D02*
X001217Y003947D01*
X001217Y004004D02*
X002043Y004004D01*
X002043Y004062D02*
X001217Y004062D01*
X001217Y004120D02*
X002043Y004120D01*
X002043Y004177D02*
X001217Y004177D01*
X001217Y004235D02*
X002043Y004235D01*
X002043Y004292D02*
X001217Y004292D01*
X001217Y004350D02*
X002043Y004350D01*
X002043Y004407D02*
X001217Y004407D01*
X001217Y004465D02*
X002043Y004465D01*
X002043Y004522D02*
X001217Y004522D01*
X001217Y004580D02*
X002043Y004580D01*
X002043Y004638D02*
X001217Y004638D01*
X001217Y004695D02*
X002043Y004695D01*
X002043Y004753D02*
X001217Y004753D01*
X001217Y004810D02*
X002043Y004810D01*
X002043Y004868D02*
X001217Y004868D01*
X001217Y004925D02*
X002043Y004925D01*
X002043Y004983D02*
X001217Y004983D01*
X001217Y005040D02*
X002043Y005040D01*
X002043Y005098D02*
X001217Y005098D01*
X001217Y005156D02*
X002043Y005156D01*
X002043Y005213D02*
X001217Y005213D01*
X001217Y005271D02*
X002043Y005271D01*
X002043Y005328D02*
X001217Y005328D01*
X001217Y005386D02*
X002043Y005386D01*
X002043Y005443D02*
X001217Y005443D01*
X001217Y005501D02*
X002043Y005501D01*
X002043Y005558D02*
X001217Y005558D01*
X001217Y005616D02*
X002043Y005616D01*
X002043Y005674D02*
X001217Y005674D01*
X001217Y005731D02*
X002043Y005731D01*
X002043Y005789D02*
X001217Y005789D01*
X001217Y005846D02*
X002043Y005846D01*
X002043Y005904D02*
X001217Y005904D01*
X001217Y005961D02*
X002043Y005961D01*
X002043Y006019D02*
X001217Y006019D01*
X001217Y006076D02*
X002043Y006076D01*
X001374Y006134D02*
X001217Y006134D01*
X001217Y006192D02*
X001374Y006192D01*
X001374Y006249D02*
X001217Y006249D01*
X001217Y006307D02*
X001374Y006307D01*
X001374Y006364D02*
X001217Y006364D01*
X001217Y006422D02*
X001374Y006422D01*
X001374Y006479D02*
X001217Y006479D01*
X001217Y006537D02*
X001374Y006537D01*
X001374Y006594D02*
X001217Y006594D01*
X001217Y006652D02*
X001374Y006652D01*
X001374Y006710D02*
X001217Y006710D01*
X001217Y006767D02*
X001374Y006767D01*
X001374Y006825D02*
X001217Y006825D01*
X001217Y006882D02*
X001374Y006882D01*
X001374Y006940D02*
X001217Y006940D01*
X001217Y006997D02*
X001374Y006997D01*
X001374Y007055D02*
X001217Y007055D01*
X001217Y007112D02*
X001374Y007112D01*
X001374Y007170D02*
X001217Y007170D01*
X001217Y007228D02*
X001374Y007228D01*
X001374Y007285D02*
X001217Y007285D01*
X001217Y007343D02*
X001374Y007343D01*
X001374Y007400D02*
X001217Y007400D01*
X001217Y007458D02*
X001374Y007458D01*
X001374Y007515D02*
X001217Y007515D01*
X001217Y007573D02*
X001374Y007573D01*
X001374Y007630D02*
X001217Y007630D01*
X001217Y007688D02*
X001374Y007688D01*
X001374Y007746D02*
X001217Y007746D01*
X001217Y007803D02*
X001374Y007803D01*
X001374Y007861D02*
X001217Y007861D01*
X001217Y007918D02*
X001374Y007918D01*
X001374Y007976D02*
X001217Y007976D01*
X001217Y008033D02*
X001374Y008033D01*
X001374Y008091D02*
X001217Y008091D01*
X001217Y008148D02*
X001374Y008148D01*
X001374Y008206D02*
X001217Y008206D01*
X001217Y008264D02*
X002043Y008264D01*
X002043Y008321D02*
X001217Y008321D01*
X001217Y008379D02*
X002043Y008379D01*
X002043Y008436D02*
X001217Y008436D01*
X001217Y008494D02*
X002042Y008494D01*
X002042Y008551D02*
X001217Y008551D01*
X001217Y008609D02*
X002042Y008609D01*
X002042Y008666D02*
X001217Y008666D01*
X001217Y008724D02*
X002042Y008724D01*
X002041Y008782D02*
X001217Y008782D01*
X001217Y008839D02*
X002041Y008839D01*
X002041Y008897D02*
X001217Y008897D01*
X001217Y008954D02*
X002041Y008954D01*
X002041Y009012D02*
X001217Y009012D01*
X001217Y009069D02*
X002040Y009069D01*
X002040Y009127D02*
X001217Y009127D01*
X001217Y009184D02*
X002040Y009184D01*
X002040Y009242D02*
X001217Y009242D01*
X001217Y009300D02*
X002040Y009300D01*
X002039Y009357D02*
X001217Y009357D01*
X001217Y009415D02*
X002039Y009415D01*
X002039Y009472D02*
X001217Y009472D01*
X001217Y009530D02*
X002039Y009530D01*
X002039Y009587D02*
X001217Y009587D01*
X001217Y009645D02*
X002038Y009645D01*
X002038Y009702D02*
X001217Y009702D01*
X001217Y009760D02*
X002038Y009760D01*
X002038Y009818D02*
X001217Y009818D01*
X001217Y009875D02*
X002038Y009875D01*
X002037Y009933D02*
X001217Y009933D01*
X001217Y009990D02*
X002037Y009990D01*
X002037Y010048D02*
X001217Y010048D01*
X001217Y010105D02*
X002037Y010105D01*
X002037Y010163D02*
X001217Y010163D01*
X001217Y010220D02*
X002036Y010220D01*
X002036Y010278D02*
X001217Y010278D01*
X001217Y010336D02*
X002036Y010336D01*
X002036Y010393D02*
X001217Y010393D01*
X001217Y010451D02*
X002036Y010451D01*
X002035Y010508D02*
X001217Y010508D01*
X001217Y010566D02*
X002035Y010566D01*
X002035Y010623D02*
X001217Y010623D01*
X001217Y010681D02*
X002035Y010681D01*
X002035Y010738D02*
X001217Y010738D01*
X001217Y010796D02*
X002034Y010796D01*
X002034Y010854D02*
X001217Y010854D01*
X001217Y010911D02*
X002034Y010911D01*
X002034Y010969D02*
X001217Y010969D01*
X001217Y011026D02*
X002034Y011026D01*
X002033Y011084D02*
X001217Y011084D01*
X001217Y011141D02*
X002033Y011141D01*
X002033Y011199D02*
X001217Y011199D01*
X001217Y011256D02*
X002033Y011256D01*
X002033Y011314D02*
X001217Y011314D01*
X001217Y011372D02*
X002032Y011372D01*
X002032Y011429D02*
X001217Y011429D01*
X001217Y011487D02*
X002032Y011487D01*
X002032Y011544D02*
X001217Y011544D01*
X001217Y011602D02*
X002032Y011602D01*
X002031Y011659D02*
X001217Y011659D01*
X001217Y011717D02*
X002031Y011717D01*
X002031Y011774D02*
X001217Y011774D01*
X001217Y011832D02*
X002031Y011832D01*
X002031Y011890D02*
X001217Y011890D01*
X001217Y011947D02*
X002030Y011947D01*
X002030Y012005D02*
X001217Y012005D01*
X001217Y012062D02*
X002030Y012062D01*
X002030Y012120D02*
X001217Y012120D01*
X001217Y012177D02*
X002030Y012177D01*
X002029Y012235D02*
X001217Y012235D01*
X001217Y012292D02*
X002029Y012292D01*
X002029Y012350D02*
X001217Y012350D01*
X001217Y012408D02*
X002029Y012408D01*
X002029Y012465D02*
X001217Y012465D01*
X001217Y012523D02*
X002028Y012523D01*
X002028Y012580D02*
X001217Y012580D01*
X001217Y012638D02*
X002028Y012638D01*
X002028Y012695D02*
X001217Y012695D01*
X001217Y012753D02*
X002028Y012753D01*
X002027Y012810D02*
X001217Y012810D01*
X001217Y012868D02*
X002027Y012868D01*
X002027Y012926D02*
X001217Y012926D01*
X001217Y012983D02*
X002027Y012983D01*
X002027Y013041D02*
X001217Y013041D01*
X001217Y013098D02*
X002026Y013098D01*
X002026Y013156D02*
X001217Y013156D01*
X001217Y013213D02*
X002026Y013213D01*
X002026Y013271D02*
X001217Y013271D01*
X001217Y013328D02*
X002026Y013328D01*
X002025Y013386D02*
X001217Y013386D01*
X001217Y013444D02*
X002025Y013444D01*
X002025Y013501D02*
X001217Y013501D01*
X001217Y013559D02*
X002025Y013559D01*
X002025Y013616D02*
X001217Y013616D01*
X001217Y013674D02*
X002024Y013674D01*
X002024Y013731D02*
X001217Y013731D01*
X001217Y013789D02*
X002024Y013789D01*
X002024Y013846D02*
X001217Y013846D01*
X001217Y013904D02*
X002024Y013904D01*
X002023Y013962D02*
X001217Y013962D01*
X001217Y014019D02*
X002023Y014019D01*
X002023Y014077D02*
X001217Y014077D01*
X001217Y014134D02*
X002023Y014134D01*
X002023Y014192D02*
X001217Y014192D01*
X001217Y014249D02*
X002022Y014249D01*
X002022Y014307D02*
X001217Y014307D01*
X001217Y014364D02*
X002022Y014364D01*
X002022Y014422D02*
X001217Y014422D01*
X001217Y014480D02*
X002022Y014480D01*
X002021Y014537D02*
X001217Y014537D01*
X001217Y014595D02*
X002021Y014595D01*
X002021Y014652D02*
X001217Y014652D01*
X001217Y014710D02*
X002021Y014710D01*
X002021Y014767D02*
X001217Y014767D01*
X001217Y014825D02*
X002020Y014825D01*
X002020Y014882D02*
X001217Y014882D01*
X001217Y014940D02*
X002020Y014940D01*
X002020Y014998D02*
X001217Y014998D01*
X001217Y015055D02*
X002019Y015055D01*
X002019Y015113D02*
X001217Y015113D01*
X001217Y015170D02*
X002019Y015170D01*
X002019Y015228D02*
X001217Y015228D01*
X001217Y015285D02*
X002019Y015285D01*
X002018Y015343D02*
X001217Y015343D01*
X001217Y015400D02*
X002018Y015400D01*
X002018Y015458D02*
X001217Y015458D01*
X001217Y015516D02*
X002018Y015516D01*
X002018Y015573D02*
X001217Y015573D01*
X001217Y015631D02*
X002017Y015631D01*
X002017Y015688D02*
X001217Y015688D01*
X001217Y015746D02*
X002017Y015746D01*
X002017Y015803D02*
X001217Y015803D01*
X001217Y015861D02*
X002017Y015861D01*
X002016Y015918D02*
X001217Y015918D01*
X001217Y015976D02*
X002016Y015976D01*
X002016Y016034D02*
X001217Y016034D01*
X001217Y016091D02*
X002016Y016091D01*
X002016Y016149D02*
X001217Y016149D01*
X001217Y016206D02*
X002015Y016206D01*
X002015Y016264D02*
X001217Y016264D01*
X001217Y016321D02*
X002015Y016321D01*
X002015Y016379D02*
X001217Y016379D01*
X001217Y016436D02*
X002015Y016436D01*
X002014Y016494D02*
X001217Y016494D01*
X001217Y016552D02*
X002014Y016552D01*
X002014Y016609D02*
X001217Y016609D01*
X001217Y016667D02*
X002014Y016667D01*
X002014Y016724D02*
X001217Y016724D01*
X001217Y016782D02*
X002013Y016782D01*
X002013Y016839D02*
X001217Y016839D01*
X001217Y016897D02*
X002013Y016897D01*
X002013Y016954D02*
X001217Y016954D01*
X001217Y017012D02*
X002013Y017012D01*
X002012Y017070D02*
X001217Y017070D01*
X001217Y017127D02*
X002012Y017127D01*
X002012Y017185D02*
X001217Y017185D01*
X001217Y017242D02*
X002012Y017242D01*
X002012Y017300D02*
X001217Y017300D01*
X001217Y017357D02*
X002011Y017357D01*
X002011Y017415D02*
X001217Y017415D01*
X001217Y017472D02*
X002011Y017472D01*
X002011Y017530D02*
X001217Y017530D01*
X001217Y017588D02*
X002011Y017588D01*
X002010Y017645D02*
X001217Y017645D01*
X001217Y017703D02*
X002010Y017703D01*
X002010Y017760D02*
X001217Y017760D01*
X001217Y017818D02*
X002010Y017818D01*
X002010Y017875D02*
X001217Y017875D01*
X001217Y017933D02*
X002009Y017933D01*
X002009Y017990D02*
X001217Y017990D01*
X001217Y018048D02*
X002009Y018048D01*
X002009Y018106D02*
X001217Y018106D01*
X001217Y018163D02*
X002009Y018163D01*
X002008Y018221D02*
X001217Y018221D01*
X001217Y018278D02*
X002008Y018278D01*
X002008Y018336D02*
X001217Y018336D01*
X001217Y018393D02*
X002008Y018393D01*
X002008Y018451D02*
X001217Y018451D01*
X001217Y018508D02*
X002007Y018508D01*
X002007Y018566D02*
X001217Y018566D01*
X001217Y018624D02*
X002007Y018624D01*
X002007Y018681D02*
X001217Y018681D01*
X001217Y018739D02*
X002007Y018739D01*
X002006Y018796D02*
X001217Y018796D01*
X001217Y018854D02*
X002006Y018854D01*
X002006Y018911D02*
X001217Y018911D01*
X001217Y018969D02*
X002006Y018969D01*
X002006Y019026D02*
X001217Y019026D01*
X001217Y019084D02*
X002005Y019084D01*
X002005Y019142D02*
X001217Y019142D01*
X001217Y019199D02*
X002005Y019199D01*
X002005Y019257D02*
X001217Y019257D01*
X001217Y019314D02*
X002005Y019314D01*
X002004Y019372D02*
X001217Y019372D01*
X001217Y019429D02*
X002004Y019429D01*
X002004Y019487D02*
X001217Y019487D01*
X001217Y019544D02*
X003500Y019544D01*
X003500Y019602D02*
X001217Y019602D01*
X001217Y019660D02*
X003500Y019660D01*
X003500Y019717D02*
X001217Y019717D01*
X001217Y019775D02*
X003500Y019775D01*
X003500Y019832D02*
X001217Y019832D01*
X001217Y019890D02*
X003500Y019890D01*
X003500Y019947D02*
X001217Y019947D01*
X001217Y020005D02*
X003500Y020005D01*
X003500Y020062D02*
X001217Y020062D01*
X001217Y020120D02*
X003500Y020120D01*
X003500Y020177D02*
X001217Y020177D01*
X001217Y020235D02*
X003500Y020235D01*
X003579Y020235D02*
X021689Y020235D01*
X021689Y020177D02*
X003579Y020177D01*
X003579Y020120D02*
X021689Y020120D01*
X021689Y020062D02*
X003579Y020062D01*
X003579Y020005D02*
X021689Y020005D01*
X021689Y019947D02*
X003579Y019947D01*
X003579Y019890D02*
X021689Y019890D01*
X021689Y019832D02*
X003579Y019832D01*
X003579Y019775D02*
X021689Y019775D01*
X021689Y019717D02*
X003579Y019717D01*
X003579Y019660D02*
X021689Y019660D01*
X021689Y019602D02*
X003579Y019602D01*
X003579Y019544D02*
X021689Y019544D01*
X021689Y019487D02*
X020902Y019487D01*
X020902Y019429D02*
X021689Y019429D01*
X021689Y019372D02*
X020902Y019372D01*
X020902Y019314D02*
X021689Y019314D01*
X021689Y019257D02*
X020902Y019257D01*
X020902Y019199D02*
X021689Y019199D01*
X021689Y019142D02*
X020902Y019142D01*
X020902Y019084D02*
X021689Y019084D01*
X021689Y019026D02*
X020902Y019026D01*
X020902Y018969D02*
X021689Y018969D01*
X021689Y018911D02*
X020902Y018911D01*
X020902Y018854D02*
X021689Y018854D01*
X021689Y018796D02*
X020902Y018796D01*
X020902Y018739D02*
X021689Y018739D01*
X021689Y018681D02*
X020902Y018681D01*
X020902Y018624D02*
X021689Y018624D01*
X021689Y018566D02*
X020902Y018566D01*
X020902Y018508D02*
X021689Y018508D01*
X021689Y018451D02*
X020902Y018451D01*
X020902Y018393D02*
X021689Y018393D01*
X021689Y018336D02*
X020902Y018336D01*
X020902Y018278D02*
X021689Y018278D01*
X021689Y018221D02*
X020902Y018221D01*
X020902Y018163D02*
X021689Y018163D01*
X021689Y018106D02*
X020902Y018106D01*
X020902Y018048D02*
X021689Y018048D01*
X021689Y017990D02*
X020902Y017990D01*
X020902Y017933D02*
X021689Y017933D01*
X021689Y017875D02*
X020902Y017875D01*
X020902Y017818D02*
X021689Y017818D01*
X021689Y017760D02*
X020902Y017760D01*
X020902Y017703D02*
X021689Y017703D01*
X021689Y017645D02*
X020902Y017645D01*
X020902Y017588D02*
X021689Y017588D01*
X021689Y017530D02*
X020902Y017530D01*
X020902Y017472D02*
X021689Y017472D01*
X021689Y017415D02*
X020902Y017415D01*
X020902Y017357D02*
X021689Y017357D01*
X021689Y017300D02*
X020902Y017300D01*
X020902Y017242D02*
X021689Y017242D01*
X021689Y017185D02*
X020902Y017185D01*
X020902Y017127D02*
X021689Y017127D01*
X021689Y017070D02*
X020902Y017070D01*
X020902Y017012D02*
X021689Y017012D01*
X021689Y016954D02*
X020902Y016954D01*
X020902Y016897D02*
X021689Y016897D01*
X021689Y016839D02*
X020902Y016839D01*
X020902Y016782D02*
X021689Y016782D01*
X021689Y016724D02*
X020902Y016724D01*
X020902Y016667D02*
X021689Y016667D01*
X021689Y016609D02*
X020902Y016609D01*
X020902Y016552D02*
X021689Y016552D01*
X021689Y016494D02*
X020902Y016494D01*
X020902Y016436D02*
X021689Y016436D01*
X021689Y016379D02*
X020902Y016379D01*
X020902Y016321D02*
X021689Y016321D01*
X021689Y016264D02*
X020902Y016264D01*
X020902Y016206D02*
X021689Y016206D01*
X021689Y016149D02*
X020902Y016149D01*
X020902Y016091D02*
X021689Y016091D01*
X021689Y016034D02*
X020902Y016034D01*
X020902Y015976D02*
X021689Y015976D01*
X021689Y015918D02*
X020902Y015918D01*
X020902Y015861D02*
X021689Y015861D01*
X021689Y015803D02*
X020902Y015803D01*
X020902Y015746D02*
X021689Y015746D01*
X021689Y015688D02*
X020902Y015688D01*
X020902Y015631D02*
X021689Y015631D01*
X021689Y015573D02*
X020902Y015573D01*
X020902Y015516D02*
X021689Y015516D01*
X021689Y015458D02*
X020902Y015458D01*
X020902Y015400D02*
X021689Y015400D01*
X021689Y015343D02*
X020902Y015343D01*
X020902Y015285D02*
X021689Y015285D01*
X021689Y015228D02*
X020902Y015228D01*
X020902Y015170D02*
X021689Y015170D01*
X021689Y015113D02*
X020902Y015113D01*
X020902Y015055D02*
X021689Y015055D01*
X021689Y014998D02*
X020902Y014998D01*
X020902Y014940D02*
X021689Y014940D01*
X021689Y014882D02*
X020902Y014882D01*
X020902Y014825D02*
X021689Y014825D01*
X021689Y014767D02*
X020902Y014767D01*
X020902Y014710D02*
X021689Y014710D01*
X021689Y014652D02*
X020902Y014652D01*
X020902Y014595D02*
X021689Y014595D01*
X021689Y014537D02*
X020902Y014537D01*
X020902Y014480D02*
X021689Y014480D01*
X021689Y014422D02*
X020902Y014422D01*
X020902Y014364D02*
X021689Y014364D01*
X021689Y014307D02*
X020902Y014307D01*
X020902Y014249D02*
X021689Y014249D01*
X021689Y014192D02*
X020902Y014192D01*
X020902Y014134D02*
X021689Y014134D01*
X021689Y014077D02*
X020902Y014077D01*
X020902Y014019D02*
X021689Y014019D01*
X021689Y013962D02*
X020902Y013962D01*
X020902Y013904D02*
X021689Y013904D01*
X021689Y013846D02*
X020902Y013846D01*
X020902Y013789D02*
X021689Y013789D01*
X021689Y013731D02*
X020902Y013731D01*
X020902Y013674D02*
X021689Y013674D01*
X021689Y013616D02*
X020902Y013616D01*
X020902Y013559D02*
X021689Y013559D01*
X021689Y013501D02*
X020902Y013501D01*
X020902Y013444D02*
X021689Y013444D01*
X021689Y013386D02*
X020902Y013386D01*
X020902Y013328D02*
X021689Y013328D01*
X021689Y013271D02*
X020902Y013271D01*
X020902Y013213D02*
X021689Y013213D01*
X021689Y013156D02*
X020902Y013156D01*
X020902Y013098D02*
X021689Y013098D01*
X021689Y013041D02*
X020902Y013041D01*
X020902Y012983D02*
X021689Y012983D01*
X021689Y012926D02*
X020902Y012926D01*
X020902Y012868D02*
X021689Y012868D01*
X021689Y012810D02*
X020902Y012810D01*
X020902Y012753D02*
X021689Y012753D01*
X021689Y012695D02*
X020902Y012695D01*
X020902Y012638D02*
X021689Y012638D01*
X021689Y012580D02*
X020902Y012580D01*
X020902Y012523D02*
X021689Y012523D01*
X021689Y012465D02*
X020902Y012465D01*
X020902Y012408D02*
X021689Y012408D01*
X021689Y012350D02*
X020902Y012350D01*
X020902Y012292D02*
X021689Y012292D01*
X021689Y012235D02*
X020902Y012235D01*
X020902Y012177D02*
X021689Y012177D01*
X021689Y012120D02*
X020902Y012120D01*
X020902Y012062D02*
X021689Y012062D01*
X021689Y012005D02*
X020902Y012005D01*
X020902Y011947D02*
X021689Y011947D01*
X021689Y010105D02*
X020902Y010105D01*
X020902Y010048D02*
X021689Y010048D01*
X021689Y009990D02*
X020902Y009990D01*
X020902Y009933D02*
X021689Y009933D01*
X021689Y009875D02*
X020902Y009875D01*
X020902Y009818D02*
X021689Y009818D01*
X021689Y009760D02*
X020902Y009760D01*
X020902Y009702D02*
X021689Y009702D01*
X021689Y009645D02*
X020902Y009645D01*
X020902Y009587D02*
X021689Y009587D01*
X021689Y009530D02*
X020902Y009530D01*
X020902Y009472D02*
X021689Y009472D01*
X021689Y009415D02*
X020902Y009415D01*
X020902Y009357D02*
X021689Y009357D01*
X021689Y009300D02*
X020902Y009300D01*
X020902Y009242D02*
X021689Y009242D01*
X021689Y009184D02*
X020902Y009184D01*
X020902Y009127D02*
X021689Y009127D01*
X021689Y009069D02*
X020902Y009069D01*
X020902Y009012D02*
X021689Y009012D01*
X021689Y008954D02*
X020902Y008954D01*
X020902Y008897D02*
X021689Y008897D01*
X021689Y008839D02*
X020902Y008839D01*
X020902Y008782D02*
X021689Y008782D01*
X021689Y008724D02*
X020902Y008724D01*
X020902Y008666D02*
X021689Y008666D01*
X021689Y008609D02*
X020902Y008609D01*
X020902Y008551D02*
X021689Y008551D01*
X021689Y008494D02*
X020902Y008494D01*
X020902Y008436D02*
X021689Y008436D01*
X021689Y008379D02*
X020902Y008379D01*
X020902Y008321D02*
X021689Y008321D01*
X021689Y008264D02*
X020902Y008264D01*
X020902Y008206D02*
X021689Y008206D01*
X021689Y008148D02*
X020902Y008148D01*
X020902Y008091D02*
X021689Y008091D01*
X021689Y008033D02*
X020902Y008033D01*
X020902Y007976D02*
X021689Y007976D01*
X021689Y007918D02*
X020902Y007918D01*
X020902Y007861D02*
X021689Y007861D01*
X021689Y007803D02*
X020902Y007803D01*
X020902Y007746D02*
X021689Y007746D01*
X021689Y007688D02*
X020902Y007688D01*
X020902Y007630D02*
X021689Y007630D01*
X021689Y007573D02*
X020902Y007573D01*
X020902Y007515D02*
X021689Y007515D01*
X021689Y007458D02*
X020902Y007458D01*
X020902Y007400D02*
X021689Y007400D01*
X021689Y007343D02*
X020902Y007343D01*
X020902Y007285D02*
X021689Y007285D01*
X021689Y007228D02*
X020902Y007228D01*
X020902Y007170D02*
X021689Y007170D01*
X021689Y007112D02*
X020902Y007112D01*
X020902Y007055D02*
X021689Y007055D01*
X021689Y006997D02*
X020902Y006997D01*
X020902Y006940D02*
X021689Y006940D01*
X021689Y006882D02*
X020902Y006882D01*
X020902Y006825D02*
X021689Y006825D01*
X021689Y006767D02*
X020902Y006767D01*
X020902Y006710D02*
X021689Y006710D01*
X021689Y006652D02*
X020902Y006652D01*
X020902Y006594D02*
X021689Y006594D01*
X021689Y006537D02*
X020902Y006537D01*
X020902Y006479D02*
X021689Y006479D01*
X021689Y006422D02*
X020902Y006422D01*
X020902Y006364D02*
X021689Y006364D01*
X021689Y006307D02*
X020902Y006307D01*
X021217Y006249D02*
X021689Y006249D01*
X021689Y006192D02*
X021217Y006192D01*
X021217Y006134D02*
X021689Y006134D01*
X021689Y006076D02*
X021217Y006076D01*
X021217Y006019D02*
X021689Y006019D01*
X021689Y005961D02*
X021217Y005961D01*
X021217Y005904D02*
X021689Y005904D01*
X021689Y005846D02*
X021217Y005846D01*
X021217Y005789D02*
X021689Y005789D01*
X021689Y005731D02*
X021217Y005731D01*
X021217Y005674D02*
X021689Y005674D01*
X021689Y005616D02*
X021217Y005616D01*
X021217Y005558D02*
X021689Y005558D01*
X021689Y005501D02*
X021217Y005501D01*
X021217Y005443D02*
X021689Y005443D01*
X021689Y005386D02*
X021217Y005386D01*
X021217Y005328D02*
X021689Y005328D01*
X021689Y005271D02*
X021217Y005271D01*
X021217Y005213D02*
X021689Y005213D01*
X021689Y005156D02*
X021217Y005156D01*
X021217Y005098D02*
X021689Y005098D01*
X021689Y005040D02*
X021217Y005040D01*
X021217Y004983D02*
X021689Y004983D01*
X021689Y004925D02*
X021217Y004925D01*
X021217Y004868D02*
X021689Y004868D01*
X021689Y004810D02*
X021217Y004810D01*
X021217Y004753D02*
X021689Y004753D01*
X021689Y004695D02*
X021217Y004695D01*
X021217Y004638D02*
X021689Y004638D01*
X021689Y004580D02*
X021217Y004580D01*
X021217Y004522D02*
X021689Y004522D01*
X021689Y004465D02*
X021217Y004465D01*
X021217Y004407D02*
X021689Y004407D01*
X021689Y004350D02*
X021217Y004350D01*
X021217Y004292D02*
X021689Y004292D01*
X021689Y004235D02*
X021217Y004235D01*
X021217Y004177D02*
X021689Y004177D01*
X021689Y004120D02*
X021217Y004120D01*
X021217Y004062D02*
X021689Y004062D01*
X021689Y004004D02*
X021217Y004004D01*
X021217Y003947D02*
X021689Y003947D01*
X021689Y003889D02*
X021217Y003889D01*
X021217Y003832D02*
X021689Y003832D01*
X021689Y003774D02*
X021217Y003774D01*
X021217Y003717D02*
X021689Y003717D01*
X021689Y003659D02*
X021217Y003659D01*
X021217Y003602D02*
X021689Y003602D01*
X021689Y003544D02*
X021217Y003544D01*
X021217Y003486D02*
X021689Y003486D01*
X021689Y003429D02*
X021217Y003429D01*
X021217Y003371D02*
X021689Y003371D01*
X021689Y003314D02*
X021217Y003314D01*
X021217Y003256D02*
X021689Y003256D01*
X021689Y003199D02*
X021217Y003199D01*
X021217Y003141D02*
X021689Y003141D01*
X021689Y003084D02*
X021217Y003084D01*
X020902Y003026D02*
X021689Y003026D01*
X021689Y002968D02*
X020902Y002968D01*
X020902Y002911D02*
X021689Y002911D01*
X021689Y002853D02*
X020902Y002853D01*
X020902Y002796D02*
X021689Y002796D01*
X021689Y002738D02*
X020902Y002738D01*
X020902Y002681D02*
X021689Y002681D01*
X021689Y002623D02*
X020902Y002623D01*
X020902Y002566D02*
X021689Y002566D01*
X021689Y002508D02*
X020902Y002508D01*
X020902Y002450D02*
X021689Y002450D01*
X021689Y002393D02*
X020902Y002393D01*
X020902Y002335D02*
X021689Y002335D01*
X021689Y002278D02*
X020902Y002278D01*
X020902Y002220D02*
X021689Y002220D01*
X021689Y002163D02*
X020902Y002163D01*
X020902Y002105D02*
X021689Y002105D01*
X021689Y002048D02*
X020902Y002048D01*
X020902Y001990D02*
X021689Y001990D01*
X021689Y001932D02*
X020902Y001932D01*
X020902Y001875D02*
X021689Y001875D01*
X021689Y001817D02*
X020902Y001817D01*
X020902Y001760D02*
X021689Y001760D01*
X021689Y001702D02*
X020902Y001702D01*
X020902Y001645D02*
X021689Y001645D01*
X021689Y001587D02*
X020902Y001587D01*
X020902Y001530D02*
X021689Y001530D01*
X021689Y001472D02*
X020902Y001472D01*
X020902Y001414D02*
X021689Y001414D01*
X021689Y001357D02*
X020902Y001357D01*
X020902Y001299D02*
X021689Y001299D01*
X021689Y001242D02*
X020902Y001242D01*
X020902Y001184D02*
X021689Y001184D01*
X021689Y001127D02*
X020902Y001127D01*
X020902Y001069D02*
X021689Y001069D01*
X021689Y001012D02*
X020902Y001012D01*
D11*
X018643Y001938D03*
X018043Y001938D03*
X018043Y004379D03*
X018643Y004379D03*
X018052Y005285D03*
X017452Y005285D03*
X013918Y007686D03*
X013318Y007686D03*
X002343Y007922D03*
X001743Y007922D03*
D12*
X002358Y007453D03*
X002358Y007053D03*
X001689Y006981D03*
X001689Y006581D03*
X003028Y007565D03*
X003028Y007965D03*
X005390Y009455D03*
X005390Y009855D03*
X005590Y012017D03*
X005190Y012017D03*
X005190Y013355D03*
X005590Y013355D03*
X005390Y014218D03*
X005390Y014618D03*
X006528Y007804D03*
X006928Y007804D03*
X006843Y007253D03*
X007243Y007253D03*
X008261Y006348D03*
X008661Y006348D03*
X009284Y006348D03*
X009684Y006348D03*
X011056Y005914D03*
X011456Y005914D03*
X011456Y005324D03*
X011056Y005324D03*
X011056Y004733D03*
X011456Y004733D03*
X011259Y003946D03*
X010859Y003946D03*
X012749Y003749D03*
X013149Y003749D03*
X013149Y004261D03*
X012749Y004261D03*
X012749Y005088D03*
X013149Y005088D03*
X013303Y006266D03*
X013303Y006666D03*
X014721Y006666D03*
X014721Y006266D03*
X015111Y005718D03*
X015511Y005718D03*
X015550Y005127D03*
X015150Y005127D03*
X015111Y004458D03*
X015511Y004458D03*
X017437Y003319D03*
X017437Y002919D03*
X019327Y003083D03*
X019327Y002683D03*
X017834Y005914D03*
X017434Y005914D03*
X019127Y007489D03*
X019527Y007489D03*
X020548Y007489D03*
X020948Y007489D03*
X020669Y008552D03*
X020269Y008552D03*
X018697Y009061D03*
X018697Y009461D03*
X017952Y010009D03*
X017552Y010009D03*
X017828Y014340D03*
X018228Y014340D03*
X018188Y015324D03*
X017788Y015324D03*
X014091Y002611D03*
X014091Y002211D03*
X013303Y002211D03*
X013303Y002611D03*
X005550Y001859D03*
X005150Y001859D03*
X004212Y002351D03*
X003812Y002351D03*
X003264Y002329D03*
X003264Y002729D03*
X002834Y003040D03*
X002434Y003040D03*
D13*
X006993Y011186D03*
X006993Y011383D03*
X006993Y011580D03*
X006993Y011777D03*
X006993Y011974D03*
X006993Y012170D03*
X006993Y012367D03*
X006993Y012564D03*
X006993Y012761D03*
X006993Y012958D03*
X006993Y013155D03*
X006993Y013351D03*
X006993Y013548D03*
X006993Y013745D03*
X006993Y013942D03*
X006993Y014139D03*
X006993Y014336D03*
X006993Y014533D03*
X006993Y014729D03*
X006993Y014926D03*
X006993Y015123D03*
X006993Y015320D03*
X006993Y015517D03*
X006993Y015714D03*
X006993Y015911D03*
X013086Y015911D03*
X013086Y015714D03*
X013086Y015517D03*
X013086Y015320D03*
X013086Y015123D03*
X013086Y014926D03*
X013086Y014729D03*
X013086Y014533D03*
X013086Y014336D03*
X013086Y014139D03*
X013086Y013942D03*
X013086Y013745D03*
X013086Y013548D03*
X013086Y013351D03*
X013086Y013155D03*
X013086Y012958D03*
X013086Y012761D03*
X013086Y012564D03*
X013086Y012367D03*
X013086Y012170D03*
X013086Y011974D03*
X013086Y011777D03*
X013086Y011580D03*
X013086Y011383D03*
X013086Y011186D03*
D14*
X012402Y010502D03*
X012205Y010502D03*
X012008Y010502D03*
X011811Y010502D03*
X011614Y010502D03*
X011417Y010502D03*
X011221Y010502D03*
X011024Y010502D03*
X010827Y010502D03*
X010630Y010502D03*
X010433Y010502D03*
X010236Y010502D03*
X010039Y010502D03*
X009843Y010502D03*
X009646Y010502D03*
X009449Y010502D03*
X009252Y010502D03*
X009055Y010502D03*
X008858Y010502D03*
X008661Y010502D03*
X008465Y010502D03*
X008268Y010502D03*
X008071Y010502D03*
X007874Y010502D03*
X007677Y010502D03*
X007677Y016595D03*
X007874Y016595D03*
X008071Y016595D03*
X008268Y016595D03*
X008465Y016595D03*
X008661Y016595D03*
X008858Y016595D03*
X009055Y016595D03*
X009252Y016595D03*
X009449Y016595D03*
X009646Y016595D03*
X009843Y016595D03*
X010039Y016595D03*
X010236Y016595D03*
X010433Y016595D03*
X010630Y016595D03*
X010827Y016595D03*
X011024Y016595D03*
X011221Y016595D03*
X011417Y016595D03*
X011614Y016595D03*
X011811Y016595D03*
X012008Y016595D03*
X012205Y016595D03*
X012402Y016595D03*
D15*
X005587Y012883D03*
X005587Y012489D03*
D16*
X003362Y012686D03*
D17*
X002996Y015666D03*
X002996Y017399D03*
D18*
X002437Y016766D03*
X002437Y016166D03*
X002417Y014182D03*
X003165Y014182D03*
X002791Y013355D03*
X002417Y012017D03*
X003165Y012017D03*
X002791Y011190D03*
X014130Y006884D03*
X014130Y006284D03*
X018028Y003419D03*
X018028Y002819D03*
X018776Y002662D03*
X018776Y003262D03*
X019406Y003764D03*
X019406Y004364D03*
X020154Y010678D03*
X020528Y011505D03*
X019780Y011505D03*
D19*
X012516Y007686D03*
X011335Y007686D03*
D20*
X017555Y006466D03*
X018343Y006466D03*
X020469Y005127D03*
X020469Y004340D03*
X020469Y003277D03*
X020469Y002489D03*
D21*
X020787Y005833D02*
X020787Y006163D01*
X020787Y005833D02*
X020307Y005833D01*
X020307Y006163D01*
X020787Y006163D01*
X020787Y005942D02*
X020307Y005942D01*
X020307Y006051D02*
X020787Y006051D01*
X020787Y006160D02*
X020307Y006160D01*
X020787Y006533D02*
X020787Y006863D01*
X020787Y006533D02*
X020307Y006533D01*
X020307Y006863D01*
X020787Y006863D01*
X020787Y006642D02*
X020307Y006642D01*
X020307Y006751D02*
X020787Y006751D01*
X020787Y006860D02*
X020307Y006860D01*
X019764Y006863D02*
X019764Y006533D01*
X019284Y006533D01*
X019284Y006863D01*
X019764Y006863D01*
X019764Y006642D02*
X019284Y006642D01*
X019284Y006751D02*
X019764Y006751D01*
X019764Y006860D02*
X019284Y006860D01*
X019764Y006163D02*
X019764Y005833D01*
X019284Y005833D01*
X019284Y006163D01*
X019764Y006163D01*
X019764Y005942D02*
X019284Y005942D01*
X019284Y006051D02*
X019764Y006051D01*
X019764Y006160D02*
X019284Y006160D01*
D22*
X019257Y007826D02*
X019257Y008098D01*
X019257Y007826D02*
X019003Y007826D01*
X019003Y008098D01*
X019257Y008098D01*
X019257Y007888D02*
X019003Y007888D01*
X019003Y007950D02*
X019257Y007950D01*
X019257Y008012D02*
X019003Y008012D01*
X019003Y008074D02*
X019257Y008074D01*
X019651Y008098D02*
X019651Y007826D01*
X019397Y007826D01*
X019397Y008098D01*
X019651Y008098D01*
X019651Y007888D02*
X019397Y007888D01*
X019397Y007950D02*
X019651Y007950D01*
X019651Y008012D02*
X019397Y008012D01*
X019397Y008074D02*
X019651Y008074D01*
X020666Y008094D02*
X020666Y007822D01*
X020412Y007822D01*
X020412Y008094D01*
X020666Y008094D01*
X020666Y007884D02*
X020412Y007884D01*
X020412Y007946D02*
X020666Y007946D01*
X020666Y008008D02*
X020412Y008008D01*
X020412Y008070D02*
X020666Y008070D01*
X021060Y008094D02*
X021060Y007822D01*
X020806Y007822D01*
X020806Y008094D01*
X021060Y008094D01*
X021060Y007884D02*
X020806Y007884D01*
X020806Y007946D02*
X021060Y007946D01*
X021060Y008008D02*
X020806Y008008D01*
X020806Y008070D02*
X021060Y008070D01*
X020801Y009427D02*
X020529Y009427D01*
X020801Y009427D02*
X020801Y009173D01*
X020529Y009173D01*
X020529Y009427D01*
X020529Y009235D02*
X020801Y009235D01*
X020801Y009297D02*
X020529Y009297D01*
X020529Y009359D02*
X020801Y009359D01*
X020801Y009421D02*
X020529Y009421D01*
X020408Y009173D02*
X020136Y009173D01*
X020136Y009427D01*
X020408Y009427D01*
X020408Y009173D01*
X020408Y009235D02*
X020136Y009235D01*
X020136Y009297D02*
X020408Y009297D01*
X020408Y009359D02*
X020136Y009359D01*
X020136Y009421D02*
X020408Y009421D01*
X020408Y009567D02*
X020136Y009567D01*
X020136Y009821D01*
X020408Y009821D01*
X020408Y009567D01*
X020408Y009629D02*
X020136Y009629D01*
X020136Y009691D02*
X020408Y009691D01*
X020408Y009753D02*
X020136Y009753D01*
X020136Y009815D02*
X020408Y009815D01*
X020529Y009821D02*
X020801Y009821D01*
X020801Y009567D01*
X020529Y009567D01*
X020529Y009821D01*
X020529Y009629D02*
X020801Y009629D01*
X020801Y009691D02*
X020529Y009691D01*
X020529Y009753D02*
X020801Y009753D01*
X020801Y009815D02*
X020529Y009815D01*
X020538Y009952D02*
X020538Y010224D01*
X020792Y010224D01*
X020792Y009952D01*
X020538Y009952D01*
X020538Y010014D02*
X020792Y010014D01*
X020792Y010076D02*
X020538Y010076D01*
X020538Y010138D02*
X020792Y010138D01*
X020792Y010200D02*
X020538Y010200D01*
X020145Y010224D02*
X020145Y009952D01*
X020145Y010224D02*
X020399Y010224D01*
X020399Y009952D01*
X020145Y009952D01*
X020145Y010014D02*
X020399Y010014D01*
X020399Y010076D02*
X020145Y010076D01*
X020145Y010138D02*
X020399Y010138D01*
X020399Y010200D02*
X020145Y010200D01*
X020320Y011841D02*
X020320Y012113D01*
X020320Y011841D02*
X020066Y011841D01*
X020066Y012113D01*
X020320Y012113D01*
X020320Y011903D02*
X020066Y011903D01*
X020066Y011965D02*
X020320Y011965D01*
X020320Y012027D02*
X020066Y012027D01*
X020066Y012089D02*
X020320Y012089D01*
X020066Y012314D02*
X020066Y012586D01*
X020320Y012586D01*
X020320Y012314D01*
X020066Y012314D01*
X020066Y012376D02*
X020320Y012376D01*
X020320Y012438D02*
X020066Y012438D01*
X020066Y012500D02*
X020320Y012500D01*
X020320Y012562D02*
X020066Y012562D01*
X019672Y012586D02*
X019672Y012314D01*
X019672Y012586D02*
X019926Y012586D01*
X019926Y012314D01*
X019672Y012314D01*
X019672Y012376D02*
X019926Y012376D01*
X019926Y012438D02*
X019672Y012438D01*
X019672Y012500D02*
X019926Y012500D01*
X019926Y012562D02*
X019672Y012562D01*
X019926Y012113D02*
X019926Y011841D01*
X019672Y011841D01*
X019672Y012113D01*
X019926Y012113D01*
X019926Y011903D02*
X019672Y011903D01*
X019672Y011965D02*
X019926Y011965D01*
X019926Y012027D02*
X019672Y012027D01*
X019672Y012089D02*
X019926Y012089D01*
X019939Y015805D02*
X020211Y015805D01*
X020211Y015551D01*
X019939Y015551D01*
X019939Y015805D01*
X019939Y015613D02*
X020211Y015613D01*
X020211Y015675D02*
X019939Y015675D01*
X019939Y015737D02*
X020211Y015737D01*
X020211Y015799D02*
X019939Y015799D01*
X019817Y015805D02*
X019545Y015805D01*
X019817Y015805D02*
X019817Y015551D01*
X019545Y015551D01*
X019545Y015805D01*
X019545Y015613D02*
X019817Y015613D01*
X019817Y015675D02*
X019545Y015675D01*
X019545Y015737D02*
X019817Y015737D01*
X019817Y015799D02*
X019545Y015799D01*
X019545Y016199D02*
X019817Y016199D01*
X019817Y015945D01*
X019545Y015945D01*
X019545Y016199D01*
X019545Y016007D02*
X019817Y016007D01*
X019817Y016069D02*
X019545Y016069D01*
X019545Y016131D02*
X019817Y016131D01*
X019817Y016193D02*
X019545Y016193D01*
X019939Y016199D02*
X020211Y016199D01*
X020211Y015945D01*
X019939Y015945D01*
X019939Y016199D01*
X019939Y016007D02*
X020211Y016007D01*
X020211Y016069D02*
X019939Y016069D01*
X019939Y016131D02*
X020211Y016131D01*
X020211Y016193D02*
X019939Y016193D01*
X005517Y015617D02*
X005517Y015345D01*
X005263Y015345D01*
X005263Y015617D01*
X005517Y015617D01*
X005517Y015407D02*
X005263Y015407D01*
X005263Y015469D02*
X005517Y015469D01*
X005517Y015531D02*
X005263Y015531D01*
X005263Y015593D02*
X005517Y015593D01*
X005263Y015224D02*
X005263Y014952D01*
X005263Y015224D02*
X005517Y015224D01*
X005517Y014952D01*
X005263Y014952D01*
X005263Y015014D02*
X005517Y015014D01*
X005517Y015076D02*
X005263Y015076D01*
X005263Y015138D02*
X005517Y015138D01*
X005517Y015200D02*
X005263Y015200D01*
X004869Y015224D02*
X004869Y014952D01*
X004869Y015224D02*
X005123Y015224D01*
X005123Y014952D01*
X004869Y014952D01*
X004869Y015014D02*
X005123Y015014D01*
X005123Y015076D02*
X004869Y015076D01*
X004869Y015138D02*
X005123Y015138D01*
X005123Y015200D02*
X004869Y015200D01*
X005123Y015345D02*
X005123Y015617D01*
X005123Y015345D02*
X004869Y015345D01*
X004869Y015617D01*
X005123Y015617D01*
X005123Y015407D02*
X004869Y015407D01*
X004869Y015469D02*
X005123Y015469D01*
X005123Y015531D02*
X004869Y015531D01*
X004869Y015593D02*
X005123Y015593D01*
X002704Y015224D02*
X002704Y014952D01*
X002704Y015224D02*
X002958Y015224D01*
X002958Y014952D01*
X002704Y014952D01*
X002704Y015014D02*
X002958Y015014D01*
X002958Y015076D02*
X002704Y015076D01*
X002704Y015138D02*
X002958Y015138D01*
X002958Y015200D02*
X002704Y015200D01*
X002310Y015224D02*
X002310Y014952D01*
X002310Y015224D02*
X002564Y015224D01*
X002564Y014952D01*
X002310Y014952D01*
X002310Y015014D02*
X002564Y015014D01*
X002564Y015076D02*
X002310Y015076D01*
X002310Y015138D02*
X002564Y015138D01*
X002564Y015200D02*
X002310Y015200D01*
X002262Y013089D02*
X002534Y013089D01*
X002534Y012835D01*
X002262Y012835D01*
X002262Y013089D01*
X002262Y012897D02*
X002534Y012897D01*
X002534Y012959D02*
X002262Y012959D01*
X002262Y013021D02*
X002534Y013021D01*
X002534Y013083D02*
X002262Y013083D01*
X002262Y012695D02*
X002534Y012695D01*
X002534Y012441D01*
X002262Y012441D01*
X002262Y012695D01*
X002262Y012503D02*
X002534Y012503D01*
X002534Y012565D02*
X002262Y012565D01*
X002262Y012627D02*
X002534Y012627D01*
X002534Y012689D02*
X002262Y012689D01*
X004318Y011523D02*
X004318Y011251D01*
X004318Y011523D02*
X004572Y011523D01*
X004572Y011251D01*
X004318Y011251D01*
X004318Y011313D02*
X004572Y011313D01*
X004572Y011375D02*
X004318Y011375D01*
X004318Y011437D02*
X004572Y011437D01*
X004572Y011499D02*
X004318Y011499D01*
X004712Y011523D02*
X004712Y011251D01*
X004712Y011523D02*
X004966Y011523D01*
X004966Y011251D01*
X004712Y011251D01*
X004712Y011313D02*
X004966Y011313D01*
X004966Y011375D02*
X004712Y011375D01*
X004712Y011437D02*
X004966Y011437D01*
X004966Y011499D02*
X004712Y011499D01*
X003085Y018976D02*
X002813Y018976D01*
X002813Y019230D01*
X003085Y019230D01*
X003085Y018976D01*
X003085Y019038D02*
X002813Y019038D01*
X002813Y019100D02*
X003085Y019100D01*
X003085Y019162D02*
X002813Y019162D01*
X002813Y019224D02*
X003085Y019224D01*
X003085Y019370D02*
X002813Y019370D01*
X002813Y019624D01*
X003085Y019624D01*
X003085Y019370D01*
X003085Y019432D02*
X002813Y019432D01*
X002813Y019494D02*
X003085Y019494D01*
X003085Y019556D02*
X002813Y019556D01*
X002813Y019618D02*
X003085Y019618D01*
D23*
X003776Y015107D03*
X003776Y014202D03*
X005390Y011367D03*
X005390Y010462D03*
D24*
X004088Y017967D02*
X003688Y017967D01*
X004088Y017967D02*
X004088Y017839D01*
X003688Y017839D01*
X003688Y017967D01*
X003688Y017966D02*
X004088Y017966D01*
X004088Y018341D02*
X003688Y018341D01*
X004088Y018341D02*
X004088Y018213D01*
X003688Y018213D01*
X003688Y018341D01*
X003688Y018340D02*
X004088Y018340D01*
X004088Y018715D02*
X003688Y018715D01*
X004088Y018715D02*
X004088Y018587D01*
X003688Y018587D01*
X003688Y018715D01*
X003688Y018714D02*
X004088Y018714D01*
X003155Y018587D02*
X002755Y018587D01*
X002755Y018715D01*
X003155Y018715D01*
X003155Y018587D01*
X003155Y018714D02*
X002755Y018714D01*
X002755Y017839D02*
X003155Y017839D01*
X002755Y017839D02*
X002755Y017967D01*
X003155Y017967D01*
X003155Y017839D01*
X003155Y017966D02*
X002755Y017966D01*
D25*
X005114Y018040D03*
X005114Y018848D03*
D26*
X019065Y009651D02*
X019589Y009651D01*
X019589Y009225D01*
X019065Y009225D01*
X019065Y009651D01*
X019065Y009330D02*
X019589Y009330D01*
X019589Y009435D02*
X019065Y009435D01*
X019065Y009540D02*
X019589Y009540D01*
X019589Y009645D02*
X019065Y009645D01*
X019065Y008903D02*
X019589Y008903D01*
X019589Y008477D01*
X019065Y008477D01*
X019065Y008903D01*
X019065Y008582D02*
X019589Y008582D01*
X019589Y008687D02*
X019065Y008687D01*
X019065Y008792D02*
X019589Y008792D01*
X019589Y008897D02*
X019065Y008897D01*
D27*
X021177Y010718D03*
X021158Y011470D03*
D28*
X008894Y019025D03*
D29*
X008303Y019025D03*
X007713Y019025D03*
X007122Y019025D03*
X006532Y019025D03*
D30*
X002063Y019418D03*
X020823Y019438D03*
X002083Y001072D03*
X020823Y001052D03*
D31*
X006571Y001072D03*
M02*
