G75*
G70*
%OFA0B0*%
%FSLAX24Y24*%
%IPPOS*%
%LPD*%
%AMOC8*
5,1,8,0,0,1.08239X$1,22.5*
%
%ADD10C,0.0413*%
%ADD11C,0.0198*%
%ADD12C,0.1424*%
%ADD13C,0.1384*%
%ADD14C,0.0059*%
%ADD15C,0.0237*%
%ADD16C,0.0060*%
%ADD17C,0.0062*%
%ADD18C,0.0062*%
%ADD19C,0.0160*%
%ADD20C,0.0100*%
D10*
X017555Y006466D03*
X018343Y006466D03*
X020469Y005127D03*
X020469Y004340D03*
X020469Y003277D03*
X020469Y002489D03*
X008894Y019025D03*
X008303Y019025D03*
X007713Y019025D03*
X007122Y019025D03*
X006532Y019025D03*
D11*
X005929Y018355D03*
X006257Y018174D03*
X005661Y017214D03*
X005429Y016741D03*
X005665Y016466D03*
X005902Y016741D03*
X006032Y015757D03*
X005169Y015757D03*
X004854Y014300D03*
X005980Y013316D03*
X005114Y012568D03*
X004721Y012607D03*
X004721Y012292D03*
X005862Y012174D03*
X004839Y010954D03*
X004406Y010245D03*
X004248Y010009D03*
X004760Y009733D03*
X005862Y010363D03*
X005941Y009812D03*
X007398Y009418D03*
X007587Y008418D03*
X007980Y008418D03*
X008374Y008418D03*
X008768Y008418D03*
X009161Y008418D03*
X009555Y008418D03*
X009996Y007844D03*
X009996Y007607D03*
X009445Y007529D03*
X010350Y006938D03*
X010902Y006977D03*
X011768Y006426D03*
X012043Y005954D03*
X012516Y005914D03*
X013311Y005914D03*
X014102Y005914D03*
X014445Y006544D03*
X013894Y007194D03*
X013697Y007348D03*
X013500Y007186D03*
X012949Y007686D03*
X013098Y008418D03*
X012705Y008418D03*
X012311Y008418D03*
X011996Y008418D03*
X011728Y008237D03*
X011484Y008418D03*
X011130Y008418D03*
X010736Y008418D03*
X010343Y008418D03*
X010941Y009379D03*
X011217Y009418D03*
X011374Y009222D03*
X011610Y009379D03*
X011807Y009222D03*
X012004Y009418D03*
X012437Y009418D03*
X013815Y010009D03*
X014091Y010088D03*
X014760Y010285D03*
X014996Y010403D03*
X015547Y010285D03*
X015744Y010521D03*
X015941Y010363D03*
X016138Y010521D03*
X016965Y011190D03*
X017870Y010954D03*
X017870Y011426D03*
X017870Y011741D03*
X017870Y012056D03*
X017870Y012371D03*
X018224Y012607D03*
X018614Y013123D03*
X018618Y014340D03*
X019406Y014340D03*
X019406Y015324D03*
X019406Y016033D03*
X020075Y016387D03*
X021445Y016332D03*
X021445Y015938D03*
X021445Y015544D03*
X021445Y015151D03*
X021445Y014757D03*
X021445Y014363D03*
X021445Y013970D03*
X021445Y013576D03*
X021445Y013182D03*
X021445Y012788D03*
X021445Y012395D03*
X020705Y010442D03*
X021177Y010285D03*
X021445Y009836D03*
X021445Y009442D03*
X021445Y009009D03*
X021445Y008615D03*
X021445Y008222D03*
X021445Y007828D03*
X021445Y007434D03*
X021445Y007040D03*
X021445Y006647D03*
X021445Y006253D03*
X021445Y005859D03*
X021445Y005466D03*
X021445Y005072D03*
X021445Y004678D03*
X021445Y004285D03*
X021445Y003891D03*
X021445Y003497D03*
X021445Y003103D03*
X021445Y002670D03*
X021445Y002277D03*
X021445Y001922D03*
X019988Y000544D03*
X019595Y000544D03*
X019193Y000517D03*
X019287Y000875D03*
X019366Y001387D03*
X019602Y001387D03*
X019445Y001820D03*
X019287Y002056D03*
X019287Y002332D03*
X018933Y002214D03*
X018386Y001599D03*
X017752Y001938D03*
X017398Y001781D03*
X017634Y001426D03*
X017713Y000914D03*
X018106Y000954D03*
X018020Y000505D03*
X018413Y000544D03*
X018807Y000513D03*
X017626Y000505D03*
X017232Y000505D03*
X017004Y000914D03*
X016602Y000781D03*
X016445Y000544D03*
X016051Y000544D03*
X015658Y000544D03*
X015264Y000544D03*
X014870Y000544D03*
X014476Y000544D03*
X014083Y000544D03*
X013689Y000544D03*
X013295Y000544D03*
X012902Y000544D03*
X012508Y000544D03*
X012114Y000544D03*
X011721Y000544D03*
X011327Y000544D03*
X010933Y000544D03*
X010539Y000544D03*
X010146Y000544D03*
X009752Y000544D03*
X009358Y000544D03*
X008965Y000544D03*
X008571Y000544D03*
X008177Y000544D03*
X007783Y000544D03*
X007390Y000544D03*
X007783Y001332D03*
X007783Y001922D03*
X007622Y002332D03*
X008571Y002513D03*
X008571Y001922D03*
X008571Y001332D03*
X009358Y001332D03*
X009358Y001922D03*
X009358Y002513D03*
X009957Y002568D03*
X009358Y003103D03*
X008571Y003103D03*
X008768Y003891D03*
X009358Y003891D03*
X009949Y003891D03*
X009949Y004875D03*
X010272Y005285D03*
X010114Y005718D03*
X009528Y005218D03*
X009209Y005489D03*
X008736Y005914D03*
X009012Y005946D03*
X008421Y005639D03*
X007988Y005639D03*
X007988Y005206D03*
X008382Y005206D03*
X007346Y005340D03*
X006453Y005875D03*
X006098Y005678D03*
X005508Y005875D03*
X005350Y006544D03*
X005823Y006544D03*
X005823Y007017D03*
X006138Y007253D03*
X006571Y007017D03*
X006461Y006682D03*
X007161Y006899D03*
X007980Y007474D03*
X008374Y007474D03*
X007193Y008418D03*
X006012Y008418D03*
X005618Y008418D03*
X005224Y008418D03*
X004437Y008418D03*
X004083Y008418D03*
X003768Y008418D03*
X003335Y008418D03*
X002980Y008418D03*
X002437Y008355D03*
X002201Y007962D03*
X002595Y007450D03*
X003067Y007096D03*
X003539Y007450D03*
X003846Y007828D03*
X004240Y008025D03*
X004240Y007080D03*
X003846Y007080D03*
X003846Y006450D03*
X004240Y006450D03*
X004732Y006702D03*
X005354Y007025D03*
X005154Y007599D03*
X005815Y007828D03*
X003421Y005678D03*
X003343Y006269D03*
X003067Y006269D03*
X002437Y005521D03*
X002232Y005954D03*
X002236Y006336D03*
X001484Y006253D03*
X001484Y005859D03*
X001484Y005466D03*
X001484Y005072D03*
X001484Y004678D03*
X001484Y004285D03*
X001484Y003891D03*
X001484Y003497D03*
X001484Y003103D03*
X001484Y002710D03*
X001484Y002316D03*
X001484Y001922D03*
X002417Y001899D03*
X002437Y002214D03*
X002831Y002725D03*
X003138Y002985D03*
X003453Y002985D03*
X002909Y003513D03*
X002673Y003513D03*
X002673Y003749D03*
X002909Y003749D03*
X003264Y001938D03*
X004280Y001962D03*
X004760Y002017D03*
X004724Y002348D03*
X004732Y002611D03*
X005350Y002686D03*
X005350Y002214D03*
X005823Y002214D03*
X005823Y002686D03*
X006453Y002544D03*
X006602Y002119D03*
X005618Y001332D03*
X005224Y001332D03*
X005028Y000544D03*
X005421Y000544D03*
X005815Y000544D03*
X004634Y000544D03*
X004240Y000544D03*
X003453Y000544D03*
X003059Y000544D03*
X005882Y003592D03*
X005232Y003828D03*
X005390Y004222D03*
X008177Y003891D03*
X010146Y001922D03*
X010146Y001332D03*
X010933Y002119D03*
X010933Y002513D03*
X010933Y002907D03*
X011532Y003001D03*
X011532Y002489D03*
X012476Y002174D03*
X012713Y002607D03*
X012476Y003001D03*
X013122Y003001D03*
X013500Y003907D03*
X013500Y004300D03*
X013894Y004300D03*
X013894Y003907D03*
X013894Y004694D03*
X013894Y005088D03*
X013500Y005088D03*
X013500Y004694D03*
X013106Y004694D03*
X012713Y004694D03*
X011846Y004733D03*
X011925Y004162D03*
X011886Y003749D03*
X011571Y003946D03*
X011890Y005348D03*
X012476Y006702D03*
X012043Y007371D03*
X014248Y007832D03*
X014488Y007832D03*
X014760Y007883D03*
X014791Y007631D03*
X014563Y007292D03*
X015146Y007237D03*
X015461Y007237D03*
X015461Y007592D03*
X015776Y007592D03*
X015776Y007237D03*
X015461Y006647D03*
X015461Y006253D03*
X015862Y005403D03*
X015823Y004930D03*
X016374Y005481D03*
X017373Y004536D03*
X017634Y004733D03*
X017870Y004891D03*
X018461Y005324D03*
X019169Y005127D03*
X018106Y003867D03*
X017398Y003867D03*
X017398Y003556D03*
X016610Y002804D03*
X016610Y002411D03*
X016610Y002096D03*
X016610Y001820D03*
X016602Y001135D03*
X015461Y001135D03*
X015461Y001725D03*
X015862Y002135D03*
X015508Y002607D03*
X015469Y002883D03*
X015469Y003277D03*
X015469Y003670D03*
X015469Y004064D03*
X014957Y003749D03*
X014878Y003513D03*
X014862Y003985D03*
X014528Y002981D03*
X014110Y002962D03*
X014350Y002399D03*
X014760Y002135D03*
X014870Y001725D03*
X012949Y002017D03*
X012398Y001229D03*
X014878Y005127D03*
X017516Y007411D03*
X018185Y007529D03*
X017280Y008119D03*
X017752Y008828D03*
X018224Y008828D03*
X017713Y009497D03*
X017161Y009497D03*
X016610Y009497D03*
X016150Y009139D03*
X015976Y009340D03*
X015772Y009182D03*
X015547Y009300D03*
X014969Y009300D03*
X014776Y009103D03*
X014595Y009308D03*
X014366Y009210D03*
X014201Y008418D03*
X014091Y011741D03*
X014091Y012017D03*
X013815Y011977D03*
X013815Y012568D03*
X014681Y012411D03*
X014996Y012214D03*
X014961Y011749D03*
X015823Y012292D03*
X016177Y012686D03*
X016768Y012725D03*
X017043Y012765D03*
X017280Y013434D03*
X017201Y013670D03*
X017358Y014477D03*
X017358Y015009D03*
X017555Y015757D03*
X017319Y016269D03*
X017634Y016505D03*
X017201Y016702D03*
X017358Y017883D03*
X017429Y019836D03*
X017035Y019836D03*
X016642Y019836D03*
X016248Y019836D03*
X015854Y019836D03*
X015461Y019836D03*
X015067Y019836D03*
X014673Y019836D03*
X014280Y019836D03*
X013886Y019836D03*
X013492Y020033D03*
X013098Y020033D03*
X012705Y020033D03*
X012311Y020033D03*
X011917Y020033D03*
X011524Y020033D03*
X011130Y020033D03*
X010736Y020033D03*
X010343Y020033D03*
X009949Y020033D03*
X009555Y020033D03*
X009161Y020033D03*
X008768Y020033D03*
X008374Y020033D03*
X007980Y020033D03*
X007587Y020033D03*
X007193Y020033D03*
X006799Y020033D03*
X006406Y020033D03*
X006012Y019836D03*
X005618Y019836D03*
X005224Y019836D03*
X004831Y019836D03*
X004437Y019836D03*
X004043Y019836D03*
X003650Y019836D03*
X003256Y019836D03*
X002862Y019836D03*
X004642Y018474D03*
X005106Y019265D03*
X003421Y017135D03*
X003098Y016766D03*
X001484Y016883D03*
X001484Y017277D03*
X001484Y017670D03*
X001484Y016489D03*
X001484Y016096D03*
X001484Y015702D03*
X001484Y015308D03*
X001484Y014127D03*
X001484Y013733D03*
X001484Y013340D03*
X001484Y012946D03*
X001484Y012552D03*
X001484Y012159D03*
X001484Y011765D03*
X001484Y011371D03*
X001484Y010977D03*
X001484Y010584D03*
X001484Y010190D03*
X001484Y009796D03*
X002240Y009458D03*
X002004Y008592D03*
X001547Y008359D03*
X001484Y007434D03*
X001689Y007277D03*
X003067Y010166D03*
X002595Y010363D03*
X003579Y010324D03*
X002831Y011584D03*
X003146Y014603D03*
X007437Y013710D03*
X007909Y013080D03*
X008067Y012686D03*
X008087Y012371D03*
X007752Y012292D03*
X007909Y012056D03*
X007854Y011781D03*
X008091Y011662D03*
X008079Y011210D03*
X007831Y011190D03*
X008106Y010954D03*
X008906Y010966D03*
X009130Y011072D03*
X009484Y011072D03*
X009957Y011111D03*
X009484Y011938D03*
X009209Y011938D03*
X008933Y011938D03*
X009563Y012568D03*
X009524Y012844D03*
X009957Y013670D03*
X009976Y014286D03*
X011091Y012946D03*
X012161Y012450D03*
X012122Y011741D03*
X012634Y011781D03*
X012437Y013552D03*
X012673Y013749D03*
X012673Y014143D03*
X012516Y014536D03*
X012673Y014733D03*
X012516Y014930D03*
X012673Y015127D03*
X012476Y015324D03*
X012205Y016123D03*
X011843Y016155D03*
X011610Y016060D03*
X012673Y016938D03*
X012791Y016623D03*
X012476Y017568D03*
X012595Y018040D03*
X011610Y018316D03*
X010823Y017450D03*
X010626Y017253D03*
X010429Y017017D03*
X011020Y017096D03*
X011217Y017253D03*
X011413Y017056D03*
X010311Y018946D03*
X008579Y017056D03*
X007870Y016970D03*
X007949Y016072D03*
X008264Y016111D03*
X013618Y014733D03*
X013854Y014576D03*
X014051Y014143D03*
X014839Y014930D03*
X014839Y015166D03*
X015299Y014328D03*
X016256Y014418D03*
X016256Y014655D03*
X018579Y015324D03*
X021445Y016725D03*
X021445Y017119D03*
X021445Y017513D03*
X021445Y017907D03*
X021445Y018300D03*
X019791Y019836D03*
X019398Y019836D03*
X019004Y019836D03*
X018610Y019836D03*
X018217Y019836D03*
X017823Y019836D03*
X019354Y010993D03*
X019681Y010245D03*
X019559Y010009D03*
X019996Y009694D03*
X019772Y009418D03*
X019783Y008828D03*
X019996Y008552D03*
X019406Y008277D03*
X019799Y007962D03*
X020539Y008233D03*
X020705Y009025D03*
X018264Y010009D03*
X020705Y004694D03*
X020547Y003749D03*
X019681Y003080D03*
X017658Y002623D03*
X009012Y009379D03*
D12*
X002083Y001072D03*
X020823Y001052D03*
X020823Y019438D03*
X002063Y019418D03*
D13*
X006571Y001072D03*
D14*
X001418Y000695D02*
X001354Y000890D01*
X001346Y000993D01*
X001346Y008237D01*
X001453Y008131D01*
X001642Y008131D01*
X001776Y008265D01*
X001776Y008454D01*
X001642Y008588D01*
X001453Y008588D01*
X001346Y008481D01*
X001346Y008670D01*
X001775Y008670D01*
X001775Y008497D01*
X001909Y008363D01*
X002099Y008363D01*
X002233Y008497D01*
X002233Y008550D01*
X003342Y008550D01*
X003380Y008499D01*
X003380Y007614D01*
X003311Y007545D01*
X003311Y007355D01*
X003445Y007221D01*
X003634Y007221D01*
X003703Y007290D01*
X004139Y007290D01*
X004264Y007154D01*
X004264Y007153D01*
X004266Y007151D01*
X004266Y006213D01*
X004054Y005986D01*
X004010Y005941D01*
X004010Y005938D01*
X004007Y005935D01*
X004010Y005872D01*
X004010Y003500D01*
X003946Y003436D01*
X002888Y003436D01*
X002882Y003442D01*
X002824Y003436D01*
X002765Y003436D01*
X002759Y003430D01*
X002750Y003430D01*
X002713Y003384D01*
X002671Y003343D01*
X002671Y003334D01*
X002516Y003148D01*
X002474Y003107D01*
X002474Y003098D01*
X002469Y003092D01*
X002474Y003033D01*
X002474Y002127D01*
X002323Y002127D01*
X002189Y001993D01*
X002189Y001804D01*
X002323Y001670D01*
X002512Y001670D01*
X002646Y001804D01*
X002646Y001819D01*
X002686Y001779D01*
X003100Y001779D01*
X003169Y001709D01*
X003358Y001709D01*
X003492Y001843D01*
X003492Y002033D01*
X003358Y002167D01*
X003169Y002167D01*
X003100Y002098D01*
X002818Y002098D01*
X002793Y002122D01*
X002793Y002497D01*
X002925Y002497D01*
X003059Y002631D01*
X003059Y002820D01*
X002925Y002954D01*
X002793Y002954D01*
X002793Y002983D01*
X002905Y003117D01*
X004078Y003117D01*
X004128Y003167D01*
X004128Y002512D01*
X004125Y002509D01*
X004128Y002446D01*
X004128Y002384D01*
X004131Y002381D01*
X004131Y002377D01*
X004177Y002335D01*
X004221Y002290D01*
X004225Y002290D01*
X004531Y002010D01*
X004531Y001922D01*
X004665Y001788D01*
X004855Y001788D01*
X004988Y001922D01*
X004988Y002111D01*
X004900Y002200D01*
X004953Y002253D01*
X004953Y002442D01*
X004920Y002475D01*
X004961Y002517D01*
X004961Y002706D01*
X004827Y002840D01*
X004638Y002840D01*
X004565Y002767D01*
X004565Y005494D01*
X005023Y005952D01*
X005116Y006045D01*
X005116Y007371D01*
X005248Y007371D01*
X005382Y007505D01*
X005382Y007694D01*
X005248Y007828D01*
X005116Y007828D01*
X005116Y008670D01*
X006293Y008670D01*
X006293Y007538D01*
X006203Y007482D01*
X006043Y007482D01*
X005909Y007348D01*
X005909Y007158D01*
X006043Y007024D01*
X006233Y007024D01*
X006366Y007158D01*
X006366Y007208D01*
X006411Y007236D01*
X006411Y007181D01*
X006342Y007111D01*
X006342Y006922D01*
X006360Y006905D01*
X006232Y006777D01*
X006232Y006587D01*
X006366Y006454D01*
X006555Y006454D01*
X006689Y006587D01*
X006689Y006777D01*
X006672Y006794D01*
X006799Y006922D01*
X006799Y007111D01*
X006730Y007181D01*
X006730Y007340D01*
X007095Y006975D01*
X008316Y006975D01*
X008577Y006715D01*
X008577Y006078D01*
X008508Y006009D01*
X008508Y005820D01*
X008642Y005686D01*
X008831Y005686D01*
X008890Y005745D01*
X008917Y005717D01*
X009107Y005717D01*
X009240Y005851D01*
X009240Y006041D01*
X009107Y006175D01*
X009014Y006175D01*
X009014Y006886D01*
X008581Y007319D01*
X008487Y007413D01*
X007267Y007413D01*
X006967Y007713D01*
X006967Y008670D01*
X013341Y008670D01*
X013341Y007350D01*
X013271Y007281D01*
X013271Y007091D01*
X013405Y006958D01*
X013595Y006958D01*
X013701Y007064D01*
X013799Y006965D01*
X013988Y006965D01*
X014122Y007099D01*
X014122Y007289D01*
X014053Y007358D01*
X014053Y007703D01*
X014153Y007603D01*
X014343Y007603D01*
X014368Y007629D01*
X014394Y007603D01*
X014583Y007603D01*
X014650Y007670D01*
X014665Y007654D01*
X014855Y007654D01*
X014924Y007723D01*
X015757Y007723D01*
X015900Y007581D01*
X015900Y005631D01*
X015768Y005631D01*
X015634Y005497D01*
X015634Y005308D01*
X015702Y005240D01*
X015702Y005132D01*
X015594Y005025D01*
X015594Y004836D01*
X015728Y004702D01*
X015900Y004702D01*
X015900Y002119D01*
X015897Y002116D01*
X015900Y002053D01*
X015900Y001990D01*
X004988Y001990D01*
X004988Y001932D02*
X015957Y001932D01*
X015949Y001941D02*
X015993Y001897D01*
X015997Y001897D01*
X016460Y001469D01*
X016505Y001424D01*
X016509Y001424D01*
X016511Y001422D01*
X016574Y001424D01*
X016671Y001424D01*
X016768Y001343D01*
X016768Y000335D01*
X002004Y000335D01*
X001901Y000343D01*
X001705Y000407D01*
X001539Y000528D01*
X001418Y000695D01*
X001408Y000724D02*
X016768Y000724D01*
X016768Y000781D02*
X001390Y000781D01*
X001371Y000839D02*
X016768Y000839D01*
X016768Y000896D02*
X001354Y000896D01*
X001349Y000954D02*
X016768Y000954D01*
X016768Y001012D02*
X001346Y001012D01*
X001346Y001069D02*
X016768Y001069D01*
X016768Y001127D02*
X001346Y001127D01*
X001346Y001184D02*
X016768Y001184D01*
X016768Y001242D02*
X001346Y001242D01*
X001346Y001299D02*
X016768Y001299D01*
X016751Y001357D02*
X001346Y001357D01*
X001346Y001414D02*
X016682Y001414D01*
X016457Y001472D02*
X001346Y001472D01*
X001346Y001530D02*
X016394Y001530D01*
X016332Y001587D02*
X001346Y001587D01*
X001346Y001645D02*
X016270Y001645D01*
X016207Y001702D02*
X002544Y001702D01*
X002602Y001760D02*
X003119Y001760D01*
X003409Y001760D02*
X016145Y001760D01*
X016083Y001817D02*
X004884Y001817D01*
X004941Y001875D02*
X016020Y001875D01*
X015949Y001941D02*
X015902Y001984D01*
X015902Y001987D01*
X015900Y001990D01*
X015900Y002048D02*
X004988Y002048D01*
X004988Y002105D02*
X015897Y002105D01*
X015900Y002163D02*
X004937Y002163D01*
X004920Y002220D02*
X015900Y002220D01*
X015900Y002278D02*
X004953Y002278D01*
X004953Y002335D02*
X006339Y002335D01*
X006358Y002316D02*
X006547Y002316D01*
X006681Y002450D01*
X006681Y002639D01*
X006547Y002773D01*
X006358Y002773D01*
X006224Y002639D01*
X006224Y002450D01*
X006358Y002316D01*
X006281Y002393D02*
X004953Y002393D01*
X004945Y002450D02*
X006224Y002450D01*
X006224Y002508D02*
X004952Y002508D01*
X004961Y002566D02*
X006224Y002566D01*
X006224Y002623D02*
X004961Y002623D01*
X004961Y002681D02*
X006266Y002681D01*
X006323Y002738D02*
X004929Y002738D01*
X004871Y002796D02*
X012358Y002796D01*
X012382Y002772D02*
X012554Y002772D01*
X012484Y002702D01*
X012484Y002513D01*
X012618Y002379D01*
X012807Y002379D01*
X012941Y002513D01*
X012941Y002702D01*
X012807Y002836D01*
X012635Y002836D01*
X012705Y002906D01*
X012705Y003096D01*
X012571Y003230D01*
X012382Y003230D01*
X012248Y003096D01*
X012248Y002906D01*
X012382Y002772D01*
X012301Y002853D02*
X004565Y002853D01*
X004565Y002796D02*
X004594Y002796D01*
X004565Y002911D02*
X012248Y002911D01*
X012248Y002968D02*
X004565Y002968D01*
X004565Y003026D02*
X012248Y003026D01*
X012248Y003084D02*
X004565Y003084D01*
X004565Y003141D02*
X012293Y003141D01*
X012351Y003199D02*
X004565Y003199D01*
X004565Y003256D02*
X014245Y003256D01*
X014245Y003199D02*
X013248Y003199D01*
X013217Y003230D02*
X013027Y003230D01*
X012893Y003096D01*
X012893Y002906D01*
X013027Y002772D01*
X013217Y002772D01*
X013351Y002906D01*
X013351Y003096D01*
X013217Y003230D01*
X013305Y003141D02*
X013966Y003141D01*
X014016Y003190D02*
X013882Y003056D01*
X013882Y002867D01*
X014016Y002733D01*
X014205Y002733D01*
X014329Y002857D01*
X014433Y002753D01*
X014622Y002753D01*
X014756Y002887D01*
X014756Y003076D01*
X014622Y003210D01*
X014566Y003210D01*
X014566Y006342D01*
X014673Y006450D01*
X014673Y006639D01*
X014540Y006773D01*
X014350Y006773D01*
X014216Y006639D01*
X014216Y006450D01*
X014245Y006421D01*
X014245Y006095D01*
X014197Y006143D01*
X014008Y006143D01*
X013874Y006009D01*
X013874Y005820D01*
X014008Y005686D01*
X014197Y005686D01*
X014245Y005734D01*
X014245Y003150D01*
X014205Y003190D01*
X014016Y003190D01*
X013909Y003084D02*
X013351Y003084D01*
X013351Y003026D02*
X013882Y003026D01*
X013882Y002968D02*
X013351Y002968D01*
X013351Y002911D02*
X013882Y002911D01*
X013895Y002853D02*
X013298Y002853D01*
X013240Y002796D02*
X013953Y002796D01*
X014010Y002738D02*
X012905Y002738D01*
X012941Y002681D02*
X015279Y002681D01*
X015279Y002702D02*
X015279Y002513D01*
X015413Y002379D01*
X015603Y002379D01*
X015736Y002513D01*
X015736Y002702D01*
X015674Y002765D01*
X015697Y002788D01*
X015697Y002978D01*
X015595Y003080D01*
X015697Y003182D01*
X015697Y003371D01*
X015900Y003371D01*
X015900Y003314D02*
X015697Y003314D01*
X015697Y003371D02*
X015595Y003474D01*
X015697Y003576D01*
X015697Y003765D01*
X015595Y003867D01*
X015697Y003969D01*
X015697Y004159D01*
X015563Y004293D01*
X015374Y004293D01*
X015240Y004159D01*
X015240Y003969D01*
X015342Y003867D01*
X015240Y003765D01*
X015240Y003576D01*
X015342Y003474D01*
X015240Y003371D01*
X015060Y003371D01*
X015107Y003418D02*
X015107Y003576D01*
X015185Y003654D01*
X015185Y003844D01*
X015091Y003938D01*
X015091Y004080D01*
X014957Y004214D01*
X014768Y004214D01*
X014634Y004080D01*
X014634Y003891D01*
X014728Y003796D01*
X014728Y003686D01*
X014649Y003608D01*
X014649Y003418D01*
X014783Y003284D01*
X014973Y003284D01*
X015107Y003418D01*
X015107Y003429D02*
X015298Y003429D01*
X015329Y003486D02*
X015107Y003486D01*
X015107Y003544D02*
X015272Y003544D01*
X015240Y003602D02*
X015132Y003602D01*
X015185Y003659D02*
X015240Y003659D01*
X015240Y003717D02*
X015185Y003717D01*
X015185Y003774D02*
X015249Y003774D01*
X015307Y003832D02*
X015185Y003832D01*
X015140Y003889D02*
X015320Y003889D01*
X015262Y003947D02*
X015091Y003947D01*
X015091Y004004D02*
X015240Y004004D01*
X015240Y004062D02*
X015091Y004062D01*
X015051Y004120D02*
X015240Y004120D01*
X015258Y004177D02*
X014994Y004177D01*
X014731Y004177D02*
X014566Y004177D01*
X014566Y004120D02*
X014673Y004120D01*
X014634Y004062D02*
X014566Y004062D01*
X014566Y004004D02*
X014634Y004004D01*
X014634Y003947D02*
X014566Y003947D01*
X014566Y003889D02*
X014635Y003889D01*
X014693Y003832D02*
X014566Y003832D01*
X014566Y003774D02*
X014728Y003774D01*
X014728Y003717D02*
X014566Y003717D01*
X014566Y003659D02*
X014701Y003659D01*
X014649Y003602D02*
X014566Y003602D01*
X014566Y003544D02*
X014649Y003544D01*
X014649Y003486D02*
X014566Y003486D01*
X014566Y003429D02*
X014649Y003429D01*
X014696Y003371D02*
X014566Y003371D01*
X014566Y003314D02*
X014754Y003314D01*
X014634Y003199D02*
X015240Y003199D01*
X015240Y003182D02*
X015240Y003371D01*
X015240Y003314D02*
X015002Y003314D01*
X015240Y003256D02*
X014566Y003256D01*
X014691Y003141D02*
X015281Y003141D01*
X015240Y003182D02*
X015342Y003080D01*
X015240Y002978D01*
X015240Y002788D01*
X015303Y002725D01*
X015279Y002702D01*
X015290Y002738D02*
X014210Y002738D01*
X014268Y002796D02*
X014390Y002796D01*
X014332Y002853D02*
X014325Y002853D01*
X014665Y002796D02*
X015240Y002796D01*
X015240Y002853D02*
X014723Y002853D01*
X014756Y002911D02*
X015240Y002911D01*
X015240Y002968D02*
X014756Y002968D01*
X014756Y003026D02*
X015288Y003026D01*
X015338Y003084D02*
X014749Y003084D01*
X014245Y003314D02*
X004565Y003314D01*
X004565Y003371D02*
X014245Y003371D01*
X014245Y003429D02*
X004565Y003429D01*
X004565Y003486D02*
X014245Y003486D01*
X014245Y003544D02*
X012004Y003544D01*
X011981Y003521D02*
X012114Y003654D01*
X012114Y003844D01*
X012022Y003936D01*
X012154Y004068D01*
X012154Y004257D01*
X012020Y004391D01*
X011831Y004391D01*
X011697Y004257D01*
X011697Y004143D01*
X011666Y004175D01*
X011476Y004175D01*
X011342Y004041D01*
X011342Y003851D01*
X011476Y003717D01*
X011657Y003717D01*
X005444Y003717D01*
X005461Y003733D02*
X005327Y003599D01*
X005138Y003599D01*
X005004Y003733D01*
X005004Y003923D01*
X005138Y004056D01*
X005327Y004056D01*
X005461Y003923D01*
X005461Y003733D01*
X005461Y003774D02*
X011419Y003774D01*
X011362Y003832D02*
X005461Y003832D01*
X005461Y003889D02*
X011342Y003889D01*
X011342Y003947D02*
X005437Y003947D01*
X005379Y004004D02*
X011342Y004004D01*
X011364Y004062D02*
X004565Y004062D01*
X004565Y004120D02*
X011421Y004120D01*
X011697Y004177D02*
X004565Y004177D01*
X004565Y004235D02*
X011697Y004235D01*
X011732Y004292D02*
X004565Y004292D01*
X004565Y004350D02*
X011789Y004350D01*
X011752Y004505D02*
X011941Y004505D01*
X012075Y004639D01*
X012075Y004828D01*
X011941Y004962D01*
X011752Y004962D01*
X011618Y004828D01*
X011618Y004639D01*
X011752Y004505D01*
X011734Y004522D02*
X004565Y004522D01*
X004565Y004465D02*
X014245Y004465D01*
X014245Y004522D02*
X011959Y004522D01*
X012016Y004580D02*
X014245Y004580D01*
X014245Y004638D02*
X012074Y004638D01*
X012075Y004695D02*
X014245Y004695D01*
X014245Y004753D02*
X012075Y004753D01*
X012075Y004810D02*
X014245Y004810D01*
X014245Y004868D02*
X012035Y004868D01*
X011978Y004925D02*
X014245Y004925D01*
X014245Y004983D02*
X004565Y004983D01*
X004565Y005040D02*
X014245Y005040D01*
X014245Y005098D02*
X004565Y005098D01*
X004565Y005156D02*
X007207Y005156D01*
X007252Y005111D02*
X007441Y005111D01*
X007575Y005245D01*
X007575Y005434D01*
X007441Y005568D01*
X007252Y005568D01*
X007118Y005434D01*
X007118Y005245D01*
X007252Y005111D01*
X007150Y005213D02*
X004565Y005213D01*
X004565Y005271D02*
X007118Y005271D01*
X007118Y005328D02*
X004565Y005328D01*
X004565Y005386D02*
X007118Y005386D01*
X007127Y005443D02*
X004565Y005443D01*
X004572Y005501D02*
X007184Y005501D01*
X007242Y005558D02*
X004629Y005558D01*
X004687Y005616D02*
X009012Y005616D01*
X008980Y005584D02*
X008980Y005395D01*
X009114Y005261D01*
X009303Y005261D01*
X009437Y005395D01*
X009437Y005584D01*
X009303Y005718D01*
X009114Y005718D01*
X008980Y005584D01*
X008980Y005558D02*
X007451Y005558D01*
X007509Y005501D02*
X008980Y005501D01*
X008980Y005443D02*
X007566Y005443D01*
X007575Y005386D02*
X008989Y005386D01*
X009046Y005328D02*
X007575Y005328D01*
X007575Y005271D02*
X009104Y005271D01*
X009313Y005271D02*
X011661Y005271D01*
X011661Y005253D02*
X011795Y005119D01*
X011984Y005119D01*
X012118Y005253D01*
X012118Y005442D01*
X011984Y005576D01*
X011795Y005576D01*
X011661Y005442D01*
X011661Y005253D01*
X011701Y005213D02*
X007543Y005213D01*
X007486Y005156D02*
X011758Y005156D01*
X011661Y005328D02*
X009371Y005328D01*
X009428Y005386D02*
X011661Y005386D01*
X011662Y005443D02*
X009437Y005443D01*
X009437Y005501D02*
X011720Y005501D01*
X011777Y005558D02*
X009437Y005558D01*
X009405Y005616D02*
X014245Y005616D01*
X014245Y005674D02*
X009348Y005674D01*
X009178Y005789D02*
X012318Y005789D01*
X012287Y005820D02*
X012421Y005686D01*
X012610Y005686D01*
X012744Y005820D01*
X012744Y006009D01*
X012610Y006143D01*
X012421Y006143D01*
X012287Y006009D01*
X012287Y005820D01*
X012287Y005846D02*
X009235Y005846D01*
X009240Y005904D02*
X012287Y005904D01*
X012287Y005961D02*
X009240Y005961D01*
X009240Y006019D02*
X012297Y006019D01*
X012354Y006076D02*
X009205Y006076D01*
X009147Y006134D02*
X012412Y006134D01*
X012619Y006134D02*
X013207Y006134D01*
X013216Y006143D02*
X013082Y006009D01*
X013082Y005820D01*
X013216Y005686D01*
X013406Y005686D01*
X013540Y005820D01*
X013540Y006009D01*
X013406Y006143D01*
X013216Y006143D01*
X013150Y006076D02*
X012677Y006076D01*
X012735Y006019D02*
X013092Y006019D01*
X013082Y005961D02*
X012744Y005961D01*
X012744Y005904D02*
X013082Y005904D01*
X013082Y005846D02*
X012744Y005846D01*
X012713Y005789D02*
X013114Y005789D01*
X013171Y005731D02*
X012656Y005731D01*
X012376Y005731D02*
X009120Y005731D01*
X009070Y005674D02*
X006575Y005674D01*
X006547Y005646D02*
X006681Y005780D01*
X006681Y005970D01*
X006547Y006104D01*
X006358Y006104D01*
X006224Y005970D01*
X006224Y005780D01*
X006358Y005646D01*
X006547Y005646D01*
X006632Y005731D02*
X008596Y005731D01*
X008539Y005789D02*
X006681Y005789D01*
X006681Y005846D02*
X008508Y005846D01*
X008508Y005904D02*
X006681Y005904D01*
X006681Y005961D02*
X008508Y005961D01*
X008517Y006019D02*
X006632Y006019D01*
X006575Y006076D02*
X008575Y006076D01*
X008577Y006134D02*
X005116Y006134D01*
X005116Y006192D02*
X008577Y006192D01*
X008577Y006249D02*
X005116Y006249D01*
X005116Y006307D02*
X008577Y006307D01*
X008577Y006364D02*
X005116Y006364D01*
X005116Y006422D02*
X008577Y006422D01*
X008577Y006479D02*
X006581Y006479D01*
X006639Y006537D02*
X008577Y006537D01*
X008577Y006594D02*
X006689Y006594D01*
X006689Y006652D02*
X008577Y006652D01*
X008577Y006710D02*
X006689Y006710D01*
X006689Y006767D02*
X008524Y006767D01*
X008467Y006825D02*
X006702Y006825D01*
X006760Y006882D02*
X008409Y006882D01*
X008351Y006940D02*
X006799Y006940D01*
X006799Y006997D02*
X007073Y006997D01*
X007016Y007055D02*
X006799Y007055D01*
X006799Y007112D02*
X006958Y007112D01*
X006901Y007170D02*
X006741Y007170D01*
X006730Y007228D02*
X006843Y007228D01*
X006786Y007285D02*
X006730Y007285D01*
X006411Y007228D02*
X006398Y007228D01*
X006401Y007170D02*
X006366Y007170D01*
X006343Y007112D02*
X006320Y007112D01*
X006342Y007055D02*
X006263Y007055D01*
X006342Y006997D02*
X005116Y006997D01*
X005116Y006940D02*
X006342Y006940D01*
X006337Y006882D02*
X005116Y006882D01*
X005116Y006825D02*
X006280Y006825D01*
X006232Y006767D02*
X005116Y006767D01*
X005116Y006710D02*
X006232Y006710D01*
X006232Y006652D02*
X005116Y006652D01*
X005116Y006594D02*
X006232Y006594D01*
X006283Y006537D02*
X005116Y006537D01*
X005116Y006479D02*
X006340Y006479D01*
X006331Y006076D02*
X005630Y006076D01*
X005603Y006104D02*
X005413Y006104D01*
X005279Y005970D01*
X005279Y005780D01*
X005413Y005646D01*
X005603Y005646D01*
X005736Y005780D01*
X005736Y005970D01*
X005603Y006104D01*
X005687Y006019D02*
X006273Y006019D01*
X006224Y005961D02*
X005736Y005961D01*
X005736Y005904D02*
X006224Y005904D01*
X006224Y005846D02*
X005736Y005846D01*
X005736Y005789D02*
X006224Y005789D01*
X006273Y005731D02*
X005687Y005731D01*
X005630Y005674D02*
X006331Y005674D01*
X005386Y005674D02*
X004745Y005674D01*
X004802Y005731D02*
X005329Y005731D01*
X005279Y005789D02*
X004860Y005789D01*
X004917Y005846D02*
X005279Y005846D01*
X005279Y005904D02*
X004975Y005904D01*
X005032Y005961D02*
X005279Y005961D01*
X005328Y006019D02*
X005090Y006019D01*
X005116Y006076D02*
X005386Y006076D01*
X005116Y007055D02*
X006013Y007055D01*
X005955Y007112D02*
X005116Y007112D01*
X005116Y007170D02*
X005909Y007170D01*
X005909Y007228D02*
X005116Y007228D01*
X005116Y007285D02*
X005909Y007285D01*
X005909Y007343D02*
X005116Y007343D01*
X005278Y007400D02*
X005962Y007400D01*
X006019Y007458D02*
X005335Y007458D01*
X005382Y007515D02*
X006256Y007515D01*
X006293Y007573D02*
X005382Y007573D01*
X005382Y007630D02*
X006293Y007630D01*
X006293Y007688D02*
X005382Y007688D01*
X005331Y007746D02*
X006293Y007746D01*
X006293Y007803D02*
X005273Y007803D01*
X005116Y007861D02*
X006293Y007861D01*
X006293Y007918D02*
X005116Y007918D01*
X005116Y007976D02*
X006293Y007976D01*
X006293Y008033D02*
X005116Y008033D01*
X005116Y008091D02*
X006293Y008091D01*
X006293Y008148D02*
X005116Y008148D01*
X005116Y008206D02*
X006293Y008206D01*
X006293Y008264D02*
X005116Y008264D01*
X005116Y008321D02*
X006293Y008321D01*
X006293Y008379D02*
X005116Y008379D01*
X005116Y008436D02*
X006293Y008436D01*
X006293Y008494D02*
X005116Y008494D01*
X005116Y008551D02*
X006293Y008551D01*
X006293Y008609D02*
X005116Y008609D01*
X005116Y008666D02*
X006293Y008666D01*
X006967Y008666D02*
X013341Y008666D01*
X013341Y008609D02*
X006967Y008609D01*
X006967Y008551D02*
X013341Y008551D01*
X013341Y008494D02*
X006967Y008494D01*
X006967Y008436D02*
X011604Y008436D01*
X011634Y008466D02*
X011500Y008332D01*
X011500Y008143D01*
X011634Y008009D01*
X011823Y008009D01*
X011957Y008143D01*
X011957Y008332D01*
X011823Y008466D01*
X011634Y008466D01*
X011546Y008379D02*
X006967Y008379D01*
X006967Y008321D02*
X011500Y008321D01*
X011500Y008264D02*
X006967Y008264D01*
X006967Y008206D02*
X011500Y008206D01*
X011500Y008148D02*
X006967Y008148D01*
X006967Y008091D02*
X011552Y008091D01*
X011609Y008033D02*
X010130Y008033D01*
X010091Y008072D02*
X010225Y007938D01*
X010225Y007749D01*
X010201Y007725D01*
X010225Y007702D01*
X010225Y007513D01*
X010091Y007379D01*
X009901Y007379D01*
X009768Y007513D01*
X009768Y007702D01*
X009791Y007725D01*
X009768Y007749D01*
X009768Y007938D01*
X009901Y008072D01*
X010091Y008072D01*
X010187Y007976D02*
X013341Y007976D01*
X013341Y008033D02*
X011848Y008033D01*
X011905Y008091D02*
X013341Y008091D01*
X013341Y008148D02*
X011957Y008148D01*
X011957Y008206D02*
X013341Y008206D01*
X013341Y008264D02*
X011957Y008264D01*
X011957Y008321D02*
X013341Y008321D01*
X013341Y008379D02*
X011910Y008379D01*
X011853Y008436D02*
X013341Y008436D01*
X013341Y007918D02*
X010225Y007918D01*
X010225Y007861D02*
X012800Y007861D01*
X012854Y007915D02*
X012720Y007781D01*
X012720Y007591D01*
X012854Y007458D01*
X012272Y007458D01*
X012272Y007466D02*
X012138Y007600D01*
X011949Y007600D01*
X011815Y007466D01*
X011815Y007276D01*
X011949Y007143D01*
X012138Y007143D01*
X012272Y007276D01*
X012272Y007466D01*
X012272Y007400D02*
X013341Y007400D01*
X013341Y007458D02*
X013044Y007458D01*
X013177Y007591D01*
X013177Y007781D01*
X013044Y007915D01*
X012854Y007915D01*
X012743Y007803D02*
X010225Y007803D01*
X010221Y007746D02*
X012720Y007746D01*
X012720Y007688D02*
X010225Y007688D01*
X010225Y007630D02*
X012720Y007630D01*
X012739Y007573D02*
X012165Y007573D01*
X012222Y007515D02*
X012796Y007515D01*
X012854Y007458D02*
X013044Y007458D01*
X013101Y007515D02*
X013341Y007515D01*
X013341Y007573D02*
X013159Y007573D01*
X013177Y007630D02*
X013341Y007630D01*
X013341Y007688D02*
X013177Y007688D01*
X013177Y007746D02*
X013341Y007746D01*
X013341Y007803D02*
X013155Y007803D01*
X013098Y007861D02*
X013341Y007861D01*
X013333Y007343D02*
X012272Y007343D01*
X012272Y007285D02*
X013276Y007285D01*
X013271Y007228D02*
X012223Y007228D01*
X012165Y007170D02*
X013271Y007170D01*
X013271Y007112D02*
X008787Y007112D01*
X008730Y007170D02*
X011921Y007170D01*
X011864Y007228D02*
X008672Y007228D01*
X008615Y007285D02*
X011815Y007285D01*
X011815Y007343D02*
X008557Y007343D01*
X008500Y007400D02*
X009880Y007400D01*
X009822Y007458D02*
X007222Y007458D01*
X007164Y007515D02*
X009768Y007515D01*
X009768Y007573D02*
X007107Y007573D01*
X007049Y007630D02*
X009768Y007630D01*
X009768Y007688D02*
X006991Y007688D01*
X006967Y007746D02*
X009771Y007746D01*
X009768Y007803D02*
X006967Y007803D01*
X006967Y007861D02*
X009768Y007861D01*
X009768Y007918D02*
X006967Y007918D01*
X006967Y007976D02*
X009805Y007976D01*
X009863Y008033D02*
X006967Y008033D01*
X005939Y009539D02*
X004888Y009539D01*
X004988Y009639D01*
X004988Y009828D01*
X004855Y009962D01*
X004665Y009962D01*
X004531Y009828D01*
X004531Y009639D01*
X004665Y009505D01*
X004817Y009505D01*
X004758Y009445D01*
X004561Y009248D01*
X004561Y008867D01*
X003489Y008867D01*
X003487Y008869D01*
X003433Y008869D01*
X003378Y008877D01*
X003368Y008869D01*
X002056Y008869D01*
X002054Y008867D01*
X001346Y008867D01*
X001346Y019497D01*
X001354Y019600D01*
X001418Y019796D01*
X001539Y019962D01*
X001705Y020083D01*
X001901Y020147D01*
X002004Y020155D01*
X020902Y020155D01*
X021005Y020147D01*
X021200Y020083D01*
X021367Y019962D01*
X021488Y019796D01*
X021551Y019600D01*
X021559Y019497D01*
X021559Y000993D01*
X021551Y000890D01*
X021488Y000695D01*
X021367Y000528D01*
X021200Y000407D01*
X021005Y000343D01*
X020902Y000335D01*
X016965Y000335D01*
X016965Y001179D01*
X017093Y001072D01*
X017135Y001031D01*
X017143Y001031D01*
X017149Y001025D01*
X017208Y001031D01*
X017936Y001031D01*
X018284Y001378D01*
X018291Y001371D01*
X018481Y001371D01*
X018614Y001505D01*
X018614Y001694D01*
X018481Y001828D01*
X018291Y001828D01*
X018206Y001743D01*
X018198Y001743D01*
X018189Y001735D01*
X018178Y001733D01*
X018144Y001689D01*
X017862Y001408D01*
X017862Y001521D01*
X017729Y001655D01*
X017595Y001655D01*
X017626Y001686D01*
X017626Y001741D01*
X017657Y001709D01*
X017847Y001709D01*
X017981Y001843D01*
X017981Y001975D01*
X018538Y001975D01*
X018577Y001924D01*
X018577Y001911D01*
X018615Y001873D01*
X018648Y001829D01*
X018661Y001827D01*
X018670Y001818D01*
X018725Y001818D01*
X018779Y001810D01*
X018789Y001818D01*
X019196Y001818D01*
X019206Y001828D01*
X019216Y001828D01*
X019216Y001725D01*
X019326Y001615D01*
X019271Y001615D01*
X019138Y001482D01*
X019138Y001292D01*
X019271Y001158D01*
X019461Y001158D01*
X019484Y001182D01*
X019508Y001158D01*
X019697Y001158D01*
X019831Y001292D01*
X019831Y001482D01*
X019697Y001615D01*
X019564Y001615D01*
X019673Y001725D01*
X019673Y001915D01*
X019540Y002049D01*
X019516Y002049D01*
X019516Y002151D01*
X019473Y002194D01*
X019516Y002237D01*
X019516Y002398D01*
X020142Y002398D01*
X020183Y002299D01*
X020278Y002204D01*
X020402Y002153D01*
X020535Y002153D01*
X020659Y002204D01*
X020754Y002299D01*
X020805Y002422D01*
X020805Y002556D01*
X020754Y002680D01*
X020659Y002774D01*
X020535Y002825D01*
X020402Y002825D01*
X020381Y002817D01*
X020192Y002817D01*
X020231Y002846D01*
X020233Y002863D01*
X020245Y002875D01*
X020245Y002947D01*
X020255Y003015D01*
X020278Y002992D01*
X020402Y002940D01*
X020535Y002940D01*
X020659Y002992D01*
X020754Y003086D01*
X020805Y003210D01*
X020805Y003344D01*
X020754Y003467D01*
X020671Y003550D01*
X020776Y003654D01*
X020776Y003844D01*
X020642Y003978D01*
X020453Y003978D01*
X020319Y003844D01*
X020319Y003654D01*
X020372Y003601D01*
X020278Y003562D01*
X020245Y003529D01*
X020245Y003853D01*
X020410Y004003D01*
X020535Y004003D01*
X020659Y004055D01*
X020754Y004149D01*
X020805Y004273D01*
X020805Y004407D01*
X020780Y004465D01*
X020799Y004465D01*
X020933Y004599D01*
X020933Y004789D01*
X020799Y004923D01*
X020740Y004923D01*
X020754Y004937D01*
X020805Y005060D01*
X020805Y005194D01*
X020754Y005318D01*
X020659Y005412D01*
X020535Y005463D01*
X020402Y005463D01*
X020278Y005412D01*
X020183Y005318D01*
X020132Y005194D01*
X020132Y005060D01*
X020183Y004937D01*
X020278Y004842D01*
X020402Y004791D01*
X020478Y004791D01*
X020476Y004789D01*
X020476Y004676D01*
X020402Y004676D01*
X020278Y004625D01*
X020183Y004530D01*
X020132Y004407D01*
X020132Y004317D01*
X019954Y004155D01*
X019949Y004155D01*
X019891Y004098D01*
X019830Y004043D01*
X019830Y004037D01*
X019826Y004033D01*
X019826Y003951D01*
X019822Y003869D01*
X019826Y003865D01*
X019826Y003258D01*
X019776Y003308D01*
X019586Y003308D01*
X019453Y003174D01*
X019453Y003053D01*
X018304Y003053D01*
X018080Y003253D01*
X018080Y004777D01*
X018099Y004796D01*
X018099Y004986D01*
X017965Y005119D01*
X017775Y005119D01*
X017642Y004986D01*
X017642Y004962D01*
X017539Y004962D01*
X017478Y004901D01*
X017478Y006067D01*
X017481Y006117D01*
X017520Y006109D01*
X017526Y006109D01*
X017526Y006436D01*
X017585Y006436D01*
X017585Y006495D01*
X017911Y006495D01*
X017911Y006501D01*
X017898Y006570D01*
X017871Y006634D01*
X017832Y006693D01*
X017782Y006742D01*
X017724Y006781D01*
X017659Y006808D01*
X017590Y006822D01*
X017585Y006822D01*
X017585Y006495D01*
X017526Y006495D01*
X017526Y006822D01*
X017520Y006822D01*
X017451Y006808D01*
X017386Y006781D01*
X017328Y006742D01*
X017278Y006693D01*
X017239Y006634D01*
X017213Y006570D01*
X017199Y006501D01*
X017199Y006495D01*
X017526Y006495D01*
X017526Y006436D01*
X017209Y006436D01*
X017163Y006487D01*
X017163Y007977D01*
X017165Y007978D01*
X017163Y008042D01*
X017163Y008107D01*
X017162Y008108D01*
X017162Y008111D01*
X017115Y008155D01*
X017070Y008200D01*
X017068Y008200D01*
X016965Y008298D01*
X016965Y008867D01*
X016365Y008867D01*
X016333Y008898D01*
X016309Y008926D01*
X016309Y008975D01*
X016378Y009044D01*
X016378Y009234D01*
X016244Y009367D01*
X016205Y009367D01*
X016205Y009434D01*
X016071Y009568D01*
X015882Y009568D01*
X015748Y009434D01*
X015748Y009423D01*
X015642Y009529D01*
X015453Y009529D01*
X015319Y009395D01*
X015319Y009206D01*
X015388Y009137D01*
X015388Y008867D01*
X015119Y008867D01*
X015125Y009133D01*
X015197Y009206D01*
X015197Y009395D01*
X015063Y009529D01*
X014874Y009529D01*
X014785Y009440D01*
X014689Y009537D01*
X014500Y009537D01*
X014401Y009438D01*
X014271Y009438D01*
X014138Y009304D01*
X014138Y009115D01*
X014207Y009046D01*
X014207Y008867D01*
X013975Y008867D01*
X013975Y009595D01*
X013979Y009599D01*
X013975Y009660D01*
X013975Y009721D01*
X013970Y009725D01*
X013970Y009731D01*
X013924Y009771D01*
X013912Y009783D01*
X013992Y009863D01*
X013996Y009859D01*
X014185Y009859D01*
X014319Y009993D01*
X014319Y010182D01*
X014294Y010208D01*
X014531Y010205D01*
X014531Y010190D01*
X014665Y010056D01*
X014855Y010056D01*
X014973Y010174D01*
X015091Y010174D01*
X015225Y010308D01*
X015225Y010497D01*
X015164Y010558D01*
X015245Y010558D01*
X015371Y010432D01*
X015319Y010379D01*
X015319Y010190D01*
X015453Y010056D01*
X015642Y010056D01*
X015776Y010190D01*
X015776Y010205D01*
X015846Y010135D01*
X016036Y010135D01*
X016170Y010269D01*
X016170Y010292D01*
X016233Y010292D01*
X016366Y010426D01*
X016366Y010615D01*
X016297Y010684D01*
X016297Y010784D01*
X015893Y011188D01*
X016736Y011188D01*
X016736Y011095D01*
X016870Y010961D01*
X017059Y010961D01*
X017120Y011022D01*
X017120Y010533D01*
X017356Y010297D01*
X017356Y007574D01*
X017287Y007505D01*
X017287Y007316D01*
X017421Y007182D01*
X017610Y007182D01*
X017744Y007316D01*
X017744Y007505D01*
X017675Y007574D01*
X017675Y008599D01*
X017847Y008599D01*
X017981Y008733D01*
X017981Y008923D01*
X017847Y009056D01*
X017675Y009056D01*
X017675Y010429D01*
X017582Y010523D01*
X017439Y010666D01*
X017439Y011453D01*
X017346Y011546D01*
X017228Y011665D01*
X014319Y011665D01*
X014319Y011836D01*
X014276Y011879D01*
X014319Y011922D01*
X014319Y012054D01*
X014832Y012054D01*
X014901Y011985D01*
X015091Y011985D01*
X015225Y012119D01*
X015225Y012308D01*
X015091Y012442D01*
X014910Y012442D01*
X014910Y012505D01*
X014776Y012639D01*
X014586Y012639D01*
X014453Y012505D01*
X014453Y012373D01*
X013943Y012373D01*
X014044Y012473D01*
X014044Y012663D01*
X013910Y012797D01*
X013720Y012797D01*
X013586Y012663D01*
X013586Y012473D01*
X013687Y012373D01*
X012390Y012373D01*
X012390Y012545D01*
X012256Y012678D01*
X012067Y012678D01*
X011933Y012545D01*
X011933Y012373D01*
X009691Y012373D01*
X009792Y012473D01*
X009792Y012663D01*
X009729Y012725D01*
X009752Y012749D01*
X009752Y012920D01*
X010837Y012920D01*
X010839Y012919D01*
X010903Y012920D01*
X010968Y012920D01*
X010969Y012922D01*
X010971Y012922D01*
X011016Y012968D01*
X011061Y013014D01*
X011061Y013016D01*
X011961Y013953D01*
X012006Y013998D01*
X012006Y014000D01*
X012007Y014001D01*
X012006Y014066D01*
X012002Y015991D01*
X012071Y016060D01*
X012071Y016249D01*
X011937Y016383D01*
X011748Y016383D01*
X011653Y016289D01*
X011516Y016289D01*
X011382Y016155D01*
X011382Y015965D01*
X011516Y015832D01*
X011569Y015832D01*
X011569Y014207D01*
X010794Y013397D01*
X008251Y013397D01*
X008172Y013476D01*
X007765Y013476D01*
X007647Y013357D01*
X007553Y013264D01*
X007553Y012699D01*
X007632Y012620D01*
X007725Y012527D01*
X007903Y012527D01*
X007911Y012519D01*
X007880Y012488D01*
X007847Y012521D01*
X007657Y012521D01*
X007628Y012491D01*
X007410Y012491D01*
X007321Y012402D01*
X007321Y013503D01*
X007342Y013481D01*
X007532Y013481D01*
X007601Y013550D01*
X009754Y013550D01*
X009862Y013442D01*
X010051Y013442D01*
X010185Y013576D01*
X010185Y013765D01*
X010051Y013899D01*
X009862Y013899D01*
X009832Y013869D01*
X009819Y013869D01*
X009774Y013881D01*
X009755Y013869D01*
X007601Y013869D01*
X007532Y013938D01*
X007342Y013938D01*
X007321Y013917D01*
X007321Y015927D01*
X007385Y015991D01*
X007720Y015991D01*
X007720Y015977D01*
X007854Y015843D01*
X008044Y015843D01*
X008126Y015926D01*
X008169Y015883D01*
X008358Y015883D01*
X008492Y016017D01*
X008492Y016206D01*
X011433Y016206D01*
X011382Y016149D02*
X008492Y016149D01*
X008492Y016206D02*
X008358Y016340D01*
X008233Y016340D01*
X008174Y016388D01*
X008133Y016428D01*
X008123Y016428D01*
X008115Y016435D01*
X008058Y016428D01*
X007174Y016428D01*
X007085Y016339D01*
X007085Y016911D01*
X007188Y017015D01*
X007642Y017015D01*
X007642Y016875D01*
X007775Y016741D01*
X007965Y016741D01*
X008099Y016875D01*
X008099Y017015D01*
X008350Y017015D01*
X008350Y016961D01*
X008484Y016828D01*
X008673Y016828D01*
X008807Y016961D01*
X008807Y017151D01*
X008786Y017172D01*
X010245Y017172D01*
X010253Y017164D01*
X010201Y017111D01*
X010201Y016922D01*
X010334Y016788D01*
X010524Y016788D01*
X010658Y016922D01*
X010658Y017024D01*
X010721Y017024D01*
X010791Y017095D01*
X010791Y017001D01*
X010925Y016867D01*
X011114Y016867D01*
X011197Y016949D01*
X011319Y016828D01*
X011508Y016828D01*
X011642Y016961D01*
X011642Y017151D01*
X011573Y017220D01*
X011573Y017910D01*
X011479Y018003D01*
X011204Y018279D01*
X006475Y018279D01*
X006351Y018403D01*
X006162Y018403D01*
X006028Y018269D01*
X006028Y018079D01*
X006127Y017980D01*
X006057Y017910D01*
X006057Y015986D01*
X005937Y015986D01*
X005803Y015852D01*
X005803Y015662D01*
X005937Y015528D01*
X006057Y015528D01*
X006057Y013545D01*
X005886Y013545D01*
X005752Y013411D01*
X005752Y013221D01*
X005886Y013087D01*
X006057Y013087D01*
X006057Y012303D01*
X005957Y012403D01*
X005768Y012403D01*
X005634Y012269D01*
X005634Y012080D01*
X005768Y011946D01*
X005957Y011946D01*
X006057Y012046D01*
X006057Y010492D01*
X005957Y010592D01*
X005768Y010592D01*
X005634Y010458D01*
X005634Y010269D01*
X005768Y010135D01*
X005957Y010135D01*
X006057Y010235D01*
X006057Y010019D01*
X006036Y010041D01*
X005846Y010041D01*
X005712Y009907D01*
X005712Y009717D01*
X005846Y009584D01*
X005939Y009584D01*
X005939Y009539D01*
X005842Y009587D02*
X004937Y009587D01*
X004988Y009645D02*
X005785Y009645D01*
X005727Y009702D02*
X004988Y009702D01*
X004988Y009760D02*
X005712Y009760D01*
X005712Y009818D02*
X004988Y009818D01*
X004941Y009875D02*
X005712Y009875D01*
X005738Y009933D02*
X004884Y009933D01*
X004636Y009933D02*
X004477Y009933D01*
X004477Y009914D02*
X004343Y009780D01*
X004153Y009780D01*
X004019Y009914D01*
X004019Y010104D01*
X004153Y010238D01*
X004177Y010238D01*
X004177Y010340D01*
X004311Y010474D01*
X004500Y010474D01*
X004634Y010340D01*
X004634Y010150D01*
X004500Y010017D01*
X004477Y010017D01*
X004477Y009914D01*
X004437Y009875D02*
X004578Y009875D01*
X004531Y009818D02*
X004380Y009818D01*
X004531Y009760D02*
X001346Y009760D01*
X001346Y009818D02*
X004116Y009818D01*
X004059Y009875D02*
X001346Y009875D01*
X001346Y009933D02*
X004019Y009933D01*
X004019Y009990D02*
X003214Y009990D01*
X003162Y009938D02*
X003296Y010072D01*
X003296Y010261D01*
X003162Y010395D01*
X002972Y010395D01*
X002838Y010261D01*
X002838Y010072D01*
X002972Y009938D01*
X003162Y009938D01*
X003272Y010048D02*
X004019Y010048D01*
X004021Y010105D02*
X003683Y010105D01*
X003673Y010095D02*
X003807Y010229D01*
X003807Y010419D01*
X003673Y010552D01*
X003484Y010552D01*
X003350Y010419D01*
X003350Y010229D01*
X003484Y010095D01*
X003673Y010095D01*
X003741Y010163D02*
X004079Y010163D01*
X004136Y010220D02*
X003799Y010220D01*
X003807Y010278D02*
X004177Y010278D01*
X004177Y010336D02*
X003807Y010336D01*
X003807Y010393D02*
X004230Y010393D01*
X004288Y010451D02*
X003775Y010451D01*
X003718Y010508D02*
X005684Y010508D01*
X005634Y010451D02*
X004523Y010451D01*
X004581Y010393D02*
X005634Y010393D01*
X005634Y010336D02*
X004634Y010336D01*
X004634Y010278D02*
X005634Y010278D01*
X005682Y010220D02*
X004634Y010220D01*
X004634Y010163D02*
X005739Y010163D01*
X005796Y009990D02*
X004477Y009990D01*
X004531Y010048D02*
X006057Y010048D01*
X006057Y010105D02*
X004589Y010105D01*
X004531Y009702D02*
X001346Y009702D01*
X001346Y009645D02*
X002104Y009645D01*
X002146Y009686D02*
X002012Y009552D01*
X002012Y009363D01*
X002146Y009229D01*
X002335Y009229D01*
X002469Y009363D01*
X002469Y009552D01*
X002335Y009686D01*
X002146Y009686D01*
X002046Y009587D02*
X001346Y009587D01*
X001346Y009530D02*
X002012Y009530D01*
X002012Y009472D02*
X001346Y009472D01*
X001346Y009415D02*
X002012Y009415D01*
X002018Y009357D02*
X001346Y009357D01*
X001346Y009300D02*
X002075Y009300D01*
X002133Y009242D02*
X001346Y009242D01*
X001346Y009184D02*
X004561Y009184D01*
X004561Y009127D02*
X001346Y009127D01*
X001346Y009069D02*
X004561Y009069D01*
X004561Y009012D02*
X001346Y009012D01*
X001346Y008954D02*
X004561Y008954D01*
X004561Y008897D02*
X001346Y008897D01*
X001346Y008666D02*
X001775Y008666D01*
X001775Y008609D02*
X001346Y008609D01*
X001346Y008551D02*
X001416Y008551D01*
X001358Y008494D02*
X001346Y008494D01*
X001346Y008206D02*
X001377Y008206D01*
X001346Y008148D02*
X001435Y008148D01*
X001346Y008091D02*
X003380Y008091D01*
X003380Y008148D02*
X001660Y008148D01*
X001717Y008206D02*
X003380Y008206D01*
X003380Y008264D02*
X001775Y008264D01*
X001776Y008321D02*
X003380Y008321D01*
X003380Y008379D02*
X002114Y008379D01*
X002172Y008436D02*
X003380Y008436D01*
X003380Y008494D02*
X002229Y008494D01*
X001894Y008379D02*
X001776Y008379D01*
X001776Y008436D02*
X001836Y008436D01*
X001779Y008494D02*
X001736Y008494D01*
X001775Y008551D02*
X001679Y008551D01*
X001346Y008033D02*
X003380Y008033D01*
X003380Y007976D02*
X001346Y007976D01*
X001346Y007918D02*
X003380Y007918D01*
X003380Y007861D02*
X001346Y007861D01*
X001346Y007803D02*
X003380Y007803D01*
X003380Y007746D02*
X001346Y007746D01*
X001346Y007688D02*
X003380Y007688D01*
X003380Y007630D02*
X002737Y007630D01*
X002689Y007678D02*
X002823Y007545D01*
X002823Y007355D01*
X002689Y007221D01*
X002500Y007221D01*
X002366Y007355D01*
X002366Y007545D01*
X002500Y007678D01*
X002689Y007678D01*
X002795Y007573D02*
X003339Y007573D01*
X003311Y007515D02*
X002823Y007515D01*
X002823Y007458D02*
X003311Y007458D01*
X003311Y007400D02*
X002823Y007400D01*
X002811Y007343D02*
X003323Y007343D01*
X003381Y007285D02*
X003201Y007285D01*
X003162Y007324D02*
X003296Y007190D01*
X003296Y007001D01*
X003162Y006867D01*
X002972Y006867D01*
X002838Y007001D01*
X002838Y007190D01*
X002972Y007324D01*
X003162Y007324D01*
X003258Y007228D02*
X003438Y007228D01*
X003296Y007170D02*
X004249Y007170D01*
X004266Y007112D02*
X003296Y007112D01*
X003296Y007055D02*
X004266Y007055D01*
X004266Y006997D02*
X003292Y006997D01*
X003234Y006940D02*
X004266Y006940D01*
X004266Y006882D02*
X003177Y006882D01*
X002957Y006882D02*
X001346Y006882D01*
X001346Y006825D02*
X004266Y006825D01*
X004266Y006767D02*
X001346Y006767D01*
X001346Y006710D02*
X004266Y006710D01*
X004266Y006652D02*
X001346Y006652D01*
X001346Y006594D02*
X004266Y006594D01*
X004266Y006537D02*
X001346Y006537D01*
X001346Y006479D02*
X003230Y006479D01*
X003248Y006497D02*
X003114Y006363D01*
X003114Y006174D01*
X003248Y006040D01*
X003437Y006040D01*
X003571Y006174D01*
X003571Y006363D01*
X003437Y006497D01*
X003248Y006497D01*
X003172Y006422D02*
X001346Y006422D01*
X001346Y006364D02*
X003115Y006364D01*
X003114Y006307D02*
X001346Y006307D01*
X001346Y006249D02*
X003114Y006249D01*
X003114Y006192D02*
X001346Y006192D01*
X001346Y006134D02*
X003154Y006134D01*
X003212Y006076D02*
X001346Y006076D01*
X001346Y006019D02*
X004085Y006019D01*
X004139Y006076D02*
X003473Y006076D01*
X003531Y006134D02*
X004192Y006134D01*
X004245Y006192D02*
X003571Y006192D01*
X003571Y006249D02*
X004266Y006249D01*
X004266Y006307D02*
X003571Y006307D01*
X003570Y006364D02*
X004266Y006364D01*
X004266Y006422D02*
X003513Y006422D01*
X003455Y006479D02*
X004266Y006479D01*
X004030Y005961D02*
X001346Y005961D01*
X001346Y005904D02*
X004009Y005904D01*
X004010Y005846D02*
X001346Y005846D01*
X001346Y005789D02*
X004010Y005789D01*
X004010Y005731D02*
X002550Y005731D01*
X002532Y005749D02*
X002666Y005615D01*
X002666Y005426D01*
X002532Y005292D01*
X002342Y005292D01*
X002208Y005426D01*
X002208Y005615D01*
X002342Y005749D01*
X002532Y005749D01*
X002608Y005674D02*
X004010Y005674D01*
X004010Y005616D02*
X002665Y005616D01*
X002666Y005558D02*
X004010Y005558D01*
X004010Y005501D02*
X002666Y005501D01*
X002666Y005443D02*
X004010Y005443D01*
X004010Y005386D02*
X002625Y005386D01*
X002568Y005328D02*
X004010Y005328D01*
X004010Y005271D02*
X001346Y005271D01*
X001346Y005328D02*
X002306Y005328D01*
X002249Y005386D02*
X001346Y005386D01*
X001346Y005443D02*
X002208Y005443D01*
X002208Y005501D02*
X001346Y005501D01*
X001346Y005558D02*
X002208Y005558D01*
X002209Y005616D02*
X001346Y005616D01*
X001346Y005674D02*
X002267Y005674D01*
X002324Y005731D02*
X001346Y005731D01*
X001346Y005213D02*
X004010Y005213D01*
X004010Y005156D02*
X001346Y005156D01*
X001346Y005098D02*
X004010Y005098D01*
X004010Y005040D02*
X001346Y005040D01*
X001346Y004983D02*
X004010Y004983D01*
X004010Y004925D02*
X001346Y004925D01*
X001346Y004868D02*
X004010Y004868D01*
X004010Y004810D02*
X001346Y004810D01*
X001346Y004753D02*
X004010Y004753D01*
X004010Y004695D02*
X001346Y004695D01*
X001346Y004638D02*
X004010Y004638D01*
X004010Y004580D02*
X001346Y004580D01*
X001346Y004522D02*
X004010Y004522D01*
X004010Y004465D02*
X001346Y004465D01*
X001346Y004407D02*
X004010Y004407D01*
X004010Y004350D02*
X001346Y004350D01*
X001346Y004292D02*
X004010Y004292D01*
X004010Y004235D02*
X001346Y004235D01*
X001346Y004177D02*
X004010Y004177D01*
X004010Y004120D02*
X001346Y004120D01*
X001346Y004062D02*
X004010Y004062D01*
X004010Y004004D02*
X001346Y004004D01*
X001346Y003947D02*
X004010Y003947D01*
X004010Y003889D02*
X001346Y003889D01*
X001346Y003832D02*
X004010Y003832D01*
X004010Y003774D02*
X001346Y003774D01*
X001346Y003717D02*
X004010Y003717D01*
X004010Y003659D02*
X001346Y003659D01*
X001346Y003602D02*
X004010Y003602D01*
X004010Y003544D02*
X001346Y003544D01*
X001346Y003486D02*
X003996Y003486D01*
X004102Y003141D02*
X004128Y003141D01*
X004128Y003084D02*
X002877Y003084D01*
X002830Y003026D02*
X004128Y003026D01*
X004128Y002968D02*
X002793Y002968D01*
X002969Y002911D02*
X004128Y002911D01*
X004128Y002853D02*
X003026Y002853D01*
X003059Y002796D02*
X004128Y002796D01*
X004128Y002738D02*
X003059Y002738D01*
X003059Y002681D02*
X004128Y002681D01*
X004128Y002623D02*
X003052Y002623D01*
X002994Y002566D02*
X004128Y002566D01*
X004125Y002508D02*
X002937Y002508D01*
X002793Y002450D02*
X004128Y002450D01*
X004128Y002393D02*
X002793Y002393D01*
X002793Y002335D02*
X004176Y002335D01*
X004239Y002278D02*
X002793Y002278D01*
X002793Y002220D02*
X004302Y002220D01*
X004365Y002163D02*
X003362Y002163D01*
X003420Y002105D02*
X004427Y002105D01*
X004490Y002048D02*
X003478Y002048D01*
X003492Y001990D02*
X004531Y001990D01*
X004531Y001932D02*
X003492Y001932D01*
X003492Y001875D02*
X004579Y001875D01*
X004636Y001817D02*
X003466Y001817D01*
X003165Y002163D02*
X002793Y002163D01*
X002811Y002105D02*
X003108Y002105D01*
X002647Y001817D02*
X002646Y001817D01*
X002291Y001702D02*
X001346Y001702D01*
X001346Y001760D02*
X002233Y001760D01*
X002189Y001817D02*
X001346Y001817D01*
X001346Y001875D02*
X002189Y001875D01*
X002189Y001932D02*
X001346Y001932D01*
X001346Y001990D02*
X002189Y001990D01*
X002243Y002048D02*
X001346Y002048D01*
X001346Y002105D02*
X002301Y002105D01*
X002474Y002163D02*
X001346Y002163D01*
X001346Y002220D02*
X002474Y002220D01*
X002474Y002278D02*
X001346Y002278D01*
X001346Y002335D02*
X002474Y002335D01*
X002474Y002393D02*
X001346Y002393D01*
X001346Y002450D02*
X002474Y002450D01*
X002474Y002508D02*
X001346Y002508D01*
X001346Y002566D02*
X002474Y002566D01*
X002474Y002623D02*
X001346Y002623D01*
X001346Y002681D02*
X002474Y002681D01*
X002474Y002738D02*
X001346Y002738D01*
X001346Y002796D02*
X002474Y002796D01*
X002474Y002853D02*
X001346Y002853D01*
X001346Y002911D02*
X002474Y002911D01*
X002474Y002968D02*
X001346Y002968D01*
X001346Y003026D02*
X002474Y003026D01*
X002470Y003084D02*
X001346Y003084D01*
X001346Y003141D02*
X002509Y003141D01*
X002558Y003199D02*
X001346Y003199D01*
X001346Y003256D02*
X002606Y003256D01*
X002654Y003314D02*
X001346Y003314D01*
X001346Y003371D02*
X002700Y003371D01*
X002750Y003429D02*
X001346Y003429D01*
X001438Y000666D02*
X016768Y000666D01*
X016768Y000609D02*
X001480Y000609D01*
X001522Y000551D02*
X016768Y000551D01*
X016768Y000494D02*
X001586Y000494D01*
X001665Y000436D02*
X016768Y000436D01*
X016768Y000378D02*
X001793Y000378D01*
X004565Y003544D02*
X011768Y003544D01*
X011791Y003521D02*
X011981Y003521D01*
X012062Y003602D02*
X014245Y003602D01*
X014245Y003659D02*
X012114Y003659D01*
X012114Y003717D02*
X014245Y003717D01*
X014245Y003774D02*
X012114Y003774D01*
X012114Y003832D02*
X014245Y003832D01*
X014245Y003889D02*
X012069Y003889D01*
X012033Y003947D02*
X014245Y003947D01*
X014245Y004004D02*
X012090Y004004D01*
X012148Y004062D02*
X014245Y004062D01*
X014245Y004120D02*
X012154Y004120D01*
X012154Y004177D02*
X014245Y004177D01*
X014245Y004235D02*
X012154Y004235D01*
X012119Y004292D02*
X014245Y004292D01*
X014245Y004350D02*
X012061Y004350D01*
X011677Y004580D02*
X004565Y004580D01*
X004565Y004638D02*
X011619Y004638D01*
X011618Y004695D02*
X004565Y004695D01*
X004565Y004753D02*
X011618Y004753D01*
X011618Y004810D02*
X004565Y004810D01*
X004565Y004868D02*
X011658Y004868D01*
X011715Y004925D02*
X004565Y004925D01*
X004565Y004407D02*
X014245Y004407D01*
X014566Y004407D02*
X015900Y004407D01*
X015900Y004350D02*
X014566Y004350D01*
X014566Y004292D02*
X015373Y004292D01*
X015316Y004235D02*
X014566Y004235D01*
X014566Y004465D02*
X015900Y004465D01*
X015900Y004522D02*
X014566Y004522D01*
X014566Y004580D02*
X015900Y004580D01*
X015900Y004638D02*
X014566Y004638D01*
X014566Y004695D02*
X015900Y004695D01*
X015677Y004753D02*
X014566Y004753D01*
X014566Y004810D02*
X015620Y004810D01*
X015594Y004868D02*
X014566Y004868D01*
X014566Y004925D02*
X014756Y004925D01*
X014783Y004898D02*
X014973Y004898D01*
X015107Y005032D01*
X015107Y005222D01*
X014973Y005356D01*
X014783Y005356D01*
X014649Y005222D01*
X014649Y005032D01*
X014783Y004898D01*
X014699Y004983D02*
X014566Y004983D01*
X014566Y005040D02*
X014649Y005040D01*
X014649Y005098D02*
X014566Y005098D01*
X014566Y005156D02*
X014649Y005156D01*
X014649Y005213D02*
X014566Y005213D01*
X014566Y005271D02*
X014698Y005271D01*
X014756Y005328D02*
X014566Y005328D01*
X014566Y005386D02*
X015634Y005386D01*
X015634Y005443D02*
X014566Y005443D01*
X014566Y005501D02*
X015637Y005501D01*
X015695Y005558D02*
X014566Y005558D01*
X014566Y005616D02*
X015752Y005616D01*
X015900Y005674D02*
X014566Y005674D01*
X014566Y005731D02*
X015900Y005731D01*
X015900Y005789D02*
X014566Y005789D01*
X014566Y005846D02*
X015900Y005846D01*
X015900Y005904D02*
X014566Y005904D01*
X014566Y005961D02*
X015900Y005961D01*
X015900Y006019D02*
X014566Y006019D01*
X014566Y006076D02*
X015900Y006076D01*
X015900Y006134D02*
X014566Y006134D01*
X014566Y006192D02*
X015900Y006192D01*
X015900Y006249D02*
X014566Y006249D01*
X014566Y006307D02*
X015900Y006307D01*
X015900Y006364D02*
X014588Y006364D01*
X014646Y006422D02*
X015900Y006422D01*
X015900Y006479D02*
X014673Y006479D01*
X014673Y006537D02*
X015900Y006537D01*
X015900Y006594D02*
X014673Y006594D01*
X014661Y006652D02*
X015900Y006652D01*
X015900Y006710D02*
X014603Y006710D01*
X014545Y006767D02*
X015900Y006767D01*
X015900Y006825D02*
X012677Y006825D01*
X012705Y006797D02*
X012571Y006930D01*
X012382Y006930D01*
X012248Y006797D01*
X012248Y006607D01*
X012382Y006473D01*
X012571Y006473D01*
X012705Y006607D01*
X012705Y006797D01*
X012705Y006767D02*
X014344Y006767D01*
X014287Y006710D02*
X012705Y006710D01*
X012705Y006652D02*
X014229Y006652D01*
X014216Y006594D02*
X012692Y006594D01*
X012635Y006537D02*
X014216Y006537D01*
X014216Y006479D02*
X012577Y006479D01*
X012376Y006479D02*
X009014Y006479D01*
X009014Y006422D02*
X014244Y006422D01*
X014245Y006364D02*
X009014Y006364D01*
X009014Y006307D02*
X014245Y006307D01*
X014245Y006249D02*
X009014Y006249D01*
X009014Y006192D02*
X014245Y006192D01*
X014245Y006134D02*
X014206Y006134D01*
X013999Y006134D02*
X013415Y006134D01*
X013472Y006076D02*
X013941Y006076D01*
X013884Y006019D02*
X013530Y006019D01*
X013540Y005961D02*
X013874Y005961D01*
X013874Y005904D02*
X013540Y005904D01*
X013540Y005846D02*
X013874Y005846D01*
X013905Y005789D02*
X013509Y005789D01*
X013451Y005731D02*
X013962Y005731D01*
X014242Y005731D02*
X014245Y005731D01*
X014245Y005558D02*
X012002Y005558D01*
X012060Y005501D02*
X014245Y005501D01*
X014245Y005443D02*
X012117Y005443D01*
X012118Y005386D02*
X014245Y005386D01*
X014245Y005328D02*
X012118Y005328D01*
X012118Y005271D02*
X014245Y005271D01*
X014245Y005213D02*
X012079Y005213D01*
X012021Y005156D02*
X014245Y005156D01*
X015000Y005328D02*
X015634Y005328D01*
X015671Y005271D02*
X015058Y005271D01*
X015107Y005213D02*
X015702Y005213D01*
X015702Y005156D02*
X015107Y005156D01*
X015107Y005098D02*
X015667Y005098D01*
X015610Y005040D02*
X015107Y005040D01*
X015057Y004983D02*
X015594Y004983D01*
X015594Y004925D02*
X015000Y004925D01*
X015564Y004292D02*
X015900Y004292D01*
X015900Y004235D02*
X015621Y004235D01*
X015679Y004177D02*
X015900Y004177D01*
X015900Y004120D02*
X015697Y004120D01*
X015697Y004062D02*
X015900Y004062D01*
X015900Y004004D02*
X015697Y004004D01*
X015675Y003947D02*
X015900Y003947D01*
X015900Y003889D02*
X015617Y003889D01*
X015630Y003832D02*
X015900Y003832D01*
X015900Y003774D02*
X015688Y003774D01*
X015697Y003717D02*
X015900Y003717D01*
X015900Y003659D02*
X015697Y003659D01*
X015697Y003602D02*
X015900Y003602D01*
X015900Y003544D02*
X015665Y003544D01*
X015608Y003486D02*
X015900Y003486D01*
X015900Y003429D02*
X015640Y003429D01*
X015697Y003256D02*
X015900Y003256D01*
X015900Y003199D02*
X015697Y003199D01*
X015656Y003141D02*
X015900Y003141D01*
X015900Y003084D02*
X015599Y003084D01*
X015649Y003026D02*
X015900Y003026D01*
X015900Y002968D02*
X015697Y002968D01*
X015697Y002911D02*
X015900Y002911D01*
X015900Y002853D02*
X015697Y002853D01*
X015697Y002796D02*
X015900Y002796D01*
X015900Y002738D02*
X015700Y002738D01*
X015736Y002681D02*
X015900Y002681D01*
X015900Y002623D02*
X015736Y002623D01*
X015736Y002566D02*
X015900Y002566D01*
X015900Y002508D02*
X015732Y002508D01*
X015674Y002450D02*
X015900Y002450D01*
X015900Y002393D02*
X015617Y002393D01*
X015399Y002393D02*
X012821Y002393D01*
X012879Y002450D02*
X015342Y002450D01*
X015284Y002508D02*
X012937Y002508D01*
X012941Y002566D02*
X015279Y002566D01*
X015279Y002623D02*
X012941Y002623D01*
X013004Y002796D02*
X012847Y002796D01*
X012947Y002853D02*
X012652Y002853D01*
X012705Y002911D02*
X012893Y002911D01*
X012893Y002968D02*
X012705Y002968D01*
X012705Y003026D02*
X012893Y003026D01*
X012893Y003084D02*
X012705Y003084D01*
X012660Y003141D02*
X012939Y003141D01*
X012996Y003199D02*
X012602Y003199D01*
X012520Y002738D02*
X006582Y002738D01*
X006640Y002681D02*
X012484Y002681D01*
X012484Y002623D02*
X006681Y002623D01*
X006681Y002566D02*
X012484Y002566D01*
X012489Y002508D02*
X006681Y002508D01*
X006681Y002450D02*
X012546Y002450D01*
X012604Y002393D02*
X006625Y002393D01*
X006567Y002335D02*
X015900Y002335D01*
X016965Y001127D02*
X017028Y001127D01*
X016965Y001069D02*
X017096Y001069D01*
X016965Y001012D02*
X021559Y001012D01*
X021559Y001069D02*
X017975Y001069D01*
X018032Y001127D02*
X021559Y001127D01*
X021559Y001184D02*
X019723Y001184D01*
X019781Y001242D02*
X021559Y001242D01*
X021559Y001299D02*
X019831Y001299D01*
X019831Y001357D02*
X021559Y001357D01*
X021559Y001414D02*
X019831Y001414D01*
X019831Y001472D02*
X021559Y001472D01*
X021559Y001530D02*
X019783Y001530D01*
X019725Y001587D02*
X021559Y001587D01*
X021559Y001645D02*
X019593Y001645D01*
X019650Y001702D02*
X021559Y001702D01*
X021559Y001760D02*
X019673Y001760D01*
X019673Y001817D02*
X021559Y001817D01*
X021559Y001875D02*
X019673Y001875D01*
X019656Y001932D02*
X021559Y001932D01*
X021559Y001990D02*
X019598Y001990D01*
X019541Y002048D02*
X021559Y002048D01*
X021559Y002105D02*
X019516Y002105D01*
X019504Y002163D02*
X020378Y002163D01*
X020262Y002220D02*
X019499Y002220D01*
X019516Y002278D02*
X020205Y002278D01*
X020168Y002335D02*
X019516Y002335D01*
X019516Y002393D02*
X020145Y002393D01*
X020232Y002853D02*
X021559Y002853D01*
X021559Y002796D02*
X020607Y002796D01*
X020695Y002738D02*
X021559Y002738D01*
X021559Y002681D02*
X020753Y002681D01*
X020777Y002623D02*
X021559Y002623D01*
X021559Y002566D02*
X020801Y002566D01*
X020805Y002508D02*
X021559Y002508D01*
X021559Y002450D02*
X020805Y002450D01*
X020793Y002393D02*
X021559Y002393D01*
X021559Y002335D02*
X020769Y002335D01*
X020733Y002278D02*
X021559Y002278D01*
X021559Y002220D02*
X020675Y002220D01*
X020559Y002163D02*
X021559Y002163D01*
X021559Y002911D02*
X020245Y002911D01*
X020248Y002968D02*
X020334Y002968D01*
X020603Y002968D02*
X021559Y002968D01*
X021559Y003026D02*
X020693Y003026D01*
X020751Y003084D02*
X021559Y003084D01*
X021559Y003141D02*
X020776Y003141D01*
X020800Y003199D02*
X021559Y003199D01*
X021559Y003256D02*
X020805Y003256D01*
X020805Y003314D02*
X021559Y003314D01*
X021559Y003371D02*
X020793Y003371D01*
X020769Y003429D02*
X021559Y003429D01*
X021559Y003486D02*
X020734Y003486D01*
X020677Y003544D02*
X021559Y003544D01*
X021559Y003602D02*
X020723Y003602D01*
X020776Y003659D02*
X021559Y003659D01*
X021559Y003717D02*
X020776Y003717D01*
X020776Y003774D02*
X021559Y003774D01*
X021559Y003832D02*
X020776Y003832D01*
X020730Y003889D02*
X021559Y003889D01*
X021559Y003947D02*
X020673Y003947D01*
X020666Y004062D02*
X021559Y004062D01*
X021559Y004120D02*
X020724Y004120D01*
X020765Y004177D02*
X021559Y004177D01*
X021559Y004235D02*
X020789Y004235D01*
X020805Y004292D02*
X021559Y004292D01*
X021559Y004350D02*
X020805Y004350D01*
X020804Y004407D02*
X021559Y004407D01*
X021559Y004465D02*
X020781Y004465D01*
X020856Y004522D02*
X021559Y004522D01*
X021559Y004580D02*
X020914Y004580D01*
X020933Y004638D02*
X021559Y004638D01*
X021559Y004695D02*
X020933Y004695D01*
X020933Y004753D02*
X021559Y004753D01*
X021559Y004810D02*
X020912Y004810D01*
X020854Y004868D02*
X021559Y004868D01*
X021559Y004925D02*
X020742Y004925D01*
X020773Y004983D02*
X021559Y004983D01*
X021559Y005040D02*
X020797Y005040D01*
X020805Y005098D02*
X021559Y005098D01*
X021559Y005156D02*
X020805Y005156D01*
X020797Y005213D02*
X021559Y005213D01*
X021559Y005271D02*
X020773Y005271D01*
X020743Y005328D02*
X021559Y005328D01*
X021559Y005386D02*
X020685Y005386D01*
X020584Y005443D02*
X021559Y005443D01*
X021559Y005501D02*
X017478Y005501D01*
X017478Y005558D02*
X021559Y005558D01*
X021559Y005616D02*
X017478Y005616D01*
X017478Y005674D02*
X021559Y005674D01*
X021559Y005731D02*
X017478Y005731D01*
X017478Y005789D02*
X021559Y005789D01*
X021559Y005846D02*
X017478Y005846D01*
X017478Y005904D02*
X021559Y005904D01*
X021559Y005961D02*
X017478Y005961D01*
X017478Y006019D02*
X021559Y006019D01*
X021559Y006076D02*
X017479Y006076D01*
X017526Y006134D02*
X017585Y006134D01*
X017585Y006109D02*
X017590Y006109D01*
X017659Y006123D01*
X017724Y006150D01*
X017782Y006189D01*
X017832Y006239D01*
X017871Y006297D01*
X017898Y006362D01*
X017911Y006431D01*
X017911Y006436D01*
X017585Y006436D01*
X017585Y006109D01*
X017585Y006192D02*
X017526Y006192D01*
X017526Y006249D02*
X017585Y006249D01*
X017585Y006307D02*
X017526Y006307D01*
X017526Y006364D02*
X017585Y006364D01*
X017585Y006422D02*
X017526Y006422D01*
X017526Y006479D02*
X017170Y006479D01*
X017163Y006537D02*
X017206Y006537D01*
X017223Y006594D02*
X017163Y006594D01*
X017163Y006652D02*
X017251Y006652D01*
X017295Y006710D02*
X017163Y006710D01*
X017163Y006767D02*
X017365Y006767D01*
X017526Y006767D02*
X017585Y006767D01*
X017585Y006710D02*
X017526Y006710D01*
X017526Y006652D02*
X017585Y006652D01*
X017585Y006594D02*
X017526Y006594D01*
X017526Y006537D02*
X017585Y006537D01*
X017585Y006479D02*
X018006Y006479D01*
X018006Y006533D02*
X018006Y006399D01*
X018058Y006275D01*
X018152Y006181D01*
X018276Y006129D01*
X018409Y006129D01*
X018533Y006181D01*
X018628Y006275D01*
X018679Y006399D01*
X018679Y006533D01*
X018628Y006656D01*
X018533Y006751D01*
X018409Y006802D01*
X018276Y006802D01*
X018152Y006751D01*
X018058Y006656D01*
X018006Y006533D01*
X018008Y006537D02*
X017904Y006537D01*
X017887Y006594D02*
X018032Y006594D01*
X018056Y006652D02*
X017859Y006652D01*
X017815Y006710D02*
X018111Y006710D01*
X018192Y006767D02*
X017745Y006767D01*
X017910Y006422D02*
X018006Y006422D01*
X018021Y006364D02*
X017898Y006364D01*
X017875Y006307D02*
X018044Y006307D01*
X018084Y006249D02*
X017839Y006249D01*
X017785Y006192D02*
X018141Y006192D01*
X018265Y006134D02*
X017685Y006134D01*
X017478Y005443D02*
X020354Y005443D01*
X020252Y005386D02*
X017478Y005386D01*
X017478Y005328D02*
X020194Y005328D01*
X020164Y005271D02*
X017478Y005271D01*
X017478Y005213D02*
X020140Y005213D01*
X020132Y005156D02*
X017478Y005156D01*
X017478Y005098D02*
X017754Y005098D01*
X017696Y005040D02*
X017478Y005040D01*
X017478Y004983D02*
X017642Y004983D01*
X017503Y004925D02*
X017478Y004925D01*
X017986Y005098D02*
X020132Y005098D01*
X020140Y005040D02*
X018044Y005040D01*
X018099Y004983D02*
X020164Y004983D01*
X020195Y004925D02*
X018099Y004925D01*
X018099Y004868D02*
X020252Y004868D01*
X020355Y004810D02*
X018099Y004810D01*
X018080Y004753D02*
X020476Y004753D01*
X020476Y004695D02*
X018080Y004695D01*
X018080Y004638D02*
X020309Y004638D01*
X020233Y004580D02*
X018080Y004580D01*
X018080Y004522D02*
X020180Y004522D01*
X020156Y004465D02*
X018080Y004465D01*
X018080Y004407D02*
X020133Y004407D01*
X020132Y004350D02*
X018080Y004350D01*
X018080Y004292D02*
X020105Y004292D01*
X020042Y004235D02*
X018080Y004235D01*
X018080Y004177D02*
X019978Y004177D01*
X019913Y004120D02*
X018080Y004120D01*
X018080Y004062D02*
X019852Y004062D01*
X019826Y004004D02*
X018080Y004004D01*
X018080Y003947D02*
X019826Y003947D01*
X019823Y003889D02*
X018080Y003889D01*
X018080Y003832D02*
X019826Y003832D01*
X019826Y003774D02*
X018080Y003774D01*
X018080Y003717D02*
X019826Y003717D01*
X019826Y003659D02*
X018080Y003659D01*
X018080Y003602D02*
X019826Y003602D01*
X019826Y003544D02*
X018080Y003544D01*
X018080Y003486D02*
X019826Y003486D01*
X019826Y003429D02*
X018080Y003429D01*
X018080Y003371D02*
X019826Y003371D01*
X019826Y003314D02*
X018080Y003314D01*
X018080Y003256D02*
X019534Y003256D01*
X019477Y003199D02*
X018140Y003199D01*
X018205Y003141D02*
X019453Y003141D01*
X019453Y003084D02*
X018270Y003084D01*
X017824Y002570D02*
X017400Y002570D01*
X017400Y003146D01*
X017163Y003382D01*
X017163Y004423D01*
X017279Y004308D01*
X017424Y004308D01*
X017424Y003077D01*
X017417Y003069D01*
X017424Y002992D01*
X017424Y002914D01*
X017432Y002907D01*
X017433Y002896D01*
X017492Y002846D01*
X017547Y002792D01*
X017558Y002792D01*
X017824Y002570D01*
X017760Y002623D02*
X017400Y002623D01*
X017400Y002681D02*
X017691Y002681D01*
X017622Y002738D02*
X017400Y002738D01*
X017400Y002796D02*
X017543Y002796D01*
X017484Y002853D02*
X017400Y002853D01*
X017400Y002911D02*
X017428Y002911D01*
X017424Y002968D02*
X017400Y002968D01*
X017400Y003026D02*
X017421Y003026D01*
X017424Y003084D02*
X017400Y003084D01*
X017400Y003141D02*
X017424Y003141D01*
X017424Y003199D02*
X017347Y003199D01*
X017289Y003256D02*
X017424Y003256D01*
X017424Y003314D02*
X017232Y003314D01*
X017174Y003371D02*
X017424Y003371D01*
X017424Y003429D02*
X017163Y003429D01*
X017163Y003486D02*
X017424Y003486D01*
X017424Y003544D02*
X017163Y003544D01*
X017163Y003602D02*
X017424Y003602D01*
X017424Y003659D02*
X017163Y003659D01*
X017163Y003717D02*
X017424Y003717D01*
X017424Y003774D02*
X017163Y003774D01*
X017163Y003832D02*
X017424Y003832D01*
X017424Y003889D02*
X017163Y003889D01*
X017163Y003947D02*
X017424Y003947D01*
X017424Y004004D02*
X017163Y004004D01*
X017163Y004062D02*
X017424Y004062D01*
X017424Y004120D02*
X017163Y004120D01*
X017163Y004177D02*
X017424Y004177D01*
X017424Y004235D02*
X017163Y004235D01*
X017163Y004292D02*
X017424Y004292D01*
X017237Y004350D02*
X017163Y004350D01*
X017163Y004407D02*
X017179Y004407D01*
X016337Y005237D02*
X016337Y005766D01*
X016451Y005652D01*
X016451Y005351D01*
X016337Y005237D01*
X016337Y005271D02*
X016371Y005271D01*
X016337Y005328D02*
X016428Y005328D01*
X016451Y005386D02*
X016337Y005386D01*
X016337Y005443D02*
X016451Y005443D01*
X016451Y005501D02*
X016337Y005501D01*
X016337Y005558D02*
X016451Y005558D01*
X016451Y005616D02*
X016337Y005616D01*
X016337Y005674D02*
X016429Y005674D01*
X016371Y005731D02*
X016337Y005731D01*
X015900Y006882D02*
X012619Y006882D01*
X012334Y006882D02*
X009014Y006882D01*
X009014Y006825D02*
X012276Y006825D01*
X012248Y006767D02*
X009014Y006767D01*
X009014Y006710D02*
X012248Y006710D01*
X012248Y006652D02*
X009014Y006652D01*
X009014Y006594D02*
X012261Y006594D01*
X012318Y006537D02*
X009014Y006537D01*
X008960Y006940D02*
X015900Y006940D01*
X015900Y006997D02*
X014020Y006997D01*
X014078Y007055D02*
X015900Y007055D01*
X015900Y007112D02*
X014706Y007112D01*
X014658Y007064D02*
X014792Y007198D01*
X014792Y007387D01*
X014658Y007521D01*
X014468Y007521D01*
X014334Y007387D01*
X014334Y007198D01*
X014468Y007064D01*
X014658Y007064D01*
X014764Y007170D02*
X015900Y007170D01*
X015900Y007228D02*
X014792Y007228D01*
X014792Y007285D02*
X015900Y007285D01*
X015900Y007343D02*
X014792Y007343D01*
X014778Y007400D02*
X015900Y007400D01*
X015900Y007458D02*
X014721Y007458D01*
X014663Y007515D02*
X015900Y007515D01*
X015900Y007573D02*
X014053Y007573D01*
X014053Y007630D02*
X014126Y007630D01*
X014069Y007688D02*
X014053Y007688D01*
X014053Y007515D02*
X014463Y007515D01*
X014405Y007458D02*
X014053Y007458D01*
X014053Y007400D02*
X014348Y007400D01*
X014334Y007343D02*
X014068Y007343D01*
X014122Y007285D02*
X014334Y007285D01*
X014334Y007228D02*
X014122Y007228D01*
X014122Y007170D02*
X014362Y007170D01*
X014420Y007112D02*
X014122Y007112D01*
X013767Y006997D02*
X013635Y006997D01*
X013692Y007055D02*
X013710Y007055D01*
X013366Y006997D02*
X008903Y006997D01*
X008845Y007055D02*
X013308Y007055D01*
X014053Y007960D02*
X014053Y008670D01*
X014207Y008670D01*
X014207Y008486D01*
X014300Y008393D01*
X014623Y008070D01*
X014598Y008045D01*
X014583Y008060D01*
X014394Y008060D01*
X014368Y008035D01*
X014343Y008060D01*
X014153Y008060D01*
X014053Y007960D01*
X014053Y007976D02*
X014069Y007976D01*
X014053Y008033D02*
X014126Y008033D01*
X014053Y008091D02*
X014602Y008091D01*
X014544Y008148D02*
X014053Y008148D01*
X014053Y008206D02*
X014487Y008206D01*
X014429Y008264D02*
X014053Y008264D01*
X014053Y008321D02*
X014372Y008321D01*
X014314Y008379D02*
X014053Y008379D01*
X014053Y008436D02*
X014257Y008436D01*
X014207Y008494D02*
X014053Y008494D01*
X014053Y008551D02*
X014207Y008551D01*
X014207Y008609D02*
X014053Y008609D01*
X014053Y008666D02*
X014207Y008666D01*
X014207Y008897D02*
X013975Y008897D01*
X013975Y008954D02*
X014207Y008954D01*
X014207Y009012D02*
X013975Y009012D01*
X013975Y009069D02*
X014183Y009069D01*
X014138Y009127D02*
X013975Y009127D01*
X013975Y009184D02*
X014138Y009184D01*
X014138Y009242D02*
X013975Y009242D01*
X013975Y009300D02*
X014138Y009300D01*
X014190Y009357D02*
X013975Y009357D01*
X013975Y009415D02*
X014248Y009415D01*
X014435Y009472D02*
X013975Y009472D01*
X013975Y009530D02*
X014493Y009530D01*
X014696Y009530D02*
X015843Y009530D01*
X015786Y009472D02*
X015699Y009472D01*
X016110Y009530D02*
X017356Y009530D01*
X017356Y009587D02*
X013975Y009587D01*
X013976Y009645D02*
X017356Y009645D01*
X017356Y009702D02*
X013975Y009702D01*
X013937Y009760D02*
X017356Y009760D01*
X017356Y009818D02*
X013947Y009818D01*
X014201Y009875D02*
X017356Y009875D01*
X017356Y009933D02*
X014259Y009933D01*
X014316Y009990D02*
X017356Y009990D01*
X017356Y010048D02*
X014319Y010048D01*
X014319Y010105D02*
X014616Y010105D01*
X014558Y010163D02*
X014319Y010163D01*
X014904Y010105D02*
X015403Y010105D01*
X015346Y010163D02*
X014961Y010163D01*
X015137Y010220D02*
X015319Y010220D01*
X015319Y010278D02*
X015195Y010278D01*
X015225Y010336D02*
X015319Y010336D01*
X015333Y010393D02*
X015225Y010393D01*
X015225Y010451D02*
X015352Y010451D01*
X015295Y010508D02*
X015214Y010508D01*
X015691Y010105D02*
X017356Y010105D01*
X017356Y010163D02*
X016064Y010163D01*
X016121Y010220D02*
X017356Y010220D01*
X017356Y010278D02*
X016170Y010278D01*
X016276Y010336D02*
X017318Y010336D01*
X017260Y010393D02*
X016333Y010393D01*
X016366Y010451D02*
X017203Y010451D01*
X017145Y010508D02*
X016366Y010508D01*
X016366Y010566D02*
X017120Y010566D01*
X017120Y010623D02*
X016359Y010623D01*
X016301Y010681D02*
X017120Y010681D01*
X017120Y010738D02*
X016297Y010738D01*
X016285Y010796D02*
X017120Y010796D01*
X017120Y010854D02*
X016227Y010854D01*
X016170Y010911D02*
X017120Y010911D01*
X017120Y010969D02*
X017066Y010969D01*
X016863Y010969D02*
X016112Y010969D01*
X016055Y011026D02*
X016805Y011026D01*
X016748Y011084D02*
X015997Y011084D01*
X015940Y011141D02*
X016736Y011141D01*
X017233Y011659D02*
X018399Y011659D01*
X018399Y011602D02*
X017290Y011602D01*
X017348Y011544D02*
X018399Y011544D01*
X018399Y011487D02*
X017405Y011487D01*
X017439Y011429D02*
X018399Y011429D01*
X018399Y011372D02*
X017439Y011372D01*
X017439Y011314D02*
X018399Y011314D01*
X018399Y011256D02*
X017439Y011256D01*
X017439Y011199D02*
X018399Y011199D01*
X018399Y011141D02*
X017439Y011141D01*
X017439Y011084D02*
X018399Y011084D01*
X018399Y011026D02*
X017439Y011026D01*
X017439Y010969D02*
X018399Y010969D01*
X018399Y010911D02*
X017439Y010911D01*
X017439Y010854D02*
X018399Y010854D01*
X018399Y010796D02*
X017439Y010796D01*
X017439Y010738D02*
X018399Y010738D01*
X018399Y010681D02*
X017439Y010681D01*
X017481Y010623D02*
X018399Y010623D01*
X018399Y010566D02*
X017539Y010566D01*
X017596Y010508D02*
X018399Y010508D01*
X018399Y010451D02*
X017654Y010451D01*
X017675Y010393D02*
X018399Y010393D01*
X018399Y010336D02*
X017675Y010336D01*
X017675Y010278D02*
X018399Y010278D01*
X018358Y010238D02*
X018169Y010238D01*
X018035Y010104D01*
X018035Y009914D01*
X018169Y009780D01*
X018358Y009780D01*
X018399Y009821D01*
X018399Y009620D01*
X018504Y009514D01*
X018741Y009278D01*
X019589Y009278D01*
X019677Y009190D01*
X019866Y009190D01*
X020000Y009324D01*
X020000Y009465D01*
X020023Y009465D01*
X020023Y008781D01*
X020012Y008781D01*
X020012Y008923D01*
X019878Y009056D01*
X019689Y009056D01*
X019555Y008923D01*
X019555Y008733D01*
X019689Y008599D01*
X019768Y008599D01*
X019768Y008458D01*
X019873Y008352D01*
X019725Y008190D01*
X019705Y008190D01*
X019571Y008056D01*
X019571Y007867D01*
X019705Y007733D01*
X019894Y007733D01*
X020028Y007867D01*
X020028Y007901D01*
X020277Y008172D01*
X020279Y008170D01*
X020285Y008143D01*
X020338Y008111D01*
X020382Y008067D01*
X020382Y008067D01*
X020445Y008005D01*
X020634Y008005D01*
X020768Y008139D01*
X020768Y008328D01*
X020678Y008418D01*
X020678Y008796D01*
X020799Y008796D01*
X020933Y008930D01*
X020933Y009119D01*
X020799Y009253D01*
X020678Y009253D01*
X020678Y010213D01*
X020799Y010213D01*
X020933Y010347D01*
X020933Y010537D01*
X020799Y010671D01*
X020678Y010671D01*
X020678Y017576D01*
X020284Y017970D01*
X020162Y018092D01*
X017472Y018092D01*
X017453Y018112D01*
X017264Y018112D01*
X017130Y017978D01*
X017130Y017788D01*
X017264Y017654D01*
X017453Y017654D01*
X017472Y017673D01*
X019988Y017673D01*
X020259Y017402D01*
X020259Y016526D01*
X020170Y016615D01*
X019980Y016615D01*
X019846Y016482D01*
X019846Y016478D01*
X017862Y016478D01*
X017862Y016600D01*
X017729Y016734D01*
X017539Y016734D01*
X017470Y016665D01*
X017429Y016665D01*
X017429Y016797D01*
X017295Y016930D01*
X017106Y016930D01*
X016972Y016797D01*
X016972Y016620D01*
X016923Y016571D01*
X016766Y016414D01*
X016766Y014248D01*
X016702Y014184D01*
X014508Y014184D01*
X014083Y014581D01*
X014083Y014671D01*
X013949Y014804D01*
X013847Y014804D01*
X013847Y014828D01*
X013713Y014962D01*
X013523Y014962D01*
X013390Y014828D01*
X013390Y014639D01*
X013523Y014505D01*
X013626Y014505D01*
X013626Y014481D01*
X013760Y014347D01*
X013865Y014347D01*
X013900Y014315D01*
X013823Y014237D01*
X013823Y014048D01*
X013957Y013914D01*
X014146Y013914D01*
X014235Y014003D01*
X014334Y013910D01*
X014379Y013865D01*
X014382Y013865D01*
X014384Y013863D01*
X014448Y013865D01*
X016834Y013865D01*
X016991Y014023D01*
X017085Y014116D01*
X017085Y016281D01*
X017090Y016287D01*
X017090Y016174D01*
X017224Y016040D01*
X017414Y016040D01*
X017433Y016059D01*
X019177Y016059D01*
X019177Y015938D01*
X019311Y015804D01*
X019500Y015804D01*
X019634Y015938D01*
X019634Y016059D01*
X019752Y016059D01*
X020023Y015788D01*
X020023Y009923D01*
X019901Y009923D01*
X019768Y009789D01*
X019768Y009647D01*
X019766Y009647D01*
X019677Y009647D01*
X019667Y009637D01*
X018889Y009637D01*
X018758Y009768D01*
X018758Y012401D01*
X018765Y012465D01*
X020023Y012465D01*
X020023Y012408D02*
X018759Y012408D01*
X018765Y012465D02*
X018758Y012473D01*
X018758Y012485D01*
X018713Y012530D01*
X018601Y012670D01*
X018601Y012682D01*
X018555Y012727D01*
X018515Y012778D01*
X018504Y012779D01*
X018496Y012787D01*
X018431Y012787D01*
X018367Y012794D01*
X018364Y012791D01*
X018319Y012836D01*
X018130Y012836D01*
X017996Y012702D01*
X017996Y012513D01*
X018130Y012379D01*
X018319Y012379D01*
X018350Y012409D01*
X018399Y012348D01*
X018399Y010197D01*
X018358Y010238D01*
X018376Y010220D02*
X018399Y010220D01*
X018152Y010220D02*
X017675Y010220D01*
X017675Y010163D02*
X018094Y010163D01*
X018037Y010105D02*
X017675Y010105D01*
X017675Y010048D02*
X018035Y010048D01*
X018035Y009990D02*
X017675Y009990D01*
X017675Y009933D02*
X018035Y009933D01*
X018074Y009875D02*
X017675Y009875D01*
X017675Y009818D02*
X018132Y009818D01*
X018396Y009818D02*
X018399Y009818D01*
X018399Y009760D02*
X017675Y009760D01*
X017675Y009702D02*
X018399Y009702D01*
X018399Y009645D02*
X017675Y009645D01*
X017675Y009587D02*
X018432Y009587D01*
X018489Y009530D02*
X017675Y009530D01*
X017675Y009472D02*
X018547Y009472D01*
X018604Y009415D02*
X017675Y009415D01*
X017675Y009357D02*
X018662Y009357D01*
X018719Y009300D02*
X017675Y009300D01*
X017675Y009242D02*
X019625Y009242D01*
X019644Y009012D02*
X017891Y009012D01*
X017949Y008954D02*
X019587Y008954D01*
X019555Y008897D02*
X017981Y008897D01*
X017981Y008839D02*
X019555Y008839D01*
X019555Y008782D02*
X017981Y008782D01*
X017971Y008724D02*
X019564Y008724D01*
X019622Y008666D02*
X017914Y008666D01*
X017856Y008609D02*
X019679Y008609D01*
X019768Y008551D02*
X017675Y008551D01*
X017675Y008494D02*
X019299Y008494D01*
X019311Y008505D02*
X019177Y008371D01*
X019177Y008182D01*
X019311Y008048D01*
X019500Y008048D01*
X019634Y008182D01*
X019634Y008371D01*
X019500Y008505D01*
X019311Y008505D01*
X019242Y008436D02*
X017675Y008436D01*
X017675Y008379D02*
X019184Y008379D01*
X019177Y008321D02*
X017675Y008321D01*
X017675Y008264D02*
X019177Y008264D01*
X019177Y008206D02*
X017675Y008206D01*
X017675Y008148D02*
X019211Y008148D01*
X019268Y008091D02*
X017675Y008091D01*
X017675Y008033D02*
X019571Y008033D01*
X019571Y007976D02*
X017675Y007976D01*
X017675Y007918D02*
X019571Y007918D01*
X019577Y007861D02*
X017675Y007861D01*
X017675Y007803D02*
X019635Y007803D01*
X019692Y007746D02*
X018291Y007746D01*
X018280Y007757D02*
X018090Y007757D01*
X017956Y007623D01*
X017956Y007434D01*
X018090Y007300D01*
X018280Y007300D01*
X018414Y007434D01*
X018414Y007623D01*
X018280Y007757D01*
X018349Y007688D02*
X021559Y007688D01*
X021559Y007746D02*
X019906Y007746D01*
X019964Y007803D02*
X021559Y007803D01*
X021559Y007861D02*
X020021Y007861D01*
X020044Y007918D02*
X021559Y007918D01*
X021559Y007976D02*
X020096Y007976D01*
X020149Y008033D02*
X020416Y008033D01*
X020358Y008091D02*
X020202Y008091D01*
X020255Y008148D02*
X020284Y008148D01*
X020663Y008033D02*
X021559Y008033D01*
X021559Y008091D02*
X020720Y008091D01*
X020768Y008148D02*
X021559Y008148D01*
X021559Y008206D02*
X020768Y008206D01*
X020768Y008264D02*
X021559Y008264D01*
X021559Y008321D02*
X020768Y008321D01*
X020717Y008379D02*
X021559Y008379D01*
X021559Y008436D02*
X020678Y008436D01*
X020678Y008494D02*
X021559Y008494D01*
X021559Y008551D02*
X020678Y008551D01*
X020678Y008609D02*
X021559Y008609D01*
X021559Y008666D02*
X020678Y008666D01*
X020678Y008724D02*
X021559Y008724D01*
X021559Y008782D02*
X020678Y008782D01*
X020842Y008839D02*
X021559Y008839D01*
X021559Y008897D02*
X020900Y008897D01*
X020933Y008954D02*
X021559Y008954D01*
X021559Y009012D02*
X020933Y009012D01*
X020933Y009069D02*
X021559Y009069D01*
X021559Y009127D02*
X020926Y009127D01*
X020868Y009184D02*
X021559Y009184D01*
X021559Y009242D02*
X020811Y009242D01*
X020678Y009300D02*
X021559Y009300D01*
X021559Y009357D02*
X020678Y009357D01*
X020678Y009415D02*
X021559Y009415D01*
X021559Y009472D02*
X020678Y009472D01*
X020678Y009530D02*
X021559Y009530D01*
X021559Y009587D02*
X020678Y009587D01*
X020678Y009645D02*
X021559Y009645D01*
X021559Y009702D02*
X020678Y009702D01*
X020678Y009760D02*
X021559Y009760D01*
X021559Y009818D02*
X020678Y009818D01*
X020678Y009875D02*
X021559Y009875D01*
X021559Y009933D02*
X020678Y009933D01*
X020678Y009990D02*
X021559Y009990D01*
X021559Y010048D02*
X020678Y010048D01*
X020678Y010105D02*
X021033Y010105D01*
X021083Y010056D02*
X021272Y010056D01*
X021406Y010190D01*
X021406Y010379D01*
X021272Y010513D01*
X021083Y010513D01*
X020949Y010379D01*
X020949Y010190D01*
X021083Y010056D01*
X020976Y010163D02*
X020678Y010163D01*
X020806Y010220D02*
X020949Y010220D01*
X020949Y010278D02*
X020864Y010278D01*
X020922Y010336D02*
X020949Y010336D01*
X020962Y010393D02*
X020933Y010393D01*
X020933Y010451D02*
X021020Y010451D01*
X021078Y010508D02*
X020933Y010508D01*
X020904Y010566D02*
X021559Y010566D01*
X021559Y010623D02*
X020847Y010623D01*
X020678Y010681D02*
X021559Y010681D01*
X021559Y010738D02*
X020678Y010738D01*
X020678Y010796D02*
X021559Y010796D01*
X021559Y010854D02*
X020678Y010854D01*
X020678Y010911D02*
X021559Y010911D01*
X021559Y010969D02*
X020678Y010969D01*
X020678Y011026D02*
X021559Y011026D01*
X021559Y011084D02*
X020678Y011084D01*
X020678Y011141D02*
X021559Y011141D01*
X021559Y011199D02*
X020678Y011199D01*
X020678Y011256D02*
X021559Y011256D01*
X021559Y011314D02*
X020678Y011314D01*
X020678Y011372D02*
X021559Y011372D01*
X021559Y011429D02*
X020678Y011429D01*
X020678Y011487D02*
X021559Y011487D01*
X021559Y011544D02*
X020678Y011544D01*
X020678Y011602D02*
X021559Y011602D01*
X021559Y011659D02*
X020678Y011659D01*
X020678Y011717D02*
X021559Y011717D01*
X021559Y011774D02*
X020678Y011774D01*
X020678Y011832D02*
X021559Y011832D01*
X021559Y011890D02*
X020678Y011890D01*
X020678Y011947D02*
X021559Y011947D01*
X021559Y012005D02*
X020678Y012005D01*
X020678Y012062D02*
X021559Y012062D01*
X021559Y012120D02*
X020678Y012120D01*
X020678Y012177D02*
X021559Y012177D01*
X021559Y012235D02*
X020678Y012235D01*
X020678Y012292D02*
X021559Y012292D01*
X021559Y012350D02*
X020678Y012350D01*
X020678Y012408D02*
X021559Y012408D01*
X021559Y012465D02*
X020678Y012465D01*
X020678Y012523D02*
X021559Y012523D01*
X021559Y012580D02*
X020678Y012580D01*
X020678Y012638D02*
X021559Y012638D01*
X021559Y012695D02*
X020678Y012695D01*
X020678Y012753D02*
X021559Y012753D01*
X021559Y012810D02*
X020678Y012810D01*
X020678Y012868D02*
X021559Y012868D01*
X021559Y012926D02*
X020678Y012926D01*
X020678Y012983D02*
X021559Y012983D01*
X021559Y013041D02*
X020678Y013041D01*
X020678Y013098D02*
X021559Y013098D01*
X021559Y013156D02*
X020678Y013156D01*
X020678Y013213D02*
X021559Y013213D01*
X021559Y013271D02*
X020678Y013271D01*
X020678Y013328D02*
X021559Y013328D01*
X021559Y013386D02*
X020678Y013386D01*
X020678Y013444D02*
X021559Y013444D01*
X021559Y013501D02*
X020678Y013501D01*
X020678Y013559D02*
X021559Y013559D01*
X021559Y013616D02*
X020678Y013616D01*
X020678Y013674D02*
X021559Y013674D01*
X021559Y013731D02*
X020678Y013731D01*
X020678Y013789D02*
X021559Y013789D01*
X021559Y013846D02*
X020678Y013846D01*
X020678Y013904D02*
X021559Y013904D01*
X021559Y013962D02*
X020678Y013962D01*
X020678Y014019D02*
X021559Y014019D01*
X021559Y014077D02*
X020678Y014077D01*
X020678Y014134D02*
X021559Y014134D01*
X021559Y014192D02*
X020678Y014192D01*
X020678Y014249D02*
X021559Y014249D01*
X021559Y014307D02*
X020678Y014307D01*
X020678Y014364D02*
X021559Y014364D01*
X021559Y014422D02*
X020678Y014422D01*
X020678Y014480D02*
X021559Y014480D01*
X021559Y014537D02*
X020678Y014537D01*
X020678Y014595D02*
X021559Y014595D01*
X021559Y014652D02*
X020678Y014652D01*
X020678Y014710D02*
X021559Y014710D01*
X021559Y014767D02*
X020678Y014767D01*
X020678Y014825D02*
X021559Y014825D01*
X021559Y014882D02*
X020678Y014882D01*
X020678Y014940D02*
X021559Y014940D01*
X021559Y014998D02*
X020678Y014998D01*
X020678Y015055D02*
X021559Y015055D01*
X021559Y015113D02*
X020678Y015113D01*
X020678Y015170D02*
X021559Y015170D01*
X021559Y015228D02*
X020678Y015228D01*
X020678Y015285D02*
X021559Y015285D01*
X021559Y015343D02*
X020678Y015343D01*
X020678Y015400D02*
X021559Y015400D01*
X021559Y015458D02*
X020678Y015458D01*
X020678Y015516D02*
X021559Y015516D01*
X021559Y015573D02*
X020678Y015573D01*
X020678Y015631D02*
X021559Y015631D01*
X021559Y015688D02*
X020678Y015688D01*
X020678Y015746D02*
X021559Y015746D01*
X021559Y015803D02*
X020678Y015803D01*
X020678Y015861D02*
X021559Y015861D01*
X021559Y015918D02*
X020678Y015918D01*
X020678Y015976D02*
X021559Y015976D01*
X021559Y016034D02*
X020678Y016034D01*
X020678Y016091D02*
X021559Y016091D01*
X021559Y016149D02*
X020678Y016149D01*
X020678Y016206D02*
X021559Y016206D01*
X021559Y016264D02*
X020678Y016264D01*
X020678Y016321D02*
X021559Y016321D01*
X021559Y016379D02*
X020678Y016379D01*
X020678Y016436D02*
X021559Y016436D01*
X021559Y016494D02*
X020678Y016494D01*
X020678Y016552D02*
X021559Y016552D01*
X021559Y016609D02*
X020678Y016609D01*
X020678Y016667D02*
X021559Y016667D01*
X021559Y016724D02*
X020678Y016724D01*
X020678Y016782D02*
X021559Y016782D01*
X021559Y016839D02*
X020678Y016839D01*
X020678Y016897D02*
X021559Y016897D01*
X021559Y016954D02*
X020678Y016954D01*
X020678Y017012D02*
X021559Y017012D01*
X021559Y017070D02*
X020678Y017070D01*
X020678Y017127D02*
X021559Y017127D01*
X021559Y017185D02*
X020678Y017185D01*
X020678Y017242D02*
X021559Y017242D01*
X021559Y017300D02*
X020678Y017300D01*
X020678Y017357D02*
X021559Y017357D01*
X021559Y017415D02*
X020678Y017415D01*
X020678Y017472D02*
X021559Y017472D01*
X021559Y017530D02*
X020678Y017530D01*
X020667Y017588D02*
X021559Y017588D01*
X021559Y017645D02*
X020609Y017645D01*
X020551Y017703D02*
X021559Y017703D01*
X021559Y017760D02*
X020494Y017760D01*
X020436Y017818D02*
X021559Y017818D01*
X021559Y017875D02*
X020379Y017875D01*
X020321Y017933D02*
X021559Y017933D01*
X021559Y017990D02*
X020264Y017990D01*
X020206Y018048D02*
X021559Y018048D01*
X021559Y018106D02*
X017459Y018106D01*
X017258Y018106D02*
X012823Y018106D01*
X012823Y018135D02*
X012689Y018269D01*
X012500Y018269D01*
X012366Y018135D01*
X012366Y017946D01*
X012500Y017812D01*
X012689Y017812D01*
X012823Y017946D01*
X012823Y018135D01*
X012795Y018163D02*
X021559Y018163D01*
X021559Y018221D02*
X012738Y018221D01*
X012823Y018048D02*
X017200Y018048D01*
X017142Y017990D02*
X012823Y017990D01*
X012810Y017933D02*
X017130Y017933D01*
X017130Y017875D02*
X012753Y017875D01*
X012695Y017818D02*
X017130Y017818D01*
X017158Y017760D02*
X012607Y017760D01*
X012571Y017797D02*
X012382Y017797D01*
X012248Y017663D01*
X012248Y017473D01*
X012382Y017339D01*
X012571Y017339D01*
X012705Y017473D01*
X012705Y017663D01*
X012571Y017797D01*
X012494Y017818D02*
X011573Y017818D01*
X011573Y017875D02*
X012436Y017875D01*
X012379Y017933D02*
X011550Y017933D01*
X011492Y017990D02*
X012366Y017990D01*
X012366Y018048D02*
X011435Y018048D01*
X011377Y018106D02*
X011498Y018106D01*
X011516Y018087D02*
X011705Y018087D01*
X011839Y018221D01*
X011839Y018411D01*
X011705Y018545D01*
X011516Y018545D01*
X011382Y018411D01*
X011382Y018221D01*
X011516Y018087D01*
X011440Y018163D02*
X011320Y018163D01*
X011262Y018221D02*
X011382Y018221D01*
X011382Y018278D02*
X011204Y018278D01*
X011382Y018336D02*
X006418Y018336D01*
X006361Y018393D02*
X011382Y018393D01*
X011422Y018451D02*
X004870Y018451D01*
X004870Y018508D02*
X011479Y018508D01*
X011741Y018508D02*
X021559Y018508D01*
X021559Y018451D02*
X011799Y018451D01*
X011839Y018393D02*
X021559Y018393D01*
X021559Y018336D02*
X011839Y018336D01*
X011839Y018278D02*
X021559Y018278D01*
X021559Y018566D02*
X004870Y018566D01*
X004870Y018568D02*
X004736Y018702D01*
X004547Y018702D01*
X004413Y018568D01*
X004413Y018379D01*
X004462Y018330D01*
X004462Y012612D01*
X004492Y012582D01*
X004492Y012513D01*
X004555Y012450D01*
X004492Y012387D01*
X004492Y012198D01*
X004626Y012064D01*
X004815Y012064D01*
X004949Y012198D01*
X004949Y012387D01*
X004886Y012450D01*
X004949Y012513D01*
X004949Y012702D01*
X004821Y012830D01*
X004821Y018330D01*
X004870Y018379D01*
X004870Y018568D01*
X004815Y018624D02*
X021559Y018624D01*
X021559Y018681D02*
X006630Y018681D01*
X006635Y018682D02*
X006700Y018709D01*
X006759Y018748D01*
X006808Y018798D01*
X006835Y018838D01*
X006837Y018834D01*
X006932Y018740D01*
X007055Y018688D01*
X007189Y018688D01*
X007313Y018740D01*
X007407Y018834D01*
X007417Y018859D01*
X007428Y018834D01*
X007522Y018740D01*
X007646Y018688D01*
X007780Y018688D01*
X007903Y018740D01*
X007998Y018834D01*
X008008Y018859D01*
X008018Y018834D01*
X008113Y018740D01*
X008236Y018688D01*
X008370Y018688D01*
X008494Y018740D01*
X008588Y018834D01*
X008598Y018859D01*
X008609Y018834D01*
X008703Y018740D01*
X008827Y018688D01*
X008961Y018688D01*
X009084Y018740D01*
X009179Y018834D01*
X009230Y018958D01*
X009230Y019092D01*
X009179Y019215D01*
X009084Y019310D01*
X008961Y019361D01*
X008827Y019361D01*
X008703Y019310D01*
X008609Y019215D01*
X008598Y019190D01*
X008588Y019215D01*
X008494Y019310D01*
X008370Y019361D01*
X008236Y019361D01*
X008113Y019310D01*
X008018Y019215D01*
X008008Y019190D01*
X007998Y019215D01*
X007903Y019310D01*
X007780Y019361D01*
X007646Y019361D01*
X007522Y019310D01*
X007428Y019215D01*
X007417Y019190D01*
X007407Y019215D01*
X007313Y019310D01*
X007189Y019361D01*
X007055Y019361D01*
X006932Y019310D01*
X006837Y019215D01*
X006835Y019211D01*
X006808Y019252D01*
X006759Y019301D01*
X006700Y019340D01*
X006635Y019367D01*
X006567Y019381D01*
X006561Y019381D01*
X006561Y019054D01*
X006502Y019054D01*
X006502Y018995D01*
X006561Y018995D01*
X006561Y018668D01*
X006567Y018668D01*
X006635Y018682D01*
X006561Y018681D02*
X006502Y018681D01*
X006502Y018668D02*
X006502Y018995D01*
X006175Y018995D01*
X006175Y018990D01*
X006189Y018921D01*
X006216Y018856D01*
X006255Y018798D01*
X006304Y018748D01*
X006363Y018709D01*
X006428Y018682D01*
X006496Y018668D01*
X006502Y018668D01*
X006433Y018681D02*
X004757Y018681D01*
X004526Y018681D02*
X001346Y018681D01*
X001346Y018624D02*
X004468Y018624D01*
X004413Y018566D02*
X001346Y018566D01*
X001346Y018508D02*
X004413Y018508D01*
X004413Y018451D02*
X001346Y018451D01*
X001346Y018393D02*
X004413Y018393D01*
X004456Y018336D02*
X001346Y018336D01*
X001346Y018278D02*
X004462Y018278D01*
X004462Y018221D02*
X001346Y018221D01*
X001346Y018163D02*
X004462Y018163D01*
X004462Y018106D02*
X001346Y018106D01*
X001346Y018048D02*
X004462Y018048D01*
X004462Y017990D02*
X001346Y017990D01*
X001346Y017933D02*
X004462Y017933D01*
X004462Y017875D02*
X001346Y017875D01*
X001346Y017818D02*
X004462Y017818D01*
X004462Y017760D02*
X001346Y017760D01*
X001346Y017703D02*
X002928Y017703D01*
X002935Y017705D02*
X002822Y017659D01*
X002736Y017572D01*
X002689Y017460D01*
X002689Y017338D01*
X002736Y017225D01*
X002822Y017139D01*
X002935Y017092D01*
X003057Y017092D01*
X003170Y017139D01*
X003193Y017162D01*
X003193Y017040D01*
X003327Y016906D01*
X003516Y016906D01*
X003650Y017040D01*
X003650Y017230D01*
X003516Y017364D01*
X003327Y017364D01*
X003303Y017340D01*
X003303Y017460D01*
X003256Y017572D01*
X003170Y017659D01*
X003057Y017705D01*
X002935Y017705D01*
X003064Y017703D02*
X004462Y017703D01*
X004462Y017645D02*
X003183Y017645D01*
X003241Y017588D02*
X004462Y017588D01*
X004462Y017530D02*
X003274Y017530D01*
X003298Y017472D02*
X004462Y017472D01*
X004462Y017415D02*
X003303Y017415D01*
X003303Y017357D02*
X003320Y017357D01*
X003522Y017357D02*
X004462Y017357D01*
X004462Y017300D02*
X003580Y017300D01*
X003637Y017242D02*
X004462Y017242D01*
X004462Y017185D02*
X003650Y017185D01*
X003650Y017127D02*
X004462Y017127D01*
X004462Y017070D02*
X003650Y017070D01*
X003622Y017012D02*
X004462Y017012D01*
X004462Y016954D02*
X003564Y016954D01*
X003327Y016860D02*
X003327Y016671D01*
X003193Y016537D01*
X003004Y016537D01*
X002870Y016671D01*
X002870Y016860D01*
X003004Y016994D01*
X003193Y016994D01*
X003327Y016860D01*
X003327Y016839D02*
X004462Y016839D01*
X004462Y016782D02*
X003327Y016782D01*
X003327Y016724D02*
X004462Y016724D01*
X004462Y016667D02*
X003323Y016667D01*
X003265Y016609D02*
X004462Y016609D01*
X004462Y016552D02*
X003207Y016552D01*
X002989Y016552D02*
X001346Y016552D01*
X001346Y016609D02*
X002932Y016609D01*
X002874Y016667D02*
X001346Y016667D01*
X001346Y016724D02*
X002870Y016724D01*
X002870Y016782D02*
X001346Y016782D01*
X001346Y016839D02*
X002870Y016839D01*
X002906Y016897D02*
X001346Y016897D01*
X001346Y016954D02*
X002964Y016954D01*
X002850Y017127D02*
X001346Y017127D01*
X001346Y017070D02*
X003193Y017070D01*
X003193Y017127D02*
X003142Y017127D01*
X003221Y017012D02*
X001346Y017012D01*
X001346Y017185D02*
X002776Y017185D01*
X002729Y017242D02*
X001346Y017242D01*
X001346Y017300D02*
X002705Y017300D01*
X002689Y017357D02*
X001346Y017357D01*
X001346Y017415D02*
X002689Y017415D01*
X002695Y017472D02*
X001346Y017472D01*
X001346Y017530D02*
X002718Y017530D01*
X002751Y017588D02*
X001346Y017588D01*
X001346Y017645D02*
X002809Y017645D01*
X003233Y016954D02*
X003279Y016954D01*
X003291Y016897D02*
X004462Y016897D01*
X004821Y016897D02*
X005262Y016897D01*
X005319Y016954D02*
X004821Y016954D01*
X004821Y017012D02*
X005540Y017012D01*
X005566Y016986D02*
X005755Y016986D01*
X005889Y017120D01*
X005889Y017309D01*
X005755Y017443D01*
X005566Y017443D01*
X005432Y017309D01*
X005432Y017120D01*
X005566Y016986D01*
X005539Y016954D02*
X006057Y016954D01*
X006057Y016897D02*
X005597Y016897D01*
X005654Y016839D02*
X006057Y016839D01*
X006057Y016782D02*
X005658Y016782D01*
X005658Y016836D02*
X005658Y016694D01*
X005760Y016694D01*
X005894Y016560D01*
X005894Y016371D01*
X005760Y016237D01*
X005571Y016237D01*
X005437Y016371D01*
X005437Y016513D01*
X005334Y016513D01*
X005201Y016647D01*
X005201Y016836D01*
X005334Y016970D01*
X005524Y016970D01*
X005658Y016836D01*
X005658Y016724D02*
X006057Y016724D01*
X006057Y016667D02*
X005788Y016667D01*
X005845Y016609D02*
X006057Y016609D01*
X006057Y016552D02*
X005894Y016552D01*
X005894Y016494D02*
X006057Y016494D01*
X006057Y016436D02*
X005894Y016436D01*
X005894Y016379D02*
X006057Y016379D01*
X006057Y016321D02*
X005844Y016321D01*
X005787Y016264D02*
X006057Y016264D01*
X006057Y016206D02*
X004821Y016206D01*
X004821Y016149D02*
X006057Y016149D01*
X006057Y016091D02*
X004821Y016091D01*
X004821Y016034D02*
X006057Y016034D01*
X005927Y015976D02*
X004821Y015976D01*
X004821Y015918D02*
X005870Y015918D01*
X005812Y015861D02*
X004821Y015861D01*
X004821Y015803D02*
X005803Y015803D01*
X005803Y015746D02*
X004821Y015746D01*
X004821Y015688D02*
X005803Y015688D01*
X005835Y015631D02*
X004821Y015631D01*
X004821Y015573D02*
X005892Y015573D01*
X006057Y015516D02*
X004821Y015516D01*
X004821Y015458D02*
X006057Y015458D01*
X006057Y015400D02*
X004821Y015400D01*
X004821Y015343D02*
X006057Y015343D01*
X006057Y015285D02*
X004821Y015285D01*
X004821Y015228D02*
X006057Y015228D01*
X006057Y015170D02*
X004821Y015170D01*
X004821Y015113D02*
X006057Y015113D01*
X006057Y015055D02*
X004821Y015055D01*
X004821Y014998D02*
X006057Y014998D01*
X006057Y014940D02*
X004821Y014940D01*
X004821Y014882D02*
X006057Y014882D01*
X006057Y014825D02*
X004821Y014825D01*
X004821Y014767D02*
X006057Y014767D01*
X006057Y014710D02*
X004821Y014710D01*
X004821Y014652D02*
X006057Y014652D01*
X006057Y014595D02*
X004821Y014595D01*
X004821Y014537D02*
X006057Y014537D01*
X006057Y014480D02*
X004821Y014480D01*
X004821Y014422D02*
X006057Y014422D01*
X006057Y014364D02*
X004821Y014364D01*
X004821Y014307D02*
X006057Y014307D01*
X006057Y014249D02*
X004821Y014249D01*
X004821Y014192D02*
X006057Y014192D01*
X006057Y014134D02*
X004821Y014134D01*
X004821Y014077D02*
X006057Y014077D01*
X006057Y014019D02*
X004821Y014019D01*
X004821Y013962D02*
X006057Y013962D01*
X006057Y013904D02*
X004821Y013904D01*
X004821Y013846D02*
X006057Y013846D01*
X006057Y013789D02*
X004821Y013789D01*
X004821Y013731D02*
X006057Y013731D01*
X006057Y013674D02*
X004821Y013674D01*
X004821Y013616D02*
X006057Y013616D01*
X006057Y013559D02*
X004821Y013559D01*
X004821Y013501D02*
X005842Y013501D01*
X005785Y013444D02*
X004821Y013444D01*
X004821Y013386D02*
X005752Y013386D01*
X005752Y013328D02*
X004821Y013328D01*
X004821Y013271D02*
X005752Y013271D01*
X005760Y013213D02*
X004821Y013213D01*
X004821Y013156D02*
X005817Y013156D01*
X005875Y013098D02*
X004821Y013098D01*
X004821Y013041D02*
X006057Y013041D01*
X006057Y012983D02*
X004821Y012983D01*
X004821Y012926D02*
X006057Y012926D01*
X006057Y012868D02*
X004821Y012868D01*
X004841Y012810D02*
X006057Y012810D01*
X006057Y012753D02*
X004898Y012753D01*
X004949Y012695D02*
X006057Y012695D01*
X006057Y012638D02*
X004949Y012638D01*
X004949Y012580D02*
X006057Y012580D01*
X006057Y012523D02*
X004949Y012523D01*
X004901Y012465D02*
X006057Y012465D01*
X006057Y012408D02*
X004929Y012408D01*
X004949Y012350D02*
X005715Y012350D01*
X005657Y012292D02*
X004949Y012292D01*
X004949Y012235D02*
X005634Y012235D01*
X005634Y012177D02*
X004929Y012177D01*
X004871Y012120D02*
X005634Y012120D01*
X005651Y012062D02*
X001346Y012062D01*
X001346Y012005D02*
X005709Y012005D01*
X005766Y011947D02*
X001346Y011947D01*
X001346Y011890D02*
X006057Y011890D01*
X006057Y011947D02*
X005958Y011947D01*
X006016Y012005D02*
X006057Y012005D01*
X006057Y011832D02*
X001346Y011832D01*
X001346Y011774D02*
X002698Y011774D01*
X002736Y011812D02*
X002602Y011678D01*
X002602Y011489D01*
X002736Y011355D01*
X002925Y011355D01*
X003059Y011489D01*
X003059Y011678D01*
X002925Y011812D01*
X002736Y011812D01*
X002641Y011717D02*
X001346Y011717D01*
X001346Y011659D02*
X002602Y011659D01*
X002602Y011602D02*
X001346Y011602D01*
X001346Y011544D02*
X002602Y011544D01*
X002605Y011487D02*
X001346Y011487D01*
X001346Y011429D02*
X002662Y011429D01*
X002720Y011372D02*
X001346Y011372D01*
X001346Y011314D02*
X006057Y011314D01*
X006057Y011372D02*
X002942Y011372D01*
X002999Y011429D02*
X006057Y011429D01*
X006057Y011487D02*
X003057Y011487D01*
X003059Y011544D02*
X006057Y011544D01*
X006057Y011602D02*
X003059Y011602D01*
X003059Y011659D02*
X006057Y011659D01*
X006057Y011717D02*
X003021Y011717D01*
X002963Y011774D02*
X006057Y011774D01*
X006057Y011256D02*
X001346Y011256D01*
X001346Y011199D02*
X006057Y011199D01*
X006057Y011141D02*
X001346Y011141D01*
X001346Y011084D02*
X006057Y011084D01*
X006057Y011026D02*
X001346Y011026D01*
X001346Y010969D02*
X006057Y010969D01*
X006057Y010911D02*
X001346Y010911D01*
X001346Y010854D02*
X006057Y010854D01*
X006057Y010796D02*
X001346Y010796D01*
X001346Y010738D02*
X006057Y010738D01*
X006057Y010681D02*
X001346Y010681D01*
X001346Y010623D02*
X006057Y010623D01*
X006057Y010566D02*
X005983Y010566D01*
X006041Y010508D02*
X006057Y010508D01*
X006043Y010220D02*
X006057Y010220D01*
X006057Y010163D02*
X005985Y010163D01*
X005741Y010566D02*
X002715Y010566D01*
X002689Y010592D02*
X002500Y010592D01*
X002366Y010458D01*
X002366Y010269D01*
X002500Y010135D01*
X002689Y010135D01*
X002823Y010269D01*
X002823Y010458D01*
X002689Y010592D01*
X002773Y010508D02*
X003440Y010508D01*
X003382Y010451D02*
X002823Y010451D01*
X002823Y010393D02*
X002970Y010393D01*
X002913Y010336D02*
X002823Y010336D01*
X002823Y010278D02*
X002855Y010278D01*
X002838Y010220D02*
X002775Y010220D01*
X002717Y010163D02*
X002838Y010163D01*
X002838Y010105D02*
X001346Y010105D01*
X001346Y010048D02*
X002862Y010048D01*
X002920Y009990D02*
X001346Y009990D01*
X001346Y010163D02*
X002472Y010163D01*
X002414Y010220D02*
X001346Y010220D01*
X001346Y010278D02*
X002366Y010278D01*
X002366Y010336D02*
X001346Y010336D01*
X001346Y010393D02*
X002366Y010393D01*
X002366Y010451D02*
X001346Y010451D01*
X001346Y010508D02*
X002416Y010508D01*
X002474Y010566D02*
X001346Y010566D01*
X002376Y009645D02*
X004531Y009645D01*
X004583Y009587D02*
X002434Y009587D01*
X002469Y009530D02*
X004640Y009530D01*
X004727Y009415D02*
X002469Y009415D01*
X002469Y009472D02*
X004785Y009472D01*
X004670Y009357D02*
X002463Y009357D01*
X002405Y009300D02*
X004612Y009300D01*
X004561Y009242D02*
X002348Y009242D01*
X003296Y010105D02*
X003474Y010105D01*
X003417Y010163D02*
X003296Y010163D01*
X003296Y010220D02*
X003359Y010220D01*
X003350Y010278D02*
X003279Y010278D01*
X003221Y010336D02*
X003350Y010336D01*
X003350Y010393D02*
X003164Y010393D01*
X003650Y008670D02*
X004561Y008670D01*
X004561Y007559D01*
X004434Y007440D01*
X004368Y007512D01*
X004368Y007516D01*
X004324Y007560D01*
X004282Y007606D01*
X004278Y007607D01*
X004275Y007609D01*
X004212Y007609D01*
X004150Y007612D01*
X004147Y007609D01*
X003703Y007609D01*
X003699Y007614D01*
X003699Y008541D01*
X003707Y008595D01*
X003699Y008605D01*
X003699Y008618D01*
X003660Y008657D01*
X003650Y008670D01*
X003653Y008666D02*
X004561Y008666D01*
X004561Y008609D02*
X003699Y008609D01*
X003700Y008551D02*
X004561Y008551D01*
X004561Y008494D02*
X003699Y008494D01*
X003699Y008436D02*
X004561Y008436D01*
X004561Y008379D02*
X003699Y008379D01*
X003699Y008321D02*
X004561Y008321D01*
X004561Y008264D02*
X003699Y008264D01*
X003699Y008206D02*
X004561Y008206D01*
X004561Y008148D02*
X003699Y008148D01*
X003699Y008091D02*
X004561Y008091D01*
X004561Y008033D02*
X003699Y008033D01*
X003699Y007976D02*
X004561Y007976D01*
X004561Y007918D02*
X003699Y007918D01*
X003699Y007861D02*
X004561Y007861D01*
X004561Y007803D02*
X003699Y007803D01*
X003699Y007746D02*
X004561Y007746D01*
X004561Y007688D02*
X003699Y007688D01*
X003699Y007630D02*
X004561Y007630D01*
X004561Y007573D02*
X004312Y007573D01*
X004368Y007515D02*
X004515Y007515D01*
X004453Y007458D02*
X004418Y007458D01*
X004196Y007228D02*
X003640Y007228D01*
X003698Y007285D02*
X004143Y007285D01*
X002933Y007285D02*
X002753Y007285D01*
X002695Y007228D02*
X002876Y007228D01*
X002838Y007170D02*
X001906Y007170D01*
X001918Y007182D02*
X001784Y007048D01*
X001594Y007048D01*
X001460Y007182D01*
X001460Y007371D01*
X001594Y007505D01*
X001784Y007505D01*
X001918Y007371D01*
X001918Y007182D01*
X001918Y007228D02*
X002494Y007228D01*
X002436Y007285D02*
X001918Y007285D01*
X001918Y007343D02*
X002378Y007343D01*
X002366Y007400D02*
X001889Y007400D01*
X001831Y007458D02*
X002366Y007458D01*
X002366Y007515D02*
X001346Y007515D01*
X001346Y007458D02*
X001547Y007458D01*
X001489Y007400D02*
X001346Y007400D01*
X001346Y007343D02*
X001460Y007343D01*
X001460Y007285D02*
X001346Y007285D01*
X001346Y007228D02*
X001460Y007228D01*
X001472Y007170D02*
X001346Y007170D01*
X001346Y007112D02*
X001530Y007112D01*
X001588Y007055D02*
X001346Y007055D01*
X001346Y006997D02*
X002842Y006997D01*
X002838Y007055D02*
X001790Y007055D01*
X001848Y007112D02*
X002838Y007112D01*
X002899Y006940D02*
X001346Y006940D01*
X001346Y007573D02*
X002394Y007573D01*
X002452Y007630D02*
X001346Y007630D01*
X004565Y004004D02*
X005086Y004004D01*
X005028Y003947D02*
X004565Y003947D01*
X004565Y003889D02*
X005004Y003889D01*
X005004Y003832D02*
X004565Y003832D01*
X004565Y003774D02*
X005004Y003774D01*
X005020Y003717D02*
X004565Y003717D01*
X004565Y003659D02*
X005078Y003659D01*
X005135Y003602D02*
X004565Y003602D01*
X005329Y003602D02*
X011710Y003602D01*
X011657Y003654D02*
X011791Y003521D01*
X011657Y003654D02*
X011657Y003717D01*
X011657Y003659D02*
X005387Y003659D01*
X008876Y005731D02*
X008903Y005731D01*
X010112Y007400D02*
X011815Y007400D01*
X011815Y007458D02*
X010170Y007458D01*
X010225Y007515D02*
X011864Y007515D01*
X011922Y007573D02*
X010225Y007573D01*
X008513Y011113D02*
X008270Y011113D01*
X008201Y011182D01*
X008059Y011182D01*
X008059Y011285D01*
X007925Y011419D01*
X007793Y011419D01*
X007793Y011424D01*
X008044Y011424D01*
X008084Y011412D01*
X008107Y011424D01*
X008133Y011424D01*
X008143Y011434D01*
X008185Y011434D01*
X008319Y011568D01*
X008319Y011757D01*
X008185Y011891D01*
X008068Y011891D01*
X008138Y011961D01*
X008138Y012061D01*
X008150Y012054D01*
X008726Y012054D01*
X008705Y012033D01*
X008705Y011843D01*
X008838Y011709D01*
X009028Y011709D01*
X009071Y011753D01*
X009114Y011709D01*
X009303Y011709D01*
X009346Y011753D01*
X009390Y011709D01*
X009579Y011709D01*
X009646Y011777D01*
X009639Y011767D01*
X009600Y011729D01*
X009600Y011716D01*
X009562Y011665D01*
X008828Y011665D01*
X008734Y011571D01*
X008577Y011414D01*
X008577Y011177D01*
X008513Y011113D01*
X008541Y011141D02*
X008242Y011141D01*
X008059Y011199D02*
X008577Y011199D01*
X008577Y011256D02*
X008059Y011256D01*
X008030Y011314D02*
X008577Y011314D01*
X008577Y011372D02*
X007973Y011372D01*
X008138Y011429D02*
X008592Y011429D01*
X008650Y011487D02*
X008238Y011487D01*
X008296Y011544D02*
X008707Y011544D01*
X008765Y011602D02*
X008319Y011602D01*
X008319Y011659D02*
X008822Y011659D01*
X008831Y011717D02*
X008319Y011717D01*
X008302Y011774D02*
X008773Y011774D01*
X008716Y011832D02*
X008244Y011832D01*
X008187Y011890D02*
X008705Y011890D01*
X008705Y011947D02*
X008124Y011947D01*
X008138Y012005D02*
X008705Y012005D01*
X009035Y011717D02*
X009107Y011717D01*
X009311Y011717D02*
X009382Y011717D01*
X009586Y011717D02*
X009600Y011717D01*
X009644Y011774D02*
X009644Y011774D01*
X009726Y012408D02*
X011933Y012408D01*
X011933Y012465D02*
X009783Y012465D01*
X009792Y012523D02*
X011933Y012523D01*
X011968Y012580D02*
X009792Y012580D01*
X009792Y012638D02*
X012026Y012638D01*
X012297Y012638D02*
X013586Y012638D01*
X013586Y012580D02*
X012354Y012580D01*
X012390Y012523D02*
X013586Y012523D01*
X013595Y012465D02*
X012390Y012465D01*
X012390Y012408D02*
X013652Y012408D01*
X013619Y012695D02*
X009759Y012695D01*
X009752Y012753D02*
X013677Y012753D01*
X013953Y012753D02*
X015949Y012753D01*
X015949Y012781D02*
X015949Y012591D01*
X016083Y012458D01*
X016272Y012458D01*
X016406Y012591D01*
X016406Y012781D01*
X016272Y012915D01*
X016083Y012915D01*
X015949Y012781D01*
X015978Y012810D02*
X009752Y012810D01*
X009752Y012868D02*
X016036Y012868D01*
X015949Y012695D02*
X014011Y012695D01*
X014044Y012638D02*
X014585Y012638D01*
X014528Y012580D02*
X014044Y012580D01*
X014044Y012523D02*
X014470Y012523D01*
X014453Y012465D02*
X014035Y012465D01*
X013978Y012408D02*
X014453Y012408D01*
X014777Y012638D02*
X015949Y012638D01*
X015960Y012580D02*
X014835Y012580D01*
X014892Y012523D02*
X016017Y012523D01*
X015973Y012465D02*
X016075Y012465D01*
X016031Y012408D02*
X018101Y012408D01*
X018043Y012465D02*
X016279Y012465D01*
X016337Y012523D02*
X016647Y012523D01*
X016673Y012497D02*
X016862Y012497D01*
X016925Y012560D01*
X016949Y012536D01*
X017138Y012536D01*
X017272Y012670D01*
X017272Y012860D01*
X017138Y012993D01*
X016949Y012993D01*
X016886Y012931D01*
X016862Y012954D01*
X016673Y012954D01*
X016539Y012820D01*
X016539Y012631D01*
X016673Y012497D01*
X016590Y012580D02*
X016395Y012580D01*
X016406Y012638D02*
X016539Y012638D01*
X016539Y012695D02*
X016406Y012695D01*
X016406Y012753D02*
X016539Y012753D01*
X016539Y012810D02*
X016376Y012810D01*
X016319Y012868D02*
X016587Y012868D01*
X016645Y012926D02*
X010975Y012926D01*
X011030Y012983D02*
X016938Y012983D01*
X017148Y012983D02*
X018431Y012983D01*
X018386Y013028D02*
X018386Y013218D01*
X018520Y013352D01*
X018709Y013352D01*
X018843Y013218D01*
X018843Y013028D01*
X018709Y012895D01*
X018520Y012895D01*
X018386Y013028D01*
X018386Y013041D02*
X011085Y013041D01*
X011140Y013098D02*
X018386Y013098D01*
X018386Y013156D02*
X011196Y013156D01*
X011251Y013213D02*
X017177Y013213D01*
X017185Y013206D02*
X017374Y013206D01*
X017508Y013339D01*
X017508Y013529D01*
X017429Y013608D01*
X017429Y013765D01*
X017295Y013899D01*
X017106Y013899D01*
X016972Y013765D01*
X016972Y013576D01*
X017051Y013497D01*
X017051Y013339D01*
X017185Y013206D01*
X017120Y013271D02*
X011306Y013271D01*
X011361Y013328D02*
X012338Y013328D01*
X012342Y013324D02*
X012532Y013324D01*
X012666Y013458D01*
X012666Y013521D01*
X012768Y013521D01*
X012902Y013654D01*
X012902Y013844D01*
X012800Y013946D01*
X012902Y014048D01*
X012902Y014237D01*
X012768Y014371D01*
X012674Y014371D01*
X012744Y014442D01*
X012744Y014505D01*
X012768Y014505D01*
X012902Y014639D01*
X012902Y014828D01*
X012800Y014930D01*
X012902Y015032D01*
X012902Y015222D01*
X012768Y015356D01*
X012705Y015356D01*
X012705Y015419D01*
X012571Y015552D01*
X012382Y015552D01*
X012248Y015419D01*
X012248Y015229D01*
X012370Y015107D01*
X012287Y015025D01*
X012287Y014836D01*
X012389Y014733D01*
X012287Y014631D01*
X012287Y014442D01*
X012421Y014308D01*
X012515Y014308D01*
X012445Y014237D01*
X012445Y014048D01*
X012547Y013946D01*
X012445Y013844D01*
X012445Y013781D01*
X012342Y013781D01*
X012208Y013647D01*
X012208Y013458D01*
X012342Y013324D01*
X012280Y013386D02*
X011417Y013386D01*
X011472Y013444D02*
X012222Y013444D01*
X012208Y013501D02*
X011527Y013501D01*
X011582Y013559D02*
X012208Y013559D01*
X012208Y013616D02*
X011638Y013616D01*
X011693Y013674D02*
X012235Y013674D01*
X012293Y013731D02*
X011748Y013731D01*
X011803Y013789D02*
X012445Y013789D01*
X012447Y013846D02*
X011859Y013846D01*
X011914Y013904D02*
X012505Y013904D01*
X012531Y013962D02*
X011970Y013962D01*
X012007Y014019D02*
X012474Y014019D01*
X012445Y014077D02*
X012006Y014077D01*
X012006Y014134D02*
X012445Y014134D01*
X012445Y014192D02*
X012006Y014192D01*
X012006Y014249D02*
X012456Y014249D01*
X012514Y014307D02*
X012006Y014307D01*
X012005Y014364D02*
X012365Y014364D01*
X012307Y014422D02*
X012005Y014422D01*
X012005Y014480D02*
X012287Y014480D01*
X012287Y014537D02*
X012005Y014537D01*
X012005Y014595D02*
X012287Y014595D01*
X012308Y014652D02*
X012005Y014652D01*
X012005Y014710D02*
X012366Y014710D01*
X012355Y014767D02*
X012005Y014767D01*
X012005Y014825D02*
X012298Y014825D01*
X012287Y014882D02*
X012004Y014882D01*
X012004Y014940D02*
X012287Y014940D01*
X012287Y014998D02*
X012004Y014998D01*
X012004Y015055D02*
X012317Y015055D01*
X012364Y015113D02*
X012004Y015113D01*
X012004Y015170D02*
X012307Y015170D01*
X012249Y015228D02*
X012004Y015228D01*
X012004Y015285D02*
X012248Y015285D01*
X012248Y015343D02*
X012004Y015343D01*
X012003Y015400D02*
X012248Y015400D01*
X012287Y015458D02*
X012003Y015458D01*
X012003Y015516D02*
X012345Y015516D01*
X012608Y015516D02*
X016766Y015516D01*
X016766Y015573D02*
X012003Y015573D01*
X012003Y015631D02*
X016766Y015631D01*
X016766Y015688D02*
X012003Y015688D01*
X012003Y015746D02*
X016766Y015746D01*
X016766Y015803D02*
X012003Y015803D01*
X012003Y015861D02*
X016766Y015861D01*
X016766Y015918D02*
X012003Y015918D01*
X012002Y015976D02*
X016766Y015976D01*
X016766Y016034D02*
X012045Y016034D01*
X012071Y016091D02*
X016766Y016091D01*
X016766Y016149D02*
X012071Y016149D01*
X012071Y016206D02*
X016766Y016206D01*
X016766Y016264D02*
X012057Y016264D01*
X011999Y016321D02*
X016766Y016321D01*
X016766Y016379D02*
X011942Y016379D01*
X011744Y016379D02*
X008185Y016379D01*
X008377Y016321D02*
X011686Y016321D01*
X011491Y016264D02*
X008435Y016264D01*
X008492Y016091D02*
X011382Y016091D01*
X011382Y016034D02*
X008492Y016034D01*
X008452Y015976D02*
X011382Y015976D01*
X011429Y015918D02*
X008394Y015918D01*
X008133Y015918D02*
X008119Y015918D01*
X008061Y015861D02*
X011486Y015861D01*
X011569Y015803D02*
X007321Y015803D01*
X007321Y015746D02*
X011569Y015746D01*
X011569Y015688D02*
X007321Y015688D01*
X007321Y015631D02*
X011569Y015631D01*
X011569Y015573D02*
X007321Y015573D01*
X007321Y015516D02*
X011569Y015516D01*
X011569Y015458D02*
X007321Y015458D01*
X007321Y015400D02*
X011569Y015400D01*
X011569Y015343D02*
X007321Y015343D01*
X007321Y015285D02*
X011569Y015285D01*
X011569Y015228D02*
X007321Y015228D01*
X007321Y015170D02*
X011569Y015170D01*
X011569Y015113D02*
X007321Y015113D01*
X007321Y015055D02*
X011569Y015055D01*
X011569Y014998D02*
X007321Y014998D01*
X007321Y014940D02*
X011569Y014940D01*
X011569Y014882D02*
X007321Y014882D01*
X007321Y014825D02*
X011569Y014825D01*
X011569Y014767D02*
X007321Y014767D01*
X007321Y014710D02*
X011569Y014710D01*
X011569Y014652D02*
X007321Y014652D01*
X007321Y014595D02*
X011569Y014595D01*
X011569Y014537D02*
X007321Y014537D01*
X007321Y014480D02*
X009846Y014480D01*
X009881Y014514D02*
X009747Y014380D01*
X009747Y014191D01*
X009881Y014057D01*
X010071Y014057D01*
X010205Y014191D01*
X010205Y014380D01*
X010071Y014514D01*
X009881Y014514D01*
X009789Y014422D02*
X007321Y014422D01*
X007321Y014364D02*
X009747Y014364D01*
X009747Y014307D02*
X007321Y014307D01*
X007321Y014249D02*
X009747Y014249D01*
X009747Y014192D02*
X007321Y014192D01*
X007321Y014134D02*
X009804Y014134D01*
X009862Y014077D02*
X007321Y014077D01*
X007321Y014019D02*
X011389Y014019D01*
X011334Y013962D02*
X007321Y013962D01*
X007566Y013904D02*
X011279Y013904D01*
X011224Y013846D02*
X010104Y013846D01*
X010161Y013789D02*
X011169Y013789D01*
X011114Y013731D02*
X010185Y013731D01*
X010185Y013674D02*
X011059Y013674D01*
X011004Y013616D02*
X010185Y013616D01*
X010168Y013559D02*
X010949Y013559D01*
X010894Y013501D02*
X010111Y013501D01*
X010053Y013444D02*
X010839Y013444D01*
X011444Y014077D02*
X010090Y014077D01*
X010148Y014134D02*
X011499Y014134D01*
X011554Y014192D02*
X010205Y014192D01*
X010205Y014249D02*
X011569Y014249D01*
X011569Y014307D02*
X010205Y014307D01*
X010205Y014364D02*
X011569Y014364D01*
X011569Y014422D02*
X010163Y014422D01*
X010105Y014480D02*
X011569Y014480D01*
X012725Y014422D02*
X013685Y014422D01*
X013627Y014480D02*
X012744Y014480D01*
X012800Y014537D02*
X013491Y014537D01*
X013434Y014595D02*
X012858Y014595D01*
X012902Y014652D02*
X013390Y014652D01*
X013390Y014710D02*
X012902Y014710D01*
X012902Y014767D02*
X013390Y014767D01*
X013390Y014825D02*
X012902Y014825D01*
X012847Y014882D02*
X013444Y014882D01*
X013501Y014940D02*
X012809Y014940D01*
X012867Y014998D02*
X014610Y014998D01*
X014610Y015025D02*
X014610Y014836D01*
X014744Y014702D01*
X014933Y014702D01*
X015067Y014836D01*
X015067Y015025D01*
X015044Y015048D01*
X015067Y015072D01*
X015067Y015261D01*
X014933Y015395D01*
X014744Y015395D01*
X014610Y015261D01*
X014610Y015072D01*
X014633Y015048D01*
X014610Y015025D01*
X014627Y015055D02*
X012902Y015055D01*
X012902Y015113D02*
X014610Y015113D01*
X014610Y015170D02*
X012902Y015170D01*
X012896Y015228D02*
X014610Y015228D01*
X014634Y015285D02*
X012838Y015285D01*
X012781Y015343D02*
X014692Y015343D01*
X014985Y015343D02*
X016766Y015343D01*
X016766Y015400D02*
X012705Y015400D01*
X012666Y015458D02*
X016766Y015458D01*
X016766Y015285D02*
X015043Y015285D01*
X015067Y015228D02*
X016766Y015228D01*
X016766Y015170D02*
X015067Y015170D01*
X015067Y015113D02*
X016766Y015113D01*
X016766Y015055D02*
X015051Y015055D01*
X015067Y014998D02*
X016766Y014998D01*
X016766Y014940D02*
X015067Y014940D01*
X015067Y014882D02*
X016160Y014882D01*
X016161Y014883D02*
X016027Y014749D01*
X016027Y014560D01*
X016051Y014536D01*
X016027Y014513D01*
X016027Y014324D01*
X016161Y014190D01*
X016351Y014190D01*
X016485Y014324D01*
X016485Y014513D01*
X016461Y014536D01*
X016485Y014560D01*
X016485Y014749D01*
X016351Y014883D01*
X016161Y014883D01*
X016103Y014825D02*
X015057Y014825D01*
X014999Y014767D02*
X016045Y014767D01*
X016027Y014710D02*
X014941Y014710D01*
X014736Y014710D02*
X014044Y014710D01*
X014083Y014652D02*
X016027Y014652D01*
X016027Y014595D02*
X014083Y014595D01*
X014130Y014537D02*
X016050Y014537D01*
X016027Y014480D02*
X014191Y014480D01*
X014253Y014422D02*
X016027Y014422D01*
X016027Y014364D02*
X014315Y014364D01*
X014376Y014307D02*
X016044Y014307D01*
X016102Y014249D02*
X014438Y014249D01*
X014500Y014192D02*
X016159Y014192D01*
X016353Y014192D02*
X016709Y014192D01*
X016766Y014249D02*
X016410Y014249D01*
X016468Y014307D02*
X016766Y014307D01*
X016766Y014364D02*
X016485Y014364D01*
X016485Y014422D02*
X016766Y014422D01*
X016766Y014480D02*
X016485Y014480D01*
X016462Y014537D02*
X016766Y014537D01*
X016766Y014595D02*
X016485Y014595D01*
X016485Y014652D02*
X016766Y014652D01*
X016766Y014710D02*
X016485Y014710D01*
X016467Y014767D02*
X016766Y014767D01*
X016766Y014825D02*
X016409Y014825D01*
X016351Y014882D02*
X016766Y014882D01*
X017085Y014882D02*
X017162Y014882D01*
X017130Y014914D02*
X017264Y014780D01*
X017453Y014780D01*
X017587Y014914D01*
X017587Y015104D01*
X017453Y015238D01*
X017264Y015238D01*
X017130Y015104D01*
X017130Y014914D01*
X017130Y014940D02*
X017085Y014940D01*
X017085Y014998D02*
X017130Y014998D01*
X017130Y015055D02*
X017085Y015055D01*
X017085Y015113D02*
X017139Y015113D01*
X017085Y015170D02*
X017196Y015170D01*
X017254Y015228D02*
X017085Y015228D01*
X017085Y015285D02*
X018350Y015285D01*
X018350Y015229D02*
X018484Y015095D01*
X018673Y015095D01*
X018807Y015229D01*
X018807Y015419D01*
X018673Y015552D01*
X018484Y015552D01*
X018350Y015419D01*
X018350Y015229D01*
X018352Y015228D02*
X017463Y015228D01*
X017520Y015170D02*
X018409Y015170D01*
X018467Y015113D02*
X017578Y015113D01*
X017587Y015055D02*
X020023Y015055D01*
X020023Y014998D02*
X017587Y014998D01*
X017587Y014940D02*
X020023Y014940D01*
X020023Y014882D02*
X017555Y014882D01*
X017497Y014825D02*
X020023Y014825D01*
X020023Y014767D02*
X017085Y014767D01*
X017085Y014710D02*
X020023Y014710D01*
X020023Y014652D02*
X017507Y014652D01*
X017453Y014706D02*
X017264Y014706D01*
X017130Y014572D01*
X017130Y014383D01*
X017264Y014249D01*
X017453Y014249D01*
X017587Y014383D01*
X017587Y014572D01*
X017453Y014706D01*
X017564Y014595D02*
X020023Y014595D01*
X020023Y014537D02*
X019531Y014537D01*
X019500Y014568D02*
X019311Y014568D01*
X019177Y014434D01*
X019177Y014245D01*
X019311Y014111D01*
X019500Y014111D01*
X019634Y014245D01*
X019634Y014434D01*
X019500Y014568D01*
X019589Y014480D02*
X020023Y014480D01*
X020023Y014422D02*
X019634Y014422D01*
X019634Y014364D02*
X020023Y014364D01*
X020023Y014307D02*
X019634Y014307D01*
X019634Y014249D02*
X020023Y014249D01*
X020023Y014192D02*
X019581Y014192D01*
X019523Y014134D02*
X020023Y014134D01*
X020023Y014077D02*
X017045Y014077D01*
X017085Y014134D02*
X018500Y014134D01*
X018523Y014111D02*
X018713Y014111D01*
X018847Y014245D01*
X018847Y014434D01*
X018713Y014568D01*
X018523Y014568D01*
X018390Y014434D01*
X018390Y014245D01*
X018523Y014111D01*
X018443Y014192D02*
X017085Y014192D01*
X017085Y014249D02*
X017263Y014249D01*
X017206Y014307D02*
X017085Y014307D01*
X017085Y014364D02*
X017148Y014364D01*
X017130Y014422D02*
X017085Y014422D01*
X017085Y014480D02*
X017130Y014480D01*
X017130Y014537D02*
X017085Y014537D01*
X017085Y014595D02*
X017152Y014595D01*
X017210Y014652D02*
X017085Y014652D01*
X017085Y014825D02*
X017219Y014825D01*
X017587Y014537D02*
X018492Y014537D01*
X018435Y014480D02*
X017587Y014480D01*
X017587Y014422D02*
X018390Y014422D01*
X018390Y014364D02*
X017569Y014364D01*
X017511Y014307D02*
X018390Y014307D01*
X018390Y014249D02*
X017453Y014249D01*
X017348Y013846D02*
X020023Y013846D01*
X020023Y013789D02*
X017406Y013789D01*
X017429Y013731D02*
X020023Y013731D01*
X020023Y013674D02*
X017429Y013674D01*
X017429Y013616D02*
X020023Y013616D01*
X020023Y013559D02*
X017478Y013559D01*
X017508Y013501D02*
X020023Y013501D01*
X020023Y013444D02*
X017508Y013444D01*
X017508Y013386D02*
X020023Y013386D01*
X020023Y013328D02*
X018732Y013328D01*
X018790Y013271D02*
X020023Y013271D01*
X020023Y013213D02*
X018843Y013213D01*
X018843Y013156D02*
X020023Y013156D01*
X020023Y013098D02*
X018843Y013098D01*
X018843Y013041D02*
X020023Y013041D01*
X020023Y012983D02*
X018797Y012983D01*
X018740Y012926D02*
X020023Y012926D01*
X020023Y012868D02*
X017263Y012868D01*
X017272Y012810D02*
X018104Y012810D01*
X018047Y012753D02*
X017272Y012753D01*
X017272Y012695D02*
X017996Y012695D01*
X017996Y012638D02*
X017240Y012638D01*
X017182Y012580D02*
X017996Y012580D01*
X017996Y012523D02*
X016888Y012523D01*
X017206Y012926D02*
X018489Y012926D01*
X018535Y012753D02*
X020023Y012753D01*
X020023Y012810D02*
X018345Y012810D01*
X018587Y012695D02*
X020023Y012695D01*
X020023Y012638D02*
X018627Y012638D01*
X018673Y012580D02*
X020023Y012580D01*
X020023Y012523D02*
X018721Y012523D01*
X018758Y012350D02*
X020023Y012350D01*
X020023Y012292D02*
X018758Y012292D01*
X018758Y012235D02*
X020023Y012235D01*
X020023Y012177D02*
X018758Y012177D01*
X018758Y012120D02*
X020023Y012120D01*
X020023Y012062D02*
X018758Y012062D01*
X018758Y012005D02*
X020023Y012005D01*
X020023Y011947D02*
X018758Y011947D01*
X018758Y011890D02*
X020023Y011890D01*
X020023Y011832D02*
X018758Y011832D01*
X018758Y011774D02*
X020023Y011774D01*
X020023Y011717D02*
X018758Y011717D01*
X018758Y011659D02*
X020023Y011659D01*
X020023Y011602D02*
X018758Y011602D01*
X018758Y011544D02*
X020023Y011544D01*
X020023Y011487D02*
X018758Y011487D01*
X018758Y011429D02*
X020023Y011429D01*
X020023Y011372D02*
X018758Y011372D01*
X018758Y011314D02*
X020023Y011314D01*
X020023Y011256D02*
X018758Y011256D01*
X018758Y011199D02*
X020023Y011199D01*
X020023Y011141D02*
X018758Y011141D01*
X018758Y011084D02*
X020023Y011084D01*
X020023Y011026D02*
X018758Y011026D01*
X018758Y010969D02*
X020023Y010969D01*
X020023Y010911D02*
X018758Y010911D01*
X018758Y010854D02*
X020023Y010854D01*
X020023Y010796D02*
X018758Y010796D01*
X018758Y010738D02*
X020023Y010738D01*
X020023Y010681D02*
X018758Y010681D01*
X018758Y010623D02*
X020023Y010623D01*
X020023Y010566D02*
X018758Y010566D01*
X018758Y010508D02*
X020023Y010508D01*
X020023Y010451D02*
X019799Y010451D01*
X019776Y010474D02*
X019910Y010340D01*
X019910Y010150D01*
X019776Y010017D01*
X019586Y010017D01*
X019453Y010150D01*
X019453Y010340D01*
X019586Y010474D01*
X019776Y010474D01*
X019856Y010393D02*
X020023Y010393D01*
X020023Y010336D02*
X019910Y010336D01*
X019910Y010278D02*
X020023Y010278D01*
X020023Y010220D02*
X019910Y010220D01*
X019910Y010163D02*
X020023Y010163D01*
X020023Y010105D02*
X019865Y010105D01*
X019807Y010048D02*
X020023Y010048D01*
X020023Y009990D02*
X018758Y009990D01*
X018758Y009933D02*
X020023Y009933D01*
X019854Y009875D02*
X018758Y009875D01*
X018758Y009818D02*
X019796Y009818D01*
X019768Y009760D02*
X018767Y009760D01*
X018824Y009702D02*
X019768Y009702D01*
X019675Y009645D02*
X018882Y009645D01*
X018758Y010048D02*
X019555Y010048D01*
X019498Y010105D02*
X018758Y010105D01*
X018758Y010163D02*
X019453Y010163D01*
X019453Y010220D02*
X018758Y010220D01*
X018758Y010278D02*
X019453Y010278D01*
X019453Y010336D02*
X018758Y010336D01*
X018758Y010393D02*
X019506Y010393D01*
X019563Y010451D02*
X018758Y010451D01*
X020000Y009415D02*
X020023Y009415D01*
X020023Y009357D02*
X020000Y009357D01*
X019976Y009300D02*
X020023Y009300D01*
X020023Y009242D02*
X019919Y009242D01*
X020023Y009184D02*
X017675Y009184D01*
X017675Y009127D02*
X020023Y009127D01*
X020023Y009069D02*
X017675Y009069D01*
X017356Y009069D02*
X016378Y009069D01*
X016378Y009127D02*
X017356Y009127D01*
X017356Y009184D02*
X016378Y009184D01*
X016370Y009242D02*
X017356Y009242D01*
X017356Y009300D02*
X016312Y009300D01*
X016255Y009357D02*
X017356Y009357D01*
X017356Y009415D02*
X016205Y009415D01*
X016167Y009472D02*
X017356Y009472D01*
X017356Y009012D02*
X016346Y009012D01*
X016309Y008954D02*
X017356Y008954D01*
X017356Y008897D02*
X016334Y008897D01*
X016965Y008839D02*
X017356Y008839D01*
X017356Y008782D02*
X016965Y008782D01*
X016965Y008724D02*
X017356Y008724D01*
X017356Y008666D02*
X016965Y008666D01*
X016965Y008609D02*
X017356Y008609D01*
X017356Y008551D02*
X016965Y008551D01*
X016965Y008494D02*
X017356Y008494D01*
X017356Y008436D02*
X016965Y008436D01*
X016965Y008379D02*
X017356Y008379D01*
X017356Y008321D02*
X016965Y008321D01*
X017001Y008264D02*
X017356Y008264D01*
X017356Y008206D02*
X017061Y008206D01*
X017122Y008148D02*
X017356Y008148D01*
X017356Y008091D02*
X017163Y008091D01*
X017164Y008033D02*
X017356Y008033D01*
X017356Y007976D02*
X017163Y007976D01*
X017163Y007918D02*
X017356Y007918D01*
X017356Y007861D02*
X017163Y007861D01*
X017163Y007803D02*
X017356Y007803D01*
X017356Y007746D02*
X017163Y007746D01*
X017163Y007688D02*
X017356Y007688D01*
X017356Y007630D02*
X017163Y007630D01*
X017163Y007573D02*
X017355Y007573D01*
X017297Y007515D02*
X017163Y007515D01*
X017163Y007458D02*
X017287Y007458D01*
X017287Y007400D02*
X017163Y007400D01*
X017163Y007343D02*
X017287Y007343D01*
X017318Y007285D02*
X017163Y007285D01*
X017163Y007228D02*
X017375Y007228D01*
X017163Y007170D02*
X021559Y007170D01*
X021559Y007228D02*
X017656Y007228D01*
X017714Y007285D02*
X021559Y007285D01*
X021559Y007343D02*
X018322Y007343D01*
X018380Y007400D02*
X021559Y007400D01*
X021559Y007458D02*
X018414Y007458D01*
X018414Y007515D02*
X021559Y007515D01*
X021559Y007573D02*
X018414Y007573D01*
X018407Y007630D02*
X021559Y007630D01*
X021559Y007112D02*
X017163Y007112D01*
X017163Y007055D02*
X021559Y007055D01*
X021559Y006997D02*
X017163Y006997D01*
X017163Y006940D02*
X021559Y006940D01*
X021559Y006882D02*
X017163Y006882D01*
X017163Y006825D02*
X021559Y006825D01*
X021559Y006767D02*
X018493Y006767D01*
X018574Y006710D02*
X021559Y006710D01*
X021559Y006652D02*
X018629Y006652D01*
X018653Y006594D02*
X021559Y006594D01*
X021559Y006537D02*
X018677Y006537D01*
X018679Y006479D02*
X021559Y006479D01*
X021559Y006422D02*
X018679Y006422D01*
X018664Y006364D02*
X021559Y006364D01*
X021559Y006307D02*
X018641Y006307D01*
X018602Y006249D02*
X021559Y006249D01*
X021559Y006192D02*
X018544Y006192D01*
X018420Y006134D02*
X021559Y006134D01*
X021559Y004004D02*
X020538Y004004D01*
X020422Y003947D02*
X020348Y003947D01*
X020364Y003889D02*
X020285Y003889D01*
X020319Y003832D02*
X020245Y003832D01*
X020245Y003774D02*
X020319Y003774D01*
X020319Y003717D02*
X020245Y003717D01*
X020245Y003659D02*
X020319Y003659D01*
X020372Y003602D02*
X020245Y003602D01*
X020245Y003544D02*
X020260Y003544D01*
X019216Y001817D02*
X018789Y001817D01*
X018729Y001817D02*
X018491Y001817D01*
X018549Y001760D02*
X019216Y001760D01*
X019239Y001702D02*
X018606Y001702D01*
X018614Y001645D02*
X019297Y001645D01*
X019243Y001587D02*
X018614Y001587D01*
X018614Y001530D02*
X019186Y001530D01*
X019138Y001472D02*
X018582Y001472D01*
X018524Y001414D02*
X019138Y001414D01*
X019138Y001357D02*
X018263Y001357D01*
X018205Y001299D02*
X019138Y001299D01*
X019188Y001242D02*
X018147Y001242D01*
X018090Y001184D02*
X019246Y001184D01*
X018613Y001875D02*
X017981Y001875D01*
X017981Y001932D02*
X018571Y001932D01*
X018280Y001817D02*
X017955Y001817D01*
X017897Y001760D02*
X018223Y001760D01*
X018154Y001702D02*
X017626Y001702D01*
X017739Y001645D02*
X018099Y001645D01*
X018042Y001587D02*
X017796Y001587D01*
X017854Y001530D02*
X017984Y001530D01*
X017926Y001472D02*
X017862Y001472D01*
X017862Y001414D02*
X017869Y001414D01*
X016965Y000954D02*
X021556Y000954D01*
X021552Y000896D02*
X016965Y000896D01*
X016965Y000839D02*
X021535Y000839D01*
X021516Y000781D02*
X016965Y000781D01*
X016965Y000724D02*
X021497Y000724D01*
X021467Y000666D02*
X016965Y000666D01*
X016965Y000609D02*
X021425Y000609D01*
X021384Y000551D02*
X016965Y000551D01*
X016965Y000494D02*
X021319Y000494D01*
X021240Y000436D02*
X016965Y000436D01*
X016965Y000378D02*
X021112Y000378D01*
X018048Y007343D02*
X017744Y007343D01*
X017744Y007400D02*
X017990Y007400D01*
X017956Y007458D02*
X017744Y007458D01*
X017734Y007515D02*
X017956Y007515D01*
X017956Y007573D02*
X017677Y007573D01*
X017675Y007630D02*
X017964Y007630D01*
X018021Y007688D02*
X017675Y007688D01*
X017675Y007746D02*
X018079Y007746D01*
X019543Y008091D02*
X019605Y008091D01*
X019601Y008148D02*
X019663Y008148D01*
X019634Y008206D02*
X019739Y008206D01*
X019792Y008264D02*
X019634Y008264D01*
X019634Y008321D02*
X019844Y008321D01*
X019846Y008379D02*
X019627Y008379D01*
X019569Y008436D02*
X019789Y008436D01*
X019768Y008494D02*
X019512Y008494D01*
X020012Y008782D02*
X020023Y008782D01*
X020023Y008839D02*
X020012Y008839D01*
X020012Y008897D02*
X020023Y008897D01*
X020023Y008954D02*
X019980Y008954D01*
X020023Y009012D02*
X019923Y009012D01*
X021321Y010105D02*
X021559Y010105D01*
X021559Y010163D02*
X021379Y010163D01*
X021406Y010220D02*
X021559Y010220D01*
X021559Y010278D02*
X021406Y010278D01*
X021406Y010336D02*
X021559Y010336D01*
X021559Y010393D02*
X021392Y010393D01*
X021334Y010451D02*
X021559Y010451D01*
X021559Y010508D02*
X021277Y010508D01*
X018399Y011717D02*
X014319Y011717D01*
X014319Y011774D02*
X018399Y011774D01*
X018399Y011832D02*
X014319Y011832D01*
X014287Y011890D02*
X018399Y011890D01*
X018399Y011947D02*
X014319Y011947D01*
X014319Y012005D02*
X014882Y012005D01*
X015110Y012005D02*
X018399Y012005D01*
X018399Y012062D02*
X015168Y012062D01*
X015225Y012120D02*
X015672Y012120D01*
X015728Y012064D02*
X015594Y012198D01*
X015594Y012387D01*
X015728Y012521D01*
X015918Y012521D01*
X016051Y012387D01*
X016051Y012198D01*
X015918Y012064D01*
X015728Y012064D01*
X015615Y012177D02*
X015225Y012177D01*
X015225Y012235D02*
X015594Y012235D01*
X015594Y012292D02*
X015225Y012292D01*
X015183Y012350D02*
X015594Y012350D01*
X015615Y012408D02*
X015125Y012408D01*
X014910Y012465D02*
X015672Y012465D01*
X016051Y012350D02*
X018397Y012350D01*
X018399Y012292D02*
X016051Y012292D01*
X016051Y012235D02*
X018399Y012235D01*
X018399Y012177D02*
X016031Y012177D01*
X015973Y012120D02*
X018399Y012120D01*
X018351Y012408D02*
X018348Y012408D01*
X018386Y013213D02*
X017382Y013213D01*
X017440Y013271D02*
X018439Y013271D01*
X018496Y013328D02*
X017497Y013328D01*
X017062Y013328D02*
X012536Y013328D01*
X012594Y013386D02*
X017051Y013386D01*
X017051Y013444D02*
X012652Y013444D01*
X012666Y013501D02*
X017047Y013501D01*
X016989Y013559D02*
X012806Y013559D01*
X012864Y013616D02*
X016972Y013616D01*
X016972Y013674D02*
X012902Y013674D01*
X012902Y013731D02*
X016972Y013731D01*
X016996Y013789D02*
X012902Y013789D01*
X012899Y013846D02*
X017054Y013846D01*
X016930Y013962D02*
X020023Y013962D01*
X020023Y014019D02*
X016988Y014019D01*
X016873Y013904D02*
X020023Y013904D01*
X019288Y014134D02*
X018736Y014134D01*
X018793Y014192D02*
X019230Y014192D01*
X019177Y014249D02*
X018847Y014249D01*
X018847Y014307D02*
X019177Y014307D01*
X019177Y014364D02*
X018847Y014364D01*
X018847Y014422D02*
X019177Y014422D01*
X019222Y014480D02*
X018802Y014480D01*
X018744Y014537D02*
X019280Y014537D01*
X019311Y015095D02*
X019500Y015095D01*
X019634Y015229D01*
X019634Y015419D01*
X019500Y015552D01*
X019311Y015552D01*
X019177Y015419D01*
X019177Y015229D01*
X019311Y015095D01*
X019294Y015113D02*
X018691Y015113D01*
X018748Y015170D02*
X019236Y015170D01*
X019178Y015228D02*
X018806Y015228D01*
X018807Y015285D02*
X019177Y015285D01*
X019177Y015343D02*
X018807Y015343D01*
X018807Y015400D02*
X019177Y015400D01*
X019216Y015458D02*
X018768Y015458D01*
X018710Y015516D02*
X019274Y015516D01*
X019537Y015516D02*
X020023Y015516D01*
X020023Y015573D02*
X017695Y015573D01*
X017650Y015528D02*
X017784Y015662D01*
X017784Y015852D01*
X017650Y015986D01*
X017460Y015986D01*
X017327Y015852D01*
X017327Y015662D01*
X017460Y015528D01*
X017650Y015528D01*
X017752Y015631D02*
X020023Y015631D01*
X020023Y015688D02*
X017784Y015688D01*
X017784Y015746D02*
X020023Y015746D01*
X020008Y015803D02*
X017784Y015803D01*
X017775Y015861D02*
X019254Y015861D01*
X019196Y015918D02*
X017717Y015918D01*
X017659Y015976D02*
X019177Y015976D01*
X019177Y016034D02*
X017085Y016034D01*
X017085Y016091D02*
X017173Y016091D01*
X017116Y016149D02*
X017085Y016149D01*
X017085Y016206D02*
X017090Y016206D01*
X017085Y016264D02*
X017090Y016264D01*
X017085Y015976D02*
X017451Y015976D01*
X017393Y015918D02*
X017085Y015918D01*
X017085Y015861D02*
X017336Y015861D01*
X017327Y015803D02*
X017085Y015803D01*
X017085Y015746D02*
X017327Y015746D01*
X017327Y015688D02*
X017085Y015688D01*
X017085Y015631D02*
X017358Y015631D01*
X017416Y015573D02*
X017085Y015573D01*
X017085Y015516D02*
X018447Y015516D01*
X018390Y015458D02*
X017085Y015458D01*
X017085Y015400D02*
X018350Y015400D01*
X018350Y015343D02*
X017085Y015343D01*
X016789Y016436D02*
X012928Y016436D01*
X012886Y016395D02*
X013020Y016528D01*
X013020Y016718D01*
X012898Y016840D01*
X012902Y016843D01*
X012902Y017033D01*
X012768Y017167D01*
X012579Y017167D01*
X012445Y017033D01*
X012445Y016843D01*
X012567Y016722D01*
X012563Y016718D01*
X012563Y016528D01*
X012697Y016395D01*
X012886Y016395D01*
X012985Y016494D02*
X016846Y016494D01*
X016904Y016552D02*
X013020Y016552D01*
X013020Y016609D02*
X016961Y016609D01*
X016972Y016667D02*
X013020Y016667D01*
X013014Y016724D02*
X016972Y016724D01*
X016972Y016782D02*
X012956Y016782D01*
X012898Y016839D02*
X017015Y016839D01*
X017073Y016897D02*
X012902Y016897D01*
X012902Y016954D02*
X020259Y016954D01*
X020259Y016897D02*
X017329Y016897D01*
X017387Y016839D02*
X020259Y016839D01*
X020259Y016782D02*
X017429Y016782D01*
X017429Y016724D02*
X017530Y016724D01*
X017472Y016667D02*
X017429Y016667D01*
X017738Y016724D02*
X020259Y016724D01*
X020259Y016667D02*
X017796Y016667D01*
X017853Y016609D02*
X019974Y016609D01*
X019916Y016552D02*
X017862Y016552D01*
X017862Y016494D02*
X019859Y016494D01*
X020176Y016609D02*
X020259Y016609D01*
X020259Y016552D02*
X020233Y016552D01*
X019778Y016034D02*
X019634Y016034D01*
X019634Y015976D02*
X019835Y015976D01*
X019893Y015918D02*
X019615Y015918D01*
X019557Y015861D02*
X019950Y015861D01*
X020023Y015458D02*
X019595Y015458D01*
X019634Y015400D02*
X020023Y015400D01*
X020023Y015343D02*
X019634Y015343D01*
X019634Y015285D02*
X020023Y015285D01*
X020023Y015228D02*
X019633Y015228D01*
X019575Y015170D02*
X020023Y015170D01*
X020023Y015113D02*
X019518Y015113D01*
X020259Y017012D02*
X012902Y017012D01*
X012865Y017070D02*
X020259Y017070D01*
X020259Y017127D02*
X012808Y017127D01*
X012539Y017127D02*
X011642Y017127D01*
X011642Y017070D02*
X012481Y017070D01*
X012445Y017012D02*
X011642Y017012D01*
X011635Y016954D02*
X012445Y016954D01*
X012445Y016897D02*
X011577Y016897D01*
X011520Y016839D02*
X012449Y016839D01*
X012506Y016782D02*
X008006Y016782D01*
X008063Y016839D02*
X008472Y016839D01*
X008415Y016897D02*
X008099Y016897D01*
X008099Y016954D02*
X008357Y016954D01*
X008350Y017012D02*
X008099Y017012D01*
X007735Y016782D02*
X007085Y016782D01*
X007085Y016839D02*
X007677Y016839D01*
X007642Y016897D02*
X007085Y016897D01*
X007128Y016954D02*
X007642Y016954D01*
X007642Y017012D02*
X007185Y017012D01*
X007085Y016724D02*
X012564Y016724D01*
X012563Y016667D02*
X007085Y016667D01*
X007085Y016609D02*
X012563Y016609D01*
X012563Y016552D02*
X007085Y016552D01*
X007085Y016494D02*
X012597Y016494D01*
X012655Y016436D02*
X007085Y016436D01*
X007085Y016379D02*
X007125Y016379D01*
X007370Y015976D02*
X007722Y015976D01*
X007779Y015918D02*
X007321Y015918D01*
X007321Y015861D02*
X007837Y015861D01*
X008685Y016839D02*
X010283Y016839D01*
X010226Y016897D02*
X008743Y016897D01*
X008800Y016954D02*
X010201Y016954D01*
X010201Y017012D02*
X008807Y017012D01*
X008807Y017070D02*
X010201Y017070D01*
X010216Y017127D02*
X008807Y017127D01*
X008706Y018739D02*
X008491Y018739D01*
X008550Y018796D02*
X008647Y018796D01*
X008601Y018854D02*
X008596Y018854D01*
X008595Y019199D02*
X008602Y019199D01*
X008650Y019257D02*
X008547Y019257D01*
X008483Y019314D02*
X008714Y019314D01*
X009073Y019314D02*
X021559Y019314D01*
X021559Y019257D02*
X009137Y019257D01*
X009185Y019199D02*
X021559Y019199D01*
X021559Y019142D02*
X010439Y019142D01*
X010406Y019175D02*
X010216Y019175D01*
X010082Y019041D01*
X010082Y018851D01*
X010216Y018717D01*
X010406Y018717D01*
X010540Y018851D01*
X010540Y019041D01*
X010406Y019175D01*
X010496Y019084D02*
X021559Y019084D01*
X021559Y019026D02*
X010540Y019026D01*
X010540Y018969D02*
X021559Y018969D01*
X021559Y018911D02*
X010540Y018911D01*
X010540Y018854D02*
X021559Y018854D01*
X021559Y018796D02*
X010485Y018796D01*
X010427Y018739D02*
X021559Y018739D01*
X021559Y019372D02*
X006613Y019372D01*
X006561Y019372D02*
X006502Y019372D01*
X006502Y019381D02*
X006496Y019381D01*
X006428Y019367D01*
X006363Y019340D01*
X006304Y019301D01*
X006255Y019252D01*
X006216Y019193D01*
X006189Y019129D01*
X006175Y019060D01*
X006175Y019054D01*
X006502Y019054D01*
X006502Y019381D01*
X006450Y019372D02*
X001346Y019372D01*
X001346Y019429D02*
X021559Y019429D01*
X021559Y019487D02*
X001346Y019487D01*
X001350Y019544D02*
X021556Y019544D01*
X021551Y019602D02*
X001355Y019602D01*
X001374Y019660D02*
X021532Y019660D01*
X021513Y019717D02*
X001392Y019717D01*
X001411Y019775D02*
X021495Y019775D01*
X021461Y019832D02*
X001444Y019832D01*
X001486Y019890D02*
X021420Y019890D01*
X021378Y019947D02*
X001528Y019947D01*
X001597Y020005D02*
X021308Y020005D01*
X021229Y020062D02*
X001677Y020062D01*
X001818Y020120D02*
X021087Y020120D01*
X020016Y017645D02*
X012705Y017645D01*
X012705Y017588D02*
X020074Y017588D01*
X020132Y017530D02*
X012705Y017530D01*
X012704Y017472D02*
X020189Y017472D01*
X020247Y017415D02*
X012647Y017415D01*
X012589Y017357D02*
X020259Y017357D01*
X020259Y017300D02*
X011573Y017300D01*
X011573Y017357D02*
X012364Y017357D01*
X012306Y017415D02*
X011573Y017415D01*
X011573Y017472D02*
X012249Y017472D01*
X012248Y017530D02*
X011573Y017530D01*
X011573Y017588D02*
X012248Y017588D01*
X012248Y017645D02*
X011573Y017645D01*
X011573Y017703D02*
X012288Y017703D01*
X012345Y017760D02*
X011573Y017760D01*
X011723Y018106D02*
X012366Y018106D01*
X012394Y018163D02*
X011781Y018163D01*
X011838Y018221D02*
X012451Y018221D01*
X012665Y017703D02*
X017215Y017703D01*
X014610Y014940D02*
X013735Y014940D01*
X013792Y014882D02*
X014610Y014882D01*
X014621Y014825D02*
X013847Y014825D01*
X013986Y014767D02*
X014678Y014767D01*
X013892Y014307D02*
X012832Y014307D01*
X012775Y014364D02*
X013743Y014364D01*
X013834Y014249D02*
X012890Y014249D01*
X012902Y014192D02*
X013823Y014192D01*
X013823Y014134D02*
X012902Y014134D01*
X012902Y014077D02*
X013823Y014077D01*
X013852Y014019D02*
X012873Y014019D01*
X012815Y013962D02*
X013909Y013962D01*
X014193Y013962D02*
X014279Y013962D01*
X014340Y013904D02*
X012842Y013904D01*
X009860Y013444D02*
X008204Y013444D01*
X007733Y013444D02*
X007321Y013444D01*
X007321Y013501D02*
X007322Y013501D01*
X007321Y013386D02*
X007675Y013386D01*
X007618Y013328D02*
X007321Y013328D01*
X007321Y013271D02*
X007560Y013271D01*
X007553Y013213D02*
X007321Y013213D01*
X007321Y013156D02*
X007553Y013156D01*
X007553Y013098D02*
X007321Y013098D01*
X007321Y013041D02*
X007553Y013041D01*
X007553Y012983D02*
X007321Y012983D01*
X007321Y012926D02*
X007553Y012926D01*
X007553Y012868D02*
X007321Y012868D01*
X007321Y012810D02*
X007553Y012810D01*
X007553Y012753D02*
X007321Y012753D01*
X007321Y012695D02*
X007557Y012695D01*
X007614Y012638D02*
X007321Y012638D01*
X007321Y012580D02*
X007672Y012580D01*
X007907Y012523D02*
X007321Y012523D01*
X007321Y012465D02*
X007384Y012465D01*
X007327Y012408D02*
X007321Y012408D01*
X008150Y012054D02*
X008150Y012054D01*
X007552Y013501D02*
X009803Y013501D01*
X010575Y016839D02*
X011307Y016839D01*
X011249Y016897D02*
X011144Y016897D01*
X010895Y016897D02*
X010632Y016897D01*
X010658Y016954D02*
X010838Y016954D01*
X010791Y017012D02*
X010658Y017012D01*
X010766Y017070D02*
X010791Y017070D01*
X011573Y017242D02*
X020259Y017242D01*
X020259Y017185D02*
X011608Y017185D01*
X010195Y018739D02*
X009082Y018739D01*
X009141Y018796D02*
X010138Y018796D01*
X010082Y018854D02*
X009187Y018854D01*
X009211Y018911D02*
X010082Y018911D01*
X010082Y018969D02*
X009230Y018969D01*
X009230Y019026D02*
X010082Y019026D01*
X010126Y019084D02*
X009230Y019084D01*
X009209Y019142D02*
X010183Y019142D01*
X008123Y019314D02*
X007892Y019314D01*
X007956Y019257D02*
X008060Y019257D01*
X008011Y019199D02*
X008004Y019199D01*
X008006Y018854D02*
X008010Y018854D01*
X008056Y018796D02*
X007960Y018796D01*
X007901Y018739D02*
X008115Y018739D01*
X007525Y018739D02*
X007310Y018739D01*
X007369Y018796D02*
X007466Y018796D01*
X007420Y018854D02*
X007415Y018854D01*
X007414Y019199D02*
X007421Y019199D01*
X007469Y019257D02*
X007366Y019257D01*
X007302Y019314D02*
X007533Y019314D01*
X006942Y019314D02*
X006739Y019314D01*
X006803Y019257D02*
X006879Y019257D01*
X006561Y019257D02*
X006502Y019257D01*
X006502Y019314D02*
X006561Y019314D01*
X006561Y019199D02*
X006502Y019199D01*
X006502Y019142D02*
X006561Y019142D01*
X006561Y019084D02*
X006502Y019084D01*
X006502Y019026D02*
X001346Y019026D01*
X001346Y018969D02*
X006179Y018969D01*
X006193Y018911D02*
X001346Y018911D01*
X001346Y018854D02*
X006217Y018854D01*
X006256Y018796D02*
X001346Y018796D01*
X001346Y018739D02*
X006318Y018739D01*
X006502Y018739D02*
X006561Y018739D01*
X006561Y018796D02*
X006502Y018796D01*
X006502Y018854D02*
X006561Y018854D01*
X006561Y018911D02*
X006502Y018911D01*
X006502Y018969D02*
X006561Y018969D01*
X006745Y018739D02*
X006934Y018739D01*
X006875Y018796D02*
X006807Y018796D01*
X006180Y019084D02*
X001346Y019084D01*
X001346Y019142D02*
X006194Y019142D01*
X006220Y019199D02*
X001346Y019199D01*
X001346Y019257D02*
X006260Y019257D01*
X006324Y019314D02*
X001346Y019314D01*
X001346Y016494D02*
X004462Y016494D01*
X004462Y016436D02*
X001346Y016436D01*
X001346Y016379D02*
X004462Y016379D01*
X004462Y016321D02*
X001346Y016321D01*
X001346Y016264D02*
X004462Y016264D01*
X004462Y016206D02*
X001346Y016206D01*
X001346Y016149D02*
X004462Y016149D01*
X004462Y016091D02*
X001346Y016091D01*
X001346Y016034D02*
X004462Y016034D01*
X004462Y015976D02*
X001346Y015976D01*
X001346Y015918D02*
X002814Y015918D01*
X002822Y015926D02*
X002736Y015840D01*
X002689Y015727D01*
X002689Y015605D01*
X002736Y015493D01*
X002822Y015406D01*
X002935Y015360D01*
X003057Y015360D01*
X003170Y015406D01*
X003256Y015493D01*
X003303Y015605D01*
X003303Y015727D01*
X003256Y015840D01*
X003170Y015926D01*
X003057Y015973D01*
X002935Y015973D01*
X002822Y015926D01*
X002757Y015861D02*
X001346Y015861D01*
X001346Y015803D02*
X002721Y015803D01*
X002697Y015746D02*
X001346Y015746D01*
X001346Y015688D02*
X002689Y015688D01*
X002689Y015631D02*
X001346Y015631D01*
X001346Y015573D02*
X002703Y015573D01*
X002727Y015516D02*
X001346Y015516D01*
X001346Y015458D02*
X002771Y015458D01*
X002837Y015400D02*
X001346Y015400D01*
X001346Y015343D02*
X004462Y015343D01*
X004462Y015400D02*
X003155Y015400D01*
X003221Y015458D02*
X004462Y015458D01*
X004462Y015516D02*
X003266Y015516D01*
X003289Y015573D02*
X004462Y015573D01*
X004462Y015631D02*
X003303Y015631D01*
X003303Y015688D02*
X004462Y015688D01*
X004462Y015746D02*
X003295Y015746D01*
X003271Y015803D02*
X004462Y015803D01*
X004462Y015861D02*
X003235Y015861D01*
X003178Y015918D02*
X004462Y015918D01*
X004821Y016264D02*
X005544Y016264D01*
X005486Y016321D02*
X004821Y016321D01*
X004821Y016379D02*
X005437Y016379D01*
X005437Y016436D02*
X004821Y016436D01*
X004821Y016494D02*
X005437Y016494D01*
X005296Y016552D02*
X004821Y016552D01*
X004821Y016609D02*
X005238Y016609D01*
X005201Y016667D02*
X004821Y016667D01*
X004821Y016724D02*
X005201Y016724D01*
X005201Y016782D02*
X004821Y016782D01*
X004821Y016839D02*
X005204Y016839D01*
X005482Y017070D02*
X004821Y017070D01*
X004821Y017127D02*
X005432Y017127D01*
X005432Y017185D02*
X004821Y017185D01*
X004821Y017242D02*
X005432Y017242D01*
X005432Y017300D02*
X004821Y017300D01*
X004821Y017357D02*
X005480Y017357D01*
X005538Y017415D02*
X004821Y017415D01*
X004821Y017472D02*
X006057Y017472D01*
X006057Y017415D02*
X005783Y017415D01*
X005841Y017357D02*
X006057Y017357D01*
X006057Y017300D02*
X005889Y017300D01*
X005889Y017242D02*
X006057Y017242D01*
X006057Y017185D02*
X005889Y017185D01*
X005889Y017127D02*
X006057Y017127D01*
X006057Y017070D02*
X005839Y017070D01*
X005782Y017012D02*
X006057Y017012D01*
X006057Y017530D02*
X004821Y017530D01*
X004821Y017588D02*
X006057Y017588D01*
X006057Y017645D02*
X004821Y017645D01*
X004821Y017703D02*
X006057Y017703D01*
X006057Y017760D02*
X004821Y017760D01*
X004821Y017818D02*
X006057Y017818D01*
X006057Y017875D02*
X004821Y017875D01*
X004821Y017933D02*
X006080Y017933D01*
X006117Y017990D02*
X004821Y017990D01*
X004821Y018048D02*
X006059Y018048D01*
X006028Y018106D02*
X004821Y018106D01*
X004821Y018163D02*
X006028Y018163D01*
X006028Y018221D02*
X004821Y018221D01*
X004821Y018278D02*
X006037Y018278D01*
X006095Y018336D02*
X004827Y018336D01*
X004870Y018393D02*
X006153Y018393D01*
X004462Y015285D02*
X001346Y015285D01*
X001346Y015228D02*
X004462Y015228D01*
X004462Y015170D02*
X001346Y015170D01*
X001346Y015113D02*
X004462Y015113D01*
X004462Y015055D02*
X001346Y015055D01*
X001346Y014998D02*
X004462Y014998D01*
X004462Y014940D02*
X001346Y014940D01*
X001346Y014882D02*
X004462Y014882D01*
X004462Y014825D02*
X003248Y014825D01*
X003240Y014832D02*
X003051Y014832D01*
X002917Y014698D01*
X002917Y014509D01*
X003051Y014375D01*
X003240Y014375D01*
X003374Y014509D01*
X003374Y014698D01*
X003240Y014832D01*
X003305Y014767D02*
X004462Y014767D01*
X004462Y014710D02*
X003363Y014710D01*
X003374Y014652D02*
X004462Y014652D01*
X004462Y014595D02*
X003374Y014595D01*
X003374Y014537D02*
X004462Y014537D01*
X004462Y014480D02*
X003345Y014480D01*
X003287Y014422D02*
X004462Y014422D01*
X004462Y014364D02*
X001346Y014364D01*
X001346Y014307D02*
X004462Y014307D01*
X004462Y014249D02*
X001346Y014249D01*
X001346Y014192D02*
X004462Y014192D01*
X004462Y014134D02*
X001346Y014134D01*
X001346Y014077D02*
X004462Y014077D01*
X004462Y014019D02*
X001346Y014019D01*
X001346Y013962D02*
X004462Y013962D01*
X004462Y013904D02*
X001346Y013904D01*
X001346Y013846D02*
X004462Y013846D01*
X004462Y013789D02*
X001346Y013789D01*
X001346Y013731D02*
X004462Y013731D01*
X004462Y013674D02*
X001346Y013674D01*
X001346Y013616D02*
X004462Y013616D01*
X004462Y013559D02*
X001346Y013559D01*
X001346Y013501D02*
X004462Y013501D01*
X004462Y013444D02*
X001346Y013444D01*
X001346Y013386D02*
X004462Y013386D01*
X004462Y013328D02*
X001346Y013328D01*
X001346Y013271D02*
X004462Y013271D01*
X004462Y013213D02*
X001346Y013213D01*
X001346Y013156D02*
X004462Y013156D01*
X004462Y013098D02*
X001346Y013098D01*
X001346Y013041D02*
X004462Y013041D01*
X004462Y012983D02*
X001346Y012983D01*
X001346Y012926D02*
X004462Y012926D01*
X004462Y012868D02*
X001346Y012868D01*
X001346Y012810D02*
X004462Y012810D01*
X004462Y012753D02*
X001346Y012753D01*
X001346Y012695D02*
X004462Y012695D01*
X004462Y012638D02*
X001346Y012638D01*
X001346Y012580D02*
X004492Y012580D01*
X004492Y012523D02*
X001346Y012523D01*
X001346Y012465D02*
X004540Y012465D01*
X004512Y012408D02*
X001346Y012408D01*
X001346Y012350D02*
X004492Y012350D01*
X004492Y012292D02*
X001346Y012292D01*
X001346Y012235D02*
X004492Y012235D01*
X004512Y012177D02*
X001346Y012177D01*
X001346Y012120D02*
X004570Y012120D01*
X006010Y012350D02*
X006057Y012350D01*
X003004Y014422D02*
X001346Y014422D01*
X001346Y014480D02*
X002946Y014480D01*
X002917Y014537D02*
X001346Y014537D01*
X001346Y014595D02*
X002917Y014595D01*
X002917Y014652D02*
X001346Y014652D01*
X001346Y014710D02*
X002929Y014710D01*
X002986Y014767D02*
X001346Y014767D01*
X001346Y014825D02*
X003044Y014825D01*
X014754Y009472D02*
X014817Y009472D01*
X015120Y009472D02*
X015396Y009472D01*
X015338Y009415D02*
X015177Y009415D01*
X015197Y009357D02*
X015319Y009357D01*
X015319Y009300D02*
X015197Y009300D01*
X015197Y009242D02*
X015319Y009242D01*
X015340Y009184D02*
X015176Y009184D01*
X015125Y009127D02*
X015388Y009127D01*
X015388Y009069D02*
X015123Y009069D01*
X015122Y009012D02*
X015388Y009012D01*
X015388Y008954D02*
X015121Y008954D01*
X015120Y008897D02*
X015388Y008897D01*
X015792Y007688D02*
X014888Y007688D01*
X014610Y007630D02*
X015850Y007630D01*
X015818Y010163D02*
X015749Y010163D01*
D15*
X012595Y012844D03*
X012201Y012844D03*
X010732Y012450D03*
X010378Y012450D03*
X010378Y013828D03*
X010378Y014222D03*
X010850Y014222D03*
X010850Y013828D03*
X011323Y014222D03*
X010378Y015403D03*
X009906Y017096D03*
X008488Y015403D03*
X008016Y015403D03*
X007189Y016584D03*
X005087Y013710D03*
X003382Y015836D03*
X012937Y018237D03*
X013134Y016229D03*
X015260Y016190D03*
X015850Y016190D03*
X015850Y016977D03*
X015260Y016977D03*
X015260Y017765D03*
X015850Y017765D03*
X015850Y018946D03*
X015260Y018946D03*
X017622Y018946D03*
X017622Y018355D03*
X018409Y018355D03*
X018409Y018946D03*
X019000Y019143D03*
X019787Y019143D03*
X019787Y017174D03*
X020969Y017174D03*
X020969Y015796D03*
X020969Y014615D03*
X020969Y013631D03*
X020969Y012844D03*
X019591Y012844D03*
X019591Y013631D03*
X019787Y014615D03*
X019787Y015088D03*
X018409Y016977D03*
X017622Y016977D03*
X015417Y015324D03*
D16*
X014445Y014025D02*
X016768Y014025D01*
X016925Y014182D01*
X016925Y016348D01*
X017083Y016505D01*
X017634Y016505D01*
X014445Y014025D02*
X013854Y014576D01*
X011846Y014064D02*
X011843Y016155D01*
X011728Y015954D02*
X011728Y014143D01*
X010862Y013237D01*
X008185Y013237D01*
X008106Y013316D01*
X007831Y013316D01*
X007713Y013198D01*
X007713Y012765D01*
X007791Y012686D01*
X008067Y012686D01*
X008087Y012371D02*
X008106Y012332D01*
X008108Y012312D01*
X008113Y012292D01*
X008122Y012273D01*
X008134Y012256D01*
X008148Y012242D01*
X008165Y012230D01*
X008184Y012221D01*
X008204Y012216D01*
X008224Y012214D01*
X014996Y012214D01*
X015665Y011190D02*
X012988Y011190D01*
X010311Y011190D01*
X010272Y011190D01*
X010232Y011190D01*
X010193Y011190D01*
X010035Y011348D01*
X009878Y011348D01*
X009681Y011111D01*
X009524Y011111D01*
X009484Y011072D01*
X009287Y010875D02*
X009130Y011033D01*
X009130Y011072D01*
X008906Y010966D02*
X008906Y011229D01*
X008972Y011348D01*
X009681Y011348D01*
X009839Y011505D01*
X010075Y011505D01*
X010232Y011348D01*
X016846Y011348D01*
X016965Y011190D01*
X017280Y011387D02*
X017280Y010599D01*
X017516Y010363D01*
X017516Y007411D01*
X017004Y008040D02*
X016217Y008788D01*
X016150Y008867D01*
X016150Y009139D01*
X015961Y009300D02*
X015976Y009340D01*
X015961Y009300D02*
X015961Y008859D01*
X016260Y008572D01*
X016886Y007985D01*
X016886Y006348D01*
X017201Y006033D01*
X017201Y004970D01*
X016886Y004655D01*
X016886Y003277D01*
X017083Y003080D01*
X017083Y002371D01*
X017201Y002253D01*
X018894Y002253D01*
X018933Y002214D01*
X018736Y001977D02*
X019130Y001977D01*
X019209Y002056D01*
X019287Y002056D01*
X019287Y002332D02*
X019209Y002411D01*
X017280Y002411D01*
X017240Y002450D01*
X017240Y003080D01*
X017004Y003316D01*
X017004Y004615D01*
X017319Y004930D01*
X017319Y006072D01*
X017004Y006426D01*
X017004Y008040D01*
X016768Y007922D02*
X016059Y008592D01*
X015902Y008592D01*
X015772Y008749D01*
X015772Y009182D01*
X015547Y009300D02*
X015547Y008710D01*
X015744Y008474D01*
X016020Y008474D01*
X016646Y007879D01*
X016650Y006229D01*
X016965Y005914D01*
X016965Y005127D01*
X016650Y004812D01*
X016650Y003119D01*
X016846Y002922D01*
X016846Y002096D01*
X017161Y001781D01*
X017398Y001781D01*
X017437Y001977D02*
X017201Y001977D01*
X016965Y002214D01*
X016965Y003001D01*
X016768Y003198D01*
X016768Y004733D01*
X017083Y005048D01*
X017083Y005993D01*
X016768Y006308D01*
X016768Y007922D01*
X016532Y007804D02*
X015980Y008355D01*
X015311Y008355D01*
X014957Y008710D01*
X014969Y009300D01*
X014776Y009103D02*
X014776Y008631D01*
X015193Y008237D01*
X015941Y008237D01*
X016413Y007765D01*
X016413Y006072D01*
X016728Y005757D01*
X016728Y005245D01*
X016413Y004891D01*
X016413Y002607D01*
X016610Y002411D01*
X016610Y002096D02*
X016295Y002371D01*
X016295Y004970D01*
X016610Y005285D01*
X016610Y005718D01*
X016295Y006033D01*
X016295Y007725D01*
X015902Y008119D01*
X015075Y008119D01*
X014602Y008592D01*
X014602Y008788D01*
X014524Y008907D01*
X014524Y009103D01*
X014602Y009182D01*
X014595Y009308D01*
X014366Y009210D02*
X014366Y008552D01*
X014917Y008001D01*
X015862Y008001D01*
X016177Y007686D01*
X016177Y002214D01*
X016610Y001820D01*
X016571Y001584D02*
X016728Y001584D01*
X017201Y001190D01*
X017870Y001190D01*
X018264Y001584D01*
X018386Y001599D01*
X018736Y001977D02*
X018618Y002135D01*
X017595Y002135D01*
X017437Y001977D01*
X016571Y001584D02*
X016059Y002056D01*
X016059Y007647D01*
X015823Y007883D01*
X014760Y007883D01*
X013894Y007194D02*
X013894Y008631D01*
X013815Y008710D01*
X013815Y009655D01*
X013500Y009930D01*
X007319Y009930D01*
X007161Y010088D01*
X007161Y015993D01*
X007319Y016151D01*
X007831Y016151D01*
X007949Y016072D01*
X008067Y016269D02*
X008264Y016111D01*
X008067Y016269D02*
X007240Y016269D01*
X007043Y016072D01*
X007043Y009930D01*
X007201Y009773D01*
X013421Y009773D01*
X013697Y009536D01*
X013697Y007348D01*
X013500Y007186D02*
X013500Y008670D01*
X013579Y008749D01*
X013579Y009418D01*
X013343Y009615D01*
X007004Y009615D01*
X006925Y009694D01*
X006925Y016977D01*
X007122Y017174D01*
X008421Y017174D01*
X008579Y017056D01*
X007043Y017332D02*
X010311Y017332D01*
X010429Y017214D01*
X010429Y017017D01*
X010626Y017253D02*
X010390Y017489D01*
X006925Y017489D01*
X006689Y017253D01*
X006689Y007607D01*
X007161Y007135D01*
X008382Y007135D01*
X008736Y006781D01*
X008736Y005914D01*
X008854Y006072D02*
X008854Y006820D01*
X008421Y007253D01*
X007201Y007253D01*
X006807Y007647D01*
X006807Y017135D01*
X007043Y017332D01*
X006846Y017647D02*
X010705Y017647D01*
X010823Y017529D01*
X010823Y017450D01*
X011020Y017647D02*
X010862Y017804D01*
X006728Y017804D01*
X006453Y017529D01*
X006453Y007450D01*
X006138Y007253D01*
X006571Y007017D02*
X006571Y017371D01*
X006846Y017647D01*
X006571Y017962D02*
X010941Y017962D01*
X011217Y017686D01*
X011217Y017253D01*
X011020Y017096D02*
X011020Y017647D01*
X011413Y017844D02*
X011138Y018119D01*
X006492Y018119D01*
X006217Y017844D01*
X006217Y009300D01*
X006177Y009261D01*
X004996Y009261D01*
X004839Y009103D01*
X004839Y007430D01*
X004543Y007155D01*
X004543Y006072D01*
X004287Y005796D01*
X004287Y002450D01*
X004760Y002017D01*
X004724Y002348D02*
X004406Y002647D01*
X004406Y005560D01*
X004957Y006111D01*
X004957Y008946D01*
X005154Y009143D01*
X006256Y009143D01*
X006335Y009222D01*
X006335Y017725D01*
X006571Y017962D01*
X007437Y013710D02*
X009799Y013710D01*
X009957Y013670D01*
X010902Y013080D02*
X007909Y013080D01*
X007713Y012332D02*
X007476Y012332D01*
X007280Y012135D01*
X007280Y012017D01*
X007280Y011938D01*
X007280Y011899D01*
X007280Y011781D01*
X007280Y011662D01*
X007280Y010363D01*
X007555Y010088D01*
X011571Y010088D01*
X013776Y010088D01*
X013815Y010009D01*
X013933Y010245D02*
X007634Y010245D01*
X007398Y010481D01*
X007398Y011741D01*
X007752Y012056D01*
X007909Y012056D01*
X007854Y011781D02*
X007713Y011781D01*
X007516Y011544D01*
X007516Y010560D01*
X007673Y010403D01*
X011610Y010403D01*
X014602Y010363D01*
X014760Y010285D01*
X014996Y010403D02*
X014839Y010560D01*
X007713Y010560D01*
X007634Y010639D01*
X007634Y011505D01*
X007713Y011584D01*
X008067Y011584D01*
X008091Y011662D01*
X007831Y011190D02*
X007831Y011151D01*
X007791Y011111D01*
X007791Y010836D01*
X007909Y010718D01*
X015311Y010718D01*
X015547Y010481D01*
X015547Y010285D01*
X015744Y010521D02*
X015390Y010875D01*
X013303Y010875D01*
X010035Y010875D01*
X009287Y010875D01*
X008736Y011111D02*
X008736Y011348D01*
X008894Y011505D01*
X009642Y011505D01*
X009760Y011662D01*
X010154Y011662D01*
X010272Y011505D01*
X017161Y011505D01*
X017280Y011387D01*
X016138Y010718D02*
X016138Y010521D01*
X016138Y010718D02*
X015665Y011190D01*
X015508Y011033D02*
X014091Y011033D01*
X010232Y011033D01*
X009996Y011033D01*
X009957Y011111D01*
X008736Y011111D02*
X008579Y010954D01*
X008106Y010954D01*
X007752Y012292D02*
X007713Y012332D01*
X005941Y009812D02*
X006098Y009694D01*
X006098Y009418D01*
X006059Y009379D01*
X004917Y009379D01*
X004721Y009182D01*
X004721Y007489D01*
X004425Y007214D01*
X004209Y007450D01*
X003539Y007450D01*
X003539Y008552D01*
X003421Y008710D01*
X002122Y008710D01*
X002004Y008592D01*
X004425Y007214D02*
X004425Y006151D01*
X004169Y005875D01*
X004169Y003434D01*
X004012Y003277D01*
X002831Y003277D01*
X002634Y003040D01*
X002634Y002056D01*
X002752Y001938D01*
X003264Y001938D01*
X008854Y006072D02*
X009012Y005946D01*
X013933Y010245D02*
X014091Y010088D01*
X015508Y011033D02*
X015941Y010599D01*
X015941Y010363D01*
X016532Y007804D02*
X016532Y006151D01*
X016846Y005836D01*
X016846Y005166D01*
X016532Y004851D01*
X016532Y002883D01*
X016610Y002804D01*
X010902Y013080D02*
X011846Y014064D01*
X011728Y015954D02*
X011610Y016060D01*
X011413Y017056D02*
X011413Y017844D01*
D17*
X015862Y005403D02*
X015862Y004970D01*
X015823Y004930D01*
D18*
X014406Y006505D02*
X014445Y006544D01*
X014406Y006505D02*
X014406Y003080D01*
X014528Y002981D01*
D19*
X017634Y003001D02*
X017634Y004733D01*
X017870Y004891D02*
X017870Y003159D01*
X018224Y002844D01*
X019878Y002844D01*
X020035Y002962D01*
X020035Y003946D01*
X020469Y004340D01*
X020350Y002607D02*
X018106Y002607D01*
X017634Y003001D01*
X020350Y002607D02*
X020469Y002489D01*
X019799Y007962D02*
X020232Y008434D01*
X020232Y015875D01*
X019839Y016269D01*
X017319Y016269D01*
X017358Y017883D02*
X020075Y017883D01*
X020469Y017489D01*
X020469Y008355D01*
X020469Y008277D01*
X020539Y008233D01*
D20*
X019772Y009418D02*
X019760Y009458D01*
X018815Y009458D01*
X018579Y009694D01*
X018579Y012411D01*
X018421Y012607D01*
X018224Y012607D01*
X004721Y012607D02*
X004642Y012686D01*
X004642Y018474D01*
M02*
