G75*
G70*
%OFA0B0*%
%FSLAX24Y24*%
%IPPOS*%
%LPD*%
%AMOC8*
5,1,8,0,0,1.08239X$1,22.5*
%
%ADD10R,0.0138X0.0236*%
%ADD11R,0.0669X0.0433*%
%ADD12R,0.0236X0.0236*%
%ADD13C,0.0055*%
%ADD14R,0.0315X0.0354*%
%ADD15R,0.0098X0.0276*%
%ADD16R,0.0335X0.0118*%
%ADD17R,0.0118X0.0335*%
%ADD18R,0.1417X0.1417*%
%ADD19R,0.1673X0.1673*%
%ADD20R,0.0571X0.0236*%
%ADD21R,0.0472X0.0118*%
%ADD22R,0.0945X0.0945*%
%ADD23R,0.0984X0.0472*%
%ADD24R,0.0984X0.0787*%
%ADD25R,0.0906X0.0197*%
%ADD26R,0.0591X0.0630*%
%ADD27R,0.0630X0.0551*%
%ADD28C,0.0125*%
%ADD29C,0.0088*%
%ADD30R,0.0315X0.0098*%
%ADD31R,0.0098X0.0315*%
%ADD32R,0.0689X0.0689*%
%ADD33R,0.0413X0.0157*%
%ADD34R,0.0157X0.0413*%
%ADD35C,0.0100*%
%ADD36C,0.0004*%
%ADD37R,0.0205X0.0205*%
%ADD38R,0.0354X0.0315*%
%ADD39R,0.0335X0.0866*%
%ADD40R,0.0394X0.0413*%
%ADD41R,0.0472X0.0236*%
%ADD42R,0.0315X0.0315*%
%ADD43R,0.0413X0.0433*%
%ADD44R,0.0236X0.0433*%
%ADD45R,0.0276X0.0098*%
%ADD46R,0.0512X0.0591*%
%ADD47R,0.0591X0.0512*%
%ADD48R,0.0256X0.1091*%
%ADD49R,0.0512X0.0236*%
%ADD50R,0.0709X0.0787*%
D10*
X001740Y007533D03*
X001996Y007533D03*
X002252Y007533D03*
X002252Y008359D03*
X001996Y008359D03*
X001740Y008359D03*
X017260Y008540D03*
X017516Y008540D03*
X017772Y008540D03*
X017772Y007714D03*
X017516Y007714D03*
X017260Y007714D03*
D11*
X017516Y008127D03*
X001996Y007946D03*
D12*
X002244Y006969D03*
X002244Y006569D03*
X002004Y005957D03*
X002004Y005557D03*
X002791Y005557D03*
X002791Y005957D03*
X003421Y005445D03*
X003421Y005045D03*
X003421Y004303D03*
X003421Y003903D03*
X004051Y003201D03*
X004051Y002801D03*
X004721Y003234D03*
X004721Y003634D03*
X004717Y004222D03*
X005117Y004222D03*
X005245Y003576D03*
X005645Y003576D03*
X006098Y003903D03*
X006098Y004303D03*
X006098Y005045D03*
X006098Y005445D03*
X005508Y005445D03*
X005508Y005045D03*
X006769Y006670D03*
X007169Y006670D03*
X008300Y006623D03*
X008700Y006623D03*
X009209Y007132D03*
X009209Y007532D03*
X010626Y006981D03*
X010626Y006581D03*
X011256Y006587D03*
X011256Y006187D03*
X010508Y005288D03*
X010508Y004888D03*
X009881Y005718D03*
X009481Y005718D03*
X009284Y004379D03*
X009684Y004379D03*
X008661Y004379D03*
X008261Y004379D03*
X008536Y003552D03*
X008936Y003552D03*
X007913Y003552D03*
X007513Y003552D03*
X006728Y003201D03*
X006728Y002801D03*
X010193Y002965D03*
X010193Y002565D03*
X010741Y001623D03*
X011141Y001623D03*
X011607Y000875D03*
X012007Y000875D03*
X012080Y001938D03*
X012480Y001938D03*
X012165Y002489D03*
X011765Y002489D03*
X011765Y003001D03*
X012165Y003001D03*
X013185Y002020D03*
X013185Y001620D03*
X013221Y000875D03*
X013621Y000875D03*
X014091Y002014D03*
X014091Y002414D03*
X014760Y002368D03*
X014760Y002768D03*
X015544Y002371D03*
X015944Y002371D03*
X015587Y004533D03*
X015587Y004933D03*
X015587Y005478D03*
X015587Y005878D03*
X016138Y005878D03*
X016138Y005478D03*
X018224Y005327D03*
X018224Y004927D03*
X018772Y004891D03*
X019172Y004891D03*
X017949Y009100D03*
X017949Y009500D03*
X016886Y009500D03*
X016886Y009100D03*
X015232Y011423D03*
X015232Y011823D03*
X014724Y011741D03*
X014324Y011741D03*
X013424Y016623D03*
X013024Y016623D03*
X012949Y018549D03*
X012949Y018949D03*
X008343Y018162D03*
X008343Y017762D03*
X005802Y015757D03*
X005402Y015757D03*
X005503Y014300D03*
X005103Y014300D03*
X005862Y011075D03*
X005862Y010675D03*
X007709Y009418D03*
X008109Y009418D03*
X012724Y006705D03*
X012724Y006305D03*
X002083Y003477D03*
X002083Y003077D03*
D13*
X001903Y006473D02*
X001663Y006473D01*
X001663Y006695D01*
X001903Y006695D01*
X001903Y006473D01*
X001903Y006527D02*
X001663Y006527D01*
X001663Y006581D02*
X001903Y006581D01*
X001903Y006635D02*
X001663Y006635D01*
X001663Y006689D02*
X001903Y006689D01*
X001903Y006866D02*
X001663Y006866D01*
X001663Y007088D01*
X001903Y007088D01*
X001903Y006866D01*
X001903Y006920D02*
X001663Y006920D01*
X001663Y006974D02*
X001903Y006974D01*
X001903Y007028D02*
X001663Y007028D01*
X001663Y007082D02*
X001903Y007082D01*
X005358Y011424D02*
X005358Y011664D01*
X005580Y011664D01*
X005580Y011424D01*
X005358Y011424D01*
X005358Y011478D02*
X005580Y011478D01*
X005580Y011532D02*
X005358Y011532D01*
X005358Y011586D02*
X005580Y011586D01*
X005580Y011640D02*
X005358Y011640D01*
X005580Y011779D02*
X005580Y012019D01*
X005580Y011779D02*
X005358Y011779D01*
X005358Y012019D01*
X005580Y012019D01*
X005580Y011833D02*
X005358Y011833D01*
X005358Y011887D02*
X005580Y011887D01*
X005580Y011941D02*
X005358Y011941D01*
X005358Y011995D02*
X005580Y011995D01*
X005973Y012019D02*
X005973Y011779D01*
X005751Y011779D01*
X005751Y012019D01*
X005973Y012019D01*
X005973Y011833D02*
X005751Y011833D01*
X005751Y011887D02*
X005973Y011887D01*
X005973Y011941D02*
X005751Y011941D01*
X005751Y011995D02*
X005973Y011995D01*
X005751Y011664D02*
X005751Y011424D01*
X005751Y011664D02*
X005973Y011664D01*
X005973Y011424D01*
X005751Y011424D01*
X005751Y011478D02*
X005973Y011478D01*
X005973Y011532D02*
X005751Y011532D01*
X005751Y011586D02*
X005973Y011586D01*
X005973Y011640D02*
X005751Y011640D01*
X005234Y012010D02*
X004994Y012010D01*
X005234Y012010D02*
X005234Y011788D01*
X004994Y011788D01*
X004994Y012010D01*
X004994Y011842D02*
X005234Y011842D01*
X005234Y011896D02*
X004994Y011896D01*
X004994Y011950D02*
X005234Y011950D01*
X005234Y012004D02*
X004994Y012004D01*
X004994Y012403D02*
X005234Y012403D01*
X005234Y012181D01*
X004994Y012181D01*
X004994Y012403D01*
X004994Y012235D02*
X005234Y012235D01*
X005234Y012289D02*
X004994Y012289D01*
X004994Y012343D02*
X005234Y012343D01*
X005234Y012397D02*
X004994Y012397D01*
X002917Y012487D02*
X002917Y012727D01*
X003139Y012727D01*
X003139Y012487D01*
X002917Y012487D01*
X002917Y012541D02*
X003139Y012541D01*
X003139Y012595D02*
X002917Y012595D01*
X002917Y012649D02*
X003139Y012649D01*
X003139Y012703D02*
X002917Y012703D01*
X002523Y012727D02*
X002523Y012487D01*
X002523Y012727D02*
X002745Y012727D01*
X002745Y012487D01*
X002523Y012487D01*
X002523Y012541D02*
X002745Y012541D01*
X002745Y012595D02*
X002523Y012595D01*
X002523Y012649D02*
X002745Y012649D01*
X002745Y012703D02*
X002523Y012703D01*
X002523Y012097D02*
X002523Y011857D01*
X002523Y012097D02*
X002745Y012097D01*
X002745Y011857D01*
X002523Y011857D01*
X002523Y011911D02*
X002745Y011911D01*
X002745Y011965D02*
X002523Y011965D01*
X002523Y012019D02*
X002745Y012019D01*
X002745Y012073D02*
X002523Y012073D01*
X002917Y012097D02*
X002917Y011857D01*
X002917Y012097D02*
X003139Y012097D01*
X003139Y011857D01*
X002917Y011857D01*
X002917Y011911D02*
X003139Y011911D01*
X003139Y011965D02*
X002917Y011965D01*
X002917Y012019D02*
X003139Y012019D01*
X003139Y012073D02*
X002917Y012073D01*
X005225Y017566D02*
X005225Y017806D01*
X005225Y017566D02*
X005003Y017566D01*
X005003Y017806D01*
X005225Y017806D01*
X005225Y017620D02*
X005003Y017620D01*
X005003Y017674D02*
X005225Y017674D01*
X005225Y017728D02*
X005003Y017728D01*
X005003Y017782D02*
X005225Y017782D01*
X005619Y017806D02*
X005619Y017566D01*
X005397Y017566D01*
X005397Y017806D01*
X005619Y017806D01*
X005619Y017620D02*
X005397Y017620D01*
X005397Y017674D02*
X005619Y017674D01*
X005619Y017728D02*
X005397Y017728D01*
X005397Y017782D02*
X005619Y017782D01*
X005821Y017797D02*
X006061Y017797D01*
X006061Y017575D01*
X005821Y017575D01*
X005821Y017797D01*
X005821Y017629D02*
X006061Y017629D01*
X006061Y017683D02*
X005821Y017683D01*
X005821Y017737D02*
X006061Y017737D01*
X006061Y017791D02*
X005821Y017791D01*
X005821Y018191D02*
X006061Y018191D01*
X006061Y017969D01*
X005821Y017969D01*
X005821Y018191D01*
X005821Y018023D02*
X006061Y018023D01*
X006061Y018077D02*
X005821Y018077D01*
X005821Y018131D02*
X006061Y018131D01*
X006061Y018185D02*
X005821Y018185D01*
X007002Y018309D02*
X007242Y018309D01*
X007242Y018087D01*
X007002Y018087D01*
X007002Y018309D01*
X007002Y018141D02*
X007242Y018141D01*
X007242Y018195D02*
X007002Y018195D01*
X007002Y018249D02*
X007242Y018249D01*
X007242Y018303D02*
X007002Y018303D01*
X007002Y017915D02*
X007242Y017915D01*
X007242Y017693D01*
X007002Y017693D01*
X007002Y017915D01*
X007002Y017747D02*
X007242Y017747D01*
X007242Y017801D02*
X007002Y017801D01*
X007002Y017855D02*
X007242Y017855D01*
X007242Y017909D02*
X007002Y017909D01*
X007593Y017693D02*
X007833Y017693D01*
X007593Y017693D02*
X007593Y017915D01*
X007833Y017915D01*
X007833Y017693D01*
X007833Y017747D02*
X007593Y017747D01*
X007593Y017801D02*
X007833Y017801D01*
X007833Y017855D02*
X007593Y017855D01*
X007593Y017909D02*
X007833Y017909D01*
X007833Y018087D02*
X007593Y018087D01*
X007593Y018309D01*
X007833Y018309D01*
X007833Y018087D01*
X007833Y018141D02*
X007593Y018141D01*
X007593Y018195D02*
X007833Y018195D01*
X007833Y018249D02*
X007593Y018249D01*
X007593Y018303D02*
X007833Y018303D01*
X008774Y018048D02*
X009014Y018048D01*
X008774Y018048D02*
X008774Y018270D01*
X009014Y018270D01*
X009014Y018048D01*
X009014Y018102D02*
X008774Y018102D01*
X008774Y018156D02*
X009014Y018156D01*
X009014Y018210D02*
X008774Y018210D01*
X008774Y018264D02*
X009014Y018264D01*
X009014Y017654D02*
X008774Y017654D01*
X008774Y017876D01*
X009014Y017876D01*
X009014Y017654D01*
X009014Y017708D02*
X008774Y017708D01*
X008774Y017762D02*
X009014Y017762D01*
X009014Y017816D02*
X008774Y017816D01*
X008774Y017870D02*
X009014Y017870D01*
X012908Y017418D02*
X013148Y017418D01*
X012908Y017418D02*
X012908Y017640D01*
X013148Y017640D01*
X013148Y017418D01*
X013148Y017472D02*
X012908Y017472D01*
X012908Y017526D02*
X013148Y017526D01*
X013148Y017580D02*
X012908Y017580D01*
X012908Y017634D02*
X013148Y017634D01*
X013148Y017024D02*
X012908Y017024D01*
X012908Y017246D01*
X013148Y017246D01*
X013148Y017024D01*
X013148Y017078D02*
X012908Y017078D01*
X012908Y017132D02*
X013148Y017132D01*
X013148Y017186D02*
X012908Y017186D01*
X012908Y017240D02*
X013148Y017240D01*
X012233Y013672D02*
X012233Y013432D01*
X012011Y013432D01*
X012011Y013672D01*
X012233Y013672D01*
X012233Y013486D02*
X012011Y013486D01*
X012011Y013540D02*
X012233Y013540D01*
X012233Y013594D02*
X012011Y013594D01*
X012011Y013648D02*
X012233Y013648D01*
X011839Y013672D02*
X011839Y013432D01*
X011617Y013432D01*
X011617Y013672D01*
X011839Y013672D01*
X011839Y013486D02*
X011617Y013486D01*
X011617Y013540D02*
X011839Y013540D01*
X011839Y013594D02*
X011617Y013594D01*
X011617Y013648D02*
X011839Y013648D01*
X010619Y009499D02*
X010619Y009259D01*
X010397Y009259D01*
X010397Y009499D01*
X010619Y009499D01*
X010619Y009313D02*
X010397Y009313D01*
X010397Y009367D02*
X010619Y009367D01*
X010619Y009421D02*
X010397Y009421D01*
X010397Y009475D02*
X010619Y009475D01*
X010225Y009499D02*
X010225Y009259D01*
X010003Y009259D01*
X010003Y009499D01*
X010225Y009499D01*
X010225Y009313D02*
X010003Y009313D01*
X010003Y009367D02*
X010225Y009367D01*
X010225Y009421D02*
X010003Y009421D01*
X010003Y009475D02*
X010225Y009475D01*
X009792Y009499D02*
X009792Y009259D01*
X009570Y009259D01*
X009570Y009499D01*
X009792Y009499D01*
X009792Y009313D02*
X009570Y009313D01*
X009570Y009367D02*
X009792Y009367D01*
X009792Y009421D02*
X009570Y009421D01*
X009570Y009475D02*
X009792Y009475D01*
X009398Y009499D02*
X009398Y009259D01*
X009176Y009259D01*
X009176Y009499D01*
X009398Y009499D01*
X009398Y009313D02*
X009176Y009313D01*
X009176Y009367D02*
X009398Y009367D01*
X009398Y009421D02*
X009176Y009421D01*
X009176Y009475D02*
X009398Y009475D01*
X015855Y004184D02*
X015855Y003944D01*
X015633Y003944D01*
X015633Y004184D01*
X015855Y004184D01*
X015855Y003998D02*
X015633Y003998D01*
X015633Y004052D02*
X015855Y004052D01*
X015855Y004106D02*
X015633Y004106D01*
X015633Y004160D02*
X015855Y004160D01*
X016249Y004184D02*
X016249Y003944D01*
X016027Y003944D01*
X016027Y004184D01*
X016249Y004184D01*
X016249Y003998D02*
X016027Y003998D01*
X016027Y004052D02*
X016249Y004052D01*
X016249Y004106D02*
X016027Y004106D01*
X016027Y004160D02*
X016249Y004160D01*
X016258Y004425D02*
X016018Y004425D01*
X016018Y004647D01*
X016258Y004647D01*
X016258Y004425D01*
X016258Y004479D02*
X016018Y004479D01*
X016018Y004533D02*
X016258Y004533D01*
X016258Y004587D02*
X016018Y004587D01*
X016018Y004641D02*
X016258Y004641D01*
X016258Y004819D02*
X016018Y004819D01*
X016018Y005041D01*
X016258Y005041D01*
X016258Y004819D01*
X016258Y004873D02*
X016018Y004873D01*
X016018Y004927D02*
X016258Y004927D01*
X016258Y004981D02*
X016018Y004981D01*
X016018Y005035D02*
X016258Y005035D01*
X016249Y003790D02*
X016249Y003550D01*
X016027Y003550D01*
X016027Y003790D01*
X016249Y003790D01*
X016249Y003604D02*
X016027Y003604D01*
X016027Y003658D02*
X016249Y003658D01*
X016249Y003712D02*
X016027Y003712D01*
X016027Y003766D02*
X016249Y003766D01*
X016249Y003397D02*
X016249Y003157D01*
X016027Y003157D01*
X016027Y003397D01*
X016249Y003397D01*
X016249Y003211D02*
X016027Y003211D01*
X016027Y003265D02*
X016249Y003265D01*
X016249Y003319D02*
X016027Y003319D01*
X016027Y003373D02*
X016249Y003373D01*
X016249Y003003D02*
X016249Y002763D01*
X016027Y002763D01*
X016027Y003003D01*
X016249Y003003D01*
X016249Y002817D02*
X016027Y002817D01*
X016027Y002871D02*
X016249Y002871D01*
X016249Y002925D02*
X016027Y002925D01*
X016027Y002979D02*
X016249Y002979D01*
X015855Y003003D02*
X015855Y002763D01*
X015633Y002763D01*
X015633Y003003D01*
X015855Y003003D01*
X015855Y002817D02*
X015633Y002817D01*
X015633Y002871D02*
X015855Y002871D01*
X015855Y002925D02*
X015633Y002925D01*
X015633Y002979D02*
X015855Y002979D01*
X015855Y003157D02*
X015855Y003397D01*
X015855Y003157D02*
X015633Y003157D01*
X015633Y003397D01*
X015855Y003397D01*
X015855Y003211D02*
X015633Y003211D01*
X015633Y003265D02*
X015855Y003265D01*
X015855Y003319D02*
X015633Y003319D01*
X015633Y003373D02*
X015855Y003373D01*
X015855Y003550D02*
X015855Y003790D01*
X015855Y003550D02*
X015633Y003550D01*
X015633Y003790D01*
X015855Y003790D01*
X015855Y003604D02*
X015633Y003604D01*
X015633Y003658D02*
X015855Y003658D01*
X015855Y003712D02*
X015633Y003712D01*
X015633Y003766D02*
X015855Y003766D01*
X019286Y003048D02*
X019526Y003048D01*
X019286Y003048D02*
X019286Y003270D01*
X019526Y003270D01*
X019526Y003048D01*
X019526Y003102D02*
X019286Y003102D01*
X019286Y003156D02*
X019526Y003156D01*
X019526Y003210D02*
X019286Y003210D01*
X019286Y003264D02*
X019526Y003264D01*
X019526Y002654D02*
X019286Y002654D01*
X019286Y002876D01*
X019526Y002876D01*
X019526Y002654D01*
X019526Y002708D02*
X019286Y002708D01*
X019286Y002762D02*
X019526Y002762D01*
X019526Y002816D02*
X019286Y002816D01*
X019286Y002870D02*
X019526Y002870D01*
X017549Y009214D02*
X017309Y009214D01*
X017549Y009214D02*
X017549Y008992D01*
X017309Y008992D01*
X017309Y009214D01*
X017309Y009046D02*
X017549Y009046D01*
X017549Y009100D02*
X017309Y009100D01*
X017309Y009154D02*
X017549Y009154D01*
X017549Y009208D02*
X017309Y009208D01*
X017309Y009608D02*
X017549Y009608D01*
X017549Y009386D01*
X017309Y009386D01*
X017309Y009608D01*
X017309Y009440D02*
X017549Y009440D01*
X017549Y009494D02*
X017309Y009494D01*
X017309Y009548D02*
X017549Y009548D01*
X017549Y009602D02*
X017309Y009602D01*
D14*
X018221Y008478D03*
X018221Y007878D03*
X015823Y011402D03*
X015823Y012002D03*
X014799Y013961D03*
X014799Y014561D03*
X012043Y007041D03*
X012043Y006441D03*
X017358Y001411D03*
X017358Y000811D03*
X018972Y000811D03*
X018972Y001411D03*
X005114Y018252D03*
X005114Y018852D03*
D15*
X014386Y010029D03*
X014583Y010029D03*
X014780Y010029D03*
X014976Y010029D03*
X014976Y009596D03*
X014780Y009596D03*
X014583Y009596D03*
X014386Y009596D03*
X015567Y009596D03*
X015764Y009596D03*
X015961Y009596D03*
X016158Y009596D03*
X016158Y010029D03*
X015961Y010029D03*
X015764Y010029D03*
X015567Y010029D03*
X014095Y006934D03*
X013898Y006934D03*
X013701Y006934D03*
X013504Y006934D03*
X013504Y006501D03*
X013701Y006501D03*
X013898Y006501D03*
X014095Y006501D03*
D16*
X014579Y005340D03*
X014579Y005143D03*
X014579Y004946D03*
X014579Y004749D03*
X014579Y004552D03*
X014579Y004355D03*
X014579Y004159D03*
X014579Y003962D03*
X014579Y003765D03*
X014579Y003568D03*
X016965Y003564D03*
X016965Y003367D03*
X016965Y003170D03*
X016965Y002974D03*
X016965Y002777D03*
X016965Y002580D03*
X016965Y003761D03*
X016965Y003958D03*
X018894Y003958D03*
X018894Y003761D03*
X018894Y003564D03*
X018894Y003367D03*
X018894Y003170D03*
X018894Y002974D03*
X018894Y002777D03*
X018894Y002580D03*
X012256Y003568D03*
X012256Y003765D03*
X012256Y003962D03*
X012256Y004159D03*
X012256Y004355D03*
X012256Y004552D03*
X012256Y004749D03*
X012256Y004946D03*
X012256Y005143D03*
X012256Y005340D03*
D17*
X012532Y005615D03*
X012728Y005615D03*
X012925Y005615D03*
X013122Y005615D03*
X013319Y005615D03*
X013516Y005615D03*
X013713Y005615D03*
X013909Y005615D03*
X014106Y005615D03*
X014303Y005615D03*
X014303Y003292D03*
X014106Y003292D03*
X013909Y003292D03*
X013713Y003292D03*
X013516Y003292D03*
X013319Y003292D03*
X013122Y003292D03*
X012925Y003292D03*
X012728Y003292D03*
X012532Y003292D03*
X017240Y004233D03*
X017437Y004233D03*
X017634Y004233D03*
X017831Y004233D03*
X018028Y004233D03*
X018224Y004233D03*
X018421Y004233D03*
X018618Y004233D03*
X018618Y002304D03*
X018421Y002304D03*
X018224Y002304D03*
X018028Y002304D03*
X017831Y002304D03*
X017634Y002304D03*
X017437Y002304D03*
X017240Y002304D03*
D18*
X017929Y003269D03*
D19*
X013417Y004454D03*
D20*
X012055Y017440D03*
X012055Y017940D03*
X012055Y018440D03*
X012055Y018940D03*
X009890Y018940D03*
X009890Y018440D03*
X009890Y017940D03*
X009890Y017440D03*
D21*
X019002Y017292D03*
X019002Y017096D03*
X019002Y016899D03*
X019002Y016702D03*
X019002Y016505D03*
X019002Y016308D03*
X019002Y016111D03*
X019002Y015914D03*
X019002Y015718D03*
X019002Y015521D03*
X019002Y015324D03*
X019002Y015127D03*
X019002Y014930D03*
X019002Y014733D03*
X019002Y014536D03*
X019002Y014340D03*
X019002Y014143D03*
X019002Y013946D03*
X019002Y013749D03*
X019002Y013552D03*
X019002Y013355D03*
X019002Y013159D03*
X019002Y012962D03*
X019002Y012765D03*
X019002Y012568D03*
X019002Y012371D03*
X019002Y012174D03*
X019002Y011977D03*
X019002Y011781D03*
X019002Y011584D03*
X019002Y011387D03*
X019002Y011190D03*
X019002Y010993D03*
X019002Y010796D03*
X019002Y010599D03*
X019002Y010403D03*
X019002Y010206D03*
X019002Y010009D03*
X019002Y009812D03*
X019002Y009615D03*
X019002Y009418D03*
X019002Y009222D03*
X019002Y009025D03*
X019002Y008828D03*
X019002Y008631D03*
X019002Y008434D03*
X019002Y008237D03*
X019002Y008040D03*
X019002Y007844D03*
X019002Y007647D03*
D22*
X020065Y006820D03*
X020065Y018119D03*
D23*
X016669Y017863D03*
X016669Y019044D03*
X016669Y016288D03*
X014110Y015855D03*
D24*
X003980Y014781D03*
X001815Y014781D03*
X001815Y018285D03*
X003980Y018285D03*
D25*
X004020Y017162D03*
X004020Y016848D03*
X004020Y016533D03*
X004020Y016218D03*
X004020Y015903D03*
D26*
X016512Y012076D03*
X017417Y012076D03*
X017417Y011092D03*
X016512Y011092D03*
D27*
X005823Y013710D03*
X004642Y013710D03*
D28*
X010012Y007019D02*
X010012Y006893D01*
X010012Y007019D02*
X010138Y007019D01*
X010138Y006893D01*
X010012Y006893D01*
X010012Y007017D02*
X010138Y007017D01*
X010012Y006669D02*
X010012Y006543D01*
X010012Y006669D02*
X010138Y006669D01*
X010138Y006543D01*
X010012Y006543D01*
X010012Y006667D02*
X010138Y006667D01*
X009644Y006560D02*
X009518Y006560D01*
X009518Y006686D01*
X009644Y006686D01*
X009644Y006560D01*
X009644Y006684D02*
X009518Y006684D01*
X009294Y006560D02*
X009168Y006560D01*
X009168Y006686D01*
X009294Y006686D01*
X009294Y006560D01*
X009294Y006684D02*
X009168Y006684D01*
X009224Y005278D02*
X009224Y005152D01*
X009224Y005278D02*
X009350Y005278D01*
X009350Y005152D01*
X009224Y005152D01*
X009224Y005276D02*
X009350Y005276D01*
X009224Y004928D02*
X009224Y004802D01*
X009224Y004928D02*
X009350Y004928D01*
X009350Y004802D01*
X009224Y004802D01*
X009224Y004926D02*
X009350Y004926D01*
X010112Y004442D02*
X010238Y004442D01*
X010238Y004316D01*
X010112Y004316D01*
X010112Y004442D01*
X010112Y004440D02*
X010238Y004440D01*
X010462Y004442D02*
X010588Y004442D01*
X010588Y004316D01*
X010462Y004316D01*
X010462Y004442D01*
X010462Y004440D02*
X010588Y004440D01*
X010979Y004442D02*
X011105Y004442D01*
X011105Y004316D01*
X010979Y004316D01*
X010979Y004442D01*
X010979Y004440D02*
X011105Y004440D01*
X011329Y004442D02*
X011455Y004442D01*
X011455Y004316D01*
X011329Y004316D01*
X011329Y004442D01*
X011329Y004440D02*
X011455Y004440D01*
X011673Y002019D02*
X011673Y001893D01*
X011547Y001893D01*
X011547Y002019D01*
X011673Y002019D01*
X011673Y002017D02*
X011547Y002017D01*
X011673Y001669D02*
X011673Y001543D01*
X011547Y001543D01*
X011547Y001669D01*
X011673Y001669D01*
X011673Y001667D02*
X011547Y001667D01*
X012697Y001271D02*
X012697Y001145D01*
X012571Y001145D01*
X012571Y001271D01*
X012697Y001271D01*
X012697Y001269D02*
X012571Y001269D01*
X012697Y000921D02*
X012697Y000795D01*
X012571Y000795D01*
X012571Y000921D01*
X012697Y000921D01*
X012697Y000919D02*
X012571Y000919D01*
X013656Y001560D02*
X013782Y001560D01*
X013656Y001560D02*
X013656Y001686D01*
X013782Y001686D01*
X013782Y001560D01*
X013782Y001684D02*
X013656Y001684D01*
X014006Y001560D02*
X014132Y001560D01*
X014006Y001560D02*
X014006Y001686D01*
X014132Y001686D01*
X014132Y001560D01*
X014132Y001684D02*
X014006Y001684D01*
X014154Y001271D02*
X014154Y001145D01*
X014028Y001145D01*
X014028Y001271D01*
X014154Y001271D01*
X014154Y001269D02*
X014028Y001269D01*
X014154Y000921D02*
X014154Y000795D01*
X014028Y000795D01*
X014028Y000921D01*
X014154Y000921D01*
X014154Y000919D02*
X014028Y000919D01*
D29*
X011569Y003683D02*
X011307Y003683D01*
X011569Y003683D02*
X011569Y003421D01*
X011307Y003421D01*
X011307Y003683D01*
X011307Y003508D02*
X011569Y003508D01*
X011569Y003595D02*
X011307Y003595D01*
X011307Y003682D02*
X011569Y003682D01*
X010969Y003683D02*
X010707Y003683D01*
X010969Y003683D02*
X010969Y003421D01*
X010707Y003421D01*
X010707Y003683D01*
X010707Y003508D02*
X010969Y003508D01*
X010969Y003595D02*
X010707Y003595D01*
X010707Y003682D02*
X010969Y003682D01*
X010309Y003683D02*
X010047Y003683D01*
X010309Y003683D02*
X010309Y003421D01*
X010047Y003421D01*
X010047Y003683D01*
X010047Y003508D02*
X010309Y003508D01*
X010309Y003595D02*
X010047Y003595D01*
X010047Y003682D02*
X010309Y003682D01*
X009709Y003683D02*
X009447Y003683D01*
X009709Y003683D02*
X009709Y003421D01*
X009447Y003421D01*
X009447Y003683D01*
X009447Y003508D02*
X009709Y003508D01*
X009709Y003595D02*
X009447Y003595D01*
X009447Y003682D02*
X009709Y003682D01*
X011387Y004814D02*
X011387Y005076D01*
X011387Y004814D02*
X011125Y004814D01*
X011125Y005076D01*
X011387Y005076D01*
X011387Y004901D02*
X011125Y004901D01*
X011125Y004988D02*
X011387Y004988D01*
X011387Y005075D02*
X011125Y005075D01*
X011387Y005414D02*
X011387Y005676D01*
X011387Y005414D02*
X011125Y005414D01*
X011125Y005676D01*
X011387Y005676D01*
X011387Y005501D02*
X011125Y005501D01*
X011125Y005588D02*
X011387Y005588D01*
X011387Y005675D02*
X011125Y005675D01*
X008040Y003078D02*
X008040Y002816D01*
X007778Y002816D01*
X007778Y003078D01*
X008040Y003078D01*
X008040Y002903D02*
X007778Y002903D01*
X007778Y002990D02*
X008040Y002990D01*
X008040Y003077D02*
X007778Y003077D01*
X008040Y002478D02*
X008040Y002216D01*
X007778Y002216D01*
X007778Y002478D01*
X008040Y002478D01*
X008040Y002303D02*
X007778Y002303D01*
X007778Y002390D02*
X008040Y002390D01*
X008040Y002477D02*
X007778Y002477D01*
X006859Y003672D02*
X006859Y003934D01*
X006859Y003672D02*
X006597Y003672D01*
X006597Y003934D01*
X006859Y003934D01*
X006859Y003759D02*
X006597Y003759D01*
X006597Y003846D02*
X006859Y003846D01*
X006859Y003933D02*
X006597Y003933D01*
X006859Y004272D02*
X006859Y004534D01*
X006859Y004272D02*
X006597Y004272D01*
X006597Y004534D01*
X006859Y004534D01*
X006859Y004359D02*
X006597Y004359D01*
X006597Y004446D02*
X006859Y004446D01*
X006859Y004533D02*
X006597Y004533D01*
X006859Y004893D02*
X006859Y005155D01*
X006859Y004893D02*
X006597Y004893D01*
X006597Y005155D01*
X006859Y005155D01*
X006859Y004980D02*
X006597Y004980D01*
X006597Y005067D02*
X006859Y005067D01*
X006859Y005154D02*
X006597Y005154D01*
X006859Y005493D02*
X006859Y005755D01*
X006859Y005493D02*
X006597Y005493D01*
X006597Y005755D01*
X006859Y005755D01*
X006859Y005580D02*
X006597Y005580D01*
X006597Y005667D02*
X006859Y005667D01*
X006859Y005754D02*
X006597Y005754D01*
X004182Y005755D02*
X004182Y005493D01*
X003920Y005493D01*
X003920Y005755D01*
X004182Y005755D01*
X004182Y005580D02*
X003920Y005580D01*
X003920Y005667D02*
X004182Y005667D01*
X004182Y005754D02*
X003920Y005754D01*
X004182Y005155D02*
X004182Y004893D01*
X003920Y004893D01*
X003920Y005155D01*
X004182Y005155D01*
X004182Y004980D02*
X003920Y004980D01*
X003920Y005067D02*
X004182Y005067D01*
X004182Y005154D02*
X003920Y005154D01*
X004182Y004534D02*
X004182Y004272D01*
X003920Y004272D01*
X003920Y004534D01*
X004182Y004534D01*
X004182Y004359D02*
X003920Y004359D01*
X003920Y004446D02*
X004182Y004446D01*
X004182Y004533D02*
X003920Y004533D01*
X004182Y003934D02*
X004182Y003672D01*
X003920Y003672D01*
X003920Y003934D01*
X004182Y003934D01*
X004182Y003759D02*
X003920Y003759D01*
X003920Y003846D02*
X004182Y003846D01*
X004182Y003933D02*
X003920Y003933D01*
D30*
X005016Y002745D03*
X005016Y002548D03*
X005016Y002351D03*
X005016Y002155D03*
X006158Y002155D03*
X006158Y002351D03*
X006158Y002548D03*
X006158Y002745D03*
X007614Y005147D03*
X007614Y005344D03*
X007614Y005540D03*
X007614Y005737D03*
X008756Y005737D03*
X008756Y005540D03*
X008756Y005344D03*
X008756Y005147D03*
X006158Y006485D03*
X006158Y006682D03*
X006158Y006879D03*
X006158Y007076D03*
X005016Y007076D03*
X005016Y006879D03*
X005016Y006682D03*
X005016Y006485D03*
D31*
X005291Y006210D03*
X005488Y006210D03*
X005685Y006210D03*
X005882Y006210D03*
X005882Y007351D03*
X005685Y007351D03*
X005488Y007351D03*
X005291Y007351D03*
X007890Y006013D03*
X008087Y006013D03*
X008283Y006013D03*
X008480Y006013D03*
X008480Y004871D03*
X008283Y004871D03*
X008087Y004871D03*
X007890Y004871D03*
X005882Y003021D03*
X005685Y003021D03*
X005488Y003021D03*
X005291Y003021D03*
X005291Y001879D03*
X005488Y001879D03*
X005685Y001879D03*
X005882Y001879D03*
D32*
X005587Y002450D03*
X008185Y005442D03*
X005587Y006781D03*
D33*
X002071Y001958D03*
X002071Y002214D03*
X002071Y002470D03*
X002898Y002470D03*
X002898Y002214D03*
X002898Y001958D03*
D34*
X002811Y006603D03*
X003067Y006603D03*
X003323Y006603D03*
X003323Y007430D03*
X003067Y007430D03*
X002811Y007430D03*
D35*
X005024Y005785D02*
X005024Y005485D01*
X004574Y005485D01*
X004574Y005785D01*
X005024Y005785D01*
X005024Y005584D02*
X004574Y005584D01*
X004574Y005683D02*
X005024Y005683D01*
X005024Y005782D02*
X004574Y005782D01*
X005024Y005085D02*
X005024Y004785D01*
X004574Y004785D01*
X004574Y005085D01*
X005024Y005085D01*
X005024Y004884D02*
X004574Y004884D01*
X004574Y004983D02*
X005024Y004983D01*
X005024Y005082D02*
X004574Y005082D01*
D36*
X011650Y007546D02*
X011650Y007649D01*
X011744Y007649D01*
X011803Y007590D01*
X011803Y007546D01*
X011650Y007546D01*
X011650Y007547D02*
X011803Y007547D01*
X011803Y007549D02*
X011650Y007549D01*
X011650Y007552D02*
X011803Y007552D01*
X011803Y007554D02*
X011650Y007554D01*
X011650Y007557D02*
X011803Y007557D01*
X011803Y007559D02*
X011650Y007559D01*
X011650Y007561D02*
X011803Y007561D01*
X011803Y007564D02*
X011650Y007564D01*
X011650Y007566D02*
X011803Y007566D01*
X011803Y007569D02*
X011650Y007569D01*
X011650Y007571D02*
X011803Y007571D01*
X011803Y007574D02*
X011650Y007574D01*
X011650Y007576D02*
X011803Y007576D01*
X011803Y007578D02*
X011650Y007578D01*
X011650Y007581D02*
X011803Y007581D01*
X011803Y007583D02*
X011650Y007583D01*
X011650Y007586D02*
X011803Y007586D01*
X011803Y007588D02*
X011650Y007588D01*
X011650Y007591D02*
X011802Y007591D01*
X011800Y007593D02*
X011650Y007593D01*
X011650Y007596D02*
X011797Y007596D01*
X011795Y007598D02*
X011650Y007598D01*
X011650Y007600D02*
X011792Y007600D01*
X011790Y007603D02*
X011650Y007603D01*
X011650Y007605D02*
X011788Y007605D01*
X011785Y007608D02*
X011650Y007608D01*
X011650Y007610D02*
X011783Y007610D01*
X011780Y007613D02*
X011650Y007613D01*
X011650Y007615D02*
X011778Y007615D01*
X011775Y007617D02*
X011650Y007617D01*
X011650Y007620D02*
X011773Y007620D01*
X011770Y007622D02*
X011650Y007622D01*
X011650Y007625D02*
X011768Y007625D01*
X011766Y007627D02*
X011650Y007627D01*
X011650Y007630D02*
X011763Y007630D01*
X011761Y007632D02*
X011650Y007632D01*
X011650Y007635D02*
X011758Y007635D01*
X011756Y007637D02*
X011650Y007637D01*
X011650Y007639D02*
X011753Y007639D01*
X011751Y007642D02*
X011650Y007642D01*
X011650Y007644D02*
X011749Y007644D01*
X011746Y007647D02*
X011650Y007647D01*
X011650Y007802D02*
X011650Y007905D01*
X011803Y007905D01*
X011803Y007861D01*
X011650Y007861D01*
X011650Y007859D02*
X011801Y007859D01*
X011803Y007861D02*
X011744Y007802D01*
X011650Y007802D01*
X011650Y007803D02*
X011745Y007803D01*
X011747Y007805D02*
X011650Y007805D01*
X011650Y007808D02*
X011749Y007808D01*
X011752Y007810D02*
X011650Y007810D01*
X011650Y007812D02*
X011754Y007812D01*
X011757Y007815D02*
X011650Y007815D01*
X011650Y007817D02*
X011759Y007817D01*
X011762Y007820D02*
X011650Y007820D01*
X011650Y007822D02*
X011764Y007822D01*
X011767Y007825D02*
X011650Y007825D01*
X011650Y007827D02*
X011769Y007827D01*
X011771Y007830D02*
X011650Y007830D01*
X011650Y007832D02*
X011774Y007832D01*
X011776Y007834D02*
X011650Y007834D01*
X011650Y007837D02*
X011779Y007837D01*
X011781Y007839D02*
X011650Y007839D01*
X011650Y007842D02*
X011784Y007842D01*
X011786Y007844D02*
X011650Y007844D01*
X011650Y007847D02*
X011788Y007847D01*
X011791Y007849D02*
X011650Y007849D01*
X011650Y007851D02*
X011793Y007851D01*
X011796Y007854D02*
X011650Y007854D01*
X011650Y007856D02*
X011798Y007856D01*
X011803Y007864D02*
X011650Y007864D01*
X011650Y007866D02*
X011803Y007866D01*
X011803Y007869D02*
X011650Y007869D01*
X011650Y007871D02*
X011803Y007871D01*
X011803Y007873D02*
X011650Y007873D01*
X011650Y007876D02*
X011803Y007876D01*
X011803Y007878D02*
X011650Y007878D01*
X011650Y007881D02*
X011803Y007881D01*
X011803Y007883D02*
X011650Y007883D01*
X011650Y007886D02*
X011803Y007886D01*
X011803Y007888D02*
X011650Y007888D01*
X011650Y007890D02*
X011803Y007890D01*
X011803Y007893D02*
X011650Y007893D01*
X011650Y007895D02*
X011803Y007895D01*
X011803Y007898D02*
X011650Y007898D01*
X011650Y007900D02*
X011803Y007900D01*
X011803Y007903D02*
X011650Y007903D01*
X011969Y007903D02*
X012122Y007903D01*
X012122Y007905D02*
X012122Y007802D01*
X012028Y007802D01*
X011969Y007861D01*
X012122Y007861D01*
X012122Y007859D02*
X011971Y007859D01*
X011969Y007861D02*
X011969Y007905D01*
X012122Y007905D01*
X012122Y007900D02*
X011969Y007900D01*
X011969Y007898D02*
X012122Y007898D01*
X012122Y007895D02*
X011969Y007895D01*
X011969Y007893D02*
X012122Y007893D01*
X012122Y007890D02*
X011969Y007890D01*
X011969Y007888D02*
X012122Y007888D01*
X012122Y007886D02*
X011969Y007886D01*
X011969Y007883D02*
X012122Y007883D01*
X012122Y007881D02*
X011969Y007881D01*
X011969Y007878D02*
X012122Y007878D01*
X012122Y007876D02*
X011969Y007876D01*
X011969Y007873D02*
X012122Y007873D01*
X012122Y007871D02*
X011969Y007871D01*
X011969Y007869D02*
X012122Y007869D01*
X012122Y007866D02*
X011969Y007866D01*
X011969Y007864D02*
X012122Y007864D01*
X012122Y007856D02*
X011974Y007856D01*
X011976Y007854D02*
X012122Y007854D01*
X012122Y007851D02*
X011978Y007851D01*
X011981Y007849D02*
X012122Y007849D01*
X012122Y007847D02*
X011983Y007847D01*
X011986Y007844D02*
X012122Y007844D01*
X012122Y007842D02*
X011988Y007842D01*
X011991Y007839D02*
X012122Y007839D01*
X012122Y007837D02*
X011993Y007837D01*
X011995Y007834D02*
X012122Y007834D01*
X012122Y007832D02*
X011998Y007832D01*
X012000Y007830D02*
X012122Y007830D01*
X012122Y007827D02*
X012003Y007827D01*
X012005Y007825D02*
X012122Y007825D01*
X012122Y007822D02*
X012008Y007822D01*
X012010Y007820D02*
X012122Y007820D01*
X012122Y007817D02*
X012013Y007817D01*
X012015Y007815D02*
X012122Y007815D01*
X012122Y007812D02*
X012017Y007812D01*
X012020Y007810D02*
X012122Y007810D01*
X012122Y007808D02*
X012022Y007808D01*
X012025Y007805D02*
X012122Y007805D01*
X012122Y007803D02*
X012027Y007803D01*
X012028Y007649D02*
X012122Y007649D01*
X012122Y007546D01*
X011969Y007546D01*
X011969Y007590D01*
X012028Y007649D01*
X012026Y007647D02*
X012122Y007647D01*
X012122Y007644D02*
X012023Y007644D01*
X012021Y007642D02*
X012122Y007642D01*
X012122Y007639D02*
X012018Y007639D01*
X012016Y007637D02*
X012122Y007637D01*
X012122Y007635D02*
X012013Y007635D01*
X012011Y007632D02*
X012122Y007632D01*
X012122Y007630D02*
X012009Y007630D01*
X012006Y007627D02*
X012122Y007627D01*
X012122Y007625D02*
X012004Y007625D01*
X012001Y007622D02*
X012122Y007622D01*
X012122Y007620D02*
X011999Y007620D01*
X011996Y007617D02*
X012122Y007617D01*
X012122Y007615D02*
X011994Y007615D01*
X011991Y007613D02*
X012122Y007613D01*
X012122Y007610D02*
X011989Y007610D01*
X011987Y007608D02*
X012122Y007608D01*
X012122Y007605D02*
X011984Y007605D01*
X011982Y007603D02*
X012122Y007603D01*
X012122Y007600D02*
X011979Y007600D01*
X011977Y007598D02*
X012122Y007598D01*
X012122Y007596D02*
X011974Y007596D01*
X011972Y007593D02*
X012122Y007593D01*
X012122Y007591D02*
X011970Y007591D01*
X011969Y007588D02*
X012122Y007588D01*
X012122Y007586D02*
X011969Y007586D01*
X011969Y007583D02*
X012122Y007583D01*
X012122Y007581D02*
X011969Y007581D01*
X011969Y007578D02*
X012122Y007578D01*
X012122Y007576D02*
X011969Y007576D01*
X011969Y007574D02*
X012122Y007574D01*
X012122Y007571D02*
X011969Y007571D01*
X011969Y007569D02*
X012122Y007569D01*
X012122Y007566D02*
X011969Y007566D01*
X011969Y007564D02*
X012122Y007564D01*
X012122Y007561D02*
X011969Y007561D01*
X011969Y007559D02*
X012122Y007559D01*
X012122Y007557D02*
X011969Y007557D01*
X011969Y007554D02*
X012122Y007554D01*
X012122Y007552D02*
X011969Y007552D01*
X011969Y007549D02*
X012122Y007549D01*
X012122Y007547D02*
X011969Y007547D01*
X018028Y001487D02*
X018028Y001385D01*
X018122Y001385D01*
X018181Y001444D01*
X018028Y001444D01*
X018028Y001446D02*
X018181Y001446D01*
X018181Y001444D02*
X018181Y001487D01*
X018028Y001487D01*
X018028Y001485D02*
X018181Y001485D01*
X018181Y001483D02*
X018028Y001483D01*
X018028Y001480D02*
X018181Y001480D01*
X018181Y001478D02*
X018028Y001478D01*
X018028Y001476D02*
X018181Y001476D01*
X018181Y001473D02*
X018028Y001473D01*
X018028Y001471D02*
X018181Y001471D01*
X018181Y001468D02*
X018028Y001468D01*
X018028Y001466D02*
X018181Y001466D01*
X018181Y001463D02*
X018028Y001463D01*
X018028Y001461D02*
X018181Y001461D01*
X018181Y001459D02*
X018028Y001459D01*
X018028Y001456D02*
X018181Y001456D01*
X018181Y001454D02*
X018028Y001454D01*
X018028Y001451D02*
X018181Y001451D01*
X018181Y001449D02*
X018028Y001449D01*
X018028Y001441D02*
X018179Y001441D01*
X018176Y001439D02*
X018028Y001439D01*
X018028Y001437D02*
X018174Y001437D01*
X018171Y001434D02*
X018028Y001434D01*
X018028Y001432D02*
X018169Y001432D01*
X018166Y001429D02*
X018028Y001429D01*
X018028Y001427D02*
X018164Y001427D01*
X018162Y001424D02*
X018028Y001424D01*
X018028Y001422D02*
X018159Y001422D01*
X018157Y001420D02*
X018028Y001420D01*
X018028Y001417D02*
X018154Y001417D01*
X018152Y001415D02*
X018028Y001415D01*
X018028Y001412D02*
X018149Y001412D01*
X018147Y001410D02*
X018028Y001410D01*
X018028Y001407D02*
X018145Y001407D01*
X018142Y001405D02*
X018028Y001405D01*
X018028Y001402D02*
X018140Y001402D01*
X018137Y001400D02*
X018028Y001400D01*
X018028Y001398D02*
X018135Y001398D01*
X018132Y001395D02*
X018028Y001395D01*
X018028Y001393D02*
X018130Y001393D01*
X018127Y001390D02*
X018028Y001390D01*
X018028Y001388D02*
X018125Y001388D01*
X018123Y001385D02*
X018028Y001385D01*
X018028Y001231D02*
X018028Y001129D01*
X018181Y001129D01*
X018181Y001172D01*
X018122Y001231D01*
X018028Y001231D01*
X018028Y001229D02*
X018124Y001229D01*
X018126Y001227D02*
X018028Y001227D01*
X018028Y001225D02*
X018129Y001225D01*
X018131Y001222D02*
X018028Y001222D01*
X018028Y001220D02*
X018134Y001220D01*
X018136Y001217D02*
X018028Y001217D01*
X018028Y001215D02*
X018139Y001215D01*
X018141Y001212D02*
X018028Y001212D01*
X018028Y001210D02*
X018144Y001210D01*
X018146Y001207D02*
X018028Y001207D01*
X018028Y001205D02*
X018148Y001205D01*
X018151Y001203D02*
X018028Y001203D01*
X018028Y001200D02*
X018153Y001200D01*
X018156Y001198D02*
X018028Y001198D01*
X018028Y001195D02*
X018158Y001195D01*
X018161Y001193D02*
X018028Y001193D01*
X018028Y001190D02*
X018163Y001190D01*
X018165Y001188D02*
X018028Y001188D01*
X018028Y001186D02*
X018168Y001186D01*
X018170Y001183D02*
X018028Y001183D01*
X018028Y001181D02*
X018173Y001181D01*
X018175Y001178D02*
X018028Y001178D01*
X018028Y001176D02*
X018178Y001176D01*
X018180Y001173D02*
X018028Y001173D01*
X018028Y001171D02*
X018181Y001171D01*
X018181Y001169D02*
X018028Y001169D01*
X018028Y001166D02*
X018181Y001166D01*
X018181Y001164D02*
X018028Y001164D01*
X018028Y001161D02*
X018181Y001161D01*
X018181Y001159D02*
X018028Y001159D01*
X018028Y001156D02*
X018181Y001156D01*
X018181Y001154D02*
X018028Y001154D01*
X018028Y001151D02*
X018181Y001151D01*
X018181Y001149D02*
X018028Y001149D01*
X018028Y001147D02*
X018181Y001147D01*
X018181Y001144D02*
X018028Y001144D01*
X018028Y001142D02*
X018181Y001142D01*
X018181Y001139D02*
X018028Y001139D01*
X018028Y001137D02*
X018181Y001137D01*
X018181Y001134D02*
X018028Y001134D01*
X018028Y001132D02*
X018181Y001132D01*
X018181Y001130D02*
X018028Y001130D01*
X018346Y001130D02*
X018500Y001130D01*
X018500Y001129D02*
X018500Y001231D01*
X018406Y001231D01*
X018346Y001172D01*
X018346Y001129D01*
X018500Y001129D01*
X018500Y001132D02*
X018346Y001132D01*
X018346Y001134D02*
X018500Y001134D01*
X018500Y001137D02*
X018346Y001137D01*
X018346Y001139D02*
X018500Y001139D01*
X018500Y001142D02*
X018346Y001142D01*
X018346Y001144D02*
X018500Y001144D01*
X018500Y001147D02*
X018346Y001147D01*
X018346Y001149D02*
X018500Y001149D01*
X018500Y001151D02*
X018346Y001151D01*
X018346Y001154D02*
X018500Y001154D01*
X018500Y001156D02*
X018346Y001156D01*
X018346Y001159D02*
X018500Y001159D01*
X018500Y001161D02*
X018346Y001161D01*
X018346Y001164D02*
X018500Y001164D01*
X018500Y001166D02*
X018346Y001166D01*
X018346Y001169D02*
X018500Y001169D01*
X018500Y001171D02*
X018346Y001171D01*
X018348Y001173D02*
X018500Y001173D01*
X018500Y001176D02*
X018350Y001176D01*
X018352Y001178D02*
X018500Y001178D01*
X018500Y001181D02*
X018355Y001181D01*
X018357Y001183D02*
X018500Y001183D01*
X018500Y001186D02*
X018360Y001186D01*
X018362Y001188D02*
X018500Y001188D01*
X018500Y001190D02*
X018365Y001190D01*
X018367Y001193D02*
X018500Y001193D01*
X018500Y001195D02*
X018369Y001195D01*
X018372Y001198D02*
X018500Y001198D01*
X018500Y001200D02*
X018374Y001200D01*
X018377Y001203D02*
X018500Y001203D01*
X018500Y001205D02*
X018379Y001205D01*
X018382Y001207D02*
X018500Y001207D01*
X018500Y001210D02*
X018384Y001210D01*
X018387Y001212D02*
X018500Y001212D01*
X018500Y001215D02*
X018389Y001215D01*
X018391Y001217D02*
X018500Y001217D01*
X018500Y001220D02*
X018394Y001220D01*
X018396Y001222D02*
X018500Y001222D01*
X018500Y001225D02*
X018399Y001225D01*
X018401Y001227D02*
X018500Y001227D01*
X018500Y001229D02*
X018404Y001229D01*
X018406Y001385D02*
X018500Y001385D01*
X018500Y001487D01*
X018346Y001487D01*
X018346Y001444D01*
X018406Y001385D01*
X018405Y001385D02*
X018500Y001385D01*
X018500Y001388D02*
X018403Y001388D01*
X018400Y001390D02*
X018500Y001390D01*
X018500Y001393D02*
X018398Y001393D01*
X018395Y001395D02*
X018500Y001395D01*
X018500Y001398D02*
X018393Y001398D01*
X018390Y001400D02*
X018500Y001400D01*
X018500Y001402D02*
X018388Y001402D01*
X018386Y001405D02*
X018500Y001405D01*
X018500Y001407D02*
X018383Y001407D01*
X018381Y001410D02*
X018500Y001410D01*
X018500Y001412D02*
X018378Y001412D01*
X018376Y001415D02*
X018500Y001415D01*
X018500Y001417D02*
X018373Y001417D01*
X018371Y001420D02*
X018500Y001420D01*
X018500Y001422D02*
X018368Y001422D01*
X018366Y001424D02*
X018500Y001424D01*
X018500Y001427D02*
X018364Y001427D01*
X018361Y001429D02*
X018500Y001429D01*
X018500Y001432D02*
X018359Y001432D01*
X018356Y001434D02*
X018500Y001434D01*
X018500Y001437D02*
X018354Y001437D01*
X018351Y001439D02*
X018500Y001439D01*
X018500Y001441D02*
X018349Y001441D01*
X018347Y001444D02*
X018500Y001444D01*
X018500Y001446D02*
X018346Y001446D01*
X018346Y001449D02*
X018500Y001449D01*
X018500Y001451D02*
X018346Y001451D01*
X018346Y001454D02*
X018500Y001454D01*
X018500Y001456D02*
X018346Y001456D01*
X018346Y001459D02*
X018500Y001459D01*
X018500Y001461D02*
X018346Y001461D01*
X018346Y001463D02*
X018500Y001463D01*
X018500Y001466D02*
X018346Y001466D01*
X018346Y001468D02*
X018500Y001468D01*
X018500Y001471D02*
X018346Y001471D01*
X018346Y001473D02*
X018500Y001473D01*
X018500Y001476D02*
X018346Y001476D01*
X018346Y001478D02*
X018500Y001478D01*
X018500Y001480D02*
X018346Y001480D01*
X018346Y001483D02*
X018500Y001483D01*
X018500Y001485D02*
X018346Y001485D01*
X015902Y014239D02*
X015902Y014342D01*
X015807Y014342D01*
X015748Y014283D01*
X015748Y014239D01*
X015902Y014239D01*
X015748Y014239D01*
X015748Y014242D02*
X015902Y014242D01*
X015902Y014244D02*
X015748Y014244D01*
X015748Y014247D02*
X015902Y014247D01*
X015902Y014249D02*
X015748Y014249D01*
X015748Y014252D02*
X015902Y014252D01*
X015902Y014254D02*
X015748Y014254D01*
X015748Y014257D02*
X015902Y014257D01*
X015902Y014259D02*
X015748Y014259D01*
X015748Y014261D02*
X015902Y014261D01*
X015902Y014264D02*
X015748Y014264D01*
X015748Y014266D02*
X015902Y014266D01*
X015902Y014269D02*
X015748Y014269D01*
X015748Y014271D02*
X015902Y014271D01*
X015902Y014274D02*
X015748Y014274D01*
X015748Y014276D02*
X015902Y014276D01*
X015902Y014278D02*
X015748Y014278D01*
X015748Y014281D02*
X015902Y014281D01*
X015902Y014283D02*
X015749Y014283D01*
X015751Y014286D02*
X015902Y014286D01*
X015902Y014288D02*
X015754Y014288D01*
X015756Y014291D02*
X015902Y014291D01*
X015902Y014293D02*
X015759Y014293D01*
X015761Y014296D02*
X015902Y014296D01*
X015902Y014298D02*
X015763Y014298D01*
X015766Y014300D02*
X015902Y014300D01*
X015902Y014303D02*
X015768Y014303D01*
X015771Y014305D02*
X015902Y014305D01*
X015902Y014308D02*
X015773Y014308D01*
X015776Y014310D02*
X015902Y014310D01*
X015902Y014313D02*
X015778Y014313D01*
X015781Y014315D02*
X015902Y014315D01*
X015902Y014317D02*
X015783Y014317D01*
X015785Y014320D02*
X015902Y014320D01*
X015902Y014322D02*
X015788Y014322D01*
X015790Y014325D02*
X015902Y014325D01*
X015902Y014327D02*
X015793Y014327D01*
X015795Y014330D02*
X015902Y014330D01*
X015902Y014332D02*
X015798Y014332D01*
X015800Y014335D02*
X015902Y014335D01*
X015902Y014337D02*
X015802Y014337D01*
X015805Y014339D02*
X015902Y014339D01*
X015902Y014495D02*
X015902Y014598D01*
X015748Y014598D01*
X015748Y014554D01*
X015807Y014495D01*
X015902Y014495D01*
X015807Y014495D01*
X015804Y014498D02*
X015902Y014498D01*
X015902Y014500D02*
X015802Y014500D01*
X015800Y014503D02*
X015902Y014503D01*
X015902Y014505D02*
X015797Y014505D01*
X015795Y014508D02*
X015902Y014508D01*
X015902Y014510D02*
X015792Y014510D01*
X015790Y014512D02*
X015902Y014512D01*
X015902Y014515D02*
X015787Y014515D01*
X015785Y014517D02*
X015902Y014517D01*
X015902Y014520D02*
X015782Y014520D01*
X015780Y014522D02*
X015902Y014522D01*
X015902Y014525D02*
X015778Y014525D01*
X015775Y014527D02*
X015902Y014527D01*
X015902Y014530D02*
X015773Y014530D01*
X015770Y014532D02*
X015902Y014532D01*
X015902Y014534D02*
X015768Y014534D01*
X015765Y014537D02*
X015902Y014537D01*
X015902Y014539D02*
X015763Y014539D01*
X015761Y014542D02*
X015902Y014542D01*
X015902Y014544D02*
X015758Y014544D01*
X015756Y014547D02*
X015902Y014547D01*
X015902Y014549D02*
X015753Y014549D01*
X015751Y014551D02*
X015902Y014551D01*
X015902Y014554D02*
X015748Y014554D01*
X015748Y014556D02*
X015902Y014556D01*
X015902Y014559D02*
X015748Y014559D01*
X015748Y014561D02*
X015902Y014561D01*
X015902Y014564D02*
X015748Y014564D01*
X015748Y014566D02*
X015902Y014566D01*
X015902Y014569D02*
X015748Y014569D01*
X015748Y014571D02*
X015902Y014571D01*
X015902Y014573D02*
X015748Y014573D01*
X015748Y014576D02*
X015902Y014576D01*
X015902Y014578D02*
X015748Y014578D01*
X015748Y014581D02*
X015902Y014581D01*
X015902Y014583D02*
X015748Y014583D01*
X015748Y014586D02*
X015902Y014586D01*
X015902Y014588D02*
X015748Y014588D01*
X015748Y014590D02*
X015902Y014590D01*
X015902Y014593D02*
X015748Y014593D01*
X015748Y014595D02*
X015902Y014595D01*
X015583Y014595D02*
X015429Y014595D01*
X015429Y014593D02*
X015583Y014593D01*
X015583Y014590D02*
X015429Y014590D01*
X015429Y014588D02*
X015583Y014588D01*
X015583Y014586D02*
X015429Y014586D01*
X015429Y014583D02*
X015583Y014583D01*
X015583Y014581D02*
X015429Y014581D01*
X015429Y014578D02*
X015583Y014578D01*
X015583Y014576D02*
X015429Y014576D01*
X015429Y014573D02*
X015583Y014573D01*
X015583Y014571D02*
X015429Y014571D01*
X015429Y014569D02*
X015583Y014569D01*
X015583Y014566D02*
X015429Y014566D01*
X015429Y014564D02*
X015583Y014564D01*
X015583Y014561D02*
X015429Y014561D01*
X015429Y014559D02*
X015583Y014559D01*
X015583Y014556D02*
X015429Y014556D01*
X015429Y014554D02*
X015582Y014554D01*
X015583Y014554D02*
X015524Y014495D01*
X015429Y014495D01*
X015429Y014598D01*
X015583Y014598D01*
X015583Y014554D01*
X015580Y014551D02*
X015429Y014551D01*
X015429Y014549D02*
X015578Y014549D01*
X015575Y014547D02*
X015429Y014547D01*
X015429Y014544D02*
X015573Y014544D01*
X015570Y014542D02*
X015429Y014542D01*
X015429Y014539D02*
X015568Y014539D01*
X015565Y014537D02*
X015429Y014537D01*
X015429Y014534D02*
X015563Y014534D01*
X015560Y014532D02*
X015429Y014532D01*
X015429Y014530D02*
X015558Y014530D01*
X015556Y014527D02*
X015429Y014527D01*
X015429Y014525D02*
X015553Y014525D01*
X015551Y014522D02*
X015429Y014522D01*
X015429Y014520D02*
X015548Y014520D01*
X015546Y014517D02*
X015429Y014517D01*
X015429Y014515D02*
X015543Y014515D01*
X015541Y014512D02*
X015429Y014512D01*
X015429Y014510D02*
X015539Y014510D01*
X015536Y014508D02*
X015429Y014508D01*
X015429Y014505D02*
X015534Y014505D01*
X015531Y014503D02*
X015429Y014503D01*
X015429Y014500D02*
X015529Y014500D01*
X015526Y014498D02*
X015429Y014498D01*
X015429Y014495D02*
X015524Y014495D01*
X015524Y014342D02*
X015429Y014342D01*
X015429Y014239D01*
X015583Y014239D01*
X015583Y014283D01*
X015524Y014342D01*
X015526Y014339D02*
X015429Y014339D01*
X015429Y014337D02*
X015528Y014337D01*
X015531Y014335D02*
X015429Y014335D01*
X015429Y014332D02*
X015533Y014332D01*
X015536Y014330D02*
X015429Y014330D01*
X015429Y014327D02*
X015538Y014327D01*
X015540Y014325D02*
X015429Y014325D01*
X015429Y014322D02*
X015543Y014322D01*
X015545Y014320D02*
X015429Y014320D01*
X015429Y014317D02*
X015548Y014317D01*
X015550Y014315D02*
X015429Y014315D01*
X015429Y014313D02*
X015553Y014313D01*
X015555Y014310D02*
X015429Y014310D01*
X015429Y014308D02*
X015558Y014308D01*
X015560Y014305D02*
X015429Y014305D01*
X015429Y014303D02*
X015562Y014303D01*
X015565Y014300D02*
X015429Y014300D01*
X015429Y014298D02*
X015567Y014298D01*
X015570Y014296D02*
X015429Y014296D01*
X015429Y014293D02*
X015572Y014293D01*
X015575Y014291D02*
X015429Y014291D01*
X015429Y014288D02*
X015577Y014288D01*
X015579Y014286D02*
X015429Y014286D01*
X015429Y014283D02*
X015582Y014283D01*
X015583Y014281D02*
X015429Y014281D01*
X015429Y014278D02*
X015583Y014278D01*
X015583Y014276D02*
X015429Y014276D01*
X015429Y014274D02*
X015583Y014274D01*
X015583Y014271D02*
X015429Y014271D01*
X015429Y014269D02*
X015583Y014269D01*
X015583Y014266D02*
X015429Y014266D01*
X015429Y014264D02*
X015583Y014264D01*
X015583Y014261D02*
X015429Y014261D01*
X015429Y014259D02*
X015583Y014259D01*
X015583Y014257D02*
X015429Y014257D01*
X015429Y014254D02*
X015583Y014254D01*
X015583Y014252D02*
X015429Y014252D01*
X015429Y014249D02*
X015583Y014249D01*
X015583Y014247D02*
X015429Y014247D01*
X015429Y014244D02*
X015583Y014244D01*
X015583Y014242D02*
X015429Y014242D01*
X015429Y014239D02*
X015583Y014239D01*
D37*
G36*
X015809Y014418D02*
X015665Y014274D01*
X015521Y014418D01*
X015665Y014562D01*
X015809Y014418D01*
G37*
G36*
X011742Y007725D02*
X011886Y007869D01*
X012030Y007725D01*
X011886Y007581D01*
X011742Y007725D01*
G37*
G36*
X018408Y001308D02*
X018264Y001164D01*
X018120Y001308D01*
X018264Y001452D01*
X018408Y001308D01*
G37*
D38*
X011162Y007804D03*
X010562Y007804D03*
X015405Y015009D03*
X016005Y015009D03*
D39*
X004427Y001143D03*
X003345Y001143D03*
D40*
X003886Y001743D03*
X003886Y000542D03*
D41*
X005095Y016367D03*
X005095Y016741D03*
X005095Y017115D03*
X006079Y017115D03*
X006079Y016741D03*
X006079Y016367D03*
D42*
X004307Y012607D03*
X003717Y012607D03*
X003717Y012017D03*
X004307Y012017D03*
D43*
X002098Y004084D03*
D44*
X002776Y004084D03*
X002776Y004989D03*
X002020Y004989D03*
D45*
X017614Y013099D03*
X017614Y013296D03*
X017614Y013493D03*
X017614Y013690D03*
X018047Y013690D03*
X018047Y013493D03*
X018047Y013296D03*
X018047Y013099D03*
X018047Y014281D03*
X018047Y014477D03*
X018047Y014674D03*
X018047Y014871D03*
X017614Y014871D03*
X017614Y014674D03*
X017614Y014477D03*
X017614Y014281D03*
X017929Y016111D03*
X017929Y016308D03*
X017929Y016505D03*
X017929Y016702D03*
X018362Y016702D03*
X018362Y016505D03*
X018362Y016308D03*
X018362Y016111D03*
D46*
X012024Y015245D03*
X011276Y015245D03*
D47*
X011610Y012942D03*
X011610Y012194D03*
D48*
X004579Y010940D03*
X004079Y010940D03*
X003579Y010940D03*
X003079Y010940D03*
X002579Y010940D03*
X002579Y009550D03*
X003079Y009550D03*
X003579Y009550D03*
X004079Y009550D03*
X004579Y009550D03*
D49*
X008500Y011151D03*
X008500Y011544D03*
X008500Y011938D03*
X008500Y012332D03*
X008500Y012725D03*
X008500Y013119D03*
X008500Y013513D03*
X008500Y013907D03*
X008500Y014300D03*
X008500Y014694D03*
D50*
X009583Y015536D03*
X009583Y010245D03*
M02*
